<svg width="18" height="13" viewBox="0 0 18 13" fill="none" xmlns="http://www.w3.org/2000/svg">
<path fill-rule="evenodd" clip-rule="evenodd" d="M4.19317 5.24649H16.8C17.4627 5.24649 18 5.78375 18 6.44649V6.55351C18 7.21625 17.4627 7.75351 16.8 7.75351H4.19317L7.26961 10.8299C7.73824 11.2986 7.73824 12.0584 7.26961 12.527L7.19394 12.6027C6.72531 13.0713 5.96551 13.0713 5.49688 12.6027L0.829977 7.93577C0.725358 7.83115 0.644095 7.71202 0.586187 7.58485C0.235137 7.37547 0 6.99195 0 6.55351V6.44649C0 6.00805 0.235137 5.62453 0.586187 5.41515C0.644095 5.28798 0.725358 5.16885 0.829977 5.06423L5.49688 0.397328C5.96551 -0.0713013 6.72531 -0.0713012 7.19394 0.397328L7.26961 0.472998C7.73824 0.941628 7.73824 1.70143 7.26961 2.17006L4.19317 5.24649Z" fill="#fff"/>
</svg>
