<?xml version="1.0" encoding="utf-8"?>
<!-- Generator: Adobe Illustrator 16.0.0, SVG Export Plug-In . SVG Version: 6.00 Build 0)  -->
<!DOCTYPE svg PUBLIC "-//W3C//DTD SVG 1.1//EN" "http://www.w3.org/Graphics/SVG/1.1/DTD/svg11.dtd">
<svg version="1.1" id="Layer_1" xmlns="http://www.w3.org/2000/svg" xmlns:xlink="http://www.w3.org/1999/xlink" x="0px" y="0px"
	 width="1749px" height="249px" viewBox="0 0 1749 249" enable-background="new 0 0 1749 249" xml:space="preserve">
<path id="Fill_1380" fill="#333333" d="M221.999,237.891c110.182,0,199.501,2.351,199.501,5.248c0,2.899-89.319,5.252-199.501,5.252
	c-110.18,0-199.499-2.353-199.499-5.252C22.5,240.24,111.819,237.891,221.999,237.891z"/>
<path id="Fill_2494" fill="#1A1A1A" d="M375.777,114.642c35.791-0.233,64.987,28.451,65.222,64.066
	c0.231,35.612-28.592,64.672-64.378,64.901c-35.789,0.232-64.99-28.449-65.219-64.064
	C311.167,143.932,339.991,114.873,375.777,114.642z M375.94,139.4c22.046-0.144,40.036,17.526,40.177,39.469
	c0.144,21.939-17.612,39.84-39.659,39.982c-22.046,0.144-40.036-17.526-40.177-39.47C336.135,157.443,353.893,139.543,375.94,139.4z
	"/>
<path id="Fill_2495" fill="#333333" d="M316.2,193.034c5.834,26.354,29.32,45.983,57.282,45.8
	c32.199-0.21,58.126-26.605,57.917-58.957c-0.074-11.751-3.594-22.667-9.578-31.799c-1.581,7.941-4.509,15.396-8.529,22.12
	c0.8,3.131,1.235,6.409,1.257,9.791c0.146,22.269-17.706,40.438-39.869,40.583c-13.873,0.09-26.146-6.9-33.425-17.607
	C332.168,201.309,323.693,197.876,316.2,193.034z"/>
<path id="Fill_2496" fill="#808080" d="M375.887,131.359c26.513-0.17,48.142,21.074,48.313,47.455
	c0.173,26.381-21.179,47.908-47.688,48.078c-26.511,0.17-48.14-21.074-48.311-47.457
	C328.027,153.057,349.378,131.531,375.887,131.359z M375.938,139.02c22.259-0.145,40.422,17.694,40.564,39.849
	c0.145,22.149-17.782,40.222-40.04,40.364c-22.259,0.146-40.423-17.693-40.565-39.848
	C335.75,157.234,353.679,139.163,375.938,139.02z"/>
<path id="Fill_2497" fill="#808080" d="M376.044,155.243c13.254-0.089,24.069,10.536,24.155,23.728
	c0.086,13.19-10.59,23.953-23.844,24.038s-24.069-10.536-24.155-23.727C352.115,166.089,362.79,155.329,376.044,155.243z"/>
<path id="Fill_2498" fill="#808080" d="M397.565,144.807l-13.325,20.524l8.493,9.048L417,174.652l-0.369,5.061l-26.87,0.957
	l-1.139,10.328l13.394,21.154l-2.195,2.242l-17.197-19.515l-12.427,3.929l-6.28,23.309l-4.626-1.186l5.057-25.527l-8.879-6.617
	l-22.431,10.262l-2.436-3.828l21.821-11.27l4.324-9.997l-22.034-9.181l2.918-3.101l21.411,6.979l3.475-8.033l-5.176-23.844
	l4.817-0.641l7.799,25.645l9.635-0.869l14.945-18.715C394.535,142.195,397.364,144.809,397.565,144.807z"/>
<path id="Fill_2499" fill="#1A1A1A" d="M337.8,138.375l29.462,45.861l6.923,2.055l7.14-3.814l2.075-6.313l-24.135-56.746
	C359.265,119.417,338.305,137.366,337.8,138.375z"/>
<path id="Fill_2500" fill="#1A1A1A" d="M69.756,107.477c37.777-0.244,68.597,30.033,68.843,67.625
	c0.246,37.594-30.177,68.268-67.952,68.508c-37.778,0.246-68.6-30.028-68.846-67.623C1.556,138.395,31.981,107.722,69.756,107.477z
	 M69.927,133.614c23.272-0.151,42.261,18.497,42.41,41.657c0.152,23.16-18.591,42.054-41.861,42.205
	c-23.274,0.149-42.261-18.502-42.413-41.66C27.914,152.659,46.657,133.762,69.927,133.614z"/>
<path id="Fill_2501" fill="#333333" d="M129,188.341c-5.716,27.313-29.879,47.916-58.963,48.104
	c-33.493,0.217-60.818-26.711-61.035-60.149c-0.079-12.146,3.432-23.476,9.535-32.995c1.89,8.819,5.394,17.035,10.184,24.331
	c-0.556,2.759-0.842,5.616-0.823,8.54c0.15,23.018,18.96,41.557,42.018,41.406c14.563-0.094,27.334-7.625,34.731-18.96
	C113.477,196.695,121.704,193.159,129,188.341z"/>
<path id="Fill_2502" fill="#808080" d="M68.674,126.584c27.834-0.178,50.545,22.129,50.725,49.828
	c0.181,27.701-22.235,50.3-50.071,50.48s-50.545-22.127-50.727-49.828C18.419,149.366,40.838,126.764,68.674,126.584z
	 M68.725,134.628c23.373-0.151,42.443,18.578,42.593,41.837c0.152,23.258-18.671,42.234-42.041,42.385
	c-23.375,0.152-42.442-18.58-42.595-41.839C26.532,153.755,45.355,134.777,68.725,134.628z"/>
<path id="Fill_2503" fill="#09254A" d="M165.584,100.311l-19.578,8.344l-1.038,6.277l-11.168,8.073l3.301,9.927l7.341,0.816
	l-2.439-10.147l6.882-3.506l5.409,2.778l29.906-12.952C184.2,109.921,165.584,100.527,165.584,100.311z"/>
<path id="Fill_2504" fill="#333333" d="M304.324,68.731l7.478-4.937l1.646-3.622l-3.594-7.621l12.855-11.555l11.02-5.171
	l8.784,3.978l0.679,8.491l-4.13,6.186l6.26,0.597l12.433-11.975l20.713,10.27l9.734,22.237c0,0-15.551,14.121-18.464,14.778
	c-2.916,0.657-20.813,6.935-28.333,4.649C333.881,92.75,301.964,90.836,304.324,68.731z"/>
<path id="Fill_2505" fill="#808080" d="M70.036,150.467c13.919-0.088,25.273,11.066,25.364,24.914
	c0.091,13.852-11.118,25.152-25.035,25.24c-13.919,0.09-25.275-11.064-25.364-24.915C44.91,161.857,56.119,150.557,70.036,150.467z"
	/>
<path id="Fill_2506" fill="#808080" d="M41.046,140.747l14.304,20.905l-8.818,9.414L21,171.674l0.457,5.194l28.289,0.622
	l1.337,10.594l-13.806,21.921l2.34,2.271l17.833-20.278l13.132,3.864l6.921,23.867l4.855-1.279l-5.668-26.161l9.253-6.918
	l23.744,10.241l2.511-3.965l-23.117-11.289l-10.939-23.84l5.122-24.566l-5.077-0.592l-7.858,26.455l-10.15-0.767L44.2,138.021
	C44.201,138.021,41.258,140.744,41.046,140.747z"/>
<linearGradient id="Fill_2507_1_" gradientUnits="userSpaceOnUse" x1="33" y1="111.0576" x2="405" y2="111.0576">
	<stop  offset="0" style="stop-color:#2483C5"/>
	<stop  offset="1" style="stop-color:#00092A"/>
</linearGradient>
<path id="Fill_2507" fill="url(#Fill_2507_1_)" d="M311.9,198.064c0,0-0.583-24.655,3.575-33.877
	c4.158-9.223,46.498-49.202,54.903-53.852c8.404-4.652,28.005-6.449,30.109-7.298c2.102-0.851,5.667-4.636,4.146-11.52
	c-1.521-6.887-11.804-31.692-25.616-47.484s-40.776-43.83-41.832-44.032c-1.055-0.205-8.793,9.352-13.416,12.098
	c-4.621,2.748-9.889,3.616-10.088,5.29c-0.199,1.674,1.514,5.634,3.63,6.666c2.116,1.029,24.521,8.827,40.421,21.472
	c15.901,12.645,21.851,19.71,22.29,22.215c0.439,2.506,0.08,18.391-13.008,16.387c-13.087-2.006-56.366-8.625-56.366-8.625
	s-1.557-12.528-8.133-18.336c-6.576-5.808-60.442-19.462-73.098-19.8c-12.658-0.337-31.182,4.8-38.888,19.477
	c-7.708,14.677-8.538,16.563-8.538,16.563s-3.412-4.678-9.127-7.671c-5.715-2.996-21.528-2.475-21.528-2.475
	s-20.414-9.48-23.483-11.133c-3.071-1.652-8.138-2.665-9.188-2.03c-1.051,0.632-4.516,2.85-4.516,2.85s-4.258-5.406-4.608-10.733
	c-0.351-5.327-0.238-4.49,0.06-7.001c0.299-2.51-16.507-8.251-36.979-10.629c-20.472-2.375-22.37-1.735-25.109-1.509
	c-2.74,0.228-14.527,3.646-14.513,5.945c0.014,2.299,54.145,23.474,67.719,35.507c13.577,12.031,85.969,52.523,85.969,52.523
	l-17.699,2.622l-2.881,10.886l-10.067,8.426l-10.609-9.545l-22.334,3.068l-48.777,28.618l-11.945,12.354l4.201,10.256l18.277-0.088
	l54.883-22.284l12.728,11.077l-11.667,21.807c0,0,16.103,11.6,17.811,14.932c1.708,3.334,3.861,9.588,6.396,10.408
	c2.536,0.82,128.66,2.098,134.567,2.477c5.907,0.382,10.957-1.322,11.331-8.851C311.274,205.691,311.9,198.064,311.9,198.064z"/>
<path id="Fill_2508" fill="#1A1A1A" d="M99.643,145.689l-25.907,15.367L61.8,173.541l4.198,10.361l18.262-0.088l49.54-20.34
	l-1.232-4.707L99.643,145.689z"/>
<path id="Fill_2509" fill="#09254A" d="M160.2,211.107c1.584,3.287,3.493,7.914,5.694,8.596
	c2.526,0.783,128.143,2.003,134.026,2.365c5.883,0.363,10.913-1.264,11.286-8.453c0.06-1.154,0.127-2.313,0.194-3.44L160.2,211.107z
	"/>
<path id="Fill_3108" fill="#BCD5F5" d="M388.2,57.32c-2.991-4.813-6.311-9.493-9.867-13.569
	c-13.691-15.69-40.42-43.547-41.466-43.748c-1.047-0.203-8.717,9.292-13.299,12.02c-4.086,2.436-8.681,3.385-9.768,4.741
	c3.772,1.54,12.148,4.882,17.651,6.54C337.447,25.11,372.763,46.278,388.2,57.32z"/>
<path id="Fill_3109" fill="#B3B3B3" d="M135.457,171.865c-0.301,0.221-8.663-1.788-28.502-9.721
	C87.117,154.211,74.15,145.1,74.15,145.1s-5.584-14.688-5.123-20.531c0.461-5.841,8.421-9.954,15.186-5.937
	c6.765,4.016,59.111,32.101,59.111,32.101l0.076,0.139c-0.151,4.63-1.945,11.511-8.083,21.091L135.457,171.865z"/>
<path id="Fill_3214" fill="#333333" d="M174.6,190.075c-4.019,3.315-4.019,3.315-4.019,3.315s-6.055,0.543-7.581-1.472
	c-1.53-2.01-16.516-16.069-20.822-18.063c-4.303-1.994-5.82-2.49-5.82-2.49l-0.158,0.105c6.208-9.541,8.022-16.395,8.175-21.006
	l6.053,10.696c0,0,9.396,8.786,11.183,11.554C163.397,175.486,172.539,183.77,174.6,190.075z"/>
<path id="Fill_3215" fill="#808080" d="M75.731,144.697c-0.891-0.563-1.389-0.881-1.389-0.881s-5.792-14.017-5.313-19.592
	c0.479-5.573,8.735-9.498,15.752-5.665c0.513,0.278,1.286,0.684,2.263,1.189c0.726,1.636,1.2,3.767,1.153,6.541
	C88.015,136.68,89.817,149.354,75.731,144.697z"/>
<path id="Stroke_3675" fill="none" stroke="#09254A" stroke-width="0.844" d="M313.8,74.039
	c-11.28,5.804-20.115,11.167-31.393,16.972c-43.024-9.436-52.831-12.799-81.407,2.135"/>
<path id="Fill_3676" fill="#09254A" d="M196.199,96.989l-5.223,12.875L162.6,86.163l0.501-2.571
	C163.101,83.592,196.332,97.502,196.199,96.989z"/>
<path id="Fill_3677" fill="#333333" d="M152.826,171.426l-7.026,13.184c3.808,2.805,11.873,8.67,14.161,9.791
	c3.027,1.482,50.09,1.931,63.168,0.844c13.078-1.085,30.598-15.721,35.848-21.014c5.249-5.289-1.374-17.764-1.374-17.764
	l-28.565-58.149l-12.868-5.171l-10.036,4.568l-17.739,39.922c0,0-2.879,20.547-2.865,22.801c0.014,2.252-0.472,4.758-3.734,6.283
	c-3.263,1.522-13.621-4.919-13.621-4.919L152.826,171.426z"/>
<path id="Fill_3678" fill="#B3B3B3" d="M215.136,179.468c2.578-0.016,4.68,2.032,4.696,4.575c0.017,2.544-2.059,4.618-4.637,4.637
	c-2.578,0.014-4.68-2.033-4.696-4.578C210.482,181.559,212.558,179.484,215.136,179.468z M209.069,139.188
	c9.821-0.062,17.833,7.742,17.897,17.433c0.065,9.69-7.846,17.597-17.668,17.659c-9.822,0.063-17.835-7.74-17.897-17.432
	C191.336,147.158,199.247,139.251,209.069,139.188z M238.856,142.48c4.25-0.025,7.715,3.352,7.744,7.541
	c0.026,4.192-3.396,7.611-7.643,7.641c-4.25,0.025-7.715-3.35-7.744-7.541C231.187,145.93,234.609,142.51,238.856,142.48z
	 M200.103,124.191l31.696-9.653l0.558,1.782l-31.694,9.655L200.103,124.191z M221.863,132.145l14.186-4.319l0.56,1.782l-14.187,4.32
	L221.863,132.145z M223.91,138.686l14.186-4.319l0.56,1.782l-14.189,4.32L223.91,138.686z M222.831,135.238l14.186-4.32l0.558,1.783
	l-14.186,4.32L222.831,135.238z M202.15,130.73l31.696-9.654l0.558,1.784l-31.697,9.656L202.15,130.73z M201.072,127.284
	l31.696-9.655l0.557,1.784l-31.694,9.655L201.072,127.284z M203.119,133.825l31.696-9.655l0.557,1.781l-31.696,9.654
	L203.119,133.825z M224.878,141.777l14.187-4.321l0.557,1.783l-14.186,4.321L224.878,141.777z M216.884,100.311
	c4.247-0.026,7.715,3.35,7.743,7.541c0.027,4.192-3.396,7.614-7.643,7.64c-4.249,0.026-7.715-3.349-7.743-7.541
	C209.214,103.76,212.637,100.339,216.884,100.311z"/>
<path id="Fill_3679" fill="#333333" d="M181.674,72.892c0,0-2.258-3.029-6.174-5.718l-3.841-2.141l-5.161-1.229
	c-6.715-1-15.131-0.729-15.131-0.729s-20.184-9.172-23.218-10.771c-3.036-1.599-8.046-2.578-9.085-1.964
	c-1.039,0.611-4.464,2.758-4.464,2.758s48.307,20.923,54.32,21.977c6.01,1.053,11.782,1.352,11.782,1.352
	C180.951,75.3,182.194,71.747,181.674,72.892z"/>
<g display="none">
	<linearGradient id="SVGID_1_" gradientUnits="userSpaceOnUse" x1="575.4336" y1="141.7363" x2="623.3379" y2="141.7363">
		<stop  offset="0" style="stop-color:#2483C5"/>
		<stop  offset="1" style="stop-color:#00092A"/>
	</linearGradient>
	<path display="inline" fill="url(#SVGID_1_)" d="M575.436,108.634c0-1,0.8-1.9,1.899-1.9h22.901c11.9,0,21.101,8,21.101,18.5
		c0,7.701-6.3,13.701-11,15.901c5.3,1.699,13.001,7.101,13.001,16.302c0,11.199-9.601,19.301-21.802,19.301h-24.202
		c-1.1,0-1.9-0.9-1.9-1.9v-66.204H575.436z M599.036,136.136c5.1,0,8.601-4,8.601-9.001c0-5-3.5-8.5-8.601-8.5h-10.701v17.501
		H599.036z M600.436,164.938c5,0,9-3.899,9-9.101c0-5-5-8.7-10.2-8.7h-10.9v17.801H600.436z"/>
	<linearGradient id="SVGID_2_" gradientUnits="userSpaceOnUse" x1="637.1338" y1="141.7363" x2="650.2344" y2="141.7363">
		<stop  offset="0" style="stop-color:#2483C5"/>
		<stop  offset="1" style="stop-color:#00092A"/>
	</linearGradient>
	<path display="inline" fill="url(#SVGID_2_)" d="M637.134,108.634c0-1,0.9-1.9,1.9-1.9h9.3c1.001,0,1.9,0.9,1.9,1.9v66.204
		c0,1-0.899,1.9-1.9,1.9h-9.3c-1,0-1.9-0.9-1.9-1.9V108.634z"/>
	<linearGradient id="SVGID_3_" gradientUnits="userSpaceOnUse" x1="668.4316" y1="141.7344" x2="723.0654" y2="141.7344">
		<stop  offset="0" style="stop-color:#2483C5"/>
		<stop  offset="1" style="stop-color:#00092A"/>
	</linearGradient>
	<path display="inline" fill="url(#SVGID_3_)" d="M668.433,109.134c0-1.3,1-2.4,2.4-2.4h8.8c1.301,0,2.4,1.1,2.4,2.4v27.001
		l25.202-28.402c0.398-0.5,1-1,1.898-1h10.001c1.9,0,2.9,2.1,1.601,3.6l-26.103,29.401l28.002,33.502c1,1.301,0.2,3.5-1.8,3.5
		h-10.899c-1,0-1.602-0.399-1.802-0.699l-26.102-32.202v30.502c0,1.302-1.101,2.399-2.4,2.399h-8.8c-1.4,0-2.4-1.1-2.4-2.399
		L668.433,109.134L668.433,109.134z"/>
	<linearGradient id="SVGID_4_" gradientUnits="userSpaceOnUse" x1="733.6328" y1="141.7354" x2="778.1348" y2="141.7354">
		<stop  offset="0" style="stop-color:#2483C5"/>
		<stop  offset="1" style="stop-color:#00092A"/>
	</linearGradient>
	<path display="inline" fill="url(#SVGID_4_)" d="M733.633,108.634c0-1,0.8-1.9,1.9-1.9h40.702c1.101,0,1.899,0.9,1.899,1.9v8.2
		c0,1-0.8,1.9-1.899,1.9h-29.603v16.401h24.701c1,0,1.9,0.899,1.9,1.899v8.301c0,1.101-0.9,1.899-1.9,1.899h-24.701v17.502h29.603
		c1.101,0,1.899,0.899,1.899,1.899v8.2c0,1-0.8,1.9-1.899,1.9h-40.702c-1.102,0-1.9-0.9-1.9-1.9V108.634z"/>
	<linearGradient id="SVGID_5_" gradientUnits="userSpaceOnUse" x1="814.5322" y1="141.7363" x2="827.6318" y2="141.7363">
		<stop  offset="0" style="stop-color:#2483C5"/>
		<stop  offset="1" style="stop-color:#00092A"/>
	</linearGradient>
	<path display="inline" fill="url(#SVGID_5_)" d="M814.532,108.634c0-1,0.899-1.9,1.899-1.9h9.301c1,0,1.899,0.9,1.899,1.9v66.204
		c0,1-0.898,1.9-1.899,1.9h-9.301c-1,0-1.899-0.9-1.899-1.9V108.634z"/>
	<linearGradient id="SVGID_6_" gradientUnits="userSpaceOnUse" x1="845.8311" y1="141.7363" x2="904.9336" y2="141.7363">
		<stop  offset="0" style="stop-color:#2483C5"/>
		<stop  offset="1" style="stop-color:#00092A"/>
	</linearGradient>
	<path display="inline" fill="url(#SVGID_6_)" d="M845.831,107.534c0-1,0.899-1.8,1.899-1.8h2.5l41.604,44.204h0.1v-41.303
		c0-1,0.802-1.9,1.9-1.9h9.2c1,0,1.899,0.9,1.899,1.9v67.305c0,1-0.899,1.8-1.899,1.8h-2.399l-41.803-45.902h-0.101v43.002
		c0,1-0.8,1.9-1.899,1.9h-9.101c-1,0-1.9-0.9-1.9-1.9V107.534z"/>
	<linearGradient id="SVGID_7_" gradientUnits="userSpaceOnUse" x1="918.5557" y1="141.7383" x2="964.5342" y2="141.7383">
		<stop  offset="0" style="stop-color:#2483C5"/>
		<stop  offset="1" style="stop-color:#00092A"/>
	</linearGradient>
	<path display="inline" fill="url(#SVGID_7_)" d="M919.03,166.938l3.601-6.199c0.8-1.399,2.5-1.399,3.4-0.7
		c0.5,0.301,8.601,6.201,15.101,6.201c5.2,0,9.102-3.4,9.102-7.701c0-5.101-4.3-8.601-12.701-12
		c-9.4-3.802-18.801-9.802-18.801-21.602c0-8.9,6.601-19.201,22.502-19.201c10.2,0,18.001,5.2,20.001,6.701c1,0.6,1.3,2.3,0.6,3.3
		l-3.8,5.701c-0.801,1.2-2.301,2-3.5,1.2c-0.801-0.5-8.401-5.5-13.901-5.5c-5.699,0-8.801,3.8-8.801,7
		c0,4.701,3.7,7.9,11.801,11.201c9.701,3.9,20.901,9.7,20.901,22.602c0,10.302-8.9,19.802-23.001,19.802
		c-12.602,0-20.002-5.9-22.002-7.802C918.631,169.037,918.131,168.537,919.03,166.938z"/>
	<linearGradient id="SVGID_8_" gradientUnits="userSpaceOnUse" x1="976.3291" y1="142.2363" x2="1032.0322" y2="142.2363">
		<stop  offset="0" style="stop-color:#2483C5"/>
		<stop  offset="1" style="stop-color:#00092A"/>
	</linearGradient>
	<path display="inline" fill="url(#SVGID_8_)" d="M976.33,108.634c0-1,0.9-1.9,1.9-1.9h9.5c1.101,0,1.899,0.9,1.899,1.9v40.903
		c0,8.5,5.802,15.199,14.501,15.199c8.7,0,14.602-6.699,14.602-15.101v-41.002c0-1,0.8-1.9,1.899-1.9h9.5c1.001,0,1.9,0.9,1.9,1.9
		v41.603c0,15.201-12.101,27.502-27.901,27.502c-15.701,0-27.802-12.301-27.802-27.502L976.33,108.634L976.33,108.634z"/>
	<linearGradient id="SVGID_9_" gradientUnits="userSpaceOnUse" x1="1049.2285" y1="141.7354" x2="1101.5322" y2="141.7354">
		<stop  offset="0" style="stop-color:#2483C5"/>
		<stop  offset="1" style="stop-color:#00092A"/>
	</linearGradient>
	<path display="inline" fill="url(#SVGID_9_)" d="M1049.229,108.634c0-1,0.801-1.9,1.9-1.9h28.603
		c12.001,0,21.801,9.601,21.801,21.5c0,9.201-6.101,16.701-14.801,20.201l13.7,25.401c0.7,1.302,0,2.899-1.699,2.899h-10.501
		c-0.899,0-1.399-0.5-1.601-0.899l-13.301-26.502h-11.101v25.502c0,1-0.9,1.899-1.9,1.899h-9.2c-1.101,0-1.899-0.899-1.899-1.899
		L1049.229,108.634L1049.229,108.634z M1078.631,138.636c5.301,0,9.901-4.601,9.901-10.2c0-5.301-4.602-9.701-9.901-9.701h-16.301
		v19.901H1078.631z"/>
	<linearGradient id="SVGID_10_" gradientUnits="userSpaceOnUse" x1="1106.5264" y1="141.2363" x2="1173.2314" y2="141.2363">
		<stop  offset="0" style="stop-color:#2483C5"/>
		<stop  offset="1" style="stop-color:#00092A"/>
	</linearGradient>
	<path display="inline" fill="url(#SVGID_10_)" d="M1106.727,174.139l31.103-67.305c0.301-0.6,0.801-1.1,1.7-1.1h1
		c1,0,1.399,0.5,1.699,1.1l30.803,67.305c0.601,1.299-0.199,2.601-1.7,2.601h-8.7c-1.5,0-2.199-0.601-2.899-2l-4.9-10.802h-29.901
		l-4.899,10.802c-0.4,1-1.3,2-2.9,2h-8.7C1106.927,176.738,1106.127,175.438,1106.727,174.139z M1149.93,152.837l-10.001-22.001
		h-0.3l-9.801,22.001H1149.93z"/>
	<linearGradient id="SVGID_11_" gradientUnits="userSpaceOnUse" x1="1182.127" y1="141.7363" x2="1241.2305" y2="141.7363">
		<stop  offset="0" style="stop-color:#2483C5"/>
		<stop  offset="1" style="stop-color:#00092A"/>
	</linearGradient>
	<path display="inline" fill="url(#SVGID_11_)" d="M1182.127,107.534c0-1,0.9-1.8,1.9-1.8h2.5l41.603,44.204h0.101v-41.303
		c0-1,0.8-1.9,1.899-1.9h9.2c1,0,1.9,0.9,1.9,1.9v67.305c0,1-0.9,1.8-1.9,1.8h-2.399l-41.803-45.902h-0.101v43.002
		c0,1-0.801,1.9-1.899,1.9h-9.101c-1,0-1.9-0.9-1.9-1.9V107.534z"/>
	<linearGradient id="SVGID_12_" gradientUnits="userSpaceOnUse" x1="1254.3252" y1="141.7363" x2="1315.3477" y2="141.7363">
		<stop  offset="0" style="stop-color:#2483C5"/>
		<stop  offset="1" style="stop-color:#00092A"/>
	</linearGradient>
	<path display="inline" fill="url(#SVGID_12_)" d="M1290.429,105.734c10.102,0,17.401,3.2,24.201,9.301c0.9,0.8,0.9,2,0.101,2.8
		l-6.101,6.301c-0.7,0.8-1.7,0.8-2.5,0c-4.2-3.7-9.801-5.9-15.401-5.9c-12.801,0-22.301,10.702-22.301,23.301
		c0,12.501,9.602,23.102,22.401,23.102c6,0,11.101-2.3,15.301-5.699c0.8-0.7,1.899-0.602,2.5,0l6.2,6.399c0.8,0.699,0.6,2-0.1,2.699
		c-6.802,6.603-15.401,9.701-24.303,9.701c-20.001,0-36.103-15.9-36.103-35.902C1254.326,121.835,1270.428,105.734,1290.429,105.734
		z"/>
	<linearGradient id="SVGID_13_" gradientUnits="userSpaceOnUse" x1="1327.8252" y1="141.7354" x2="1372.3271" y2="141.7354">
		<stop  offset="0" style="stop-color:#2483C5"/>
		<stop  offset="1" style="stop-color:#00092A"/>
	</linearGradient>
	<path display="inline" fill="url(#SVGID_13_)" d="M1327.825,108.634c0-1,0.8-1.9,1.899-1.9h40.702c1.101,0,1.9,0.9,1.9,1.9v8.2
		c0,1-0.801,1.9-1.9,1.9h-29.602v16.401h24.701c1,0,1.899,0.899,1.899,1.899v8.301c0,1.101-0.899,1.899-1.899,1.899h-24.701v17.502
		h29.602c1.101,0,1.9,0.899,1.9,1.899v8.2c0,1-0.801,1.9-1.9,1.9h-40.702c-1.101,0-1.899-0.9-1.899-1.9V108.634z"/>
</g>
<g display="none">
	<linearGradient id="SVGID_14_" gradientUnits="userSpaceOnUse" x1="569.229" y1="-166.9146" x2="568.9131" y2="-31.0272">
		<stop  offset="0" style="stop-color:#2483C5"/>
		<stop  offset="1" style="stop-color:#00092A"/>
	</linearGradient>
	<path display="inline" fill="url(#SVGID_14_)" d="M583.068-67.736c0.224-0.075,7.702-4.328,13.021-9.954
		c-0.172,5.451-0.707,12.245-3.041,15.761c0,0-4.115,8.144-11.67,12.135c0,0,8.569-2.096,14.384-11.613
		c-1.147,6.792-7.685,20.699-23.023,24.335c0,0-2.068,9.595,6.652,26.186c-16.752-15.05-15.145-54.422-0.742-82.209
		c0,0-13.524,16.697-18.114,35.577c0,0-6.846-12.739-9.829-30.041c0,0-4.742,29.309,10.249,57.751
		c-14.907-7.789-21.016-21.692-21.664-36.063c2.97,4.938,9.579,7.309,9.579,7.309c-6.503-4.583-9.455-14.614-9.455-14.614
		c0.611-7.979,2.726-15.809,5.783-22.521c2.258-4.968,5.388-10.296,8.821-15.895c0,0,0.128,8.154,4.718,14.709
		c-2.983-8.845-2.198-18.715,0.643-23.384h-0.005c3.92-6.371,7.863-13.017,11.107-19.828c0,0-0.958,9.954,3.479,16.904
		c-2.176-6.035-1.588-19.815,0.583-26.674c0.073-0.232,0.151-0.459,0.229-0.678c0.009-0.019,0.014-0.042,0.018-0.065
		c2.263-6.699,3.529-13.501,3.144-20.298c9.868,10.168,16.849,26.365,19.672,45.094c0,0,0,0.005,0,0.01
		c-0.064,0.36-1.941,10.779-9.492,19.279c0.221-0.086,7.293-2.963,10.387-11.671c0.835,9.581-0.208,22.612-1.667,32.775
		C595.546-78.542,590.608-74.273,583.068-67.736z"/>
	<ellipse display="inline" fill="#FFFFFF" cx="560.535" cy="-79.323" rx="5.151" ry="5.32"/>
	<linearGradient id="SVGID_15_" gradientUnits="userSpaceOnUse" x1="599.0156" y1="-154.1816" x2="563.9347" y2="-43.5657">
		<stop  offset="0" style="stop-color:#CD2227"/>
		<stop  offset="0.5288" style="stop-color:#CD2227"/>
		<stop  offset="1" style="stop-color:#B01B1F"/>
	</linearGradient>
	<path display="inline" fill="url(#SVGID_15_)" d="M595.763-61.407c-5.815,9.518-14.384,11.613-14.384,11.613
		c7.555-3.991,11.67-12.135,11.67-12.135c2.334-3.516,2.869-10.31,3.041-15.761c-5.319,5.625-12.797,9.878-13.021,9.954
		c7.54-6.537,12.478-10.807,13.768-17.685c1.459-10.163,2.503-23.194,1.667-32.775c-3.094,8.708-10.166,11.585-10.387,11.671
		c7.551-8.5,9.428-18.919,9.492-19.279c0-0.005,0-0.01,0-0.01c-2.823-18.729-9.804-34.926-19.672-45.094
		c0,0,19.588,35.268,0.712,77.812c-14.403,27.788-16.01,67.159,0.742,82.209c-8.72-16.591-6.652-26.186-6.652-26.186
		C588.078-40.708,594.616-54.614,595.763-61.407z"/>
	<defs>
		<filter id="Adobe_OpacityMaskFilter" filterUnits="userSpaceOnUse" x="560.535" y="-170.907" width="26.322" height="113.389">
			<feFlood  style="flood-color:white;flood-opacity:1" result="back"/>
			<feBlend  in="SourceGraphic" in2="back" mode="normal"/>
		</filter>
	</defs>
	<mask maskUnits="userSpaceOnUse" x="560.535" y="-170.907" width="26.322" height="113.389" id="SVGID_16_" display="inline">
		<g filter="url(#Adobe_OpacityMaskFilter)">
			<defs>
				
					<filter id="Adobe_OpacityMaskFilter_1_" filterUnits="userSpaceOnUse" x="560.535" y="-170.907" width="26.322" height="113.389">
					<feFlood  style="flood-color:white;flood-opacity:1" result="back"/>
					<feBlend  in="SourceGraphic" in2="back" mode="normal"/>
				</filter>
			</defs>
			<mask maskUnits="userSpaceOnUse" x="560.535" y="-170.907" width="26.322" height="113.389" id="SVGID_16_">
				<g filter="url(#Adobe_OpacityMaskFilter_1_)">
				</g>
			</mask>
			<linearGradient id="SVGID_17_" gradientUnits="userSpaceOnUse" x1="587.748" y1="-59.335" x2="550.0765" y2="-173.6157">
				<stop  offset="0" style="stop-color:#FFFFFF"/>
				<stop  offset="0.0849" style="stop-color:#F6F6F6"/>
				<stop  offset="0.2252" style="stop-color:#DDDDDD"/>
				<stop  offset="0.4037" style="stop-color:#B4B4B4"/>
				<stop  offset="0.6134" style="stop-color:#7B7B7B"/>
				<stop  offset="0.8464" style="stop-color:#333333"/>
				<stop  offset="1" style="stop-color:#000000"/>
			</linearGradient>
			<path mask="url(#SVGID_16_)" fill="url(#SVGID_17_)" d="M582.493-120.47c-4.962,27.188-13.016,34.06-18.531,50.838
				c-1.578,4.8-3.427,12.113-3.427,12.113c4.59-18.88,18.114-35.577,18.114-35.577c18.875-42.544-0.712-77.812-0.712-77.812
				S587.431-147.529,582.493-120.47z"/>
		</g>
	</mask>
	<linearGradient id="SVGID_18_" gradientUnits="userSpaceOnUse" x1="560.5352" y1="-114.2129" x2="586.8574" y2="-114.2129">
		<stop  offset="0" style="stop-color:#231F20"/>
		<stop  offset="1" style="stop-color:#231F20"/>
	</linearGradient>
	<path display="inline" opacity="0.6" fill="url(#SVGID_18_)" d="M582.493-120.47c-4.962,27.188-13.016,34.06-18.531,50.838
		c-1.578,4.8-3.427,12.113-3.427,12.113c4.59-18.88,18.114-35.577,18.114-35.577c18.875-42.544-0.712-77.812-0.712-77.812
		S587.431-147.529,582.493-120.47z"/>
	<defs>
		<filter id="Adobe_OpacityMaskFilter_2_" filterUnits="userSpaceOnUse" x="548.027" y="-87.56" width="12.927" height="57.751">
			<feFlood  style="flood-color:white;flood-opacity:1" result="back"/>
			<feBlend  in="SourceGraphic" in2="back" mode="normal"/>
		</filter>
	</defs>
	<mask maskUnits="userSpaceOnUse" x="548.027" y="-87.56" width="12.927" height="57.751" id="SVGID_19_" display="inline">
		<g filter="url(#Adobe_OpacityMaskFilter_2_)">
			<defs>
				<filter id="Adobe_OpacityMaskFilter_3_" filterUnits="userSpaceOnUse" x="548.027" y="-87.56" width="12.927" height="57.751">
					<feFlood  style="flood-color:white;flood-opacity:1" result="back"/>
					<feBlend  in="SourceGraphic" in2="back" mode="normal"/>
				</filter>
			</defs>
			<mask maskUnits="userSpaceOnUse" x="548.027" y="-87.56" width="12.927" height="57.751" id="SVGID_19_">
				<g filter="url(#Adobe_OpacityMaskFilter_3_)">
				</g>
			</mask>
			<linearGradient id="SVGID_20_" gradientUnits="userSpaceOnUse" x1="541.9717" y1="-17.7012" x2="564.0602" y2="-83.0169">
				<stop  offset="0" style="stop-color:#FFFFFF"/>
				<stop  offset="0.0849" style="stop-color:#F6F6F6"/>
				<stop  offset="0.2252" style="stop-color:#DDDDDD"/>
				<stop  offset="0.4037" style="stop-color:#B4B4B4"/>
				<stop  offset="0.6134" style="stop-color:#7B7B7B"/>
				<stop  offset="0.8464" style="stop-color:#333333"/>
				<stop  offset="1" style="stop-color:#000000"/>
			</linearGradient>
			<path mask="url(#SVGID_19_)" fill="url(#SVGID_20_)" d="M555.242-33.402c1.742,1.305,3.639,2.511,5.712,3.594
				c-14.99-28.442-10.249-57.751-10.249-57.751s-3.839,12.235-2.325,28.633c0.161,0.124,0.323,0.246,0.489,0.363
				c0,0-0.173-0.062-0.472-0.186C549.135-50.944,551.087-42.207,555.242-33.402z"/>
		</g>
	</mask>
	<linearGradient id="SVGID_21_" gradientUnits="userSpaceOnUse" x1="541.9717" y1="-17.7012" x2="564.0602" y2="-83.0169">
		<stop  offset="0" style="stop-color:#231F20"/>
		<stop  offset="1" style="stop-color:#231F20"/>
	</linearGradient>
	<path display="inline" opacity="0.6" fill="url(#SVGID_21_)" d="M555.242-33.402c1.742,1.305,3.639,2.511,5.712,3.594
		c-14.99-28.442-10.249-57.751-10.249-57.751s-3.839,12.235-2.325,28.633c0.161,0.124,0.323,0.246,0.489,0.363
		c0,0-0.173-0.062-0.472-0.186C549.135-50.944,551.087-42.207,555.242-33.402z"/>
	<defs>
		<filter id="Adobe_OpacityMaskFilter_4_" filterUnits="userSpaceOnUse" x="567.335" y="-93.095" width="13.135" height="82.209">
			<feFlood  style="flood-color:white;flood-opacity:1" result="back"/>
			<feBlend  in="SourceGraphic" in2="back" mode="normal"/>
		</filter>
	</defs>
	<mask maskUnits="userSpaceOnUse" x="567.335" y="-93.095" width="13.135" height="82.209" id="SVGID_22_" display="inline">
		<g filter="url(#Adobe_OpacityMaskFilter_4_)">
			<defs>
				<filter id="Adobe_OpacityMaskFilter_5_" filterUnits="userSpaceOnUse" x="567.335" y="-93.095" width="13.135" height="82.209">
					<feFlood  style="flood-color:white;flood-opacity:1" result="back"/>
					<feBlend  in="SourceGraphic" in2="back" mode="normal"/>
				</filter>
			</defs>
			<mask maskUnits="userSpaceOnUse" x="567.335" y="-93.095" width="13.135" height="82.209" id="SVGID_22_">
				<g filter="url(#Adobe_OpacityMaskFilter_5_)">
				</g>
			</mask>
			
				<radialGradient id="SVGID_23_" cx="615.165" cy="141.2051" r="108.665" gradientTransform="matrix(0.3804 0 0 0.3928 334.1683 -103.7693)" gradientUnits="userSpaceOnUse">
				<stop  offset="0" style="stop-color:#FFFFFF"/>
				<stop  offset="1" style="stop-color:#000000"/>
			</radialGradient>
			<path mask="url(#SVGID_22_)" fill="url(#SVGID_23_)" d="M570.239-58.97c1.551-11.747,5.089-23.2,10.23-33.119l-1.821-1.006
				c-14.403,27.788-16.01,67.159,0.742,82.209c-1.383-2.633-2.494-5.088-3.386-7.359C570.17-27.633,568.022-42.203,570.239-58.97z"
				/>
		</g>
	</mask>
	
		<radialGradient id="SVGID_24_" cx="615.165" cy="141.2051" r="108.665" gradientTransform="matrix(0.3804 0 0 0.3928 334.1683 -103.7693)" gradientUnits="userSpaceOnUse">
		<stop  offset="0" style="stop-color:#F1F1F1"/>
		<stop  offset="1" style="stop-color:#F1F1F1"/>
	</radialGradient>
	<path display="inline" fill="url(#SVGID_24_)" d="M570.239-58.97c1.551-11.747,5.089-23.2,10.23-33.119l-1.821-1.006
		c-14.403,27.788-16.01,67.159,0.742,82.209c-1.383-2.633-2.494-5.088-3.386-7.359C570.17-27.633,568.022-42.203,570.239-58.97z"/>
</g>
<g>
	<linearGradient id="SVGID_25_" gradientUnits="userSpaceOnUse" x1="571.4985" y1="144.6836" x2="631.5195" y2="144.6836">
		<stop  offset="0" style="stop-color:#2483C5"/>
		<stop  offset="1" style="stop-color:#00092A"/>
	</linearGradient>
	<path fill="url(#SVGID_25_)" d="M629.635,149.193c-1.256-2.722-2.962-5.07-5.116-7.044c1.286-1.526,2.281-3.254,2.984-5.184
		c0.702-1.931,1.055-4.017,1.055-6.261c0-2.69-0.509-5.211-1.525-7.559c-1.018-2.349-2.401-4.398-4.151-6.149
		s-3.791-3.124-6.125-4.127c-2.333-1.002-4.816-1.503-7.449-1.503h-29.795c-0.628,0-1.114,0.186-1.458,0.561
		c-0.345,0.375-0.516,0.875-0.516,1.502v37.87c0,4.787-2.233,9.298-6.04,12.202l0,0c0.192-0.008,6.422-0.019,6.611-0.03
		c16.406-1.029,16.794-13.785,16.794-13.785h11.874c0.989,0,1.911,0.225,2.766,0.673c0.854,0.449,1.589,1.026,2.204,1.728
		c0.614,0.704,1.095,1.504,1.44,2.4c0.345,0.898,0.517,1.797,0.517,2.694c0,0.956-0.172,1.885-0.517,2.781
		c-0.345,0.896-0.833,1.699-1.461,2.401c-0.63,0.703-1.365,1.264-2.206,1.683c-0.839,0.419-1.753,0.626-2.743,0.626
		c0,0-27.888,0-35.279,0l0,0c3.773,2.52,6.04,6.757,6.04,11.294v0.105c0,0.658,0.179,1.144,0.538,1.458
		c0.359,0.313,0.837,0.47,1.436,0.47h32.443c2.631,0,5.138-0.537,7.515-1.615c2.378-1.075,4.458-2.535,6.237-4.373
		c1.78-1.84,3.193-3.979,4.24-6.418c1.048-2.438,1.572-5.018,1.572-7.74C631.52,154.803,630.891,151.916,629.635,149.193z
		 M610.809,133.735c-0.345,0.792-0.817,1.48-1.418,2.064c-0.6,0.582-1.326,1.031-2.181,1.345c-0.855,0.314-1.793,0.473-2.813,0.473
		h-9.494v-13.013h9.629c0.989,0,1.904,0.172,2.744,0.515c0.84,0.344,1.56,0.816,2.16,1.414c0.6,0.599,1.065,1.287,1.396,2.064
		c0.329,0.778,0.495,1.614,0.495,2.512C611.327,132.067,611.154,132.943,610.809,133.735z"/>
	<linearGradient id="SVGID_26_" gradientUnits="userSpaceOnUse" x1="631.5195" y1="132.499" x2="654.9282" y2="132.499">
		<stop  offset="0" style="stop-color:#2483C5"/>
		<stop  offset="1" style="stop-color:#00092A"/>
	</linearGradient>
	<path fill="url(#SVGID_26_)" d="M637.562,109.158c-1.869,0.008-5.788,0.023-6.042,0.039l0.03-0.008
		c3.68-1.825,6.013-5.578,6.013-9.691V88.973c0.031-0.509,0.217-0.964,0.561-1.368c0.344-0.405,0.8-0.606,1.369-0.606h13.328
		c0.448,0,0.912,0.188,1.391,0.561c0.479,0.374,0.718,0.845,0.718,1.421v10.396c-0.158,1.287-1.712,9.394-16.408,9.768
		C638.453,109.144,638.086,109.151,637.562,109.158z M654.928,126.983v-15.839H631.52c3.702,1.817,6.042,5.579,6.042,9.7v55.407
		c0.031,1.167,0.673,1.749,1.93,1.749h13.192c0.688,0,1.234-0.171,1.638-0.516c0.403-0.344,0.606-0.83,0.606-1.458V126.983z"/>
	<linearGradient id="SVGID_27_" gradientUnits="userSpaceOnUse" x1="662.0674" y1="144.6836" x2="727.6323" y2="144.6836">
		<stop  offset="0" style="stop-color:#2483C5"/>
		<stop  offset="1" style="stop-color:#00092A"/>
	</linearGradient>
	<path fill="url(#SVGID_27_)" d="M685.274,113.364v5.866c0,7.427-2.172,14.693-6.274,20.885
		c-6.979,10.536-16.243,21.842-16.784,22.52l0,0c3.747-7.772,5.692-16.287,5.692-24.913v-24.358c0-0.54,0.172-1.002,0.516-1.393
		c0.344-0.388,0.823-0.582,1.451-0.582h13.252c0.442,0,0.913,0.179,1.406,0.538C685.027,112.287,685.274,112.765,685.274,113.364z
		 M727.139,176.14l-23.378-35.18l21.135-27.866c0.329-0.419,0.494-0.778,0.494-1.077c0-0.449-0.359-0.674-1.078-0.674h-17.051
		c-0.508,0-1.025,0.158-1.548,0.472c-0.524,0.313-0.95,0.725-1.279,1.233c-3.231,4.188-6.417,8.316-9.558,12.385
		c-3.141,4.069-6.341,8.197-9.602,12.385l-15.69,18.226l-1.675,1.944l-2.752,3.202l-3.089,3.581l0,0
		c2.81-1.094,5.841,0.979,5.841,3.996v7.281c0,1.316,0.673,1.975,2.012,1.975h13.207c1.429,0,2.147-0.658,2.147-1.975v-17.5
		l5.699-6.552c1.496,2.214,2.872,4.322,4.128,6.327s2.499,3.986,3.724,5.947c1.227,1.958,2.491,3.926,3.792,5.9
		s2.745,4.037,4.331,6.192c0.329,0.508,0.74,0.911,1.234,1.21c0.494,0.3,0.994,0.449,1.503,0.449h16.961
		c0.659,0,0.987-0.225,0.987-0.673C727.632,177.053,727.468,176.647,727.139,176.14z"/>
	<linearGradient id="SVGID_28_" gradientUnits="userSpaceOnUse" x1="729.7554" y1="144.6836" x2="785.3335" y2="144.6836">
		<stop  offset="0" style="stop-color:#2483C5"/>
		<stop  offset="1" style="stop-color:#00092A"/>
	</linearGradient>
	<path fill="url(#SVGID_28_)" d="M785.333,164.669v11.273c0,0.299-0.119,0.568-0.359,0.806c-0.119,0.835-0.732,1.252-1.839,1.252
		h-45.371c-0.597,0-1.074-0.156-1.432-0.47c-0.358-0.314-0.537-0.8-0.537-1.458V147.59c0-4.121-2.342-7.883-6.04-9.7l0,0
		l45.841-0.004c0.568,0,1.04,0.135,1.414,0.403c0.374,0.269,0.56,0.719,0.56,1.347v9.691c0,0.42-0.164,0.824-0.492,1.213
		c-0.331,0.389-0.809,0.582-1.437,0.582h-22.481v11.487h30.154C784.66,162.609,785.333,163.296,785.333,164.669z M753.18,126.757
		h29.058c0.689,0,1.212-0.23,1.571-0.692c0.358-0.463,0.538-0.947,0.538-1.454v-11.097c0-0.656-0.18-1.178-0.538-1.565
		c-0.359-0.388-0.868-0.582-1.525-0.582h-44.519c-0.626,0-1.111,0.186-1.455,0.561c-0.343,0.375-0.515,0.875-0.515,1.502v13.622
		c0,4.11-2.329,7.865-6.012,9.688l-0.028,0.014c0.326-0.014,6.684-0.05,6.999-0.057C752.719,136.291,753.18,126.757,753.18,126.757z
		"/>
	<linearGradient id="SVGID_29_" gradientUnits="userSpaceOnUse" x1="829.5396" y1="132.5225" x2="852.9482" y2="132.5225">
		<stop  offset="0" style="stop-color:#2483C5"/>
		<stop  offset="1" style="stop-color:#00092A"/>
	</linearGradient>
	<path fill="url(#SVGID_29_)" d="M835.583,109.181c-1.869,0.008-5.788,0.023-6.043,0.039l0.03-0.008
		c3.68-1.825,6.013-5.578,6.013-9.691V88.997c0.03-0.509,0.217-0.964,0.561-1.368c0.344-0.405,0.801-0.606,1.368-0.606h13.327
		c0.45,0,0.914,0.188,1.392,0.561c0.477,0.374,0.717,0.845,0.717,1.421v10.396c-0.156,1.287-1.712,9.394-16.408,9.768
		C836.473,109.167,836.106,109.175,835.583,109.181z M852.948,127.007v-15.839H829.54c3.703,1.817,6.043,5.579,6.043,9.7v55.407
		c0.03,1.167,0.673,1.749,1.929,1.749h13.193c0.688,0,1.234-0.171,1.639-0.516c0.403-0.344,0.605-0.83,0.605-1.458V127.007z"/>
	<linearGradient id="SVGID_30_" gradientUnits="userSpaceOnUse" x1="858.4478" y1="142.3721" x2="921.6865" y2="142.3721">
		<stop  offset="0" style="stop-color:#2483C5"/>
		<stop  offset="1" style="stop-color:#00092A"/>
	</linearGradient>
	<path fill="url(#SVGID_30_)" d="M879.731,161.391v14.636c0,0.659-0.15,1.152-0.45,1.48c-0.299,0.329-0.837,0.493-1.615,0.493
		h-12.742c-0.689,0-1.188-0.188-1.504-0.561c-0.315-0.373-0.47-0.829-0.47-1.368v-49.535c0-5.126-4.502-17.871-4.502-17.871
		C859.151,109.899,879.318,143.088,879.731,161.391z M921.059,111.882c-0.419-0.344-0.942-0.515-1.571-0.515h-12.788
		c-0.479,0-0.897,0.149-1.257,0.448c-0.359,0.299-0.599,0.718-0.719,1.256v35.942c-3.828-6.132-7.613-12.175-11.353-18.127
		c-3.738-5.952-7.508-11.997-11.308-18.129c-0.328-0.508-0.719-0.868-1.166-1.078c-0.448-0.209-0.881-0.313-1.301-0.313h-13.183
		c-0.004,0-0.01,0-0.015,0c-4.043-0.008-7.449-4.623-7.449-4.623c0.636,0.934,3.176,4.995,4.028,6.238
		c0.053,0.088,0.111,0.171,0.173,0.261c6.057,8.885,16.139,23.753,16.58,24.411v-0.174c4.008,6.582,7.957,13.089,11.845,19.521
		c3.89,6.432,7.823,12.938,11.801,19.519c0.331,0.449,0.645,0.808,0.943,1.078c0.3,0.269,0.645,0.402,1.032,0.402h14.313
		c0.628,0,1.122-0.141,1.481-0.426c0.358-0.283,0.539-0.726,0.539-1.323v-62.91C921.687,112.711,921.478,112.225,921.059,111.882z"
		/>
	<linearGradient id="SVGID_31_" gradientUnits="userSpaceOnUse" x1="928.6006" y1="143.8428" x2="982.5586" y2="143.8428">
		<stop  offset="0" style="stop-color:#2483C5"/>
		<stop  offset="1" style="stop-color:#00092A"/>
	</linearGradient>
	<path fill="url(#SVGID_31_)" d="M980.002,120.061c0,0.388-0.098,0.748-0.292,1.076s-0.486,0.703-0.874,1.122l-6.088,6.484
		l-0.778,0.831c-0.508,0.507-1.018,0.763-1.525,0.763c-0.417,0-0.8-0.121-1.145-0.359c-0.344-0.24-0.726-0.539-1.146-0.897
		l-0.403-0.358c-0.598-0.51-1.263-1.034-1.995-1.571c-0.734-0.539-6.246-4.407-16.656-2.685c-4.656,0.771-9.416,2.34-13.968,5.228
		c-2.591,1.643-6.531,4.688-6.531,4.688c2.429-3.219,4.307-6.408,5.335-10.307c1.375-5.183,3.894-8.015,5.973-9.631
		c2.081-1.607,4.587-2.856,7.519-3.74c2.929-0.882,6.206-1.324,9.824-1.324c2.723,0,5.332,0.308,7.83,0.92
		c2.499,0.613,4.96,1.593,7.382,2.939c1.018,0.599,1.981,1.22,2.895,1.862c0.913,0.644,1.713,1.264,2.401,1.863
		c0.688,0.598,1.232,1.167,1.639,1.705C979.801,119.208,980.002,119.671,980.002,120.061z M980.922,148.645
		c-1.092-2.185-2.609-4.061-4.554-5.632c-1.944-1.57-4.255-2.932-6.935-4.084c-2.677-1.151-5.602-2.25-8.771-3.298
		c-1.646-0.537-3.087-1.039-4.332-1.504c-1.239-0.464-2.278-0.956-3.116-1.479c-0.07-0.044-0.145-0.097-0.221-0.155
		c-2.471-1.925-5.465-3.051-8.594-2.913c-3.562,0.157-6.584,0.944-8.976,1.879c-0.557,0.21-1.071,0.434-1.558,0.658
		c-1.608,0.741-2.834,1.496-3.65,2.058l-0.081,0.051l-0.973,0.74l-0.061,0.045l-0.014,0.017l0,0
		c2.711-0.823,5.622,0.273,7.143,2.665c0.665,1.048,1.513,2.162,2.579,3.19c1.814,1.749,4.037,3.387,6.73,4.838
		c2.693,1.45,5.833,2.806,9.423,4.063c0.809,0.269,1.767,0.597,2.872,1c1.107,0.404,2.169,0.89,3.187,1.459
		c1.017,0.567,1.877,1.219,2.579,1.951c0.702,0.733,1.055,1.564,1.055,2.491c0,0.837-0.128,1.63-0.38,2.371
		c-0.255,0.746-0.682,1.405-1.279,1.975c-0.599,0.567-1.414,1.024-2.445,1.367c-1.031,0.345-2.311,0.517-3.838,0.517
		c-1.644,0-3.215-0.283-4.712-0.853c-1.494-0.567-3.006-1.361-4.53-2.378c-1.018-0.688-1.922-1.384-2.717-2.086
		c-0.792-0.704-1.441-1.265-1.951-1.684c-0.417-0.359-0.776-0.628-1.077-0.808c-0.297-0.18-0.582-0.27-0.851-0.27
		c-0.39,0-0.899,0.225-1.527,0.674l-7.762,7.403c-0.688,0.629-1.034,1.203-1.034,1.713c0,0.448,0.346,1.047,1.034,1.795
		c0.03,0.029,0.058,0.053,0.088,0.068c0.032,0.013,0.061,0.051,0.091,0.111c0.029,0.037,0.06,0.06,0.09,0.074
		c0.03,0.017,0.061,0.052,0.088,0.111l0.137,0.135c0.48,0.51,1.129,1.182,1.952,2.021c0.822,0.844,1.83,1.696,3.028,2.565
		c2.872,2.071,5.968,3.725,9.289,4.95c3.321,1.233,6.7,1.848,10.14,1.848c3.649,0,7.062-0.518,10.231-1.549
		c3.173-1.031,5.931-2.491,8.281-4.375c2.348-1.885,4.192-4.165,5.539-6.843c1.346-2.678,2.019-5.66,2.019-8.951
		C982.559,153.477,982.014,150.828,980.922,148.645z"/>
	<linearGradient id="SVGID_32_" gradientUnits="userSpaceOnUse" x1="986.3525" y1="143.8418" x2="1046.9727" y2="143.8418">
		<stop  offset="0" style="stop-color:#2483C5"/>
		<stop  offset="1" style="stop-color:#00092A"/>
	</linearGradient>
	<path fill="url(#SVGID_32_)" d="M1046.973,111.983v37.827c0,5.235-0.77,9.633-2.311,13.192c-1.539,3.56-3.611,6.423-6.214,8.593
		c-2.603,2.168-5.615,3.726-9.043,4.666c-3.423,0.943-7.022,1.414-10.79,1.414c-3.769,0-7.375-0.487-10.816-1.458
		c-3.437-0.974-6.459-2.559-9.062-4.757c-2.603-2.199-4.675-5.072-6.216-8.615c-0.994-2.292-1.669-4.916-2.021-7.875
		c-0.01-0.087-0.021-0.187-0.03-0.297c-0.496-5.637-1.868-11.166-4.118-16.358l0,0c1.249,1.907,2.542,3.671,3.858,5.301
		c0.712,0.876,1.421,1.714,2.146,2.514c9.333,10.382,19.289,14.464,21.584,15.302c0.322,0.128,0.493,0.18,0.493,0.18
		c1.333,0.448,2.717,0.673,4.158,0.673c1.497,0,2.918-0.262,4.248-0.785s2.508-1.302,3.509-2.333
		c1.001-1.033,1.794-2.318,2.378-3.844c0.591-1.525,0.883-3.275,0.883-5.25v-38.089c0-0.54,0.186-1.003,0.561-1.393
		c0.373-0.388,0.874-0.583,1.502-0.583h13.104c0.688,0,1.226,0.202,1.615,0.605C1046.78,111.017,1046.973,111.475,1046.973,111.983z
		 M1007.576,111.983c0-0.569-0.248-1.041-0.741-1.414c-0.494-0.374-0.965-0.561-1.414-0.561h-13.423
		c-0.508,0-0.935,0.202-1.271,0.605c-0.346,0.403-0.517,0.861-0.517,1.37v22.305c0,1.936-1.856,3.332-3.718,2.793l0,0
		c1.011,1.136,2.26,2.446,3.718,3.829c0.658,0.621,1.354,1.257,2.093,1.893c2.603,2.245,5.696,4.533,9.189,6.418
		c2.773,1.497,6.137-0.58,6.127-3.731C1007.588,134.195,1007.576,111.983,1007.576,111.983z"/>
	<g>
		<linearGradient id="SVGID_33_" gradientUnits="userSpaceOnUse" x1="1123.8711" y1="144.6865" x2="1189.2275" y2="144.6865">
			<stop  offset="0" style="stop-color:#2483C5"/>
			<stop  offset="1" style="stop-color:#00092A"/>
		</linearGradient>
		<path fill="url(#SVGID_33_)" d="M1189.077,175.984l-23.559-60.755l-1.121-2.559c-0.181-0.239-0.45-0.515-0.81-0.831
			c-0.358-0.313-0.792-0.47-1.3-0.47H1150.8c-0.238,0-0.493,0.053-0.763,0.157c-0.269,0.105-0.523,0.246-0.762,0.425
			c-0.239,0.18-0.443,0.376-0.607,0.583c-0.162,0.21-0.26,0.405-0.292,0.584l-10.437,27.021c-2.063,5.345-6.308,9.558-11.673,11.576
			l0,0c0.329-0.004,7.858-0.013,8.179-0.027c16.095-0.674,19.495-11.75,19.495-11.75c0.002,0.004,0.581-1.791,0.876-2.68
			c0.331-1.003,0.66-1.967,0.989-2.894c0.236-0.678,1.201-0.663,1.428,0.019l5.483,16.377c0.341,1.019-0.417,2.069-1.49,2.069
			h-11.595h-23.794l0,0c3.425,1.692,4.994,5.718,3.617,9.282l-5.443,14.095c-0.239,0.6-0.172,1.049,0.201,1.348
			c0.375,0.301,0.846,0.447,1.414,0.447h13.237c1.136,0,1.898-0.553,2.29-1.659c0.565-1.524,1.143-3.044,1.727-4.554
			c0.385-1,0.77-2.002,1.149-3.011c0.348-0.929,1.235-1.545,2.228-1.545h20.524c0.994,0,1.884,0.623,2.231,1.553
			c0.375,1.005,0.751,2.006,1.126,3.003c0.568,1.51,1.152,3.029,1.75,4.554c0.209,0.601,0.501,1.024,0.874,1.279
			c0.375,0.254,0.906,0.38,1.595,0.38h12.878c0.807,0,1.377-0.185,1.704-0.561C1189.271,177.069,1189.315,176.585,1189.077,175.984z
			"/>
	</g>
	<linearGradient id="SVGID_34_" gradientUnits="userSpaceOnUse" x1="1055.7002" y1="144.6865" x2="1116.6357" y2="144.6865">
		<stop  offset="0" style="stop-color:#2483C5"/>
		<stop  offset="1" style="stop-color:#00092A"/>
	</linearGradient>
	<path fill="url(#SVGID_34_)" d="M1116.636,176.511c0,0.479-0.157,0.845-0.47,1.1c-0.315,0.255-0.742,0.382-1.279,0.382h-15.392
		c-0.507,0-0.964-0.149-1.367-0.45c-0.405-0.3-0.667-0.703-0.785-1.211l-10.867-20.432l-0.037-0.074h-7.271v0.074h-0.051v20.17
		c0,0.92-0.346,1.504-1.034,1.773c-0.104,0.028-0.208,0.067-0.328,0.09c-0.128,0.028-0.263,0.044-0.404,0.051
		c-0.097,0.017-0.194,0.017-0.299,0.017h-13.325c-0.601,0-1.078-0.157-1.438-0.473c-0.359-0.313-0.54-0.792-0.54-1.458v-19.706
		c-0.007-0.091-0.007-0.179-0.007-0.277v-2.087c0-2.378-0.561-4.688-1.592-6.759c-1.031-2.073-2.543-3.906-4.45-5.333h6.103
		l24.276,0.016c1.33,0.021,2.714-0.151,4.044-0.532c0.04-0.008,0.084-0.008,0.128-0.015c1.047-0.12,1.99-0.426,2.827-0.919
		c0.839-0.494,1.541-1.108,2.108-1.841c0.234-0.307,0.45-0.619,0.629-0.956c0.009-0.016,0.016-0.022,0.022-0.039
		c0.396-0.53,0.732-1.113,1.011-1.757c0.373-0.875,0.471-1.818,0.471-2.773c0-0.906-0.158-1.803-0.471-2.7
		c-0.315-0.898-0.771-1.69-1.369-2.401c-0.599-0.695-1.324-1.279-2.177-1.721c-0.507-0.27-1.055-0.464-1.646-0.567
		c-0.486-0.18-1.001-0.307-1.541-0.39c-0.837-0.06-1.622-0.111-2.354-0.157c-0.732-0.045-1.534-0.067-2.401-0.067h-6.192v0.501
		h-0.061v0.09c0,9.977-10.364,12.43-17.305,12.991c-0.014,0.007-0.037,0.007-0.054,0.007c-3.187,0.255-5.636,0.111-6.005,0.111
		h-0.044c3.755-2.324,6.042-6.423,6.042-10.844v-2.355h0.007v-12.16c0-0.621,0.167-1.123,0.496-1.495
		c0.179-0.204,0.403-0.352,0.672-0.434c0.111-0.046,0.226-0.076,0.346-0.09c0.072-0.008,0.148-0.023,0.223-0.031
		c0.074-0.006,0.157-0.006,0.241-0.006h29.613c2.864,0.059,5.564,0.634,8.086,1.711c2.69,1.152,5.038,2.714,7.043,4.689
		c2.005,1.975,3.583,4.285,4.735,6.933c0.141,0.329,0.275,0.665,0.405,1c0.071,0.203,0.148,0.405,0.206,0.615
		c0.017,0.036,0.032,0.082,0.047,0.127c0.134,0.434,0.262,0.867,0.373,1.315c0.449,1.78,0.674,3.591,0.674,5.407
		c0,0.644-0.029,1.346-0.083,2.087c-0.007,0.052-0.007,0.104-0.014,0.157c-0.179,2.318-0.638,4.929-1.36,6.836
		c-0.974,2.579-2.357,4.866-4.151,6.864c-1.393,1.563-3.008,2.888-4.832,3.972l10.867,20.46c0.209,0.42,0.478,0.913,0.807,1.482
		C1116.472,175.599,1116.636,176.093,1116.636,176.511z"/>
	<linearGradient id="SVGID_35_" gradientUnits="userSpaceOnUse" x1="1191.2539" y1="142.3721" x2="1254.4932" y2="142.3721">
		<stop  offset="0" style="stop-color:#2483C5"/>
		<stop  offset="1" style="stop-color:#00092A"/>
	</linearGradient>
	<path fill="url(#SVGID_35_)" d="M1212.538,161.391v14.636c0,0.659-0.15,1.152-0.449,1.48c-0.3,0.329-0.84,0.493-1.615,0.493
		h-12.745c-0.688,0-1.188-0.188-1.504-0.561c-0.313-0.373-0.471-0.829-0.471-1.368v-49.535c0-5.126-4.5-17.871-4.5-17.871
		C1191.958,109.899,1212.126,143.088,1212.538,161.391z M1253.864,111.882c-0.419-0.344-0.942-0.515-1.57-0.515h-12.789
		c-0.479,0-0.896,0.149-1.256,0.448c-0.359,0.299-0.601,0.718-0.719,1.256v35.942c-3.828-6.132-7.613-12.175-11.354-18.127
		c-3.738-5.953-7.507-11.997-11.308-18.129c-0.329-0.508-0.718-0.868-1.165-1.078c-0.447-0.209-0.883-0.313-1.301-0.313h-13.185
		c-0.005,0-0.009,0-0.014,0c-4.044-0.008-7.448-4.623-7.448-4.623c0.635,0.934,3.177,4.995,4.027,6.238
		c0.054,0.088,0.111,0.171,0.172,0.261c6.058,8.885,16.14,23.753,16.582,24.411v-0.174c4.007,6.582,7.956,13.089,11.845,19.521
		c3.89,6.432,7.822,12.938,11.802,19.519c0.328,0.449,0.642,0.808,0.942,1.078c0.3,0.269,0.643,0.402,1.032,0.402h14.313
		c0.628,0,1.122-0.141,1.481-0.426c0.358-0.283,0.54-0.726,0.54-1.323v-62.91C1254.493,112.711,1254.284,112.225,1253.864,111.882z"
		/>
	<linearGradient id="SVGID_36_" gradientUnits="userSpaceOnUse" x1="1261.4053" y1="143.6982" x2="1322.3359" y2="143.6982">
		<stop  offset="0" style="stop-color:#2483C5"/>
		<stop  offset="1" style="stop-color:#00092A"/>
	</linearGradient>
	<path fill="url(#SVGID_36_)" d="M1262.369,142.865c3.136,0.539,5.198-0.777,5.562-3.95c0.186-1.62,0.427-3.219,0.721-4.28
		c0.81-2.916,1.959-5.653,3.456-8.212c1.495-2.557,3.284-4.883,5.362-6.978c2.079-2.094,4.39-3.881,6.933-5.361
		c2.544-1.482,5.272-2.634,8.19-3.456c2.915-0.822,5.958-1.234,9.131-1.234c3.588,0,6.976,0.501,10.162,1.502
		c3.187,1.003,6.186,2.446,8.997,4.331c0.508,0.299,0.883,0.689,1.122,1.167c0.238,0.479,0.194,1.047-0.135,1.705l-7.583,10.769
		c-0.329,0.509-0.682,0.801-1.055,0.875c-0.373,0.076-0.832-0.051-1.37-0.382c-1.464-1.106-3.08-1.959-4.846-2.557
		c-1.764-0.6-3.634-0.897-5.608-0.897c-2.452,0-4.712,0.463-6.774,1.392c-2.064,0.928-3.847,2.197-5.342,3.813
		c-1.495,1.616-2.66,3.5-3.499,5.653c-0.837,2.155-1.257,4.459-1.257,6.912c0,0.263,0.025,0.573,0.074,0.921
		c0.57,4.236-3.594,7.546-7.604,6.06C1267.141,146.994,1262.526,142.989,1262.369,142.865z M1322.051,169.299l-6.612-9.514
		l-1.062-1.525c-0.358-0.479-0.718-0.747-1.077-0.807c-0.359-0.063-0.809,0.074-1.347,0.403c-7.593,4.55-18.14,2.694-20.851,2.043
		c-5.927-1.419-12.566-4.03-19.603-8.534c-1.217-0.778-2.459-1.623-3.701-2.521c-0.12-0.09-0.241-0.173-0.359-0.263
		c-1.298-0.95-2.611-1.979-3.935-3.071l-0.01-0.002l-0.186-0.157c-0.606-0.507-1.897-1.613-1.904-1.616l0.269,0.333
		c3.784,4.676,7.015,9.781,9.536,15.242c0.309,0.667,0.612,1.271,0.897,1.754c1.495,2.528,3.284,4.832,5.362,6.911
		c2.079,2.077,4.39,3.865,6.933,5.36c2.544,1.497,5.272,2.648,8.19,3.455c2.915,0.808,5.958,1.212,9.131,1.212
		c3.588,0,7.006-0.516,10.25-1.548c3.247-1.031,6.276-2.491,9.09-4.376c0.508-0.297,0.881-0.672,1.122-1.121
		C1322.424,170.511,1322.378,169.957,1322.051,169.299z"/>
	<linearGradient id="SVGID_37_" gradientUnits="userSpaceOnUse" x1="1328.248" y1="144.6865" x2="1383.8252" y2="144.6865">
		<stop  offset="0" style="stop-color:#2483C5"/>
		<stop  offset="1" style="stop-color:#00092A"/>
	</linearGradient>
	<path fill="url(#SVGID_37_)" d="M1383.825,164.672v11.273c0,0.299-0.12,0.568-0.359,0.806c-0.12,0.835-0.732,1.252-1.84,1.252
		h-45.371c-0.596,0-1.075-0.156-1.432-0.47c-0.357-0.314-0.536-0.8-0.536-1.458v-28.482c0-4.121-2.343-7.883-6.039-9.7l0,0
		l45.841-0.004c0.568,0,1.039,0.135,1.412,0.403c0.375,0.269,0.561,0.719,0.561,1.347v9.691c0,0.42-0.164,0.824-0.491,1.213
		c-0.331,0.389-0.809,0.582-1.437,0.582h-22.483v11.487h30.156C1383.151,162.612,1383.825,163.299,1383.825,164.672z
		 M1351.672,126.76h29.055c0.69,0,1.215-0.23,1.571-0.693c0.359-0.461,0.54-0.945,0.54-1.453v-11.097
		c0-0.656-0.181-1.178-0.54-1.565c-0.356-0.388-0.866-0.582-1.524-0.582h-44.519c-0.626,0-1.11,0.186-1.453,0.561
		c-0.345,0.375-0.515,0.875-0.515,1.502v13.622c0,4.11-2.331,7.865-6.012,9.688l-0.027,0.014c0.324-0.014,6.682-0.05,6.997-0.057
		C1351.21,136.294,1351.672,126.76,1351.672,126.76z"/>
</g>
</svg>
