<svg width="43" height="45" viewBox="0 0 43 45" fill="none" xmlns="http://www.w3.org/2000/svg">
<path fill-rule="evenodd" clip-rule="evenodd" d="M40.8986 21.9195C40.7186 22.2885 40.7186 22.7117 40.8986 23.0807L42.5676 26.5008C43.4968 28.4051 42.7606 30.6749 40.8915 31.6683L37.5345 33.4525C37.1724 33.645 36.9241 33.9874 36.8532 34.3919L36.1966 38.1413C35.831 40.229 33.9042 41.632 31.8085 41.335L28.0457 40.8019C27.6398 40.7448 27.2381 40.8752 26.9434 41.1607L24.212 43.8075C23.4518 44.5443 22.4757 44.9127 21.5 44.9128C20.5242 44.9129 19.5486 44.5445 18.7881 43.8075L16.0568 41.1607C15.7621 40.8752 15.3602 40.7442 14.9544 40.8019L11.1917 41.335C11.0039 41.3616 10.817 41.3746 10.6328 41.3746C8.76313 41.3748 7.1363 40.0419 6.80349 38.1414L6.14695 34.3918C6.07607 33.9874 5.82777 33.6449 5.46559 33.4525L2.10862 31.6683C0.239521 30.6748 -0.496723 28.4051 0.432496 26.5009L2.10146 23.0809C2.2815 22.7119 2.2815 22.2887 2.10146 21.9197L0.432584 18.4997C-0.496636 16.5954 0.239608 14.3256 2.10871 13.3322L5.46568 11.548C5.82777 11.3555 6.07607 11.0131 6.14695 10.6086L6.80349 6.85916C7.16908 4.77148 9.09621 3.36842 11.1916 3.66547L14.9543 4.19865C15.3604 4.2559 15.762 4.12537 16.0567 3.83978L18.7881 1.19275C20.3088 -0.281131 22.6913 -0.281044 24.2121 1.19275L26.9434 3.83952C27.238 4.12502 27.6396 4.25581 28.0457 4.19838L31.8085 3.66521C33.9032 3.36833 35.831 4.77121 36.1966 6.8589L36.8531 10.6085C36.924 11.0129 37.1723 11.3554 37.5345 11.5478L40.8915 13.3321C42.7606 14.3255 43.4968 16.5952 42.5676 18.4995L40.8986 21.9195ZM36.3248 31.1686L39.6818 29.3844C40.3142 29.0483 40.5633 28.2803 40.2488 27.6359L38.5799 24.2159C38.0478 23.1254 38.0478 21.8745 38.5799 20.7841L40.2488 17.3641C40.5632 16.7199 40.3141 15.952 39.6817 15.6159L36.3247 13.8316C35.2544 13.2628 34.5204 12.2508 34.311 11.0553L33.6545 7.30566C33.5308 6.59932 32.8784 6.12472 32.1698 6.22513L28.4071 6.7583C27.2073 6.92841 26.0197 6.5418 25.1488 5.69783L22.4175 3.05106C21.9029 2.55256 21.0968 2.55256 20.5824 3.05106L17.851 5.69783C16.9801 6.54171 15.7922 6.92841 14.5927 6.7583L10.8299 6.22513C10.1209 6.1248 9.46905 6.59932 9.34529 7.30566L8.68876 11.0552C8.47944 12.2508 7.74538 13.2626 6.6751 13.8316L3.31813 15.6159C2.68571 15.952 2.43663 16.7199 2.751 17.3641L4.41996 20.7842C4.95204 21.8747 4.95204 23.1254 4.41996 24.2159L2.751 27.636C2.43663 28.2803 2.68571 29.0482 3.31813 29.3843L6.6751 31.1685C7.74547 31.7373 8.47944 32.7493 8.68885 33.9449L9.34547 37.6945C9.46923 38.4008 10.1217 38.8753 10.8301 38.775L14.5929 38.2418C14.7787 38.2155 14.9642 38.2025 15.1483 38.2025C16.1528 38.2025 17.1151 38.5891 17.8512 39.3023L20.5825 41.9491C21.0971 42.4476 21.9031 42.4476 22.4176 41.9491L25.1489 39.3024C26.0199 38.4585 27.2073 38.0717 28.4072 38.2419L32.17 38.7751C32.8791 38.8753 33.531 38.4009 33.6546 37.6946L34.3112 33.945C34.5205 32.7495 35.2545 31.7376 36.3248 31.1686Z" fill="white"/>
<path d="M30.9293 13.0549C30.4254 12.5501 29.6082 12.5501 29.1043 13.0549L12.0713 30.1173C11.5674 30.6221 11.5674 31.4406 12.0713 31.9454C12.3233 32.1978 12.6536 32.324 12.9838 32.324C13.3139 32.324 13.6443 32.1979 13.8962 31.9454L30.9292 14.8831C31.4333 14.3782 31.4333 13.5598 30.9293 13.0549Z" fill="white"/>
<path fill-rule="evenodd" clip-rule="evenodd" d="M11.6064 15.606C11.6064 12.9925 13.7291 10.8662 16.3381 10.8662C18.9471 10.8662 21.0698 12.9925 21.0698 15.606C21.0698 18.2195 18.9471 20.3458 16.3381 20.3458C13.7291 20.3458 11.6064 18.2195 11.6064 15.606ZM14.1874 15.6059C14.1874 16.7939 15.1522 17.7604 16.3381 17.7604C17.524 17.7604 18.4888 16.7939 18.4889 15.6059C18.4889 14.4179 17.524 13.4515 16.3381 13.4515C15.1522 13.4515 14.1874 14.4179 14.1874 15.6059Z" fill="white"/>
<path fill-rule="evenodd" clip-rule="evenodd" d="M21.9302 29.3944C21.9302 26.7809 24.0528 24.6546 26.6618 24.6546C29.2709 24.6546 31.3935 26.7809 31.3935 29.3944C31.3935 32.0079 29.2709 34.1342 26.6618 34.1342C24.0528 34.1342 21.9302 32.0079 21.9302 29.3944ZM24.511 29.3944C24.511 30.5823 25.4759 31.5488 26.6618 31.5488C27.8477 31.5488 28.8125 30.5823 28.8125 29.3944C28.8125 28.2064 27.8477 27.24 26.6618 27.24C25.4758 27.24 24.511 28.2064 24.511 29.3944Z" fill="white"/>
</svg>
