<svg width="12" height="12" viewBox="0 0 12 12" fill="none" xmlns="http://www.w3.org/2000/svg">
<path d="M11.9745 9.29778C11.9405 9.19551 11.7246 9.04486 11.3268 8.84617C11.219 8.78354 11.0654 8.69844 10.8667 8.59047C10.6679 8.4825 10.4873 8.38301 10.3255 8.29208C10.1633 8.20118 10.0114 8.11312 9.86947 8.02802C9.84678 8.01097 9.77576 7.96133 9.65644 7.87877C9.537 7.79644 9.43628 7.73533 9.35374 7.69548C9.27137 7.65587 9.19035 7.63593 9.1108 7.63593C8.99718 7.63593 8.85526 7.71694 8.68486 7.87877C8.51446 8.0408 8.35815 8.2168 8.21617 8.4073C8.07416 8.59772 7.92356 8.77372 7.76462 8.93566C7.60545 9.09766 7.47466 9.17859 7.37251 9.17859C7.32122 9.17859 7.25727 9.16429 7.18064 9.13608C7.10404 9.10769 7.04577 9.08337 7.00576 9.06375C6.96612 9.04372 6.89809 9.00408 6.80142 8.94423C6.70458 8.88456 6.65073 8.85187 6.63938 8.84617C5.86097 8.41426 5.19338 7.91993 4.63648 7.3633C4.07976 6.80634 3.58534 6.13885 3.15352 5.3604C3.14784 5.34903 3.1151 5.29503 3.05548 5.19849C2.99578 5.10186 2.95598 5.03377 2.9361 4.99389C2.91622 4.95416 2.89207 4.89589 2.86371 4.81921C2.83535 4.74252 2.82111 4.67864 2.82111 4.62744C2.82111 4.52524 2.9021 4.39449 3.06405 4.23538C3.22597 4.07637 3.40216 3.92574 3.59244 3.7838C3.78287 3.64186 3.95888 3.48556 4.12086 3.31517C4.28278 3.14469 4.36374 3.00272 4.36374 2.88911C4.36374 2.80962 4.34386 2.72857 4.30413 2.64622C4.26436 2.56368 4.20329 2.46296 4.12086 2.34359C4.03841 2.22427 3.9887 2.15332 3.97163 2.13048C3.88649 1.98854 3.79851 1.83657 3.70749 1.67463C3.61647 1.51272 3.51712 1.33224 3.40912 1.13341C3.3012 0.934659 3.21603 0.781196 3.15346 0.673255C2.9547 0.275613 2.80415 0.0596121 2.70185 0.0256419C2.66205 0.00859704 2.60235 0 2.52288 0C2.36938 0 2.16912 0.0283583 1.92197 0.0852539C1.67473 0.14206 1.48018 0.201642 1.33812 0.264239C1.05401 0.383493 0.752884 0.730062 0.434655 1.30382C0.144875 1.8378 0 2.3663 0 2.88896C0 3.04225 0.00994094 3.19138 0.0298228 3.3364C0.0497047 3.48126 0.0852294 3.64464 0.136427 3.82649C0.187534 4.00828 0.228761 4.14332 0.259927 4.23126C0.291123 4.31926 0.349366 4.47691 0.434625 4.70425C0.519765 4.93153 0.570962 5.07067 0.588008 5.1218C0.786857 5.67864 1.02266 6.17575 1.29537 6.61327C1.74405 7.3405 2.35636 8.09205 3.13193 8.86763C3.90754 9.64316 4.65899 10.2554 5.38632 10.7042C5.82381 10.9769 6.32112 11.2127 6.87791 11.4116C6.92907 11.4286 7.06822 11.4797 7.29543 11.5651C7.52272 11.6503 7.68044 11.7085 7.76844 11.7398C7.85648 11.7711 7.99156 11.8123 8.17321 11.8635C8.35525 11.9147 8.51849 11.9502 8.66336 11.9703C8.80833 11.9899 8.9575 12 9.11083 12C9.63349 12 10.1621 11.855 10.6962 11.5653C11.2699 11.2472 11.6164 10.9461 11.7357 10.6618C11.7985 10.5198 11.8579 10.3252 11.9147 10.078C11.9717 9.83092 12 9.63071 12 9.47725C12.0002 9.39746 11.9916 9.3379 11.9745 9.29778Z" fill="#1966FF"/>
</svg>
