<svg width="45" height="45" viewBox="0 0 45 45" fill="none" xmlns="http://www.w3.org/2000/svg">
<path fill-rule="evenodd" clip-rule="evenodd" d="M43.3634 13.5975C44.1663 15.4714 44.6698 17.4457 44.8597 19.4658C44.929 20.2027 44.9562 20.9601 44.9409 21.7167L44.9406 21.7278L44.9386 21.7941C44.9231 22.3165 44.5857 22.7732 44.0946 22.9365L38.2105 24.8927C38.2084 24.8933 37.9776 24.9547 37.8266 24.9547C37.6755 24.9547 37.4441 24.893 37.442 24.8921L32.3597 23.1963L27.2777 24.8921C27.0634 24.9637 26.8336 24.9741 26.6139 24.9223L23.5463 24.1992L23.7693 39.7036C23.7693 42.6045 21.435 44.9645 18.5658 44.9645C15.6967 44.9645 13.3624 42.6046 13.3624 39.7036C13.3624 39.0179 13.9123 38.4619 14.5905 38.4619C15.2688 38.4619 15.8187 39.0179 15.8187 39.7036C15.8187 41.2351 17.0511 42.4811 18.5658 42.4811C20.0806 42.4811 21.313 41.2351 21.313 39.7036V24.2193L18.3312 24.9223C18.1115 24.9741 17.8818 24.9637 17.6674 24.8921L12.5854 23.1963L7.50322 24.8921C7.50096 24.893 7.26967 24.9547 7.11856 24.9547C6.96744 24.9547 6.73665 24.8933 6.73458 24.8927L0.850586 22.9365C0.359517 22.7732 0.0221149 22.3165 0.00659083 21.7941L0.00462577 21.7278L0.00433101 21.7167C-0.0113895 20.9601 0.0157284 20.2027 0.0849969 19.4658C0.274921 17.4457 0.77837 15.4713 1.5812 13.5975C2.38059 11.7316 3.47248 9.97659 4.82621 8.38093C6.16815 6.79937 7.74482 5.39484 9.5124 4.20626C11.2225 3.05633 13.0936 2.12484 15.0739 1.43742C16.1357 1.06898 17.227 0.772055 18.3386 0.547154L18.3528 0.544273C19.3084 0.351459 20.279 0.211889 21.2592 0.12785C22.0171 0.0628827 22.9276 0.0628827 23.6855 0.12785C24.6656 0.211889 25.6361 0.351558 26.5918 0.544273L26.6061 0.547154C27.7176 0.771956 28.8089 1.06898 29.8708 1.43742C31.8512 2.12484 33.7223 3.05633 35.4323 4.20626C37.1998 5.39474 38.7765 6.79937 40.1184 8.38093C41.4721 9.97659 42.5639 11.7317 43.3634 13.5975ZM5.97695 22.0266C6.11401 20.3917 6.46714 17.7298 7.37824 14.745C8.49449 11.0883 10.156 7.94285 12.2898 5.40318C11.8056 5.67636 11.3319 5.96543 10.8727 6.27417C9.2928 7.33649 7.88582 8.58934 6.69066 9.99795C5.49738 11.4044 4.53666 12.9477 3.83513 14.5848C3.13478 16.2192 2.69578 17.9404 2.53023 19.7008C2.49456 20.0811 2.47167 20.4681 2.46184 20.8579L5.97695 22.0266ZM16.6318 16.9776C16.4498 19.0286 16.4912 20.7122 16.5847 21.9157L12.9701 20.7095C12.8451 20.6678 12.7152 20.647 12.5852 20.647C12.4552 20.647 12.3252 20.6678 12.2002 20.7095L8.45058 21.9608C8.59275 20.4429 8.92897 18.086 9.72522 15.4773C11.5078 9.63755 14.6322 5.42354 19.0114 2.94646C19.6658 2.8198 20.3276 2.72066 20.9954 2.64994C17.9608 8.38133 16.9382 13.5269 16.6318 16.9776ZM22.9188 20.7067L25.8675 21.9978C25.9776 20.9001 26.0636 19.3293 25.8561 17.0867C25.5868 14.174 24.7604 9.95146 22.4723 5.18772C20.1842 9.95146 19.3578 14.174 19.0885 17.0867C18.881 19.3293 18.9671 20.9001 19.0772 21.9978L22.0737 20.6953C22.0737 20.6953 22.285 20.6003 22.4723 20.6019C22.6874 20.6036 22.9188 20.7067 22.9188 20.7067ZM32.7445 20.7095C32.6196 20.6678 32.4895 20.647 32.3595 20.647C32.2295 20.647 32.0995 20.6678 31.9746 20.7095L28.36 21.9157C28.4535 20.7122 28.4949 19.0286 28.313 16.9776C28.0066 13.5268 26.984 8.38123 23.9494 2.65004C24.6172 2.72076 25.279 2.8198 25.9334 2.94656C30.3125 5.42374 33.4369 9.63765 35.2196 15.4774C36.0158 18.086 36.352 20.443 36.4942 21.9609L32.7445 20.7095ZM37.5665 14.745C38.4777 17.7298 38.8307 20.3917 38.9678 22.0266L42.4828 20.8578C42.4729 20.468 42.4501 20.081 42.4144 19.7007C42.2489 17.9404 41.8097 16.219 41.1093 14.5847C40.4078 12.9475 39.4471 11.4043 38.2538 9.99785C37.0587 8.58934 35.6517 7.33639 34.0718 6.27407C33.6127 5.96533 33.139 5.67626 32.6547 5.40308C34.7886 7.94285 36.4502 11.0882 37.5665 14.745Z" fill="white"/>
</svg>
