<svg width="47" height="44" viewBox="0 0 47 44" fill="none" xmlns="http://www.w3.org/2000/svg">
<path fill-rule="evenodd" clip-rule="evenodd" d="M29.5931 17.773C30.5412 18.3034 32.7968 19.1923 37.2562 19.1923C41.7153 19.1923 43.9712 18.3034 44.9189 17.7738C45.7592 17.2893 46.0886 16.2363 45.6754 15.3549L38.8946 1.19722C38.5948 0.561015 37.9584 0.155366 37.259 0.154177C36.5596 0.152989 35.9217 0.557053 35.6202 1.19246L28.8304 15.3692C28.425 16.2482 28.7564 17.2932 29.5931 17.773ZM37.1716 1.9384C37.1846 1.90354 37.2192 1.88135 37.2562 1.88452C37.2948 1.88215 37.3306 1.90631 37.3428 1.94355L44.12 16.0925C44.1499 16.1496 44.135 16.2205 44.0846 16.2605C43.4384 16.6214 41.4796 17.4616 37.2562 17.4616C33.0325 17.4616 31.0737 16.6214 30.4275 16.2601C30.3799 16.2249 30.3629 16.1611 30.3862 16.1064L37.1716 1.9384Z" fill="white"/>
<path d="M29.5931 17.773L29.5185 17.9031L29.5199 17.9039L29.5931 17.773ZM44.9189 17.7738L44.9921 17.9047L44.9939 17.9037L44.9189 17.7738ZM45.6754 15.3549L45.8112 15.2912L45.8107 15.2901L45.6754 15.3549ZM38.8946 1.19722L38.759 1.26118L38.7594 1.26201L38.8946 1.19722ZM37.259 0.154177L37.2587 0.304177L37.259 0.154177ZM35.6202 1.19246L35.7555 1.25726L35.7557 1.25676L35.6202 1.19246ZM28.8304 15.3692L28.6951 15.3044L28.6942 15.3064L28.8304 15.3692ZM37.2562 1.88452L37.2434 2.03398L37.2544 2.03492L37.2655 2.03424L37.2562 1.88452ZM37.1716 1.9384L37.3075 2.00345L37.3122 1.99077L37.1716 1.9384ZM37.3428 1.94355L37.2003 1.99025L37.2033 1.99954L37.2075 2.00835L37.3428 1.94355ZM44.12 16.0925L43.9846 16.1574L43.9872 16.1622L44.12 16.0925ZM44.0846 16.2605L44.1577 16.3915L44.1683 16.3855L44.1779 16.378L44.0846 16.2605ZM30.4275 16.2601L30.3382 16.3807L30.3459 16.3864L30.3543 16.391L30.4275 16.2601ZM30.3862 16.1064L30.2507 16.0415L30.2481 16.0478L30.3862 16.1064ZM37.2562 19.0423C32.8167 19.0423 30.5876 18.1575 29.6664 17.6421L29.5199 17.9039C30.4949 18.4494 32.7768 19.3423 37.2562 19.3423V19.0423ZM44.8458 17.6428C43.9249 18.1575 41.6954 19.0423 37.2562 19.0423V19.3423C41.7353 19.3423 44.0176 18.4494 44.9921 17.9047L44.8458 17.6428ZM45.5396 15.4186C45.9199 16.2298 45.6164 17.1985 44.844 17.6438L44.9939 17.9037C45.902 17.3801 46.2573 16.2428 45.8112 15.2912L45.5396 15.4186ZM38.7594 1.26201L45.5401 15.4197L45.8107 15.2901L39.0299 1.13242L38.7594 1.26201ZM37.2587 0.304177C37.8997 0.305266 38.4836 0.677069 38.759 1.26118L39.0303 1.13326C38.7059 0.444961 38.017 0.00546525 37.2592 0.00417763L37.2587 0.304177ZM35.7557 1.25676C36.0325 0.673423 36.6178 0.303088 37.2587 0.304177L37.2592 0.00417763C36.5015 0.00288992 35.8108 0.440684 35.4847 1.12817L35.7557 1.25676ZM28.9657 15.434L35.7555 1.25726L35.4849 1.12767L28.6951 15.3044L28.9657 15.434ZM29.6677 17.6428C28.8989 17.202 28.5936 16.2409 28.9666 15.432L28.6942 15.3064C28.2565 16.2555 28.614 17.3845 29.5185 17.9031L29.6677 17.6428ZM37.269 1.73507C37.1641 1.72608 37.0673 1.78885 37.0311 1.88603L37.3122 1.99077C37.3019 2.01823 37.2744 2.03663 37.2434 2.03398L37.269 1.73507ZM37.4854 1.89685C37.452 1.79489 37.3539 1.72822 37.247 1.73481L37.2655 2.03424C37.2357 2.03607 37.2093 2.01774 37.2003 1.99025L37.4854 1.89685ZM44.2553 16.0277L37.4781 1.87875L37.2075 2.00835L43.9847 16.1573L44.2553 16.0277ZM44.1779 16.378C44.2848 16.2931 44.3162 16.1436 44.2529 16.0229L43.9872 16.1622C43.9853 16.1586 43.985 16.1549 43.9856 16.152C43.9863 16.149 43.988 16.1456 43.9913 16.143L44.1779 16.378ZM37.2562 17.6116C41.4995 17.6116 43.4846 16.7674 44.1577 16.3915L44.0115 16.1295C43.3921 16.4754 41.4597 17.3116 37.2562 17.3116V17.6116ZM30.3543 16.391C31.0274 16.7674 33.0126 17.6116 37.2562 17.6116V17.3116C33.0523 17.3116 31.12 16.4754 30.5007 16.1292L30.3543 16.391ZM30.2481 16.0478C30.1982 16.1653 30.234 16.3035 30.3382 16.3807L30.5167 16.1395C30.5257 16.1462 30.5277 16.1569 30.5242 16.165L30.2481 16.0478ZM37.0363 1.87361L30.2509 16.0416L30.5214 16.1712L37.3069 2.00319L37.0363 1.87361Z" fill="white"/>
<path fill-rule="evenodd" clip-rule="evenodd" d="M29.5931 17.773C30.5412 18.3034 32.7968 19.1924 37.2562 19.1924C41.7153 19.1924 43.9712 18.3034 44.9189 17.7738C45.7592 17.2893 46.0882 16.2363 45.675 15.3549L44.0633 11.9897C43.8858 11.6169 43.4702 11.4232 43.0727 11.5282C39.2563 12.5118 35.2554 12.5118 31.439 11.5282C31.0418 11.424 30.6266 11.6173 30.4483 11.9897L28.8304 15.3692C28.425 16.2482 28.7564 17.2933 29.5931 17.773ZM30.3862 16.1064L31.6952 13.3726C35.3561 14.2057 39.156 14.2057 42.8169 13.3726L44.12 16.0925C44.1499 16.1496 44.135 16.2205 44.0846 16.2605C43.4384 16.6214 41.4796 17.4616 37.2562 17.4616C33.0325 17.4616 31.0737 16.6214 30.4275 16.2601C30.3799 16.2249 30.3629 16.1611 30.3862 16.1064Z" fill="white"/>
<path d="M29.5931 17.773L29.5185 17.9031L29.5199 17.9039L29.5931 17.773ZM44.9189 17.7738L44.9921 17.9047L44.9939 17.9037L44.9189 17.7738ZM45.675 15.3549L45.8108 15.2913L45.8103 15.2901L45.675 15.3549ZM44.0633 11.9897L43.9279 12.0542L43.9281 12.0545L44.0633 11.9897ZM43.0727 11.5282L43.1102 11.6735L43.111 11.6732L43.0727 11.5282ZM31.439 11.5282L31.4009 11.6733L31.4015 11.6735L31.439 11.5282ZM30.4483 11.9897L30.3131 11.9249L30.3131 11.9249L30.4483 11.9897ZM28.8304 15.3692L28.6951 15.3044L28.6942 15.3064L28.8304 15.3692ZM31.6952 13.3726L31.7284 13.2264L31.6116 13.1998L31.5599 13.3079L31.6952 13.3726ZM30.3862 16.1064L30.2507 16.0416L30.2481 16.0478L30.3862 16.1064ZM42.8169 13.3726L42.9522 13.3078L42.9004 13.1998L42.7836 13.2264L42.8169 13.3726ZM44.12 16.0925L43.9846 16.1574L43.9872 16.1622L44.12 16.0925ZM44.0846 16.2605L44.1577 16.3915L44.1684 16.3855L44.1779 16.378L44.0846 16.2605ZM30.4275 16.2601L30.3382 16.3807L30.3459 16.3864L30.3543 16.391L30.4275 16.2601ZM37.2562 19.0424C32.8167 19.0424 30.5876 18.1575 29.6664 17.6421L29.5199 17.9039C30.4949 18.4494 32.7768 19.3424 37.2562 19.3424V19.0424ZM44.8458 17.6428C43.9249 18.1575 41.6954 19.0424 37.2562 19.0424V19.3424C41.7353 19.3424 44.0176 18.4494 44.9921 17.9047L44.8458 17.6428ZM45.5392 15.4186C45.9195 16.2299 45.6164 17.1985 44.844 17.6438L44.9939 17.9037C45.9021 17.3801 46.2569 16.2428 45.8108 15.2913L45.5392 15.4186ZM43.9281 12.0545L45.5397 15.4197L45.8103 15.2901L44.1986 11.9249L43.9281 12.0545ZM43.111 11.6732C43.4383 11.5868 43.7812 11.7461 43.9279 12.0542L44.1988 11.9252C43.9905 11.4878 43.5022 11.2597 43.0344 11.3832L43.111 11.6732ZM31.4015 11.6735C35.2425 12.6634 39.2692 12.6634 43.1102 11.6735L43.0353 11.383C39.2435 12.3602 35.2682 12.3602 31.4764 11.383L31.4015 11.6735ZM30.5836 12.0545C30.7311 11.7465 31.0739 11.5875 31.4009 11.6733L31.477 11.3831C31.0098 11.2605 30.5222 11.4882 30.3131 11.9249L30.5836 12.0545ZM28.9657 15.434L30.5836 12.0545L30.3131 11.9249L28.6951 15.3044L28.9657 15.434ZM29.6677 17.6429C28.8989 17.202 28.5936 16.2409 28.9666 15.432L28.6942 15.3064C28.2565 16.2555 28.614 17.3845 29.5185 17.9031L29.6677 17.6429ZM31.5599 13.3079L30.2509 16.0416L30.5215 16.1712L31.8305 13.4374L31.5599 13.3079ZM42.7836 13.2264C39.1446 14.0545 35.3675 14.0545 31.7284 13.2264L31.6619 13.5189C35.3447 14.357 39.1673 14.357 42.8502 13.5189L42.7836 13.2264ZM44.2553 16.0277L42.9522 13.3078L42.6816 13.4375L43.9847 16.1574L44.2553 16.0277ZM44.1779 16.378C44.2848 16.2931 44.3162 16.1436 44.2529 16.0229L43.9872 16.1622C43.9853 16.1586 43.985 16.1549 43.9856 16.152C43.9863 16.149 43.988 16.1456 43.9913 16.1431L44.1779 16.378ZM37.2562 17.6116C41.4995 17.6116 43.4846 16.7674 44.1577 16.3915L44.0115 16.1295C43.3921 16.4754 41.4597 17.3116 37.2562 17.3116V17.6116ZM30.3543 16.391C31.0274 16.7674 33.0126 17.6116 37.2562 17.6116V17.3116C33.0523 17.3116 31.12 16.4754 30.5007 16.1292L30.3543 16.391ZM30.2481 16.0478C30.1982 16.1653 30.234 16.3035 30.3382 16.3807L30.5167 16.1396C30.5257 16.1462 30.5277 16.1569 30.5242 16.1651L30.2481 16.0478Z" fill="white"/>
<path fill-rule="evenodd" clip-rule="evenodd" d="M31.0067 13.2031C33.0477 13.7343 35.1478 14.0021 37.2561 14.0001C39.364 14.0021 41.4641 13.7343 43.5051 13.2031C43.7539 13.1377 43.9609 12.9638 44.0687 12.7289C44.1769 12.494 44.175 12.223 44.0636 11.9897L41.7538 7.16788C41.5814 6.81016 41.1898 6.61605 40.8033 6.69607C38.4651 7.20155 36.0467 7.20155 33.7085 6.69607C33.322 6.61645 32.9308 6.81056 32.758 7.16788L30.4482 11.9897C30.3368 12.223 30.3349 12.4944 30.4431 12.7293C30.5513 12.9638 30.758 13.1377 31.0067 13.2031ZM42.0489 11.7702C38.8874 12.4326 35.624 12.4326 32.4625 11.7702L34.0202 8.51872C36.1604 8.90218 38.3514 8.90218 40.4916 8.51872L42.0489 11.7702Z" fill="white"/>
<path d="M37.2561 14.0001L37.2562 13.8501H37.256L37.2561 14.0001ZM31.0067 13.2031L30.9686 13.3482L30.9689 13.3483L31.0067 13.2031ZM43.5051 13.2031L43.5429 13.3483L43.5433 13.3482L43.5051 13.2031ZM44.0687 12.7289L43.9325 12.6661L43.9324 12.6663L44.0687 12.7289ZM44.0636 11.9897L44.199 11.9251L44.1989 11.9249L44.0636 11.9897ZM41.7538 7.16788L41.889 7.10307L41.8889 7.10276L41.7538 7.16788ZM40.8033 6.69607L40.7729 6.54918L40.7716 6.54946L40.8033 6.69607ZM33.7085 6.69607L33.7402 6.54945L33.7388 6.54916L33.7085 6.69607ZM32.758 7.16788L32.623 7.10258L32.6228 7.10307L32.758 7.16788ZM30.4482 11.9897L30.3129 11.9249L30.3128 11.9251L30.4482 11.9897ZM30.4431 12.7293L30.3069 12.7921L30.3069 12.7922L30.4431 12.7293ZM32.4625 11.7702L32.3272 11.7054L32.2446 11.8779L32.4317 11.9171L32.4625 11.7702ZM42.0489 11.7702L42.0797 11.9171L42.2668 11.8779L42.1842 11.7055L42.0489 11.7702ZM34.0202 8.51872L34.0467 8.37107L33.9343 8.35093L33.8849 8.45391L34.0202 8.51872ZM40.4916 8.51872L40.6269 8.45392L40.5776 8.35093L40.4651 8.37107L40.4916 8.51872ZM37.256 13.8501C35.1604 13.8521 33.0731 13.5859 31.0445 13.0579L30.9689 13.3483C33.0223 13.8827 35.1351 14.1521 37.2562 14.1501L37.256 13.8501ZM43.4673 13.0579C41.4387 13.5859 39.3514 13.8521 37.2562 13.8501L37.256 14.1501C39.3767 14.1521 41.4895 13.8827 43.5429 13.3483L43.4673 13.0579ZM43.9324 12.6663C43.8432 12.8605 43.6722 13.0041 43.467 13.058L43.5433 13.3482C43.8355 13.2714 44.0785 13.0671 44.205 12.7915L43.9324 12.6663ZM43.9282 12.0543C44.0204 12.2475 44.022 12.4718 43.9325 12.6661L44.205 12.7917C44.3319 12.5162 44.3295 12.1986 44.199 11.9251L43.9282 12.0543ZM41.6185 7.23268L43.9283 12.0545L44.1989 11.9249L41.889 7.10307L41.6185 7.23268ZM40.8337 6.84296C41.1523 6.77698 41.4759 6.93687 41.6186 7.23299L41.8889 7.10276C41.6868 6.68345 41.2272 6.45512 40.7729 6.54919L40.8337 6.84296ZM33.6768 6.84268C36.0359 7.35268 38.4759 7.35268 40.835 6.84268L40.7716 6.54946C38.4543 7.05042 36.0575 7.05042 33.7402 6.54946L33.6768 6.84268ZM32.8931 7.23317C33.0362 6.93723 33.3596 6.77733 33.6782 6.84299L33.7388 6.54916C33.2845 6.45556 32.8255 6.68388 32.623 7.10258L32.8931 7.23317ZM30.5835 12.0545L32.8933 7.23268L32.6228 7.10307L30.3129 11.9249L30.5835 12.0545ZM30.5793 12.6665C30.4898 12.4721 30.4914 12.2475 30.5836 12.0543L30.3128 11.9251C30.1823 12.1986 30.18 12.5166 30.3069 12.7921L30.5793 12.6665ZM31.0448 13.058C30.8397 13.0041 30.6689 12.8606 30.5793 12.6665L30.3069 12.7922C30.4338 13.0671 30.6762 13.2713 30.9686 13.3482L31.0448 13.058ZM32.4317 11.9171C35.6135 12.5837 38.8979 12.5837 42.0797 11.9171L42.0182 11.6234C38.877 12.2815 35.6345 12.2815 32.4932 11.6234L32.4317 11.9171ZM33.8849 8.45391L32.3272 11.7054L32.5978 11.8351L34.1555 8.58353L33.8849 8.45391ZM40.4651 8.37107C38.3424 8.7514 36.1694 8.7514 34.0467 8.37107L33.9938 8.66637C36.1515 9.05297 38.3604 9.05297 40.5181 8.66637L40.4651 8.37107ZM42.1842 11.7055L40.6269 8.45392L40.3563 8.58351L41.9137 11.835L42.1842 11.7055Z" fill="white"/>
<path fill-rule="evenodd" clip-rule="evenodd" d="M33.3567 8.39075C34.639 8.66409 35.9456 8.80353 37.2562 8.8075C38.5663 8.80393 39.873 8.66409 41.1552 8.39075C41.4142 8.33648 41.6338 8.16495 41.7507 7.92648C41.8672 7.6876 41.8688 7.40793 41.7538 7.16787L38.8946 1.19722C38.5947 0.561015 37.9583 0.155366 37.2589 0.154177C36.5596 0.152989 35.9216 0.557053 35.6201 1.19246L32.7581 7.16787C32.6436 7.40753 32.6448 7.68721 32.7617 7.92608C32.8785 8.16495 33.0978 8.33609 33.3567 8.39075ZM39.7128 6.89175C38.0838 7.13776 36.4281 7.13776 34.7991 6.89175L37.1716 1.9384C37.1877 1.90354 37.3219 1.89839 37.3428 1.94355L39.7128 6.89175Z" fill="white"/>
<path d="M37.2562 8.8075L37.2557 8.9575L37.2566 8.95749L37.2562 8.8075ZM33.3567 8.39075L33.388 8.24405L33.3877 8.24399L33.3567 8.39075ZM41.1552 8.39075L41.1245 8.24394L41.1239 8.24405L41.1552 8.39075ZM41.7507 7.92648L41.8854 7.9925L41.8855 7.99223L41.7507 7.92648ZM41.7538 7.16787L41.8891 7.1031L41.8891 7.10308L41.7538 7.16787ZM38.8946 1.19722L38.7589 1.26118L38.7593 1.26201L38.8946 1.19722ZM37.2589 0.154177L37.2587 0.304177L37.2589 0.154177ZM35.6201 1.19246L35.7554 1.25726L35.7556 1.25676L35.6201 1.19246ZM32.7581 7.16787L32.6228 7.10307L32.6228 7.10319L32.7581 7.16787ZM32.7617 7.92608L32.6269 7.99201H32.6269L32.7617 7.92608ZM34.7991 6.89175L34.6639 6.82696L34.5763 7.0098L34.7767 7.04007L34.7991 6.89175ZM39.7128 6.89175L39.7352 7.04007L39.9357 7.0098L39.8481 6.82696L39.7128 6.89175ZM37.1716 1.9384L37.3068 2.0032L37.3077 2.00141L37.1716 1.9384ZM37.3428 1.94355L37.2066 2.00645L37.2075 2.00835L37.3428 1.94355ZM37.2566 8.6575C35.9564 8.65357 34.6601 8.51522 33.388 8.24405L33.3255 8.53746C34.6178 8.81296 35.9348 8.9535 37.2557 8.95749L37.2566 8.6575ZM41.1239 8.24405C39.8518 8.51523 38.5555 8.65396 37.2558 8.6575L37.2566 8.95749C38.5772 8.9539 39.8941 8.81295 41.1865 8.53746L41.1239 8.24405ZM41.616 7.86046C41.5193 8.05776 41.3378 8.19923 41.1245 8.24394L41.186 8.53757C41.4905 8.47374 41.7483 8.27215 41.8854 7.9925L41.616 7.86046ZM41.6185 7.23263C41.7136 7.43121 41.7124 7.66282 41.6159 7.86073L41.8855 7.99223C42.022 7.71238 42.0239 7.38464 41.8891 7.1031L41.6185 7.23263ZM38.7593 1.26201L41.6185 7.23265L41.8891 7.10308L39.0299 1.13243L38.7593 1.26201ZM37.2587 0.304177C37.8997 0.305266 38.4836 0.677069 38.7589 1.26118L39.0303 1.13326C38.7058 0.444961 38.0169 0.00546525 37.2592 0.00417763L37.2587 0.304177ZM35.7556 1.25676C36.0324 0.673423 36.6177 0.303088 37.2587 0.304177L37.2592 0.00417763C36.5014 0.00288992 35.8108 0.440684 35.4846 1.12817L35.7556 1.25676ZM32.8934 7.23266L35.7554 1.25726L35.4848 1.12767L32.6228 7.10307L32.8934 7.23266ZM32.8964 7.86015C32.7997 7.66245 32.7987 7.43088 32.8935 7.23254L32.6228 7.10319C32.4885 7.38418 32.4899 7.71196 32.6269 7.99201L32.8964 7.86015ZM33.3877 8.24399C33.1742 8.19891 32.9931 8.05775 32.8964 7.86015L32.6269 7.99201C32.764 8.27215 33.0214 8.47327 33.3257 8.53752L33.3877 8.24399ZM34.7767 7.04007C36.4206 7.28832 38.0914 7.28832 39.7352 7.04007L39.6904 6.74344C38.0763 6.9872 36.4357 6.9872 34.8215 6.74344L34.7767 7.04007ZM37.0363 1.87361L34.6639 6.82696L34.9344 6.95655L37.3068 2.00319L37.0363 1.87361ZM37.4789 1.88065C37.4479 1.81355 37.3876 1.78684 37.3575 1.77667C37.3221 1.76475 37.2858 1.76097 37.2554 1.76097C37.2248 1.76097 37.1904 1.7648 37.158 1.77481C37.1418 1.7798 37.1215 1.78771 37.1014 1.8007C37.0822 1.81309 37.0535 1.8363 37.0354 1.87539L37.3077 2.00141C37.2936 2.03178 37.2727 2.0472 37.264 2.05282C37.2544 2.05903 37.2474 2.06117 37.2464 2.06149C37.2443 2.06213 37.2478 2.06097 37.2554 2.06097C37.2631 2.06097 37.2653 2.06219 37.2615 2.06091C37.2593 2.06018 37.2519 2.05748 37.2423 2.05055C37.2324 2.04345 37.2173 2.02957 37.2066 2.00645L37.4789 1.88065ZM39.8481 6.82696L37.478 1.87875L37.2075 2.00835L39.5775 6.95655L39.8481 6.82696Z" fill="white"/>
<path d="M41.5548 29.5768H29.5184C29.0434 29.5768 28.6584 29.1894 28.6584 28.7116C28.6584 28.2335 29.0434 27.8461 29.5184 27.8461H41.5548C42.0298 27.8461 42.4147 28.2335 42.4147 28.7116C42.4147 29.1894 42.0298 29.5768 41.5548 29.5768Z" fill="white" stroke="white" stroke-width="0.3"/>
<path d="M35.5364 26.1153H29.5184C29.0434 26.1153 28.6584 25.7279 28.6584 25.2502C28.6584 24.772 29.0434 24.3846 29.5184 24.3846H35.5364C36.0114 24.3846 36.3963 24.772 36.3963 25.2502C36.3963 25.7279 36.0114 26.1153 35.5364 26.1153Z" fill="white" stroke="white" stroke-width="0.3"/>
<path d="M44.9938 22.6538H29.5184C29.0434 22.6538 28.6584 22.2664 28.6584 21.7883C28.6584 21.3105 29.0434 20.9231 29.5184 20.9231H44.9938C45.4688 20.9231 45.8537 21.3105 45.8537 21.7883C45.8537 22.2664 45.4688 22.6538 44.9938 22.6538Z" fill="white" stroke="white" stroke-width="0.3"/>
<path fill-rule="evenodd" clip-rule="evenodd" d="M1.14624 31.3076C1.14624 36.087 4.9957 39.9617 9.74367 39.9617C14.4901 39.9561 18.336 36.085 18.3415 31.3076C18.3415 26.5281 14.492 22.6538 9.74367 22.6538C4.9957 22.6538 1.14624 26.5281 1.14624 31.3076ZM2.86573 31.3076C2.86573 27.484 5.94537 24.3846 9.74367 24.3846C13.5408 24.3889 16.6177 27.486 16.622 31.3076C16.622 35.1311 13.5424 38.2309 9.74367 38.2309C5.94537 38.2309 2.86573 35.1311 2.86573 31.3076Z" fill="white"/>
<path d="M9.74367 39.9617V40.1117H9.74385L9.74367 39.9617ZM18.3415 31.3076L18.4915 31.3077V31.3076H18.3415ZM9.74367 24.3846L9.74384 24.2346H9.74367V24.3846ZM16.622 31.3076H16.772L16.772 31.3074L16.622 31.3076ZM9.74367 39.8117C5.07947 39.8117 1.29624 36.0051 1.29624 31.3076H0.99624C0.99624 36.1689 4.91193 40.1117 9.74367 40.1117V39.8117ZM18.1915 31.3074C18.1861 36.0031 14.4063 39.8062 9.74349 39.8117L9.74385 40.1117C14.5739 40.106 18.4859 36.167 18.4915 31.3077L18.1915 31.3074ZM9.74367 22.8038C14.4083 22.8038 18.1915 26.61 18.1915 31.3076H18.4915C18.4915 26.4462 14.5758 22.5038 9.74367 22.5038V22.8038ZM1.29624 31.3076C1.29624 26.61 5.07946 22.8038 9.74367 22.8038V22.5038C4.91194 22.5038 0.99624 26.4462 0.99624 31.3076H1.29624ZM9.74367 24.2346C5.86162 24.2346 2.71573 27.4021 2.71573 31.3076H3.01573C3.01573 27.5659 6.02913 24.5346 9.74367 24.5346V24.2346ZM16.772 31.3074C16.7676 27.404 13.6246 24.239 9.74384 24.2346L9.7435 24.5346C13.457 24.5388 16.4678 27.5679 16.472 31.3077L16.772 31.3074ZM9.74367 38.3809C13.6261 38.3809 16.772 35.213 16.772 31.3076H16.472C16.472 35.0492 13.4586 38.0809 9.74367 38.0809V38.3809ZM2.71573 31.3076C2.71573 35.213 5.8616 38.3809 9.74367 38.3809V38.0809C6.02914 38.0809 3.01573 35.0492 3.01573 31.3076H2.71573Z" fill="white"/>
<path fill-rule="evenodd" clip-rule="evenodd" d="M2.86573 20.9231H16.622C17.5713 20.9223 18.3403 20.1478 18.3415 19.1924V17.4616C18.3403 16.5061 17.5713 15.7317 16.622 15.7309H2.86573C1.91645 15.7317 1.14742 16.5061 1.14624 17.4616V19.1924C1.14742 20.1478 1.91645 20.9223 2.86573 20.9231ZM2.86573 19.1924V17.4616H16.622L16.6232 19.1924H2.86573Z" fill="white"/>
<path d="M16.622 20.9231V21.0731H16.6221L16.622 20.9231ZM2.86573 20.9231L2.8656 21.0731H2.86573V20.9231ZM18.3415 19.1924L18.4915 19.1925V19.1924H18.3415ZM18.3415 17.4616H18.4915V17.4614L18.3415 17.4616ZM16.622 15.7309L16.6221 15.5809H16.622V15.7309ZM2.86573 15.7309V15.5809L2.8656 15.5809L2.86573 15.7309ZM1.14624 17.4616L0.99624 17.4614V17.4616H1.14624ZM1.14624 19.1924H0.99624L0.99624 19.1925L1.14624 19.1924ZM2.86573 17.4616V17.3116H2.71573V17.4616H2.86573ZM2.86573 19.1924H2.71573V19.3424H2.86573V19.1924ZM16.622 17.4616L16.772 17.4615L16.7719 17.3116H16.622V17.4616ZM16.6232 19.1924V19.3424H16.7733L16.7732 19.1922L16.6232 19.1924ZM16.622 20.7731H2.86573V21.0731H16.622V20.7731ZM18.1915 19.1922C18.1904 20.0659 17.4874 20.7724 16.6219 20.7731L16.6221 21.0731C17.6551 21.0722 18.4902 20.2297 18.4915 19.1925L18.1915 19.1922ZM18.1915 17.4616V19.1924H18.4915V17.4616H18.1915ZM16.6219 15.8809C17.4874 15.8816 18.1904 16.588 18.1915 17.4618L18.4915 17.4614C18.4902 16.4242 17.6551 15.5817 16.6221 15.5809L16.6219 15.8809ZM2.86573 15.8809H16.622V15.5809H2.86573V15.8809ZM1.29624 17.4618C1.29732 16.588 2.00029 15.8816 2.86585 15.8809L2.8656 15.5809C1.8326 15.5817 0.997522 16.4242 0.99624 17.4614L1.29624 17.4618ZM1.29624 19.1924V17.4616H0.99624V19.1924H1.29624ZM2.86585 20.7731C2.00029 20.7724 1.29732 20.0659 1.29624 19.1922L0.99624 19.1925C0.997522 20.2297 1.8326 21.0722 2.8656 21.0731L2.86585 20.7731ZM2.71573 17.4616V19.1924H3.01573V17.4616H2.71573ZM16.622 17.3116H2.86573V17.6116H16.622V17.3116ZM16.7732 19.1922L16.772 17.4615L16.472 17.4617L16.4732 19.1925L16.7732 19.1922ZM2.86573 19.3424H16.6232V19.0424H2.86573V19.3424Z" fill="white"/>
<path d="M4.27263 37.6803C3.92472 37.6803 3.61144 37.4691 3.47802 37.1459C3.345 36.8226 3.41859 36.4503 3.66457 36.2031L14.6073 25.1888C14.9441 24.858 15.4825 24.8615 15.8151 25.1963C16.1481 25.5314 16.1516 26.0733 15.823 26.4124L4.88029 37.4268C4.71932 37.5892 4.5005 37.6803 4.27263 37.6803Z" fill="white" stroke="white" stroke-width="0.3"/>
<path d="M15.2149 37.6803C14.987 37.6803 14.7682 37.5892 14.6072 37.4268L9.13587 31.9196C8.81 31.5801 8.81472 31.0402 9.1465 30.7062C9.47788 30.3727 10.0143 30.3679 10.3516 30.6959L15.8229 36.2031C16.0689 36.4503 16.1425 36.8226 16.0091 37.1459C15.8761 37.4691 15.5628 37.6803 15.2149 37.6803Z" fill="white" stroke="white" stroke-width="0.3"/>
<path fill-rule="evenodd" clip-rule="evenodd" d="M17.4814 39.9617C17.4814 41.8734 19.0211 43.4232 20.9204 43.4232C22.819 43.4208 24.3574 41.8723 24.3598 39.9617C24.3598 38.0499 22.8198 36.5002 20.9204 36.5002C19.0211 36.5002 17.4814 38.0499 17.4814 39.9617ZM19.2009 39.9617C19.2009 39.0058 19.9707 38.2309 20.9204 38.2309C21.8697 38.2317 22.6391 39.0062 22.6399 39.9617C22.6399 40.9176 21.8701 41.6924 20.9204 41.6924C19.9707 41.6924 19.2009 40.9176 19.2009 39.9617Z" fill="white"/>
<path d="M20.9204 43.4232V43.5732H20.9206L20.9204 43.4232ZM24.3598 39.9617L24.5098 39.9619V39.9617H24.3598ZM20.9204 38.2309L20.9205 38.0809H20.9204V38.2309ZM22.6399 39.9617H22.7899V39.9615L22.6399 39.9617ZM20.9204 43.2732C19.1048 43.2732 17.6314 41.7915 17.6314 39.9617H17.3314C17.3314 41.9554 18.9373 43.5732 20.9204 43.5732V43.2732ZM24.2098 39.9615C24.2075 41.7903 22.7352 43.2709 20.9202 43.2732L20.9206 43.5732C22.9028 43.5707 24.5073 41.9542 24.5098 39.9619L24.2098 39.9615ZM20.9204 36.6502C22.736 36.6502 24.2098 38.1318 24.2098 39.9617H24.5098C24.5098 37.9679 22.9035 36.3502 20.9204 36.3502V36.6502ZM17.6314 39.9617C17.6314 38.1318 19.1048 36.6502 20.9204 36.6502V36.3502C18.9373 36.3502 17.3314 37.968 17.3314 39.9617H17.6314ZM20.9204 38.0809C19.887 38.0809 19.0509 38.9239 19.0509 39.9617H19.3509C19.3509 39.0877 20.0545 38.3809 20.9204 38.3809V38.0809ZM22.7899 39.9615C22.789 38.9242 21.9535 38.0818 20.9205 38.0809L20.9203 38.3809C21.7859 38.3816 22.4892 39.0881 22.4899 39.9618L22.7899 39.9615ZM20.9204 41.8424C21.9539 41.8424 22.7899 40.9995 22.7899 39.9617H22.4899C22.4899 40.8356 21.7863 41.5424 20.9204 41.5424V41.8424ZM19.0509 39.9617C19.0509 40.9995 19.887 41.8424 20.9204 41.8424V41.5424C20.0545 41.5424 19.3509 40.8356 19.3509 39.9617H19.0509Z" fill="white"/>
<path fill-rule="evenodd" clip-rule="evenodd" d="M22.6401 5.34601C22.6401 7.25779 24.1802 8.80749 26.0795 8.80749C27.9777 8.80551 29.5161 7.25699 29.5185 5.34601C29.5185 3.43423 27.9788 1.88452 26.0795 1.88452C24.1802 1.88452 22.6401 3.43423 22.6401 5.34601ZM24.36 5.34601C24.36 4.39012 25.1298 3.61526 26.0795 3.61526C27.0288 3.61645 27.7978 4.39051 27.799 5.34601C27.799 6.3019 27.0292 7.07675 26.0795 7.07675C25.1298 7.07675 24.36 6.3019 24.36 5.34601Z" fill="white"/>
<path d="M26.0795 8.80749V8.95749H26.0797L26.0795 8.80749ZM29.5185 5.34601L29.6685 5.34619V5.34601H29.5185ZM26.0795 3.61526L26.0797 3.46526H26.0795V3.61526ZM27.799 5.34601H27.949V5.34582L27.799 5.34601ZM26.0795 8.65749C24.2639 8.65749 22.7901 7.17585 22.7901 5.34601H22.4901C22.4901 7.33973 24.0964 8.95749 26.0795 8.95749V8.65749ZM29.3685 5.34582C29.3662 7.17505 27.8939 8.6556 26.0793 8.65749L26.0797 8.95749C28.0615 8.95542 29.666 7.33894 29.6685 5.34619L29.3685 5.34582ZM26.0795 2.03452C27.8951 2.03452 29.3685 3.51615 29.3685 5.34601H29.6685C29.6685 3.35231 28.0626 1.73452 26.0795 1.73452V2.03452ZM22.7901 5.34601C22.7901 3.51617 24.2639 2.03452 26.0795 2.03452V1.73452C24.0964 1.73452 22.4901 3.35229 22.4901 5.34601H22.7901ZM26.0795 3.46526C25.0461 3.46526 24.21 4.3082 24.21 5.34601H24.51C24.51 4.47204 25.2136 3.76526 26.0795 3.76526V3.46526ZM27.949 5.34582C27.9477 4.30855 27.1126 3.46656 26.0797 3.46526L26.0793 3.76526C26.945 3.76635 27.6479 4.47247 27.649 5.34619L27.949 5.34582ZM26.0795 7.22675C27.1129 7.22675 27.949 6.38382 27.949 5.34601H27.649C27.649 6.21998 26.9454 6.92675 26.0795 6.92675V7.22675ZM24.21 5.34601C24.21 6.38382 25.0461 7.22675 26.0795 7.22675V6.92675C25.2136 6.92675 24.51 6.21998 24.51 5.34601H24.21Z" fill="white"/>
<path d="M37.2562 34.769C36.7811 34.769 36.3962 34.3816 36.3962 33.9039V32.1731C36.3962 31.695 36.7811 31.3076 37.2562 31.3076C37.7308 31.3076 38.1157 31.695 38.1157 32.1731V33.9039C38.1157 34.3816 37.7308 34.769 37.2562 34.769Z" fill="white" stroke="white" stroke-width="0.3"/>
<path d="M35.5364 40.8268H34.6768C34.2018 40.8268 33.8169 40.4394 33.8169 39.9617C33.8169 39.4835 34.2018 39.0961 34.6768 39.0961H35.5364C36.011 39.0957 36.3955 38.7083 36.3963 38.2309V37.3654C36.3963 36.8876 36.7812 36.5002 37.2563 36.5002C37.7309 36.5002 38.1158 36.8876 38.1158 37.3654V38.2309C38.1142 39.6638 36.9603 40.8253 35.5364 40.8268Z" fill="white" stroke="white" stroke-width="0.3"/>
<path d="M25.2196 40.8268H23.5001C23.0254 40.8268 22.6401 40.4394 22.6401 39.9617C22.6401 39.4835 23.0254 39.0961 23.5001 39.0961H25.2196C25.6946 39.0961 26.0795 39.4835 26.0795 39.9617C26.0795 40.4394 25.6946 40.8268 25.2196 40.8268Z" fill="white" stroke="white" stroke-width="0.3"/>
<path d="M31.2378 40.8268H28.6584C28.1837 40.8268 27.7988 40.4394 27.7988 39.9617C27.7988 39.4835 28.1837 39.0961 28.6584 39.0961H31.2378C31.7124 39.0961 32.0973 39.4835 32.0973 39.9617C32.0973 40.4394 31.7124 40.8268 31.2378 40.8268Z" fill="white" stroke="white" stroke-width="0.3"/>
<path d="M9.74382 14.0001C9.26918 14.0001 8.88428 13.6127 8.88428 13.1346V11.4038C8.88428 10.9261 9.26918 10.5386 9.74382 10.5386C10.2189 10.5386 10.6038 10.9261 10.6038 11.4038V13.1346C10.6038 13.6127 10.2189 14.0001 9.74382 14.0001Z" fill="white" stroke="white" stroke-width="0.3"/>
<path d="M9.74382 8.80749C9.26918 8.80749 8.88428 8.42007 8.88428 7.94232V7.07675C8.88585 5.64391 10.0398 4.48242 11.4637 4.48083H12.3232C12.7983 4.48083 13.1832 4.86826 13.1832 5.34601C13.1832 5.82415 12.7983 6.21158 12.3232 6.21158H11.4637C10.9891 6.21197 10.6046 6.5994 10.6038 7.07675V7.94232C10.6038 8.42007 10.2189 8.80749 9.74382 8.80749Z" fill="white" stroke="white" stroke-width="0.3"/>
<path d="M23.5001 6.21158H21.7806C21.3056 6.21158 20.9207 5.82415 20.9207 5.34601C20.9207 4.86826 21.3056 4.48083 21.7806 4.48083H23.5001C23.9747 4.48083 24.36 4.86826 24.36 5.34601C24.36 5.82415 23.9747 6.21158 23.5001 6.21158Z" fill="white" stroke="white" stroke-width="0.3"/>
<path d="M18.3416 6.21158H15.7621C15.2875 6.21158 14.9026 5.82415 14.9026 5.34601C14.9026 4.86826 15.2875 4.48083 15.7621 4.48083H18.3416C18.8162 4.48083 19.2011 4.86826 19.2011 5.34601C19.2011 5.82415 18.8162 6.21158 18.3416 6.21158Z" fill="white" stroke="white" stroke-width="0.3"/>
</svg>
