<?xml version="1.0" encoding="UTF-8"?>
<svg width="38px" height="45px" viewBox="0 0 38 45" version="1.1" xmlns="http://www.w3.org/2000/svg" xmlns:xlink="http://www.w3.org/1999/xlink">
    <!-- Generator: Sketch 63.1 (92452) - https://sketch.com -->
    <title>icon/insured@3x</title>
    <desc>Created with Sketch.</desc>
    <g id="Page-1" stroke="none" stroke-width="1" fill="none" fill-rule="evenodd">
        <g id="WeCompare-home-Copy" transform="translate(-657.000000, -1783.000000)" fill="#FFFFFF" fill-rule="nonzero">
            <g id="section-points" transform="translate(0.000000, 1289.000000)">
                <g id="icon/insured" transform="translate(657.000000, 494.000000)">
                    <path d="M37.7745193,11.5474186 C37.7514254,10.3366047 37.7293812,9.19276744 37.7293812,8.08618605 C37.7293812,7.21925581 37.0245967,6.5164186 36.1547956,6.5164186 C29.4208177,6.5164186 24.2937569,4.58706977 20.0201215,0.44455814 C19.4087624,-0.148186047 18.4358785,-0.147976744 17.8247293,0.44455814 C13.5515138,4.58706977 8.42529282,6.5164186 1.69173481,6.5164186 C0.822143646,6.5164186 0.117149171,7.21925581 0.117149171,8.08618605 C0.117149171,9.19297674 0.0953149171,10.3372326 0.0720110497,11.5482558 C-0.143812155,22.8162558 -0.439414365,38.2483256 18.4066961,44.7607674 C18.5738122,44.8185349 18.7480663,44.8474186 18.9223204,44.8474186 C19.0965746,44.8474186 19.2710387,44.8185349 19.4379448,44.7607674 C38.2855249,38.2481163 37.9903425,22.8156279 37.7745193,11.5474186 Z M18.9225304,41.611814 C2.75951381,35.7582558 3.0038895,22.9353488 3.22076243,11.6081163 C3.23377901,10.9283023 3.24637569,10.2694186 3.25519337,9.62351163 C9.5619337,9.35811628 14.6052265,7.45283721 18.9225304,3.70339535 C23.2402541,7.45283721 28.2843867,9.35832558 34.591547,9.62351163 C34.6003646,10.2692093 34.6129613,10.9276744 34.6259779,11.6070698 C34.8426409,22.9347209 35.0868066,35.7580465 18.9225304,41.611814 Z" id="Shape"></path>
                    <path d="M24.3447735,16.9706512 L16.7449834,24.5467674 L13.5019669,21.3136744 C12.8870387,20.7008372 11.890011,20.7008372 11.2752928,21.3136744 C10.6603646,21.9269302 10.6603646,22.9206977 11.2752928,23.5337442 L15.6316464,27.8767674 C15.9390055,28.183186 16.3420994,28.3363953 16.7449834,28.3363953 C17.1478674,28.3363953 17.5509613,28.183186 17.8583204,27.8767674 L26.5712376,19.1907209 C27.1863757,18.5776744 27.1863757,17.5836977 26.5714475,16.9708605 C25.9567293,16.357814 24.9597017,16.3576047 24.3447735,16.9706512 Z" id="Shape"></path>
                </g>
            </g>
        </g>
    </g>
</svg>