<?xml version="1.0" encoding="utf-8"?>
<!-- Generator: Adobe Illustrator 16.0.0, SVG Export Plug-In . SVG Version: 6.00 Build 0)  -->
<!DOCTYPE svg PUBLIC "-//W3C//DTD SVG 1.1//EN" "http://www.w3.org/Graphics/SVG/1.1/DTD/svg11.dtd">
<svg version="1.1" id="Layer_1" xmlns="http://www.w3.org/2000/svg" xmlns:xlink="http://www.w3.org/1999/xlink" x="0px" y="0px"
	 width="1440px" height="721px" viewBox="0 0 1440 721" enable-background="new 0 0 1440 721" xml:space="preserve">
<path fill="#012E4C" d="M0,262.466C0,262.466,360,0,720,0s720,121.412,720,121.412V724H0V262.466z"/>
<defs>
	<filter id="Adobe_OpacityMaskFilter" filterUnits="userSpaceOnUse" x="0" y="0" width="1480" height="918.011">
		<feColorMatrix  type="matrix" values="1 0 0 0 0  0 1 0 0 0  0 0 1 0 0  0 0 0 1 0"/>
	</filter>
</defs>
<mask maskUnits="userSpaceOnUse" x="0" y="0" width="1480" height="918.011" id="mask0">
	<path fill="#FFFFFF" filter="url(#Adobe_OpacityMaskFilter)" d="M0,262.466C0,262.466,360,0,720,0s720,121.412,720,121.412V724H0
		V262.466z"/>
</mask>
<g mask="url(#mask0)">
	<g opacity="0.1262">
		<path fill="#004486" d="M1480,365.573c0,0-248.4,109.099-696.145-32.729C336.105,191.017,4,673,4,673V0h1476V365.573z"/>
	</g>
	<g opacity="0.3406">
		<path fill="#004486" d="M0,402.091c0,0,446.859,160.294,817.536,24.943C1188.21,291.682,1374,10,1374,10H0V402.091z"/>
	</g>
	<g opacity="0.2043">
		<path fill="#004486" d="M109.008,8c0,0,580.664,159.895,709.569,381.005c128.905,221.11-81.386,502.089-81.386,502.089
			s-242.925,36.854-372.093,24.314C235.927,902.869,4,819.922,4,819.922V8H109.008z"/>
	</g>
</g>
</svg>
