<svg width="267" height="155" viewBox="0 0 267 155" fill="none" xmlns="http://www.w3.org/2000/svg">
<rect width="267" height="155" rx="10" fill="white"/>
<path fill-rule="evenodd" clip-rule="evenodd" d="M140.659 52.7376C140.659 54.2841 141.108 55.7818 141.956 57.0685L143.484 59.3846H136.26C135.93 60.3247 135.042 61 134 61C132.958 61 132.07 60.3247 131.74 59.3846H124.516L126.044 57.0686C126.892 55.7818 127.341 54.2842 127.341 52.7376V48.4104C127.341 44.9515 129.895 42.0814 133.18 41.6671V40H134.778V41.6609C136.258 41.8339 137.629 42.499 138.7 43.5785C139.963 44.8507 140.659 46.5439 140.659 48.3462V52.7376ZM129.43 52.6079C129.43 54.2929 128.981 55.927 128.129 57.3478H139.871C139.019 55.927 138.57 54.293 138.57 52.6079V48.471C138.57 47.1807 138.093 45.9685 137.226 45.0577C136.363 44.1509 135.218 43.6522 134 43.6522H133.984C131.473 43.6613 129.43 45.8502 129.43 48.5315V52.6079Z" fill="#2C3A55"/>
<path d="M145.591 44.5654L144.387 45.7078C145.619 46.8776 146.298 48.4329 146.298 50.0872C146.298 51.7052 145.645 53.2359 144.459 54.3974L145.681 55.522C147.176 54.0574 148 52.1273 148 50.0872C148 48.0014 147.144 46.0403 145.591 44.5654Z" fill="#2C3A55"/>
<path d="M142.924 47.3042L141.677 48.4384C142.288 48.9938 142.624 49.7322 142.624 50.5177C142.624 51.291 142.297 52.0212 141.703 52.5738L142.963 53.6955C143.881 52.8413 144.387 51.7128 144.387 50.5177C144.387 49.3038 143.868 48.1625 142.924 47.3042Z" fill="#2C3A55"/>
<path d="M123.613 45.7078L122.409 44.5654C120.856 46.0403 120 48.0014 120 50.0872C120 52.1273 120.824 54.0574 122.319 55.522L123.541 54.3974C122.355 53.2359 121.702 51.7052 121.702 50.0872C121.702 48.4329 122.381 46.8776 123.613 45.7078Z" fill="#2C3A55"/>
<path d="M126.322 48.4384L125.076 47.3042C124.132 48.1625 123.613 49.3038 123.613 50.5178C123.613 51.7128 124.119 52.8413 125.037 53.6955L126.297 52.5738C125.703 52.0212 125.376 51.291 125.376 50.5178C125.376 49.7323 125.712 48.9938 126.322 48.4384Z" fill="#2C3A55"/>
<path d="M105.618 98H107.532C107.884 98 108.082 97.78 108.17 97.56L109.248 95.184H115.826L116.904 97.56C117.058 97.868 117.212 98 117.542 98H119.456C119.786 98 119.962 97.714 119.83 97.428L113.054 82.622C112.988 82.49 112.9 82.38 112.68 82.38H112.46C112.262 82.38 112.152 82.49 112.086 82.622L105.244 97.428C105.112 97.714 105.288 98 105.618 98ZM110.326 92.742L112.482 87.902H112.548L114.748 92.742H110.326ZM121.218 97.516C121.218 97.78 121.46 98 121.702 98H123.484C123.726 98 123.968 97.78 123.968 97.516V83.084C123.968 82.842 123.726 82.6 123.484 82.6H121.702C121.46 82.6 121.218 82.842 121.218 83.084V97.516ZM126.188 92.918C126.188 95.822 128.3 98.242 131.336 98.242C132.986 98.242 134.24 97.604 135.12 96.856C135.362 96.636 135.34 96.394 135.164 96.196L134.306 95.052C134.152 94.832 133.888 94.854 133.646 95.052C133.184 95.426 132.48 95.8 131.468 95.8C129.994 95.8 128.96 94.7 128.938 93.446H135.45C135.67 93.446 135.912 93.248 135.934 92.984C135.956 92.83 135.978 92.478 135.978 92.324C135.978 89.574 133.954 87.616 131.314 87.616C128.3 87.616 126.188 90.058 126.188 92.918ZM129.092 91.642C129.224 90.63 130.016 89.882 131.248 89.882C132.37 89.882 133.162 90.652 133.206 91.642H129.092ZM138.04 97.516C138.04 97.78 138.282 98 138.524 98H140.218C140.548 98 140.79 97.89 140.79 97.516V91.18C140.966 90.828 141.626 90.124 142.726 90.124C143.188 90.124 143.43 90.212 143.672 90.322C143.914 90.432 144.156 90.344 144.266 90.102L144.926 88.606C145.212 87.946 144.222 87.616 143.012 87.616C141.45 87.616 140.504 88.65 140.152 89.156L139.778 88.166C139.69 87.946 139.58 87.836 139.338 87.836H138.524C138.282 87.836 138.04 88.034 138.04 88.32V97.516ZM147.23 94.964C147.23 96.724 147.802 98.242 150.068 98.242C151.124 98.242 152.576 97.78 152.928 97.582C153.17 97.45 153.28 97.252 153.214 96.988L152.928 95.646C152.884 95.404 152.642 95.272 152.356 95.382C152.092 95.47 151.256 95.712 150.816 95.712C150.31 95.712 149.98 95.558 149.98 94.876V90.3H152.356C152.62 90.3 152.84 90.058 152.84 89.816V88.32C152.84 88.034 152.62 87.836 152.356 87.836H149.98V85.02C149.98 84.756 149.782 84.536 149.518 84.536H147.714C147.472 84.536 147.23 84.756 147.23 85.02V87.836H146.24C145.976 87.836 145.778 88.034 145.778 88.32V89.816C145.778 90.058 145.976 90.3 146.24 90.3H147.23V94.964ZM158.134 98.242C160.686 98.242 162.05 96.812 162.05 95.206C162.05 93.182 160.642 92.478 158.684 91.686C157.738 91.29 157.232 91.048 157.232 90.586C157.232 90.256 157.518 89.926 158.2 89.926C159.036 89.926 159.74 90.212 160.224 90.432C160.444 90.52 160.708 90.476 160.862 90.234L161.434 89.068C161.566 88.804 161.434 88.54 161.214 88.364C160.664 88.012 159.696 87.616 158.2 87.616C155.714 87.616 154.548 89.046 154.548 90.586C154.548 92.126 155.428 93.05 157.386 93.798C158.728 94.326 159.3 94.744 159.3 95.206C159.3 95.646 158.948 95.932 158.178 95.932C157.122 95.932 156.396 95.558 155.934 95.272C155.692 95.118 155.45 95.206 155.34 95.448L154.68 96.768C154.57 96.988 154.68 97.23 154.812 97.318C155.384 97.714 156.44 98.242 158.134 98.242Z" fill="#1966FF"/>
<path d="M55.7866 115.664C55.7446 115.86 55.8286 116 56.0386 116H56.5986C56.7106 116 56.8366 115.902 56.8506 115.804L58.0686 108.594C58.0826 108.594 58.1106 108.594 58.1246 108.594L60.7286 115.986C60.7566 116.07 60.8826 116.14 60.9666 116.14H61.2186C61.3026 116.14 61.4286 116.07 61.4566 115.986L64.0326 108.594C64.0466 108.594 64.0746 108.594 64.0886 108.594L65.3346 115.804C65.3626 115.902 65.4746 116 65.5866 116H66.1466C66.3566 116 66.4406 115.86 66.3986 115.664L64.5926 106.256C64.5646 106.144 64.4526 106.06 64.3406 106.06H64.1166C64.0186 106.06 63.9066 106.13 63.8786 106.214L61.1486 113.928C61.1206 113.928 61.1066 113.928 61.0786 113.928L58.3066 106.214C58.2786 106.13 58.1666 106.06 58.0686 106.06H57.8446C57.7326 106.06 57.6206 106.144 57.5926 106.256L55.7866 115.664ZM67.7189 114.04C67.7189 115.342 68.5869 116.154 69.7209 116.154C70.7149 116.154 71.3869 115.664 71.7229 115.328L71.8489 115.762C71.8909 115.902 71.9469 116 72.1149 116H72.3809C72.5489 116 72.6889 115.86 72.6889 115.692V112.108C72.6889 110.204 72.3389 109.392 70.6869 109.392C69.6229 109.392 68.7829 109.672 68.4609 109.812C68.3069 109.882 68.2089 109.966 68.2649 110.162L68.4049 110.54C68.4609 110.694 68.5449 110.778 68.7129 110.708C69.0069 110.61 69.7489 110.33 70.6309 110.33C71.5549 110.33 71.7089 110.918 71.6949 112.108C71.6949 112.108 70.9949 111.898 70.3089 111.898C68.6429 111.898 67.7189 112.808 67.7189 114.04ZM68.7409 114.04C68.7409 113.214 69.4129 112.78 70.3089 112.78C70.9529 112.78 71.4709 112.92 71.6809 113.032V114.348C71.4009 114.768 70.7009 115.216 69.9029 115.216C69.1889 115.216 68.7409 114.698 68.7409 114.04ZM74.8127 115.692C74.8127 115.86 74.9527 116 75.1207 116H75.5407C75.6947 116 75.8487 115.86 75.8487 115.692V111.226C75.8487 111.226 76.6187 110.33 77.8367 110.33C78.7887 110.33 79.2087 110.904 79.2087 112.136V115.692C79.2087 115.86 79.3487 116 79.5167 116H79.9367C80.0907 116 80.2447 115.86 80.2447 115.692V112.276C80.2447 110.61 79.7827 109.392 77.9067 109.392C76.5627 109.392 75.7367 110.218 75.7367 110.218L75.5967 109.728C75.5687 109.588 75.4847 109.532 75.3447 109.532H75.1207C74.9527 109.532 74.8127 109.686 74.8127 109.84V115.692ZM81.8556 114.04C81.8556 115.342 82.7236 116.154 83.8576 116.154C84.8516 116.154 85.5236 115.664 85.8596 115.328L85.9856 115.762C86.0276 115.902 86.0836 116 86.2516 116H86.5176C86.6856 116 86.8256 115.86 86.8256 115.692V112.108C86.8256 110.204 86.4756 109.392 84.8236 109.392C83.7596 109.392 82.9196 109.672 82.5976 109.812C82.4436 109.882 82.3456 109.966 82.4016 110.162L82.5416 110.54C82.5976 110.694 82.6816 110.778 82.8496 110.708C83.1436 110.61 83.8856 110.33 84.7676 110.33C85.6916 110.33 85.8456 110.918 85.8316 112.108C85.8316 112.108 85.1316 111.898 84.4456 111.898C82.7796 111.898 81.8556 112.808 81.8556 114.04ZM82.8776 114.04C82.8776 113.214 83.5496 112.78 84.4456 112.78C85.0896 112.78 85.6076 112.92 85.8176 113.032V114.348C85.5376 114.768 84.8376 115.216 84.0396 115.216C83.3256 115.216 82.8776 114.698 82.8776 114.04ZM89.5934 112.752C89.5934 111.492 90.3914 110.344 91.6794 110.344C92.7294 110.344 93.3874 111.128 93.3874 111.128V114.67C93.3874 114.67 92.6454 115.202 91.7494 115.202C90.5174 115.202 89.5934 114.152 89.5934 112.752ZM94.4234 109.84C94.4234 109.686 94.2694 109.532 94.1014 109.532H93.9054C93.7374 109.532 93.6674 109.63 93.5974 109.756L93.4994 110.05C93.4994 110.05 92.7294 109.392 91.5674 109.392C89.8034 109.392 88.5434 110.918 88.5434 112.766C88.5434 114.656 89.8314 116.154 91.6094 116.154C92.6734 116.154 93.4014 115.58 93.4014 115.58V116.042C93.4014 117.554 92.6174 118.114 91.5954 118.114C90.8814 118.114 90.3214 117.722 89.9714 117.428C89.8174 117.288 89.6494 117.288 89.5514 117.442L89.2714 117.848C89.2014 117.946 89.2294 118.128 89.3414 118.226C89.6774 118.534 90.5734 119.066 91.5954 119.066C93.0654 119.066 94.4234 118.254 94.4234 116.042V109.84ZM96.1997 112.766C96.1997 114.614 97.3757 116.154 99.3357 116.154C100.456 116.154 101.31 115.72 101.702 115.412C101.94 115.23 101.884 115.16 101.758 114.964L101.59 114.726C101.422 114.474 101.324 114.53 101.1 114.684C100.736 114.922 100.204 115.216 99.3497 115.216C98.1737 115.216 97.2637 114.082 97.2357 113.004H101.94C102.08 113.004 102.22 112.892 102.234 112.724C102.248 112.612 102.262 112.444 102.262 112.332C102.262 110.638 101.03 109.392 99.3357 109.392C97.3757 109.392 96.1997 110.946 96.1997 112.766ZM97.2497 112.178C97.3757 111.17 98.2437 110.33 99.3357 110.33C100.442 110.33 101.198 111.226 101.226 112.178H97.2497ZM108.346 115.622C108.346 115.622 109.06 116.154 110.138 116.154C111.916 116.154 113.19 114.656 113.19 112.766C113.19 110.918 111.944 109.392 110.18 109.392C109.018 109.392 108.234 110.05 108.234 110.05L108.136 109.742C108.066 109.574 108.024 109.532 107.87 109.532H107.632C107.464 109.532 107.324 109.686 107.324 109.84V119.024C107.324 119.192 107.464 119.332 107.632 119.332H108.038C108.192 119.332 108.346 119.192 108.346 119.024V115.622ZM108.346 114.656V111.114C108.346 111.114 109.018 110.33 110.054 110.33C111.356 110.33 112.14 111.492 112.14 112.752C112.14 114.166 111.23 115.216 109.984 115.216C109.088 115.216 108.346 114.656 108.346 114.656ZM114.897 113.326C114.897 115.034 115.345 116.154 117.207 116.154C118.369 116.154 118.971 115.566 119.209 115.314L119.335 115.72C119.377 115.888 119.447 116 119.629 116H119.853C120.007 116 120.147 115.86 120.147 115.692V109.84C120.147 109.686 120.007 109.532 119.853 109.532H119.419C119.251 109.532 119.125 109.686 119.125 109.84V114.278C118.831 114.614 118.257 115.216 117.291 115.216C116.353 115.216 115.933 114.628 115.933 113.34V109.84C115.933 109.686 115.793 109.532 115.625 109.532H115.205C115.023 109.532 114.897 109.686 114.897 109.84V113.326ZM124.142 116.154C125.458 116.154 126.34 115.328 126.34 114.306C126.34 113.13 125.374 112.71 124.254 112.192C123.47 111.828 123.022 111.618 123.022 111.044C123.022 110.736 123.26 110.33 123.974 110.33C124.576 110.33 125.024 110.54 125.304 110.708C125.444 110.792 125.654 110.778 125.752 110.596L125.892 110.33C125.99 110.148 125.962 110.008 125.822 109.896C125.514 109.672 124.814 109.392 123.974 109.392C122.476 109.392 121.972 110.414 121.972 111.086C121.972 112.192 122.952 112.654 123.806 113.074C124.744 113.536 125.248 113.788 125.248 114.404C125.248 114.908 124.8 115.216 124.142 115.216C123.316 115.216 122.756 114.81 122.532 114.642C122.35 114.516 122.238 114.572 122.154 114.726L121.958 115.09C121.902 115.202 121.93 115.3 122 115.37C122.336 115.678 123.064 116.154 124.142 116.154ZM128.024 115.692C128.024 115.86 128.164 116 128.332 116H128.752C128.906 116 129.06 115.86 129.06 115.692V111.254C129.06 111.254 129.816 110.33 131.048 110.33C132.042 110.33 132.406 111.044 132.406 112.276V115.692C132.406 115.86 132.546 116 132.714 116H133.148C133.302 116 133.456 115.86 133.456 115.692V112.276C133.456 110.386 132.728 109.392 131.118 109.392C129.816 109.392 129.06 110.218 129.06 110.218V106.508C129.06 106.354 128.906 106.2 128.752 106.2H128.332C128.164 106.2 128.024 106.354 128.024 106.508V115.692ZM138.934 115.692C138.934 115.86 139.074 116 139.242 116H139.662C139.816 116 139.97 115.86 139.97 115.692V111.226C139.97 111.226 140.74 110.33 141.958 110.33C142.91 110.33 143.33 110.904 143.33 112.136V115.692C143.33 115.86 143.47 116 143.638 116H144.058C144.212 116 144.366 115.86 144.366 115.692V112.276C144.366 110.61 143.904 109.392 142.028 109.392C140.684 109.392 139.858 110.218 139.858 110.218L139.718 109.728C139.69 109.588 139.606 109.532 139.466 109.532H139.242C139.074 109.532 138.934 109.686 138.934 109.84V115.692ZM146.061 112.752C146.061 114.6 147.517 116.154 149.309 116.154C151.101 116.154 152.557 114.6 152.557 112.752C152.557 110.932 151.101 109.392 149.309 109.392C147.517 109.392 146.061 110.932 146.061 112.752ZM147.083 112.752C147.083 111.436 148.035 110.33 149.309 110.33C150.583 110.33 151.521 111.436 151.521 112.752C151.521 114.096 150.583 115.216 149.309 115.216C148.035 115.216 147.083 114.096 147.083 112.752ZM154.653 110.428V114.362C154.653 115.37 154.905 116.154 156.137 116.154C157.005 116.154 157.677 115.832 157.957 115.636C158.125 115.524 158.153 115.426 158.069 115.216L157.943 114.922C157.873 114.768 157.789 114.642 157.537 114.796C157.271 114.964 156.865 115.216 156.263 115.216C155.899 115.216 155.689 114.964 155.689 114.292V110.428H157.593C157.775 110.428 157.915 110.288 157.915 110.12V109.84C157.915 109.658 157.775 109.532 157.593 109.532H155.689V107.712C155.689 107.544 155.563 107.39 155.395 107.404L154.961 107.432C154.807 107.446 154.653 107.572 154.653 107.74V109.532H153.799C153.603 109.532 153.477 109.658 153.477 109.84V110.12C153.477 110.288 153.603 110.428 153.799 110.428H154.653ZM160.027 107.866C160.461 107.866 160.797 107.516 160.797 107.11C160.797 106.662 160.461 106.326 160.027 106.326C159.607 106.326 159.271 106.662 159.271 107.11C159.271 107.516 159.607 107.866 160.027 107.866ZM159.537 115.692C159.537 115.86 159.677 116 159.845 116H160.265C160.419 116 160.573 115.86 160.573 115.692V109.84C160.573 109.686 160.419 109.532 160.265 109.532H159.845C159.677 109.532 159.537 109.686 159.537 109.84V115.692ZM163.338 115.692C163.338 115.86 163.478 116 163.646 116H164.066C164.234 116 164.374 115.86 164.374 115.692V110.428H167.65V115.692C167.65 115.86 167.804 116 167.958 116H168.378C168.546 116 168.686 115.86 168.686 115.692V109.84C168.686 109.686 168.546 109.532 168.378 109.532H164.374V108.678C164.374 107.572 164.892 106.998 165.788 106.998C166.558 106.998 167.104 107.362 167.426 107.6C167.58 107.712 167.734 107.726 167.832 107.586L168.098 107.194C168.168 107.096 168.14 106.9 168.028 106.83C167.748 106.606 166.88 106.06 165.802 106.06C164.346 106.06 163.338 106.984 163.338 108.678V109.532H162.302C162.134 109.532 161.994 109.658 161.994 109.84V110.12C161.994 110.288 162.134 110.428 162.302 110.428H163.338V115.692ZM170.424 112.78C170.424 114.726 171.768 116.154 173.686 116.154C174.764 116.154 175.632 115.566 176.122 114.852C176.234 114.684 176.178 114.544 176.038 114.404L175.954 114.32C175.772 114.138 175.59 114.082 175.408 114.292C175.044 114.712 174.624 115.216 173.644 115.216C172.44 115.216 171.474 114.138 171.474 112.766C171.474 111.422 172.454 110.33 173.686 110.33C174.344 110.33 174.862 110.526 175.31 111.03C175.436 111.17 175.562 111.31 175.772 111.128L175.996 110.918C176.15 110.792 176.178 110.61 176.052 110.456C175.45 109.77 174.666 109.392 173.7 109.392C171.824 109.392 170.424 110.876 170.424 112.78ZM177.34 114.04C177.34 115.342 178.208 116.154 179.342 116.154C180.336 116.154 181.008 115.664 181.344 115.328L181.47 115.762C181.512 115.902 181.568 116 181.736 116H182.002C182.17 116 182.31 115.86 182.31 115.692V112.108C182.31 110.204 181.96 109.392 180.308 109.392C179.244 109.392 178.404 109.672 178.082 109.812C177.928 109.882 177.83 109.966 177.886 110.162L178.026 110.54C178.082 110.694 178.166 110.778 178.334 110.708C178.628 110.61 179.37 110.33 180.252 110.33C181.176 110.33 181.33 110.918 181.316 112.108C181.316 112.108 180.616 111.898 179.93 111.898C178.264 111.898 177.34 112.808 177.34 114.04ZM178.362 114.04C178.362 113.214 179.034 112.78 179.93 112.78C180.574 112.78 181.092 112.92 181.302 113.032V114.348C181.022 114.768 180.322 115.216 179.524 115.216C178.81 115.216 178.362 114.698 178.362 114.04ZM184.854 110.428V114.362C184.854 115.37 185.106 116.154 186.338 116.154C187.206 116.154 187.878 115.832 188.158 115.636C188.326 115.524 188.354 115.426 188.27 115.216L188.144 114.922C188.074 114.768 187.99 114.642 187.738 114.796C187.472 114.964 187.066 115.216 186.464 115.216C186.1 115.216 185.89 114.964 185.89 114.292V110.428H187.794C187.976 110.428 188.116 110.288 188.116 110.12V109.84C188.116 109.658 187.976 109.532 187.794 109.532H185.89V107.712C185.89 107.544 185.764 107.39 185.596 107.404L185.162 107.432C185.008 107.446 184.854 107.572 184.854 107.74V109.532H184C183.804 109.532 183.678 109.658 183.678 109.84V110.12C183.678 110.288 183.804 110.428 184 110.428H184.854ZM190.228 107.866C190.662 107.866 190.998 107.516 190.998 107.11C190.998 106.662 190.662 106.326 190.228 106.326C189.808 106.326 189.472 106.662 189.472 107.11C189.472 107.516 189.808 107.866 190.228 107.866ZM189.738 115.692C189.738 115.86 189.878 116 190.046 116H190.466C190.62 116 190.774 115.86 190.774 115.692V109.84C190.774 109.686 190.62 109.532 190.466 109.532H190.046C189.878 109.532 189.738 109.686 189.738 109.84V115.692ZM192.545 112.752C192.545 114.6 194.001 116.154 195.793 116.154C197.585 116.154 199.041 114.6 199.041 112.752C199.041 110.932 197.585 109.392 195.793 109.392C194.001 109.392 192.545 110.932 192.545 112.752ZM193.567 112.752C193.567 111.436 194.519 110.33 195.793 110.33C197.067 110.33 198.005 111.436 198.005 112.752C198.005 114.096 197.067 115.216 195.793 115.216C194.519 115.216 193.567 114.096 193.567 112.752ZM200.799 115.692C200.799 115.86 200.939 116 201.107 116H201.527C201.681 116 201.835 115.86 201.835 115.692V111.226C201.835 111.226 202.605 110.33 203.823 110.33C204.775 110.33 205.195 110.904 205.195 112.136V115.692C205.195 115.86 205.335 116 205.503 116H205.923C206.077 116 206.231 115.86 206.231 115.692V112.276C206.231 110.61 205.769 109.392 203.893 109.392C202.549 109.392 201.723 110.218 201.723 110.218L201.583 109.728C201.555 109.588 201.471 109.532 201.331 109.532H201.107C200.939 109.532 200.799 109.686 200.799 109.84V115.692ZM210.152 116.154C211.468 116.154 212.35 115.328 212.35 114.306C212.35 113.13 211.384 112.71 210.264 112.192C209.48 111.828 209.032 111.618 209.032 111.044C209.032 110.736 209.27 110.33 209.984 110.33C210.586 110.33 211.034 110.54 211.314 110.708C211.454 110.792 211.664 110.778 211.762 110.596L211.902 110.33C212 110.148 211.972 110.008 211.832 109.896C211.524 109.672 210.824 109.392 209.984 109.392C208.486 109.392 207.982 110.414 207.982 111.086C207.982 112.192 208.962 112.654 209.816 113.074C210.754 113.536 211.258 113.788 211.258 114.404C211.258 114.908 210.81 115.216 210.152 115.216C209.326 115.216 208.766 114.81 208.542 114.642C208.36 114.516 208.248 114.572 208.164 114.726L207.968 115.09C207.912 115.202 207.94 115.3 208.01 115.37C208.346 115.678 209.074 116.154 210.152 116.154Z" fill="#9B9B9B"/>
</svg>
