<svg width="267" height="155" viewBox="0 0 267 155" fill="none" xmlns="http://www.w3.org/2000/svg">
<rect width="267" height="155" rx="10" fill="white"/>
<path d="M141 42.2539C141.516 42.2539 141.934 41.836 141.934 41.3205C141.934 40.8051 141.516 40.3872 141 40.3872C140.485 40.3872 140.067 40.8051 140.067 41.3205C140.067 41.836 140.485 42.2539 141 42.2539Z" fill="#2C3A55"/>
<path fill-rule="evenodd" clip-rule="evenodd" d="M134 39.6122C134 38.1394 135.189 37 136.588 37H145.412C146.811 37 148 38.1392 148 39.6123V47.6263C148 49.0839 146.828 50.2385 145.412 50.2385H138.719C138.703 50.2385 138.686 50.2459 138.672 50.2588C137.857 51.084 135.406 53.5568 135.406 53.5568C135.153 53.812 134.793 53.8561 134.508 53.7369C134.201 53.6082 134 53.3051 134 52.9689V39.6122ZM145.231 48.2554C145.723 48.2554 146.133 47.8442 146.133 47.3187V39.8034C146.133 39.2796 145.724 38.8667 145.231 38.8667H136.769C136.276 38.8667 135.867 39.2789 135.867 39.8034V50.6093C136.535 49.9155 137.277 49.1445 137.657 48.7492C137.968 48.4308 138.378 48.2554 138.813 48.2554H145.231Z" fill="#2C3A55"/>
<path d="M140.067 44.0883V46.0191C140.067 46.5168 140.485 46.9203 141 46.9203C141.516 46.9203 141.934 46.5168 141.934 46.0191V44.0883C141.934 43.5906 141.516 43.187 141 43.187C140.485 43.187 140.067 43.5906 140.067 44.0883Z" fill="#2C3A55"/>
<path fill-rule="evenodd" clip-rule="evenodd" d="M129.83 55.0124C130.761 54.2042 131.353 53.0062 131.353 51.6703C131.353 49.2421 129.4 47.2666 127 47.2666C124.6 47.2666 122.647 49.2421 122.647 51.6703C122.647 53.0062 123.239 54.2042 124.17 55.0124C121.716 56.1142 120 58.6024 120 61.4888V62.3814C120 63.839 121.168 64.9999 122.588 64.9999H131.412C132.828 64.9999 134 63.8425 134 62.3814V61.4888C134 58.6024 132.284 56.1142 129.83 55.0124ZM124.667 51.4666C124.667 50.18 125.713 49.1333 127 49.1333C128.287 49.1333 129.333 50.18 129.333 51.4666C129.333 52.7532 128.287 53.7999 127 53.7999C125.713 53.7999 124.667 52.7532 124.667 51.4666ZM131.231 63.1333C131.722 63.1333 132.133 62.7048 132.133 62.1542V61.2361C132.133 58.1651 129.831 55.6666 127 55.6666C124.17 55.6666 121.867 58.1651 121.867 61.2361V62.1542C121.867 62.7025 122.276 63.1333 122.769 63.1333H131.231Z" fill="#2C3A55"/>
<path d="M71.9924 90.322C71.9924 94.722 75.5344 98.22 79.9344 98.22C81.8924 98.22 83.7844 97.538 85.2804 96.086C85.4344 95.932 85.4784 95.646 85.3024 95.492L83.9384 94.084C83.8064 93.952 83.5644 93.93 83.3884 94.084C82.4644 94.832 81.3424 95.338 80.0224 95.338C77.2064 95.338 75.0944 93.006 75.0944 90.256C75.0944 87.484 77.1844 85.13 80.0004 85.13C81.2324 85.13 82.4644 85.614 83.3884 86.428C83.5644 86.604 83.7844 86.604 83.9384 86.428L85.2804 85.042C85.4564 84.866 85.4564 84.602 85.2584 84.426C83.7624 83.084 82.1564 82.38 79.9344 82.38C75.5344 82.38 71.9924 85.922 71.9924 90.322ZM87.3211 97.516C87.3211 97.78 87.5631 98 87.8051 98H89.4991C89.8291 98 90.0711 97.89 90.0711 97.516V91.18C90.2471 90.828 90.9071 90.124 92.0071 90.124C92.4691 90.124 92.7111 90.212 92.9531 90.322C93.1951 90.432 93.4371 90.344 93.5471 90.102L94.2071 88.606C94.4931 87.946 93.5031 87.616 92.2931 87.616C90.7311 87.616 89.7851 88.65 89.4331 89.156L89.0591 88.166C88.9711 87.946 88.8611 87.836 88.6191 87.836H87.8051C87.5631 87.836 87.3211 88.034 87.3211 88.32V97.516ZM94.9551 92.918C94.9551 95.822 97.0671 98.242 100.103 98.242C101.753 98.242 103.007 97.604 103.887 96.856C104.129 96.636 104.107 96.394 103.931 96.196L103.073 95.052C102.919 94.832 102.655 94.854 102.413 95.052C101.951 95.426 101.247 95.8 100.235 95.8C98.7611 95.8 97.7271 94.7 97.7051 93.446H104.217C104.437 93.446 104.679 93.248 104.701 92.984C104.723 92.83 104.745 92.478 104.745 92.324C104.745 89.574 102.721 87.616 100.081 87.616C97.0671 87.616 94.9551 90.058 94.9551 92.918ZM97.8591 91.642C97.9911 90.63 98.7831 89.882 100.015 89.882C101.137 89.882 101.929 90.652 101.973 91.642H97.8591ZM106.191 92.918C106.191 95.998 108.281 98.242 111.053 98.242C113.209 98.242 114.375 96.724 114.375 96.724L114.639 97.516C114.727 97.802 114.881 98 115.123 98H115.937C116.201 98 116.421 97.78 116.421 97.516V83.084C116.421 82.842 116.201 82.6 115.937 82.6H114.155C113.913 82.6 113.671 82.842 113.671 83.084V88.034C113.209 87.858 112.241 87.616 111.229 87.616C108.193 87.616 106.191 89.948 106.191 92.918ZM113.671 94.326C113.451 94.898 112.747 95.734 111.427 95.734C109.843 95.734 109.029 94.348 109.029 92.918C109.029 91.488 109.887 90.124 111.559 90.124C112.835 90.124 113.671 90.696 113.671 90.696V94.326ZM119.247 97.516C119.247 97.78 119.489 98 119.731 98H121.513C121.755 98 121.997 97.78 121.997 97.516V88.32C121.997 88.034 121.755 87.836 121.513 87.836H119.731C119.489 87.836 119.247 88.034 119.247 88.32V97.516ZM120.589 86.098C121.579 86.098 122.349 85.306 122.349 84.338C122.349 83.37 121.579 82.6 120.589 82.6C119.599 82.6 118.851 83.37 118.851 84.338C118.851 85.306 119.599 86.098 120.589 86.098ZM125.493 94.964C125.493 96.724 126.065 98.242 128.331 98.242C129.387 98.242 130.839 97.78 131.191 97.582C131.433 97.45 131.543 97.252 131.477 96.988L131.191 95.646C131.147 95.404 130.905 95.272 130.619 95.382C130.355 95.47 129.519 95.712 129.079 95.712C128.573 95.712 128.243 95.558 128.243 94.876V90.3H130.619C130.883 90.3 131.103 90.058 131.103 89.816V88.32C131.103 88.034 130.883 87.836 130.619 87.836H128.243V85.02C128.243 84.756 128.045 84.536 127.781 84.536H125.977C125.735 84.536 125.493 84.756 125.493 85.02V87.836H124.503C124.239 87.836 124.041 88.034 124.041 88.32V89.816C124.041 90.058 124.239 90.3 124.503 90.3H125.493V94.964ZM138.229 90.322C138.229 94.722 141.771 98.22 146.171 98.22C148.129 98.22 150.021 97.538 151.517 96.086C151.671 95.932 151.715 95.646 151.539 95.492L150.175 94.084C150.043 93.952 149.801 93.93 149.625 94.084C148.701 94.832 147.579 95.338 146.259 95.338C143.443 95.338 141.331 93.006 141.331 90.256C141.331 87.484 143.421 85.13 146.237 85.13C147.469 85.13 148.701 85.614 149.625 86.428C149.801 86.604 150.021 86.604 150.175 86.428L151.517 85.042C151.693 84.866 151.693 84.602 151.495 84.426C149.999 83.084 148.393 82.38 146.171 82.38C141.771 82.38 138.229 85.922 138.229 90.322ZM153.815 97.516C153.815 97.78 154.057 98 154.299 98H156.037C156.433 98 156.565 97.802 156.565 97.516V91.906C156.829 90.872 157.489 90.124 158.677 90.124C159.887 90.124 160.525 90.982 160.525 92.39V97.516C160.525 97.78 160.745 98 161.009 98H162.791C163.033 98 163.275 97.78 163.275 97.516V92.412C163.275 89.86 162.395 87.616 159.161 87.616C157.951 87.616 157.071 88.034 156.565 88.474V83.084C156.565 82.842 156.345 82.6 156.081 82.6H154.299C154.057 82.6 153.815 82.842 153.815 83.084V97.516ZM165.338 92.918C165.338 95.822 167.45 98.242 170.486 98.242C172.136 98.242 173.39 97.604 174.27 96.856C174.512 96.636 174.49 96.394 174.314 96.196L173.456 95.052C173.302 94.832 173.038 94.854 172.796 95.052C172.334 95.426 171.63 95.8 170.618 95.8C169.144 95.8 168.11 94.7 168.088 93.446H174.6C174.82 93.446 175.062 93.248 175.084 92.984C175.106 92.83 175.128 92.478 175.128 92.324C175.128 89.574 173.104 87.616 170.464 87.616C167.45 87.616 165.338 90.058 165.338 92.918ZM168.242 91.642C168.374 90.63 169.166 89.882 170.398 89.882C171.52 89.882 172.312 90.652 172.356 91.642H168.242ZM176.574 92.918C176.574 95.976 178.972 98.242 181.942 98.242C183.746 98.242 185.11 97.45 185.968 96.108C186.144 95.844 186.034 95.602 185.792 95.382L184.802 94.546C184.626 94.392 184.318 94.436 184.164 94.612C183.724 95.118 183.13 95.734 182.008 95.734C180.424 95.734 179.346 94.502 179.346 92.918C179.346 91.356 180.446 90.124 182.03 90.124C182.976 90.124 183.57 90.542 184.054 91.004C184.252 91.202 184.494 91.312 184.714 91.07L185.638 90.058C185.858 89.838 185.968 89.552 185.748 89.332C184.78 88.298 183.548 87.616 181.964 87.616C178.95 87.616 176.574 89.926 176.574 92.918ZM188.018 97.516C188.018 97.78 188.26 98 188.502 98H190.284C190.548 98 190.768 97.78 190.768 97.516V93.226L194.596 97.802C194.662 97.912 194.86 98 195.036 98H197.192C197.61 98 197.764 97.56 197.5 97.274L193.276 92.544L197.302 88.584C197.544 88.298 197.39 87.836 196.972 87.836H194.904C194.618 87.836 194.442 87.99 194.266 88.144L190.768 91.686V83.084C190.768 82.842 190.548 82.6 190.284 82.6H188.502C188.26 82.6 188.018 82.842 188.018 83.084V97.516Z" fill="#1966FF"/>
<path d="M78.3176 115.944C78.3456 116.056 78.4576 116.14 78.5696 116.14H78.7936C78.8916 116.14 78.9896 116.07 79.0316 115.986L81.4116 108.412H81.4816L83.9036 115.986C83.9456 116.07 84.0436 116.14 84.1416 116.14H84.3656C84.4776 116.14 84.5896 116.056 84.6176 115.944L87.2636 106.536C87.3196 106.34 87.2076 106.2 87.0116 106.2H86.4236C86.3116 106.2 86.1996 106.298 86.1716 106.396L84.2676 113.648H84.2116L81.8316 106.214C81.8036 106.13 81.7056 106.06 81.5936 106.06H81.3416C81.2156 106.06 81.1316 106.13 81.1036 106.214L78.7656 113.648H78.7096L76.7636 106.396C76.7356 106.298 76.6236 106.2 76.5116 106.2H75.9236C75.7276 106.2 75.6156 106.34 75.6716 106.536L78.3176 115.944ZM87.8735 112.766C87.8735 114.614 89.0495 116.154 91.0095 116.154C92.1295 116.154 92.9835 115.72 93.3755 115.412C93.6135 115.23 93.5575 115.16 93.4315 114.964L93.2635 114.726C93.0955 114.474 92.9975 114.53 92.7735 114.684C92.4095 114.922 91.8775 115.216 91.0235 115.216C89.8475 115.216 88.9375 114.082 88.9095 113.004H93.6135C93.7535 113.004 93.8935 112.892 93.9075 112.724C93.9215 112.612 93.9355 112.444 93.9355 112.332C93.9355 110.638 92.7035 109.392 91.0095 109.392C89.0495 109.392 87.8735 110.946 87.8735 112.766ZM88.9235 112.178C89.0495 111.17 89.9175 110.33 91.0095 110.33C92.1155 110.33 92.8715 111.226 92.8995 112.178H88.9235ZM95.215 106.9C95.215 107.208 95.439 107.586 95.887 107.586C96.027 107.586 96.251 107.53 96.349 107.46C96.391 107.572 96.405 107.684 96.405 107.782C96.405 108.51 96.013 109.028 95.621 109.448C95.551 109.518 95.509 109.602 95.607 109.7L95.873 109.938C95.943 109.994 96.013 110.008 96.097 109.924C96.587 109.392 97.049 108.65 97.049 107.586C97.049 106.732 96.685 106.046 95.999 106.046C95.495 106.046 95.215 106.41 95.215 106.9ZM98.8615 115.692C98.8615 115.86 99.0015 116 99.1695 116H99.5895C99.7435 116 99.8975 115.86 99.8975 115.692V111.212C99.8975 111.212 100.402 110.386 101.648 110.386C101.956 110.386 102.194 110.498 102.348 110.568C102.502 110.638 102.656 110.624 102.726 110.414L102.908 109.91C103.062 109.462 102.264 109.392 101.774 109.392C100.43 109.392 99.7855 110.218 99.7855 110.218L99.6735 109.756C99.6315 109.602 99.5195 109.532 99.3935 109.532H99.1695C99.0015 109.532 98.8615 109.686 98.8615 109.84V115.692ZM103.651 112.766C103.651 114.614 104.827 116.154 106.787 116.154C107.907 116.154 108.761 115.72 109.153 115.412C109.391 115.23 109.335 115.16 109.209 114.964L109.041 114.726C108.873 114.474 108.775 114.53 108.551 114.684C108.187 114.922 107.655 115.216 106.801 115.216C105.625 115.216 104.715 114.082 104.687 113.004H109.391C109.531 113.004 109.671 112.892 109.685 112.724C109.699 112.612 109.713 112.444 109.713 112.332C109.713 110.638 108.481 109.392 106.787 109.392C104.827 109.392 103.651 110.946 103.651 112.766ZM104.701 112.178C104.827 111.17 105.695 110.33 106.787 110.33C107.893 110.33 108.649 111.226 108.677 112.178H104.701ZM114.977 110.428V114.362C114.977 115.37 115.229 116.154 116.461 116.154C117.329 116.154 118.001 115.832 118.281 115.636C118.449 115.524 118.477 115.426 118.393 115.216L118.267 114.922C118.197 114.768 118.113 114.642 117.861 114.796C117.595 114.964 117.189 115.216 116.587 115.216C116.223 115.216 116.013 114.964 116.013 114.292V110.428H117.917C118.099 110.428 118.239 110.288 118.239 110.12V109.84C118.239 109.658 118.099 109.532 117.917 109.532H116.013V107.712C116.013 107.544 115.887 107.39 115.719 107.404L115.285 107.432C115.131 107.446 114.977 107.572 114.977 107.74V109.532H114.123C113.927 109.532 113.801 109.658 113.801 109.84V110.12C113.801 110.288 113.927 110.428 114.123 110.428H114.977ZM119.862 115.692C119.862 115.86 120.002 116 120.17 116H120.59C120.744 116 120.898 115.86 120.898 115.692V111.254C120.898 111.254 121.654 110.33 122.886 110.33C123.88 110.33 124.244 111.044 124.244 112.276V115.692C124.244 115.86 124.384 116 124.552 116H124.986C125.14 116 125.294 115.86 125.294 115.692V112.276C125.294 110.386 124.566 109.392 122.956 109.392C121.654 109.392 120.898 110.218 120.898 110.218V106.508C120.898 106.354 120.744 106.2 120.59 106.2H120.17C120.002 106.2 119.862 106.354 119.862 106.508V115.692ZM127.002 112.766C127.002 114.614 128.178 116.154 130.138 116.154C131.258 116.154 132.112 115.72 132.504 115.412C132.742 115.23 132.686 115.16 132.56 114.964L132.392 114.726C132.224 114.474 132.126 114.53 131.902 114.684C131.538 114.922 131.006 115.216 130.152 115.216C128.976 115.216 128.066 114.082 128.038 113.004H132.742C132.882 113.004 133.022 112.892 133.036 112.724C133.05 112.612 133.064 112.444 133.064 112.332C133.064 110.638 131.832 109.392 130.138 109.392C128.178 109.392 127.002 110.946 127.002 112.766ZM128.052 112.178C128.178 111.17 129.046 110.33 130.138 110.33C131.244 110.33 132 111.226 132.028 112.178H128.052ZM134.764 115.692C134.764 115.86 134.904 116 135.072 116H135.492C135.646 116 135.8 115.86 135.8 115.692V111.212C135.8 111.212 136.304 110.386 137.55 110.386C137.858 110.386 138.096 110.498 138.25 110.568C138.404 110.638 138.558 110.624 138.628 110.414L138.81 109.91C138.964 109.462 138.166 109.392 137.676 109.392C136.332 109.392 135.688 110.218 135.688 110.218L135.576 109.756C135.534 109.602 135.422 109.532 135.296 109.532H135.072C134.904 109.532 134.764 109.686 134.764 109.84V115.692ZM139.553 112.766C139.553 114.614 140.729 116.154 142.689 116.154C143.809 116.154 144.663 115.72 145.055 115.412C145.293 115.23 145.237 115.16 145.111 114.964L144.943 114.726C144.775 114.474 144.677 114.53 144.453 114.684C144.089 114.922 143.557 115.216 142.703 115.216C141.527 115.216 140.617 114.082 140.589 113.004H145.293C145.433 113.004 145.573 112.892 145.587 112.724C145.601 112.612 145.615 112.444 145.615 112.332C145.615 110.638 144.383 109.392 142.689 109.392C140.729 109.392 139.553 110.946 139.553 112.766ZM140.603 112.178C140.729 111.17 141.597 110.33 142.689 110.33C143.795 110.33 144.551 111.226 144.579 112.178H140.603ZM151.034 115.692C151.034 115.86 151.174 116 151.342 116H151.762C151.93 116 152.07 115.86 152.07 115.692V110.428H153.988C154.156 110.428 154.296 110.288 154.296 110.12V109.84C154.296 109.658 154.156 109.532 153.988 109.532H152.07V108.51C152.07 107.544 152.42 106.998 153.162 106.998C153.708 106.998 154.002 107.194 154.352 107.446C154.534 107.572 154.646 107.586 154.758 107.432L155.024 107.096C155.094 106.998 155.066 106.83 154.968 106.732C154.674 106.452 154.072 106.06 153.19 106.06C151.79 106.06 151.034 106.9 151.034 108.51V109.532H149.998C149.83 109.532 149.69 109.658 149.69 109.84V110.12C149.69 110.288 149.83 110.428 149.998 110.428H151.034V115.692ZM155.07 112.752C155.07 114.6 156.526 116.154 158.318 116.154C160.11 116.154 161.566 114.6 161.566 112.752C161.566 110.932 160.11 109.392 158.318 109.392C156.526 109.392 155.07 110.932 155.07 112.752ZM156.092 112.752C156.092 111.436 157.044 110.33 158.318 110.33C159.592 110.33 160.53 111.436 160.53 112.752C160.53 114.096 159.592 115.216 158.318 115.216C157.044 115.216 156.092 114.096 156.092 112.752ZM163.324 115.692C163.324 115.86 163.464 116 163.632 116H164.052C164.206 116 164.36 115.86 164.36 115.692V111.212C164.36 111.212 164.864 110.386 166.11 110.386C166.418 110.386 166.656 110.498 166.81 110.568C166.964 110.638 167.118 110.624 167.188 110.414L167.37 109.91C167.524 109.462 166.726 109.392 166.236 109.392C164.892 109.392 164.248 110.218 164.248 110.218L164.136 109.756C164.094 109.602 163.982 109.532 163.856 109.532H163.632C163.464 109.532 163.324 109.686 163.324 109.84V115.692ZM173.454 115.986L172.208 118.94C172.11 119.164 172.222 119.332 172.474 119.332H172.978C173.09 119.332 173.216 119.234 173.258 119.136L177.304 109.896C177.402 109.686 177.304 109.532 177.052 109.532H176.534C176.408 109.532 176.296 109.602 176.254 109.714L174.07 114.852H174.042L172.208 109.714C172.166 109.602 172.054 109.532 171.928 109.532H171.34C171.088 109.532 171.004 109.672 171.088 109.882L173.454 115.986ZM178.203 112.752C178.203 114.6 179.659 116.154 181.451 116.154C183.243 116.154 184.699 114.6 184.699 112.752C184.699 110.932 183.243 109.392 181.451 109.392C179.659 109.392 178.203 110.932 178.203 112.752ZM179.225 112.752C179.225 111.436 180.177 110.33 181.451 110.33C182.725 110.33 183.663 111.436 183.663 112.752C183.663 114.096 182.725 115.216 181.451 115.216C180.177 115.216 179.225 114.096 179.225 112.752ZM186.387 113.326C186.387 115.034 186.835 116.154 188.697 116.154C189.859 116.154 190.461 115.566 190.699 115.314L190.825 115.72C190.867 115.888 190.937 116 191.119 116H191.343C191.497 116 191.637 115.86 191.637 115.692V109.84C191.637 109.686 191.497 109.532 191.343 109.532H190.909C190.741 109.532 190.615 109.686 190.615 109.84V114.278C190.321 114.614 189.747 115.216 188.781 115.216C187.843 115.216 187.423 114.628 187.423 113.34V109.84C187.423 109.686 187.283 109.532 187.115 109.532H186.695C186.513 109.532 186.387 109.686 186.387 109.84V113.326Z" fill="#9B9B9B"/>
</svg>
