<svg width="267" height="155" viewBox="0 0 267 155" fill="none" xmlns="http://www.w3.org/2000/svg">
<rect width="267" height="155" rx="10" fill="white"/>
<path fill-rule="evenodd" clip-rule="evenodd" d="M137.628 52.6113L138.199 53.2119C138.837 53.818 139.195 54.6521 139.201 55.5251V63.549C139.195 64.8279 138.148 65.8622 136.861 65.8622H135.383C134.095 65.8622 133.048 64.8279 133.043 63.549V62.4146H119.158V63.549C119.153 64.8279 118.106 65.8622 116.818 65.8622H115.34C114.053 65.8622 113.006 64.8279 113 63.549V55.7308C113 54.7966 113.414 53.9069 114.131 53.3008L114.954 52.5446L116.93 47.2454C117.272 46.339 118.145 45.7329 119.119 45.7329H133.434C134.409 45.7385 135.282 46.339 135.623 47.2454L137.628 52.6113ZM119.119 46.845C118.615 46.845 118.162 47.1509 117.983 47.6235L116.236 52.2944H127.422C127.668 50.6318 128.984 49.325 130.658 49.0804C132.757 48.769 134.711 50.2092 135.019 52.2944H136.323L134.577 47.6235C134.397 47.1564 133.944 46.845 133.44 46.845H119.119ZM133.877 52.2944H128.553C128.86 50.832 130.305 49.8978 131.777 50.2036C132.83 50.426 133.653 51.2434 133.877 52.2944ZM116.818 64.7501C117.49 64.7501 118.033 64.2162 118.039 63.549V62.4146H115.34C114.898 62.4146 114.456 62.309 114.12 62.0921V63.549C114.125 64.2162 114.668 64.7501 115.34 64.7501H116.818ZM138.081 63.549C138.076 64.2162 137.532 64.7501 136.861 64.7501H135.383C134.711 64.7501 134.168 64.2107 134.162 63.549V62.4146H136.861C137.303 62.4146 137.745 62.309 138.081 62.0921V63.549ZM115.34 61.3025H136.861C137.527 61.3081 138.076 60.7743 138.081 60.1125H138.076V55.5251C138.076 54.9523 137.835 54.4018 137.415 54.007C137.412 54.0015 137.407 53.9973 137.401 53.9931C137.395 53.989 137.39 53.9848 137.387 53.9792L136.849 53.4065H115.648L114.887 54.1183L114.864 54.1405C114.394 54.5353 114.12 55.1192 114.12 55.7308V60.1125C114.125 60.7798 114.674 61.3081 115.34 61.3025Z" fill="#2C3A55"/>
<path d="M138.199 53.2119L138.126 53.2809L138.13 53.2844L138.199 53.2119ZM137.628 52.6113L137.534 52.6463L137.541 52.6655L137.555 52.6802L137.628 52.6113ZM139.201 55.5251H139.301L139.301 55.5244L139.201 55.5251ZM139.201 63.549L139.301 63.5494V63.549H139.201ZM133.043 63.549H132.943L132.943 63.5494L133.043 63.549ZM133.043 62.4146H133.143V62.3146H133.043V62.4146ZM119.158 62.4146V62.3146H119.058V62.4146H119.158ZM119.158 63.549L119.258 63.5494V63.549H119.158ZM113 63.549H112.9L112.9 63.5494L113 63.549ZM114.131 53.3008L114.196 53.3773L114.199 53.3745L114.131 53.3008ZM114.954 52.5446L115.022 52.6182L115.039 52.602L115.048 52.5796L114.954 52.5446ZM116.93 47.2454L116.837 47.2101L116.836 47.2104L116.93 47.2454ZM133.434 45.7329L133.435 45.6329H133.434V45.7329ZM135.623 47.2454L135.717 47.2104L135.717 47.2101L135.623 47.2454ZM117.983 47.6235L117.889 47.5881L117.889 47.5885L117.983 47.6235ZM116.236 52.2944L116.142 52.2594L116.092 52.3944H116.236V52.2944ZM127.422 52.2944V52.3944H127.508L127.521 52.309L127.422 52.2944ZM130.658 49.0804L130.672 49.1793L130.672 49.1793L130.658 49.0804ZM135.019 52.2944L134.92 52.309L134.932 52.3944H135.019V52.2944ZM136.323 52.2944V52.3944H136.467L136.417 52.2594L136.323 52.2944ZM134.577 47.6235L134.67 47.5885L134.67 47.5877L134.577 47.6235ZM128.553 52.2944L128.455 52.2738L128.429 52.3944H128.553V52.2944ZM133.877 52.2944V52.3944H134L133.975 52.2735L133.877 52.2944ZM131.777 50.2036L131.798 50.1058L131.798 50.1057L131.777 50.2036ZM118.039 63.549L118.139 63.5498V63.549H118.039ZM118.039 62.4146H118.139V62.3146H118.039V62.4146ZM114.12 62.0921L114.174 62.0081L114.02 61.9085V62.0921H114.12ZM114.12 63.549H114.02L114.02 63.5498L114.12 63.549ZM138.081 63.549L138.181 63.5498V63.549H138.081ZM134.162 63.549H134.062L134.062 63.5498L134.162 63.549ZM134.162 62.4146V62.3146H134.062V62.4146H134.162ZM138.081 62.0921H138.181V61.9085L138.027 62.0081L138.081 62.0921ZM136.861 61.3025L136.862 61.2025H136.861V61.3025ZM115.34 61.3025V61.2025L115.339 61.2025L115.34 61.3025ZM138.081 60.1125L138.181 60.1134L138.182 60.0125H138.081V60.1125ZM138.076 60.1125H137.976V60.2125H138.076V60.1125ZM137.415 54.007L137.326 54.052L137.334 54.0678L137.346 54.0799L137.415 54.007ZM137.387 53.9792L137.476 53.9343L137.47 53.9214L137.46 53.9108L137.387 53.9792ZM136.849 53.4065L136.922 53.3381L136.893 53.3065H136.849V53.4065ZM115.648 53.4065V53.3065H115.609L115.58 53.3334L115.648 53.4065ZM114.887 54.1183L114.818 54.0452L114.816 54.0473L114.887 54.1183ZM114.864 54.1405L114.929 54.2174L114.935 54.2114L114.864 54.1405ZM114.12 60.1125H114.02L114.02 60.1134L114.12 60.1125ZM138.271 53.143L137.7 52.5424L137.555 52.6802L138.126 53.2808L138.271 53.143ZM139.301 55.5244C139.295 54.6243 138.926 53.7643 138.268 53.1394L138.13 53.2844C138.748 53.8717 139.095 54.6798 139.101 55.5257L139.301 55.5244ZM139.301 63.549V55.5251H139.101V63.549H139.301ZM136.861 65.9622C138.203 65.9622 139.295 64.8841 139.301 63.5494L139.101 63.5485C139.095 64.7717 138.094 65.7622 136.861 65.7622V65.9622ZM135.383 65.9622H136.861V65.7622H135.383V65.9622ZM132.943 63.5494C132.948 64.8841 134.041 65.9622 135.383 65.9622V65.7622C134.149 65.7622 133.148 64.7717 133.143 63.5485L132.943 63.5494ZM132.943 62.4146V63.549H133.143V62.4146H132.943ZM119.158 62.5146H133.043V62.3146H119.158V62.5146ZM119.258 63.549V62.4146H119.058V63.549H119.258ZM116.818 65.9622C118.16 65.9622 119.252 64.8841 119.258 63.5494L119.058 63.5485C119.053 64.7717 118.051 65.7622 116.818 65.7622V65.9622ZM115.34 65.9622H116.818V65.7622H115.34V65.9622ZM112.9 63.5494C112.906 64.8841 113.998 65.9622 115.34 65.9622V65.7622C114.107 65.7622 113.105 64.7717 113.1 63.5485L112.9 63.5494ZM112.9 55.7308V63.549H113.1V55.7308H112.9ZM114.066 53.2245C113.327 53.8495 112.9 54.767 112.9 55.7308H113.1C113.1 54.8262 113.501 53.9644 114.195 53.3772L114.066 53.2245ZM114.886 52.471L114.063 53.2272L114.199 53.3745L115.022 52.6182L114.886 52.471ZM116.836 47.2104L114.86 52.5097L115.048 52.5796L117.024 47.2803L116.836 47.2104ZM119.119 45.6329C118.103 45.6329 117.193 46.2648 116.837 47.2101L117.024 47.2806C117.351 46.4132 118.187 45.8329 119.119 45.8329V45.6329ZM133.434 45.6329H119.119V45.8329H133.434V45.6329ZM135.717 47.2101C135.361 46.2644 134.45 45.6387 133.435 45.6329L133.434 45.8329C134.367 45.8382 135.203 46.4136 135.53 47.2806L135.717 47.2101ZM137.721 52.5763L135.717 47.2104L135.53 47.2804L137.534 52.6463L137.721 52.5763ZM118.076 47.6589C118.24 47.226 118.656 46.945 119.119 46.945V46.745C118.575 46.745 118.083 47.0757 117.889 47.5881L118.076 47.6589ZM116.33 52.3294L118.076 47.6585L117.889 47.5885L116.142 52.2594L116.33 52.3294ZM127.422 52.1944H116.236V52.3944H127.422V52.1944ZM130.643 48.9814C128.926 49.2324 127.576 50.5731 127.323 52.2797L127.521 52.309C127.76 50.6905 129.041 49.4177 130.672 49.1793L130.643 48.9814ZM135.118 52.2798C134.802 50.1393 132.796 48.662 130.643 48.9815L130.672 49.1793C132.718 48.8759 134.62 50.2791 134.92 52.309L135.118 52.2798ZM136.323 52.1944H135.019V52.3944H136.323V52.1944ZM134.483 47.6585L136.23 52.3294L136.417 52.2594L134.67 47.5885L134.483 47.6585ZM133.44 46.945C133.903 46.945 134.319 47.2311 134.483 47.6593L134.67 47.5877C134.476 47.0817 133.985 46.745 133.44 46.745V46.945ZM119.119 46.945H133.44V46.745H119.119V46.945ZM128.553 52.3944H133.877V52.1944H128.553V52.3944ZM131.798 50.1057C130.272 49.7888 128.774 50.7566 128.455 52.2738L128.65 52.315C128.947 50.9073 130.338 50.0067 131.757 50.3015L131.798 50.1057ZM133.975 52.2735C133.742 51.1837 132.889 50.3363 131.798 50.1058L131.757 50.3014C132.771 50.5158 133.563 51.3032 133.779 52.3152L133.975 52.2735ZM117.939 63.5481C117.933 64.1598 117.436 64.6501 116.818 64.6501V64.8501C117.544 64.8501 118.133 64.2727 118.139 63.5498L117.939 63.5481ZM117.939 62.4146V63.549H118.139V62.4146H117.939ZM115.34 62.5146H118.039V62.3146H115.34V62.5146ZM114.065 62.1761C114.421 62.4059 114.884 62.5146 115.34 62.5146V62.3146C114.912 62.3146 114.49 62.2121 114.174 62.0081L114.065 62.1761ZM114.22 63.549V62.0921H114.02V63.549H114.22ZM115.34 64.6501C114.722 64.6501 114.225 64.1598 114.22 63.5481L114.02 63.5498C114.026 64.2727 114.614 64.8501 115.34 64.8501V64.6501ZM116.818 64.6501H115.34V64.8501H116.818V64.6501ZM136.861 64.8501C137.587 64.8501 138.175 64.2727 138.181 63.5498L137.981 63.5481C137.976 64.1598 137.478 64.6501 136.861 64.6501V64.8501ZM135.383 64.8501H136.861V64.6501H135.383V64.8501ZM134.062 63.5498C134.068 64.2669 134.656 64.8501 135.383 64.8501V64.6501C134.765 64.6501 134.267 64.1545 134.262 63.5481L134.062 63.5498ZM134.062 62.4146V63.549H134.262V62.4146H134.062ZM136.861 62.3146H134.162V62.5146H136.861V62.3146ZM138.027 62.0081C137.711 62.2121 137.289 62.3146 136.861 62.3146V62.5146C137.317 62.5146 137.78 62.4059 138.135 62.1761L138.027 62.0081ZM138.181 63.549V62.0921H137.981V63.549H138.181ZM136.861 61.2025H115.34V61.4025H136.861V61.2025ZM137.981 60.1117C137.976 60.7173 137.473 61.2076 136.862 61.2025L136.86 61.4025C137.58 61.4085 138.175 60.8312 138.181 60.1134L137.981 60.1117ZM138.076 60.2125H138.081V60.0125H138.076V60.2125ZM137.976 55.5251V60.1125H138.176V55.5251H137.976ZM137.346 54.0799C137.747 54.4561 137.976 54.9803 137.976 55.5251H138.176C138.176 54.9243 137.923 54.3476 137.483 53.9342L137.346 54.0799ZM137.341 54.0733C137.343 54.0745 137.343 54.0748 137.343 54.0749C137.343 54.075 137.343 54.0743 137.341 54.0731C137.339 54.0709 137.332 54.0639 137.326 54.052L137.504 53.9621C137.489 53.9313 137.461 53.9132 137.461 53.9129L137.341 54.0733ZM137.298 54.0242C137.313 54.055 137.341 54.0731 137.341 54.0733L137.461 53.9129C137.459 53.9118 137.459 53.9115 137.459 53.9113C137.458 53.9112 137.459 53.9119 137.461 53.9132C137.463 53.9154 137.47 53.9224 137.476 53.9343L137.298 54.0242ZM136.777 53.4749L137.314 54.0477L137.46 53.9108L136.922 53.3381L136.777 53.4749ZM115.648 53.5065H136.849V53.3065H115.648V53.5065ZM114.955 54.1913L115.716 53.4795L115.58 53.3334L114.818 54.0452L114.955 54.1913ZM114.935 54.2114L114.957 54.1892L114.816 54.0473L114.794 54.0695L114.935 54.2114ZM114.22 55.7308C114.22 55.149 114.481 54.5931 114.929 54.2171L114.8 54.0639C114.307 54.4775 114.02 55.0893 114.02 55.7308H114.22ZM114.22 60.1125V55.7308H114.02V60.1125H114.22ZM115.339 61.2025C114.727 61.2076 114.225 60.7226 114.22 60.1117L114.02 60.1134C114.026 60.837 114.621 61.4085 115.341 61.4025L115.339 61.2025Z" fill="#2C3A55"/>
<path fill-rule="evenodd" clip-rule="evenodd" d="M116.191 55.6309H120.39C120.698 55.6309 120.95 55.8811 120.95 56.1869V59.0784C120.95 59.3842 120.698 59.6345 120.39 59.6345H116.191C115.883 59.6345 115.631 59.3842 115.631 59.0784V56.1869C115.631 55.8811 115.883 55.6309 116.191 55.6309ZM116.751 58.5224H119.83V56.743H116.751V58.5224Z" fill="#2C3A55"/>
<path d="M119.83 58.5224V58.6224H119.93V58.5224H119.83ZM116.751 58.5224H116.651V58.6224H116.751V58.5224ZM119.83 56.743H119.93V56.643H119.83V56.743ZM116.751 56.743V56.643H116.651V56.743H116.751ZM120.39 55.5309H116.191V55.7309H120.39V55.5309ZM121.05 56.1869C121.05 55.8252 120.753 55.5309 120.39 55.5309V55.7309C120.643 55.7309 120.85 55.937 120.85 56.1869H121.05ZM121.05 59.0784V56.1869H120.85V59.0784H121.05ZM120.39 59.7345C120.753 59.7345 121.05 59.4401 121.05 59.0784H120.85C120.85 59.3284 120.643 59.5345 120.39 59.5345V59.7345ZM116.191 59.7345H120.39V59.5345H116.191V59.7345ZM115.531 59.0784C115.531 59.4401 115.829 59.7345 116.191 59.7345V59.5345C115.938 59.5345 115.731 59.3284 115.731 59.0784H115.531ZM115.531 56.1869V59.0784H115.731V56.1869H115.531ZM116.191 55.5309C115.829 55.5309 115.531 55.8252 115.531 56.1869H115.731C115.731 55.937 115.938 55.7309 116.191 55.7309V55.5309ZM119.83 58.4224H116.751V58.6224H119.83V58.4224ZM119.73 56.743V58.5224H119.93V56.743H119.73ZM116.751 56.843H119.83V56.643H116.751V56.843ZM116.851 58.5224V56.743H116.651V58.5224H116.851Z" fill="#2C3A55"/>
<path fill-rule="evenodd" clip-rule="evenodd" d="M131.811 55.6309H136.01C136.318 55.6309 136.57 55.8811 136.57 56.1869V59.0784C136.57 59.3842 136.318 59.6345 136.01 59.6345H131.811C131.503 59.6345 131.251 59.3842 131.251 59.0784V56.1869C131.251 55.8811 131.503 55.6309 131.811 55.6309ZM132.371 58.5224H135.45V56.743H132.371V58.5224Z" fill="#2C3A55"/>
<path d="M135.45 58.5224V58.6224H135.55V58.5224H135.45ZM132.371 58.5224H132.271V58.6224H132.371V58.5224ZM135.45 56.743H135.55V56.643H135.45V56.743ZM132.371 56.743V56.643H132.271V56.743H132.371ZM136.01 55.5309H131.811V55.7309H136.01V55.5309ZM136.67 56.1869C136.67 55.8252 136.372 55.5309 136.01 55.5309V55.7309C136.263 55.7309 136.47 55.937 136.47 56.1869H136.67ZM136.67 59.0784V56.1869H136.47V59.0784H136.67ZM136.01 59.7345C136.372 59.7345 136.67 59.4401 136.67 59.0784H136.47C136.47 59.3284 136.263 59.5345 136.01 59.5345V59.7345ZM131.811 59.7345H136.01V59.5345H131.811V59.7345ZM131.151 59.0784C131.151 59.4401 131.448 59.7345 131.811 59.7345V59.5345C131.557 59.5345 131.351 59.3284 131.351 59.0784H131.151ZM131.151 56.1869V59.0784H131.351V56.1869H131.151ZM131.811 55.5309C131.448 55.5309 131.151 55.8252 131.151 56.1869H131.351C131.351 55.937 131.557 55.7309 131.811 55.7309V55.5309ZM135.45 58.4224H132.371V58.6224H135.45V58.4224ZM135.35 56.743V58.5224H135.55V56.743H135.35ZM132.371 56.843H135.45V56.643H132.371V56.843ZM132.471 58.5224V56.743H132.271V58.5224H132.471Z" fill="#2C3A55"/>
<path d="M128.804 57.9663H123.396C123.088 57.9663 122.836 58.2165 122.836 58.5224C122.836 58.8282 123.088 59.0784 123.396 59.0784H128.804C129.112 59.0784 129.364 58.8282 129.364 58.5224C129.364 58.2165 129.112 57.9663 128.804 57.9663Z" fill="#2C3A55" stroke="#2C3A55" stroke-width="0.2"/>
<path d="M128.804 56.2422H123.396C123.088 56.2422 122.836 56.4924 122.836 56.7982C122.836 57.1041 123.088 57.3543 123.396 57.3543H128.804C129.112 57.3543 129.364 57.1041 129.364 56.7982C129.364 56.4924 129.112 56.2422 128.804 56.2422Z" fill="#2C3A55" stroke="#2C3A55" stroke-width="0.2"/>
<path fill-rule="evenodd" clip-rule="evenodd" d="M145.658 57.6536H142.625C142.295 57.6536 142.028 57.9195 142.028 58.2468V61.2839H139.201V62.4701H143.269C143.428 62.4701 143.58 62.4078 143.691 62.2964L146.677 59.3308C146.789 59.2198 146.852 59.0686 146.852 58.9114V55.3526H145.658V57.6536ZM126.548 45.7328V35.1862C126.548 34.5319 127.084 34 127.743 34H145.658C146.316 34 146.852 34.5319 146.852 35.1862V39.9313H145.658V35.1862H127.743V45.7328H126.548ZM145.658 58.6659L143.022 61.2839V58.6659H145.658Z" fill="#2C3A55"/>
<path d="M145.658 57.6536V57.7536H145.758V57.6536H145.658ZM142.028 61.2839V61.3839H142.128V61.2839H142.028ZM139.201 61.2839V61.1839H139.101V61.2839H139.201ZM139.201 62.4701H139.101V62.5701H139.201V62.4701ZM143.691 62.2964L143.621 62.2254L143.621 62.2256L143.691 62.2964ZM146.677 59.3308L146.607 59.2597L146.607 59.2598L146.677 59.3308ZM146.852 55.3526H146.952V55.2526H146.852V55.3526ZM145.658 55.3526V55.2526H145.558V55.3526H145.658ZM126.548 45.7328H126.448V45.8328H126.548V45.7328ZM146.852 39.9313V40.0313H146.952V39.9313H146.852ZM145.658 39.9313H145.558V40.0313H145.658V39.9313ZM145.658 35.1862H145.758V35.0862H145.658V35.1862ZM127.743 35.1862V35.0862H127.643V35.1862H127.743ZM127.743 45.7328V45.8328H127.843V45.7328H127.743ZM143.022 61.2839H142.922V61.5242L143.092 61.3549L143.022 61.2839ZM145.658 58.6659L145.728 58.7369L145.9 58.5659H145.658V58.6659ZM143.022 58.6659V58.5659H142.922V58.6659H143.022ZM142.625 57.7536H145.658V57.5536H142.625V57.7536ZM142.128 58.2468C142.128 57.9753 142.35 57.7536 142.625 57.7536V57.5536C142.24 57.5536 141.928 57.8637 141.928 58.2468H142.128ZM142.128 61.2839V58.2468H141.928V61.2839H142.128ZM139.201 61.3839H142.028V61.1839H139.201V61.3839ZM139.101 61.2839V62.4701H139.301V61.2839H139.101ZM143.269 62.3701H139.201V62.5701H143.269V62.3701ZM143.621 62.2256C143.528 62.3181 143.402 62.3701 143.269 62.3701V62.5701C143.454 62.5701 143.631 62.4975 143.762 62.3671L143.621 62.2256ZM146.607 59.2598L143.621 62.2254L143.762 62.3673L146.748 59.4017L146.607 59.2598ZM146.752 58.9114C146.752 59.042 146.7 59.1676 146.607 59.2597L146.748 59.4019C146.879 59.272 146.952 59.0952 146.952 58.9114H146.752ZM146.752 55.3526V58.9114H146.952V55.3526H146.752ZM145.658 55.4526H146.852V55.2526H145.658V55.4526ZM145.758 57.6536V55.3526H145.558V57.6536H145.758ZM126.648 45.7328V35.1862H126.448V45.7328H126.648ZM126.648 35.1862C126.648 34.5878 127.138 34.1 127.743 34.1V33.9C127.029 33.9 126.448 34.4761 126.448 35.1862H126.648ZM127.743 34.1H145.658V33.9H127.743V34.1ZM145.658 34.1C146.262 34.1 146.752 34.5878 146.752 35.1862H146.952C146.952 34.4761 146.371 33.9 145.658 33.9V34.1ZM146.752 35.1862V39.9313H146.952V35.1862H146.752ZM146.852 39.8313H145.658V40.0313H146.852V39.8313ZM145.758 39.9313V35.1862H145.558V39.9313H145.758ZM145.658 35.0862H127.743V35.2862H145.658V35.0862ZM127.643 35.1862V45.7328H127.843V35.1862H127.643ZM126.548 45.8328H127.743V45.6328H126.548V45.8328ZM143.092 61.3549L145.728 58.7369L145.587 58.595L142.951 61.213L143.092 61.3549ZM142.922 58.6659V61.2839H143.122V58.6659H142.922ZM145.658 58.5659H143.022V58.7659H145.658V58.5659Z" fill="#2C3A55"/>
<path fill-rule="evenodd" clip-rule="evenodd" d="M143.269 39.4492V37.6699C143.269 37.3425 143.002 37.0767 142.672 37.0767H130.729C130.398 37.0767 130.131 37.3425 130.131 37.6699V40.6263C130.131 40.9536 130.398 41.2195 130.729 41.2195H140.261V40.0331H131.326V38.2631H142.075V39.4492H143.269Z" fill="#2C3A55" stroke="#2C3A55" stroke-width="0.2"/>
<path fill-rule="evenodd" clip-rule="evenodd" d="M130.131 43.5085C130.131 43.3549 130.256 43.2305 130.409 43.2305H136.739C136.893 43.2305 137.017 43.3549 137.017 43.5085V44.1202C137.017 44.2737 136.893 44.3982 136.739 44.3982H130.409C130.256 44.3982 130.131 44.2737 130.131 44.1202V43.5085Z" fill="#2C3A55" stroke="#2C3A55" stroke-width="0.2"/>
<path fill-rule="evenodd" clip-rule="evenodd" d="M152.227 45.8626H152.022C151.651 45.8626 151.506 45.5822 151.469 45.4962C151.433 45.4102 151.337 45.11 151.598 44.8509L151.744 44.7066C151.856 44.5952 151.919 44.4445 151.919 44.2868C151.919 44.1295 151.856 43.9783 151.744 43.8669L150.055 42.189C149.822 41.957 149.445 41.957 149.212 42.1883L149.066 42.333C148.805 42.5927 148.502 42.4978 148.415 42.4618C148.329 42.4268 148.046 42.2819 148.046 41.9142V41.7109C148.046 41.3833 147.779 41.1177 147.449 41.1177H145.061C144.73 41.1177 144.463 41.3833 144.463 41.7109V41.9142C144.463 42.2819 144.181 42.4268 144.095 42.4622C144.008 42.4978 143.706 42.5941 143.443 42.333L143.298 42.189C143.065 41.9576 142.688 41.9576 142.454 42.1894L140.766 43.8673C140.653 43.979 140.591 44.1295 140.591 44.2874C140.591 44.4451 140.653 44.5959 140.766 44.7073L140.911 44.8509C141.172 45.1106 141.076 45.4113 141.04 45.4968C141.004 45.5822 140.858 45.8626 140.488 45.8626H140.283C139.953 45.8626 139.686 46.1285 139.686 46.4558V48.8284C139.686 49.1557 139.953 49.4214 140.283 49.4214H140.488C140.858 49.4214 141.004 49.702 141.04 49.788C141.076 49.8741 141.173 50.1742 140.911 50.4334L140.766 50.5774C140.654 50.689 140.591 50.8396 140.591 50.9975C140.591 51.1545 140.653 51.3059 140.766 51.4173L142.454 53.0953C142.688 53.3273 143.065 53.3273 143.298 53.0959L143.444 52.9513C143.706 52.6913 144.008 52.7875 144.095 52.8225C144.181 52.8574 144.463 53.0021 144.463 53.3698V53.5734C144.463 53.9007 144.73 54.1666 145.061 54.1666H147.449C147.779 54.1666 148.046 53.9007 148.046 53.5734V53.3698C148.046 53.0021 148.329 52.8574 148.415 52.8218C148.501 52.7862 148.803 52.6902 149.066 52.9513L149.212 53.0953C149.445 53.3266 149.822 53.3266 150.055 53.0946L151.744 51.4167C151.856 51.3052 151.919 51.1545 151.919 50.9968C151.919 50.8391 151.856 50.6884 151.744 50.5769L151.599 50.4334C151.337 50.1736 151.434 49.8728 151.469 49.7874C151.506 49.702 151.651 49.4214 152.022 49.4214H152.227C152.557 49.4214 152.824 49.1557 152.824 48.8284V46.4558C152.824 46.1285 152.557 45.8626 152.227 45.8626ZM151.629 48.276C151.064 48.397 150.597 48.7798 150.366 49.3336C150.135 49.8877 150.193 50.4848 150.507 50.9684L149.604 51.8652C149.117 51.5537 148.516 51.4955 147.957 51.7258C147.4 51.9554 147.015 52.418 146.893 52.9802H145.616C145.494 52.4184 145.109 51.9554 144.552 51.7258C143.994 51.4962 143.392 51.5537 142.905 51.8652L142.002 50.9684C142.316 50.4855 142.374 49.8877 142.143 49.3336C141.912 48.7798 141.445 48.397 140.88 48.276V47.0075C141.445 46.8863 141.912 46.5038 142.143 45.9499C142.374 45.3958 142.316 44.7987 142.002 44.3152L142.905 43.4184C143.391 43.7298 143.993 43.7874 144.552 43.5578C145.11 43.3282 145.494 42.8656 145.616 42.3034H146.893C147.015 42.8651 147.4 43.3282 147.957 43.5578C148.515 43.7878 149.118 43.7305 149.604 43.4184L150.507 44.3152C150.193 44.7981 150.135 45.3958 150.366 45.9499C150.597 46.5038 151.064 46.8863 151.629 47.0075V48.276Z" fill="#2C3A55"/>
<path d="M151.469 45.4962L151.377 45.5347L151.377 45.5353L151.469 45.4962ZM151.598 44.8509L151.669 44.9219L151.669 44.9218L151.598 44.8509ZM151.744 44.7066L151.673 44.6357L151.744 44.7066ZM151.744 43.8669L151.673 43.9378L151.674 43.9379L151.744 43.8669ZM150.055 42.189L150.126 42.118L150.126 42.118L150.055 42.189ZM149.212 42.1883L149.141 42.1173L149.141 42.1173L149.212 42.1883ZM149.066 42.333L148.995 42.262L148.995 42.2621L149.066 42.333ZM148.415 42.4618L148.453 42.3694L148.453 42.3691L148.415 42.4618ZM144.095 42.4622L144.133 42.5548L144.133 42.5547L144.095 42.4622ZM143.443 42.333L143.514 42.262L143.514 42.262L143.443 42.333ZM143.298 42.189L143.369 42.118L143.369 42.1179L143.298 42.189ZM142.454 42.1894L142.384 42.1184L142.384 42.1185L142.454 42.1894ZM140.766 43.8673L140.836 43.9383L140.836 43.9383L140.766 43.8673ZM140.766 44.7073L140.837 44.6363L140.836 44.6361L140.766 44.7073ZM140.911 44.8509L140.84 44.9218L140.911 44.8509ZM141.04 45.4968L141.132 45.5362L141.133 45.5349L141.04 45.4968ZM141.04 49.788L141.133 49.7496L141.132 49.749L141.04 49.788ZM140.911 50.4334L140.841 50.3623L140.841 50.3624L140.911 50.4334ZM140.766 50.5774L140.696 50.5064L140.696 50.5065L140.766 50.5774ZM140.766 51.4173L140.836 51.3464L140.836 51.3463L140.766 51.4173ZM142.454 53.0953L142.384 53.1662L142.384 53.1662L142.454 53.0953ZM143.298 53.0959L143.369 53.1669L143.369 53.1669L143.298 53.0959ZM143.444 52.9513L143.514 53.0223L143.515 53.0222L143.444 52.9513ZM144.095 52.8225L144.133 52.7298L144.132 52.7297L144.095 52.8225ZM148.415 52.8218L148.377 52.7294L148.415 52.8218ZM149.066 52.9513L148.996 53.0222L148.996 53.0223L149.066 52.9513ZM149.212 53.0953L149.141 53.1663L149.141 53.1663L149.212 53.0953ZM150.055 53.0946L150.126 53.1656L150.126 53.1656L150.055 53.0946ZM151.744 51.4167L151.674 51.3457L151.673 51.3457L151.744 51.4167ZM151.744 50.5769L151.673 50.6479L151.673 50.6481L151.744 50.5769ZM151.599 50.4334L151.669 50.3624L151.599 50.4334ZM151.469 49.7874L151.377 49.748L151.377 49.7493L151.469 49.7874ZM151.629 48.276L151.65 48.3738L151.729 48.3569V48.276H151.629ZM150.366 49.3336L150.459 49.3721L150.459 49.3721L150.366 49.3336ZM150.507 50.9684L150.577 51.0393L150.635 50.982L150.59 50.9139L150.507 50.9684ZM149.604 51.8652L149.55 51.9494L149.617 51.9926L149.674 51.9362L149.604 51.8652ZM147.957 51.7258L147.995 51.8182L147.995 51.8182L147.957 51.7258ZM146.893 52.9802V53.0802H146.974L146.991 53.0013L146.893 52.9802ZM145.616 52.9802L145.518 53.0013L145.535 53.0802H145.616V52.9802ZM144.552 51.7258L144.514 51.8182L144.552 51.7258ZM142.905 51.8652L142.835 51.9362L142.892 51.9927L142.959 51.9494L142.905 51.8652ZM142.002 50.9684L141.919 50.9138L141.874 50.982L141.932 51.0393L142.002 50.9684ZM142.143 49.3336L142.235 49.2952L142.235 49.2951L142.143 49.3336ZM140.88 48.276H140.78V48.3569L140.859 48.3738L140.88 48.276ZM140.88 47.0075L140.859 46.9098L140.78 46.9267V47.0075H140.88ZM142.143 45.9499L142.05 45.9115L142.05 45.9115L142.143 45.9499ZM142.002 44.3152L141.932 44.2443L141.874 44.3015L141.919 44.3697L142.002 44.3152ZM142.905 43.4184L142.959 43.3342L142.892 43.2909L142.835 43.3474L142.905 43.4184ZM144.552 43.5578L144.59 43.6503L144.59 43.6503L144.552 43.5578ZM145.616 42.3034V42.2034H145.535L145.518 42.2822L145.616 42.3034ZM146.893 42.3034L146.991 42.2822L146.974 42.2034H146.893V42.3034ZM147.957 43.5578L147.995 43.4654L147.995 43.4654L147.957 43.5578ZM149.604 43.4184L149.674 43.3474L149.617 43.2908L149.55 43.3342L149.604 43.4184ZM150.507 44.3152L150.59 44.3697L150.635 44.3016L150.577 44.2443L150.507 44.3152ZM150.366 45.9499L150.459 45.9115L150.459 45.9114L150.366 45.9499ZM151.629 47.0075H151.729V46.9267L151.65 46.9098L151.629 47.0075ZM152.227 45.7626H152.022V45.9626H152.227V45.7626ZM152.022 45.7626C151.714 45.7626 151.594 45.533 151.561 45.4571L151.377 45.5353C151.418 45.6314 151.589 45.9626 152.022 45.9626V45.7626ZM151.562 45.4577C151.53 45.3822 151.452 45.1362 151.669 44.9219L151.528 44.7798C151.221 45.0838 151.337 45.4381 151.377 45.5347L151.562 45.4577ZM151.669 44.9218L151.814 44.7776L151.673 44.6357L151.528 44.7799L151.669 44.9218ZM151.814 44.7776C151.945 44.6475 152.019 44.4713 152.019 44.2868H151.819C151.819 44.4176 151.767 44.5429 151.673 44.6357L151.814 44.7776ZM152.019 44.2868C152.019 44.1029 151.946 43.9262 151.814 43.7959L151.674 43.9379C151.767 44.0305 151.819 44.1561 151.819 44.2868H152.019ZM151.814 43.796L150.126 42.118L149.985 42.2599L151.673 43.9378L151.814 43.796ZM150.126 42.118C149.853 41.8473 149.413 41.8473 149.141 42.1173L149.282 42.2593C149.476 42.0667 149.79 42.0666 149.985 42.2599L150.126 42.118ZM149.141 42.1173L148.995 42.262L149.136 42.404L149.282 42.2593L149.141 42.1173ZM148.995 42.2621C148.779 42.4776 148.529 42.4009 148.453 42.3694L148.377 42.5542C148.475 42.5947 148.831 42.7079 149.136 42.4038L148.995 42.2621ZM148.453 42.3691C148.377 42.3385 148.146 42.2184 148.146 41.9142H147.946C147.946 42.3454 148.281 42.5151 148.377 42.5544L148.453 42.3691ZM148.146 41.9142V41.7109H147.946V41.9142H148.146ZM148.146 41.7109C148.146 41.3275 147.834 41.0177 147.449 41.0177V41.2177C147.725 41.2177 147.946 41.4391 147.946 41.7109H148.146ZM147.449 41.0177H145.061V41.2177H147.449V41.0177ZM145.061 41.0177C144.676 41.0177 144.363 41.3275 144.363 41.7109H144.563C144.563 41.4391 144.785 41.2177 145.061 41.2177V41.0177ZM144.363 41.7109V41.9142H144.563V41.7109H144.363ZM144.363 41.9142C144.363 42.2184 144.132 42.3385 144.057 42.3697L144.133 42.5547C144.229 42.5151 144.563 42.3454 144.563 41.9142H144.363ZM144.057 42.3697C143.98 42.401 143.732 42.4788 143.514 42.262L143.373 42.4039C143.68 42.7093 144.035 42.5946 144.133 42.5548L144.057 42.3697ZM143.514 42.262L143.369 42.118L143.228 42.26L143.373 42.404L143.514 42.262ZM143.369 42.1179C143.096 41.8479 142.657 41.848 142.384 42.1184L142.525 42.2604C142.719 42.0673 143.033 42.0673 143.228 42.26L143.369 42.1179ZM142.384 42.1185L140.695 43.7964L140.836 43.9383L142.525 42.2603L142.384 42.1185ZM140.695 43.7964C140.564 43.9268 140.491 44.1029 140.491 44.2874H140.691C140.691 44.1561 140.743 44.0312 140.836 43.9383L140.695 43.7964ZM140.491 44.2874C140.491 44.4717 140.564 44.6481 140.696 44.7784L140.836 44.6361C140.743 44.5436 140.691 44.4185 140.691 44.2874H140.491ZM140.696 44.7782L140.84 44.9218L140.981 44.7799L140.837 44.6363L140.696 44.7782ZM140.84 44.9218C141.057 45.1368 140.979 45.3834 140.948 45.4588L141.133 45.5349C141.172 45.4391 141.288 45.0844 140.981 44.7799L140.84 44.9218ZM140.948 45.4575C140.916 45.533 140.795 45.7626 140.488 45.7626V45.9626C140.921 45.9626 141.092 45.6315 141.132 45.5362L140.948 45.4575ZM140.488 45.7626H140.283V45.9626H140.488V45.7626ZM140.283 45.7626C139.898 45.7626 139.586 46.0727 139.586 46.4558H139.786C139.786 46.1842 140.008 45.9626 140.283 45.9626V45.7626ZM139.586 46.4558V48.8284H139.786V46.4558H139.586ZM139.586 48.8284C139.586 49.2115 139.898 49.5214 140.283 49.5214V49.3214C140.007 49.3214 139.786 49.0999 139.786 48.8284H139.586ZM140.283 49.5214H140.488V49.3214H140.283V49.5214ZM140.488 49.5214C140.795 49.5214 140.916 49.7512 140.948 49.8271L141.132 49.749C141.092 49.6528 140.921 49.3214 140.488 49.3214V49.5214ZM140.948 49.8265C140.98 49.902 141.057 50.148 140.841 50.3623L140.982 50.5044C141.289 50.2005 141.173 49.8461 141.133 49.7496L140.948 49.8265ZM140.841 50.3624L140.696 50.5064L140.837 50.6484L140.982 50.5044L140.841 50.3624ZM140.696 50.5065C140.565 50.6367 140.491 50.8126 140.491 50.9975H140.691C140.691 50.8665 140.743 50.7414 140.837 50.6483L140.696 50.5065ZM140.491 50.9975C140.491 51.1811 140.564 51.3581 140.695 51.4883L140.836 51.3463C140.743 51.2537 140.691 51.128 140.691 50.9975H140.491ZM140.695 51.4883L142.384 53.1662L142.525 53.0243L140.836 51.3464L140.695 51.4883ZM142.384 53.1662C142.656 53.4369 143.096 53.4369 143.369 53.1669L143.228 53.0249C143.033 53.2176 142.72 53.2176 142.525 53.0243L142.384 53.1662ZM143.369 53.1669L143.514 53.0223L143.374 52.8803L143.228 53.0249L143.369 53.1669ZM143.515 53.0222C143.731 52.8066 143.98 52.8841 144.057 52.9152L144.132 52.7297C144.036 52.6908 143.68 52.5759 143.374 52.8803L143.515 53.0222ZM144.057 52.9151C144.132 52.9457 144.363 53.0656 144.363 53.3698H144.563C144.563 52.9385 144.229 52.7691 144.133 52.7298L144.057 52.9151ZM144.363 53.3698V53.5734H144.563V53.3698H144.363ZM144.363 53.5734C144.363 53.9565 144.676 54.2666 145.061 54.2666V54.0666C144.785 54.0666 144.563 53.8449 144.563 53.5734H144.363ZM145.061 54.2666H147.449V54.0666H145.061V54.2666ZM147.449 54.2666C147.834 54.2666 148.146 53.9565 148.146 53.5734H147.946C147.946 53.8449 147.725 54.0666 147.449 54.0666V54.2666ZM148.146 53.5734V53.3698H147.946V53.5734H148.146ZM148.146 53.3698C148.146 53.0657 148.377 52.9457 148.453 52.9142L148.377 52.7294C148.281 52.7692 147.946 52.9385 147.946 53.3698H148.146ZM148.453 52.9142C148.528 52.8831 148.777 52.8053 148.996 53.0222L149.137 52.8803C148.829 52.575 148.473 52.6893 148.377 52.7294L148.453 52.9142ZM148.996 53.0223L149.141 53.1663L149.282 53.0243L149.137 52.8803L148.996 53.0223ZM149.141 53.1663C149.413 53.4363 149.853 53.4363 150.126 53.1656L149.985 53.0237C149.79 53.217 149.476 53.2169 149.282 53.0243L149.141 53.1663ZM150.126 53.1656L151.814 51.4876L151.673 51.3457L149.985 53.0237L150.126 53.1656ZM151.814 51.4877C151.946 51.3574 152.019 51.1811 152.019 50.9968H151.819C151.819 51.1279 151.767 51.2531 151.674 51.3457L151.814 51.4877ZM152.019 50.9968C152.019 50.8125 151.946 50.6361 151.814 50.5058L151.673 50.6481C151.767 50.7407 151.819 50.8657 151.819 50.9968H152.019ZM151.814 50.506L151.669 50.3624L151.528 50.5043L151.673 50.6479L151.814 50.506ZM151.669 50.3624C151.453 50.1474 151.531 49.9006 151.562 49.8255L151.377 49.7493C151.337 49.8449 151.222 50.1998 151.528 50.5043L151.669 50.3624ZM151.561 49.8267C151.594 49.7512 151.714 49.5214 152.022 49.5214V49.3214C151.589 49.3214 151.418 49.6528 151.377 49.7481L151.561 49.8267ZM152.022 49.5214H152.227V49.3214H152.022V49.5214ZM152.227 49.5214C152.611 49.5214 152.924 49.2115 152.924 48.8284H152.724C152.724 49.0999 152.502 49.3214 152.227 49.3214V49.5214ZM152.924 48.8284V46.4558H152.724V48.8284H152.924ZM152.924 46.4558C152.924 46.0727 152.612 45.7626 152.227 45.7626V45.9626C152.502 45.9626 152.724 46.1842 152.724 46.4558H152.924ZM151.608 48.1783C151.011 48.3061 150.517 48.7111 150.274 49.2952L150.459 49.3721C150.677 48.8484 151.117 48.4879 151.65 48.3738L151.608 48.1783ZM150.274 49.2951C150.03 49.8794 150.091 50.5113 150.423 51.0228L150.59 50.9139C150.295 50.4583 150.24 49.8961 150.459 49.3721L150.274 49.2951ZM150.436 50.8974L149.533 51.7943L149.674 51.9362L150.577 51.0393L150.436 50.8974ZM149.658 51.781C149.143 51.4518 148.508 51.3907 147.919 51.6333L147.995 51.8182C148.524 51.6003 149.091 51.6557 149.55 51.9494L149.658 51.781ZM147.919 51.6333C147.332 51.8752 146.924 52.3641 146.795 52.959L146.991 53.0013C147.106 52.4719 147.468 52.0355 147.995 51.8182L147.919 51.6333ZM146.893 52.8802H145.616V53.0802H146.893V52.8802ZM145.714 52.959C145.585 52.3645 145.177 51.8752 144.59 51.6333L144.514 51.8182C145.041 52.0355 145.403 52.4724 145.518 53.0013L145.714 52.959ZM144.59 51.6333C144.003 51.3914 143.366 51.4518 142.851 51.781L142.959 51.9494C143.418 51.6557 143.986 51.601 144.514 51.8182L144.59 51.6333ZM142.976 51.7943L142.073 50.8974L141.932 51.0393L142.835 51.9362L142.976 51.7943ZM142.086 51.0229C142.418 50.512 142.479 49.8794 142.235 49.2952L142.05 49.3721C142.269 49.8961 142.214 50.459 141.919 50.9138L142.086 51.0229ZM142.235 49.2951C141.991 48.7112 141.498 48.3061 140.901 48.1783L140.859 48.3738C141.392 48.4879 141.832 48.8484 142.051 49.3722L142.235 49.2951ZM140.98 48.276V47.0075H140.78V48.276H140.98ZM140.901 47.1053C141.498 46.9772 141.992 46.5725 142.235 45.9884L142.05 45.9115C141.833 46.4352 141.392 46.7954 140.859 46.9098L140.901 47.1053ZM142.235 45.9884C142.479 45.4041 142.418 44.7722 142.086 44.2608L141.919 44.3697C142.214 44.8252 142.269 45.3875 142.05 45.9115L142.235 45.9884ZM142.073 44.3862L142.976 43.4893L142.835 43.3474L141.932 44.2443L142.073 44.3862ZM142.851 43.5026C143.365 43.8319 144.001 43.8921 144.59 43.6503L144.514 43.4653C143.985 43.6827 143.417 43.6278 142.959 43.3342L142.851 43.5026ZM144.59 43.6503C145.177 43.4084 145.585 42.9194 145.714 42.3246L145.518 42.2822C145.403 42.8117 145.042 43.248 144.514 43.4653L144.59 43.6503ZM145.616 42.4034H146.893V42.2034H145.616V42.4034ZM146.795 42.3246C146.924 42.919 147.332 43.4084 147.919 43.6503L147.995 43.4654C147.468 43.248 147.106 42.8112 146.991 42.2822L146.795 42.3246ZM147.919 43.6503C148.507 43.8926 149.144 43.8325 149.658 43.5025L149.55 43.3342C149.092 43.6285 148.523 43.6831 147.995 43.4654L147.919 43.6503ZM149.533 43.4893L150.436 44.3862L150.577 44.2443L149.674 43.3474L149.533 43.4893ZM150.423 44.2607C150.091 44.7716 150.03 45.4042 150.274 45.9884L150.459 45.9114C150.24 45.3875 150.295 44.8246 150.59 44.3697L150.423 44.2607ZM150.274 45.9884C150.518 46.5724 151.011 46.9772 151.608 47.1053L151.65 46.9098C151.117 46.7955 150.677 46.4352 150.459 45.9115L150.274 45.9884ZM151.529 47.0075V48.276H151.729V47.0075H151.529Z" fill="#2C3A55"/>
<path fill-rule="evenodd" clip-rule="evenodd" d="M146.255 44.6763C144.609 44.6763 143.269 46.0067 143.269 47.6418C143.269 49.2772 144.609 50.6076 146.255 50.6076C147.901 50.6076 149.241 49.2772 149.241 47.6418C149.241 46.0067 147.901 44.6763 146.255 44.6763ZM146.255 49.4212C145.267 49.4212 144.463 48.623 144.463 47.6418C144.463 46.6609 145.267 45.8625 146.255 45.8625C147.243 45.8625 148.046 46.6609 148.046 47.6418C148.046 48.623 147.243 49.4212 146.255 49.4212Z" fill="#2C3A55"/>
<path d="M146.255 44.5763C144.554 44.5763 143.169 45.9508 143.169 47.6418H143.369C143.369 46.0625 144.663 44.7763 146.255 44.7763V44.5763ZM143.169 47.6418C143.169 49.3331 144.554 50.7076 146.255 50.7076V50.5076C144.663 50.5076 143.369 49.2213 143.369 47.6418H143.169ZM146.255 50.7076C147.956 50.7076 149.341 49.3331 149.341 47.6418H149.141C149.141 49.2213 147.847 50.5076 146.255 50.5076V50.7076ZM149.341 47.6418C149.341 45.9508 147.956 44.5763 146.255 44.5763V44.7763C147.847 44.7763 149.141 46.0625 149.141 47.6418H149.341ZM146.255 49.3212C145.322 49.3212 144.563 48.5671 144.563 47.6418H144.363C144.363 48.6788 145.212 49.5212 146.255 49.5212V49.3212ZM144.563 47.6418C144.563 46.7168 145.322 45.9625 146.255 45.9625V45.7625C145.212 45.7625 144.363 46.6051 144.363 47.6418H144.563ZM146.255 45.9625C147.188 45.9625 147.946 46.7168 147.946 47.6418H148.146C148.146 46.6051 147.297 45.7625 146.255 45.7625V45.9625ZM147.946 47.6418C147.946 48.5671 147.188 49.3212 146.255 49.3212V49.5212C147.297 49.5212 148.146 48.6788 148.146 47.6418H147.946Z" fill="#2C3A55"/>
<path d="M77.9822 97.494C77.9382 97.802 78.1142 98 78.4002 98H80.3802C80.5782 98 80.7542 97.824 80.7762 97.67L82.0522 89.332C82.0742 89.332 82.1182 89.332 82.1182 89.332L86.0122 97.978C86.0782 98.11 86.1882 98.22 86.3862 98.22H86.7822C86.9802 98.22 87.1122 98.11 87.1562 97.978L91.0062 89.332C91.0062 89.332 91.0502 89.332 91.0722 89.332L92.3702 97.67C92.4142 97.824 92.5902 98 92.7882 98H94.7902C95.0762 98 95.2522 97.802 95.1862 97.494L92.5902 82.71C92.5682 82.534 92.4362 82.38 92.1942 82.38H91.8422C91.6442 82.38 91.5342 82.468 91.4682 82.6L86.6282 92.984C86.6062 92.984 86.6062 92.984 86.5622 92.984L81.7222 82.6C81.6562 82.468 81.5242 82.38 81.3482 82.38H80.9962C80.7542 82.38 80.6222 82.534 80.6002 82.71L77.9822 97.494ZM97.0588 90.322C97.0588 94.722 100.557 98.22 104.957 98.22C109.357 98.22 112.877 94.722 112.877 90.322C112.877 85.922 109.357 82.38 104.957 82.38C100.557 82.38 97.0588 85.922 97.0588 90.322ZM99.9188 90.322C99.9188 87.55 102.185 85.24 104.957 85.24C107.729 85.24 110.017 87.55 110.017 90.322C110.017 93.094 107.729 95.36 104.957 95.36C102.185 95.36 99.9188 93.094 99.9188 90.322ZM117.806 97.582C117.806 97.802 118.004 98 118.224 98H120.27C120.49 98 120.688 97.802 120.688 97.582V85.24H124.054C124.296 85.24 124.472 85.042 124.472 84.822V83.018C124.472 82.798 124.296 82.6 124.054 82.6H114.44C114.198 82.6 114.022 82.798 114.022 83.018V84.822C114.022 85.042 114.198 85.24 114.44 85.24H117.806V97.582ZM131.305 90.322C131.305 94.722 134.847 98.22 139.247 98.22C141.205 98.22 143.097 97.538 144.593 96.086C144.747 95.932 144.791 95.646 144.615 95.492L143.251 94.084C143.119 93.952 142.877 93.93 142.701 94.084C141.777 94.832 140.655 95.338 139.335 95.338C136.519 95.338 134.407 93.006 134.407 90.256C134.407 87.484 136.497 85.13 139.313 85.13C140.545 85.13 141.777 85.614 142.701 86.428C142.877 86.604 143.097 86.604 143.251 86.428L144.593 85.042C144.769 84.866 144.769 84.602 144.571 84.426C143.075 83.084 141.469 82.38 139.247 82.38C134.847 82.38 131.305 85.922 131.305 90.322ZM146.891 97.516C146.891 97.78 147.133 98 147.375 98H149.113C149.509 98 149.641 97.802 149.641 97.516V91.906C149.905 90.872 150.565 90.124 151.753 90.124C152.963 90.124 153.601 90.982 153.601 92.39V97.516C153.601 97.78 153.821 98 154.085 98H155.867C156.109 98 156.351 97.78 156.351 97.516V92.412C156.351 89.86 155.471 87.616 152.237 87.616C151.027 87.616 150.147 88.034 149.641 88.474V83.084C149.641 82.842 149.421 82.6 149.157 82.6H147.375C147.133 82.6 146.891 82.842 146.891 83.084V97.516ZM158.414 92.918C158.414 95.822 160.526 98.242 163.562 98.242C165.212 98.242 166.466 97.604 167.346 96.856C167.588 96.636 167.566 96.394 167.39 96.196L166.532 95.052C166.378 94.832 166.114 94.854 165.872 95.052C165.41 95.426 164.706 95.8 163.694 95.8C162.22 95.8 161.186 94.7 161.164 93.446H167.676C167.896 93.446 168.138 93.248 168.16 92.984C168.182 92.83 168.204 92.478 168.204 92.324C168.204 89.574 166.18 87.616 163.54 87.616C160.526 87.616 158.414 90.058 158.414 92.918ZM161.318 91.642C161.45 90.63 162.242 89.882 163.474 89.882C164.596 89.882 165.388 90.652 165.432 91.642H161.318ZM169.65 92.918C169.65 95.976 172.048 98.242 175.018 98.242C176.822 98.242 178.186 97.45 179.044 96.108C179.22 95.844 179.11 95.602 178.868 95.382L177.878 94.546C177.702 94.392 177.394 94.436 177.24 94.612C176.8 95.118 176.206 95.734 175.084 95.734C173.5 95.734 172.422 94.502 172.422 92.918C172.422 91.356 173.522 90.124 175.106 90.124C176.052 90.124 176.646 90.542 177.13 91.004C177.328 91.202 177.57 91.312 177.79 91.07L178.714 90.058C178.934 89.838 179.044 89.552 178.824 89.332C177.856 88.298 176.624 87.616 175.04 87.616C172.026 87.616 169.65 89.926 169.65 92.918ZM181.095 97.516C181.095 97.78 181.337 98 181.579 98H183.361C183.625 98 183.845 97.78 183.845 97.516V93.226L187.673 97.802C187.739 97.912 187.937 98 188.113 98H190.269C190.687 98 190.841 97.56 190.577 97.274L186.353 92.544L190.379 88.584C190.621 88.298 190.467 87.836 190.049 87.836H187.981C187.695 87.836 187.519 87.99 187.343 88.144L183.845 91.686V83.084C183.845 82.842 183.625 82.6 183.361 82.6H181.579C181.337 82.6 181.095 82.842 181.095 83.084V97.516Z" fill="#1966FF"/>
<path d="M87.4018 111.114C87.4018 113.914 89.6558 116.14 92.4558 116.14C94.4858 116.14 95.9138 115.216 95.9138 115.216C95.9698 115.174 96.0258 115.062 96.0258 114.992V111.786C96.0258 111.646 95.9138 111.52 95.7738 111.52H93.3518C93.1978 111.52 93.0858 111.632 93.0858 111.786V112.304C93.0858 112.444 93.1978 112.556 93.3518 112.556H94.9618V114.516C94.9618 114.516 93.9818 115.104 92.4418 115.104C90.2298 115.104 88.5498 113.214 88.5498 111.058C88.5498 108.888 90.2298 107.04 92.4418 107.04C93.3798 107.04 94.3878 107.502 95.1018 108.132C95.2558 108.272 95.3398 108.286 95.4658 108.146C95.5778 108.02 95.7318 107.88 95.8578 107.754C95.9698 107.642 95.9558 107.474 95.8438 107.362C94.8918 106.55 93.8698 106.06 92.4558 106.06C89.6558 106.06 87.4018 108.314 87.4018 111.114ZM97.6411 112.766C97.6411 114.614 98.8171 116.154 100.777 116.154C101.897 116.154 102.751 115.72 103.143 115.412C103.381 115.23 103.325 115.16 103.199 114.964L103.031 114.726C102.863 114.474 102.765 114.53 102.541 114.684C102.177 114.922 101.645 115.216 100.791 115.216C99.6151 115.216 98.7051 114.082 98.6771 113.004H103.381C103.521 113.004 103.661 112.892 103.675 112.724C103.689 112.612 103.703 112.444 103.703 112.332C103.703 110.638 102.471 109.392 100.777 109.392C98.8171 109.392 97.6411 110.946 97.6411 112.766ZM98.6911 112.178C98.8171 111.17 99.6851 110.33 100.777 110.33C101.883 110.33 102.639 111.226 102.667 112.178H98.6911ZM105.823 110.428V114.362C105.823 115.37 106.075 116.154 107.307 116.154C108.175 116.154 108.847 115.832 109.127 115.636C109.295 115.524 109.323 115.426 109.239 115.216L109.113 114.922C109.043 114.768 108.959 114.642 108.707 114.796C108.441 114.964 108.035 115.216 107.433 115.216C107.069 115.216 106.859 114.964 106.859 114.292V110.428H108.763C108.945 110.428 109.085 110.288 109.085 110.12V109.84C109.085 109.658 108.945 109.532 108.763 109.532H106.859V107.712C106.859 107.544 106.733 107.39 106.565 107.404L106.131 107.432C105.977 107.446 105.823 107.572 105.823 107.74V109.532H104.969C104.773 109.532 104.647 109.658 104.647 109.84V110.12C104.647 110.288 104.773 110.428 104.969 110.428H105.823ZM113.707 115.664C113.665 115.86 113.749 116 113.959 116H114.519C114.631 116 114.757 115.902 114.771 115.804L115.989 108.594C116.003 108.594 116.031 108.594 116.045 108.594L118.649 115.986C118.677 116.07 118.803 116.14 118.887 116.14H119.139C119.223 116.14 119.349 116.07 119.377 115.986L121.953 108.594C121.967 108.594 121.995 108.594 122.009 108.594L123.255 115.804C123.283 115.902 123.395 116 123.507 116H124.067C124.277 116 124.361 115.86 124.319 115.664L122.513 106.256C122.485 106.144 122.373 106.06 122.261 106.06H122.037C121.939 106.06 121.827 106.13 121.799 106.214L119.069 113.928C119.041 113.928 119.027 113.928 118.999 113.928L116.227 106.214C116.199 106.13 116.087 106.06 115.989 106.06H115.765C115.653 106.06 115.541 106.144 115.513 106.256L113.707 115.664ZM125.71 111.114C125.71 113.914 127.936 116.14 130.736 116.14C133.536 116.14 135.776 113.914 135.776 111.114C135.776 108.314 133.536 106.06 130.736 106.06C127.936 106.06 125.71 108.314 125.71 111.114ZM126.69 111.114C126.69 108.888 128.51 107.04 130.736 107.04C132.962 107.04 134.796 108.888 134.796 111.114C134.796 113.34 132.962 115.16 130.736 115.16C128.51 115.16 126.69 113.34 126.69 111.114ZM139.136 115.734C139.136 115.874 139.262 116 139.402 116H139.934C140.074 116 140.2 115.874 140.2 115.734V107.138H142.636C142.79 107.138 142.902 107.012 142.902 106.872V106.466C142.902 106.326 142.79 106.2 142.636 106.2H136.7C136.546 106.2 136.434 106.326 136.434 106.466V106.872C136.434 107.012 136.546 107.138 136.7 107.138H139.136V115.734ZM147.213 114.04C147.213 115.342 148.081 116.154 149.215 116.154C150.209 116.154 150.881 115.664 151.217 115.328L151.343 115.762C151.385 115.902 151.441 116 151.609 116H151.875C152.043 116 152.183 115.86 152.183 115.692V112.108C152.183 110.204 151.833 109.392 150.181 109.392C149.117 109.392 148.277 109.672 147.955 109.812C147.801 109.882 147.703 109.966 147.759 110.162L147.899 110.54C147.955 110.694 148.039 110.778 148.207 110.708C148.501 110.61 149.243 110.33 150.125 110.33C151.049 110.33 151.203 110.918 151.189 112.108C151.189 112.108 150.489 111.898 149.803 111.898C148.137 111.898 147.213 112.808 147.213 114.04ZM148.235 114.04C148.235 113.214 148.907 112.78 149.803 112.78C150.447 112.78 150.965 112.92 151.175 113.032V114.348C150.895 114.768 150.195 115.216 149.397 115.216C148.683 115.216 148.235 114.698 148.235 114.04ZM154.377 115.692C154.377 115.86 154.517 116 154.685 116H155.105C155.259 116 155.413 115.86 155.413 115.692V106.508C155.413 106.354 155.259 106.2 155.105 106.2H154.685C154.517 106.2 154.377 106.354 154.377 106.508V115.692ZM157.264 112.766C157.264 114.614 158.44 116.154 160.4 116.154C161.52 116.154 162.374 115.72 162.766 115.412C163.004 115.23 162.948 115.16 162.822 114.964L162.654 114.726C162.486 114.474 162.388 114.53 162.164 114.684C161.8 114.922 161.268 115.216 160.414 115.216C159.238 115.216 158.328 114.082 158.3 113.004H163.004C163.144 113.004 163.284 112.892 163.298 112.724C163.312 112.612 163.326 112.444 163.326 112.332C163.326 110.638 162.094 109.392 160.4 109.392C158.44 109.392 157.264 110.946 157.264 112.766ZM158.314 112.178C158.44 111.17 159.308 110.33 160.4 110.33C161.506 110.33 162.262 111.226 162.29 112.178H158.314ZM165.026 115.692C165.026 115.86 165.166 116 165.334 116H165.754C165.908 116 166.062 115.86 166.062 115.692V111.212C166.062 111.212 166.566 110.386 167.812 110.386C168.12 110.386 168.358 110.498 168.512 110.568C168.666 110.638 168.82 110.624 168.89 110.414L169.072 109.91C169.226 109.462 168.428 109.392 167.938 109.392C166.594 109.392 165.95 110.218 165.95 110.218L165.838 109.756C165.796 109.602 165.684 109.532 165.558 109.532H165.334C165.166 109.532 165.026 109.686 165.026 109.84V115.692ZM170.846 110.428V114.362C170.846 115.37 171.098 116.154 172.33 116.154C173.198 116.154 173.87 115.832 174.15 115.636C174.318 115.524 174.346 115.426 174.262 115.216L174.136 114.922C174.066 114.768 173.982 114.642 173.73 114.796C173.464 114.964 173.058 115.216 172.456 115.216C172.092 115.216 171.882 114.964 171.882 114.292V110.428H173.786C173.968 110.428 174.108 110.288 174.108 110.12V109.84C174.108 109.658 173.968 109.532 173.786 109.532H171.882V107.712C171.882 107.544 171.756 107.39 171.588 107.404L171.154 107.432C171 107.446 170.846 107.572 170.846 107.74V109.532H169.992C169.796 109.532 169.67 109.658 169.67 109.84V110.12C169.67 110.288 169.796 110.428 169.992 110.428H170.846ZM177.537 116.154C178.853 116.154 179.735 115.328 179.735 114.306C179.735 113.13 178.769 112.71 177.649 112.192C176.865 111.828 176.417 111.618 176.417 111.044C176.417 110.736 176.655 110.33 177.369 110.33C177.971 110.33 178.419 110.54 178.699 110.708C178.839 110.792 179.049 110.778 179.147 110.596L179.287 110.33C179.385 110.148 179.357 110.008 179.217 109.896C178.909 109.672 178.209 109.392 177.369 109.392C175.871 109.392 175.367 110.414 175.367 111.086C175.367 112.192 176.347 112.654 177.201 113.074C178.139 113.536 178.643 113.788 178.643 114.404C178.643 114.908 178.195 115.216 177.537 115.216C176.711 115.216 176.151 114.81 175.927 114.642C175.745 114.516 175.633 114.572 175.549 114.726L175.353 115.09C175.297 115.202 175.325 115.3 175.395 115.37C175.731 115.678 176.459 116.154 177.537 116.154Z" fill="#9B9B9B"/>
</svg>
