<svg width="267" height="155" viewBox="0 0 267 155" fill="none" xmlns="http://www.w3.org/2000/svg">
<rect width="267" height="155" rx="10" fill="white"/>
<path fill-rule="evenodd" clip-rule="evenodd" d="M147.966 42.9751L147.967 43.0008C148.04 46.8695 148.131 51.6842 146.52 56.0592C145.637 58.4585 144.301 60.5441 142.548 62.2585C140.553 64.2102 137.94 65.7606 134.783 66.8668C134.679 66.9029 134.572 66.9323 134.463 66.9542C134.31 66.9849 134.155 67.0002 134 67.0002C133.846 67.0002 133.691 66.9849 133.538 66.9542C133.429 66.9323 133.322 66.9032 133.219 66.8673C130.058 65.7631 127.442 64.2135 125.445 62.2616C123.692 60.5476 122.356 58.4625 121.473 56.0638C119.868 51.7018 119.959 46.8961 120.033 43.0347L120.034 42.9751C120.049 42.6565 120.058 42.3218 120.064 41.9519C120.091 40.1357 121.532 38.6335 123.345 38.5323C127.126 38.3207 130.05 37.0859 132.549 34.6462L132.57 34.6259C133.386 33.8773 134.615 33.8773 135.43 34.6259L135.451 34.6462C137.95 37.0859 140.875 38.3207 144.655 38.532C146.468 38.6335 147.91 40.1357 147.937 41.9517C147.942 42.3241 147.952 42.6588 147.966 42.9751ZM134.146 65.0425C139.562 63.1453 143.017 59.988 144.71 55.3906C146.194 51.3613 146.112 46.9463 146.038 43.05C146.023 42.7178 146.013 42.3675 146.007 41.9806C145.996 41.174 145.354 40.5068 144.548 40.4618C142.408 40.3422 140.529 39.9281 138.802 39.1959C137.078 38.4647 135.546 37.4339 134.12 36.0448C134.047 35.9833 133.953 35.9835 133.881 36.0448C132.455 37.4339 130.923 38.4647 129.199 39.1959C127.472 39.9281 125.592 40.3422 123.453 40.4618C122.646 40.5068 122.005 41.174 121.993 41.9803C121.988 42.3653 121.978 42.7156 121.962 43.05L121.962 43.0716C121.888 46.9634 121.804 51.3749 123.283 55.3956C124.975 59.9933 128.433 63.1488 133.854 65.0425C133.874 65.049 133.894 65.0545 133.915 65.0588C133.972 65.0701 134.029 65.0701 134.085 65.0591C134.106 65.0548 134.127 65.049 134.146 65.0425Z" fill="#2C3A55"/>
<path fill-rule="evenodd" clip-rule="evenodd" d="M125.805 50.5327C125.805 46.007 129.481 42.3247 134 42.3247C138.518 42.3247 142.194 46.007 142.194 50.5327C142.194 55.0588 138.518 58.741 134 58.741C129.481 58.741 125.805 55.0588 125.805 50.5327ZM127.735 50.5327C127.735 53.9931 130.545 56.8082 134 56.8082C137.454 56.8082 140.264 53.9931 140.264 50.5327C140.264 47.0724 137.454 44.2573 134 44.2573C130.545 44.2573 127.735 47.0724 127.735 50.5327Z" fill="#2C3A55"/>
<path d="M136.355 47.9844L132.549 51.7968L131.516 50.7621C131.139 50.3846 130.528 50.3846 130.151 50.7621C129.775 51.1395 129.775 51.7514 130.151 52.1285L131.867 53.8468C132.055 54.0355 132.302 54.1297 132.549 54.1297C132.796 54.1297 133.042 54.0355 133.231 53.8468L137.719 49.3509C138.096 48.9735 138.096 48.3616 137.719 47.9844C137.342 47.6068 136.732 47.6068 136.355 47.9844Z" fill="#2C3A55"/>
<path d="M119.159 97.978C119.225 98.11 119.335 98.22 119.533 98.22H119.753C119.951 98.22 120.061 98.11 120.127 97.978L126.947 83.172C127.079 82.886 126.903 82.6 126.573 82.6H124.329C124.131 82.6 123.999 82.732 123.955 82.842L119.709 92.302H119.599L115.353 82.842C115.309 82.732 115.177 82.6 114.979 82.6H112.735C112.405 82.6 112.229 82.886 112.361 83.172L119.159 97.978ZM128.84 97.582C128.84 97.802 129.016 98 129.258 98H131.282C131.502 98 131.7 97.802 131.7 97.582V92.412H134.45C137.134 92.412 139.356 90.19 139.356 87.462C139.356 84.8 137.134 82.6 134.428 82.6H129.258C129.016 82.6 128.84 82.798 128.84 83.018V97.582ZM131.7 89.728V85.306H134.34C135.572 85.306 136.518 86.23 136.518 87.44C136.518 88.738 135.572 89.728 134.34 89.728H131.7ZM141.795 97.582C141.795 97.802 141.993 98 142.213 98H144.215C144.457 98 144.633 97.802 144.633 97.582V88.122H144.677L153.697 98.066C153.807 98.176 153.917 98.22 154.071 98.22H154.379C154.599 98.22 154.797 98.044 154.797 97.824V83.018C154.797 82.798 154.599 82.6 154.379 82.6H152.355C152.113 82.6 151.937 82.798 151.937 83.018V92.104H151.893L142.917 82.534C142.807 82.424 142.697 82.38 142.543 82.38H142.213C141.993 82.38 141.795 82.556 141.795 82.776V97.582Z" fill="#1966FF"/>
<path d="M84.1155 115.944C84.1435 116.056 84.2555 116.14 84.3675 116.14H84.5915C84.6895 116.14 84.7875 116.07 84.8295 115.986L87.2095 108.412H87.2795L89.7015 115.986C89.7435 116.07 89.8415 116.14 89.9395 116.14H90.1635C90.2755 116.14 90.3875 116.056 90.4155 115.944L93.0615 106.536C93.1175 106.34 93.0055 106.2 92.8095 106.2H92.2215C92.1095 106.2 91.9975 106.298 91.9695 106.396L90.0655 113.648H90.0095L87.6295 106.214C87.6015 106.13 87.5035 106.06 87.3915 106.06H87.1395C87.0135 106.06 86.9295 106.13 86.9015 106.214L84.5635 113.648H84.5075L82.5615 106.396C82.5335 106.298 82.4215 106.2 82.3095 106.2H81.7215C81.5255 106.2 81.4135 106.34 81.4695 106.536L84.1155 115.944ZM93.6714 112.766C93.6714 114.614 94.8474 116.154 96.8074 116.154C97.9274 116.154 98.7814 115.72 99.1734 115.412C99.4114 115.23 99.3554 115.16 99.2294 114.964L99.0614 114.726C98.8934 114.474 98.7954 114.53 98.5714 114.684C98.2074 114.922 97.6754 115.216 96.8214 115.216C95.6454 115.216 94.7354 114.082 94.7074 113.004H99.4114C99.5514 113.004 99.6914 112.892 99.7054 112.724C99.7194 112.612 99.7334 112.444 99.7334 112.332C99.7334 110.638 98.5014 109.392 96.8074 109.392C94.8474 109.392 93.6714 110.946 93.6714 112.766ZM94.7214 112.178C94.8474 111.17 95.7154 110.33 96.8074 110.33C97.9134 110.33 98.6694 111.226 98.6974 112.178H94.7214ZM101.069 111.114C101.069 113.914 103.323 116.14 106.123 116.14C107.369 116.14 108.531 115.622 109.455 114.782C109.553 114.684 109.581 114.488 109.469 114.404L109.147 114.082C109.035 113.97 108.923 113.956 108.783 114.068C108.041 114.698 107.327 115.118 106.109 115.118C103.897 115.118 102.203 113.256 102.203 111.1C102.203 108.93 103.897 107.068 106.109 107.068C107.131 107.068 108.055 107.488 108.783 108.118C108.923 108.258 109.035 108.272 109.147 108.132L109.525 107.754C109.637 107.642 109.623 107.474 109.511 107.362C108.559 106.55 107.537 106.06 106.123 106.06C103.323 106.06 101.069 108.314 101.069 111.114ZM110.802 112.752C110.802 114.6 112.258 116.154 114.05 116.154C115.842 116.154 117.298 114.6 117.298 112.752C117.298 110.932 115.842 109.392 114.05 109.392C112.258 109.392 110.802 110.932 110.802 112.752ZM111.824 112.752C111.824 111.436 112.776 110.33 114.05 110.33C115.324 110.33 116.262 111.436 116.262 112.752C116.262 114.096 115.324 115.216 114.05 115.216C112.776 115.216 111.824 114.096 111.824 112.752ZM119.056 115.692C119.056 115.86 119.196 116 119.364 116H119.784C119.938 116 120.092 115.86 120.092 115.692V111.226C120.092 111.226 120.68 110.33 121.828 110.33C122.878 110.33 123.284 111.044 123.284 112.276V115.692C123.284 115.86 123.438 116 123.592 116H124.012C124.18 116 124.32 115.86 124.32 115.692V112.276C124.32 111.94 124.292 111.492 124.236 111.212C124.474 111.016 125.062 110.33 126.112 110.33C127.092 110.33 127.484 111.072 127.484 112.276V115.692C127.484 115.86 127.624 116 127.792 116H128.212C128.38 116 128.52 115.86 128.52 115.692V112.276C128.52 110.61 128.072 109.392 126.196 109.392C124.894 109.392 123.97 110.358 123.886 110.414C123.466 109.742 122.948 109.392 121.982 109.392C120.652 109.392 119.98 110.218 119.98 110.218L119.84 109.728C119.812 109.588 119.728 109.532 119.588 109.532H119.364C119.196 109.532 119.056 109.686 119.056 109.84V115.692ZM131.658 115.622C131.658 115.622 132.372 116.154 133.45 116.154C135.228 116.154 136.502 114.656 136.502 112.766C136.502 110.918 135.256 109.392 133.492 109.392C132.33 109.392 131.546 110.05 131.546 110.05L131.448 109.742C131.378 109.574 131.336 109.532 131.182 109.532H130.944C130.776 109.532 130.636 109.686 130.636 109.84V119.024C130.636 119.192 130.776 119.332 130.944 119.332H131.35C131.504 119.332 131.658 119.192 131.658 119.024V115.622ZM131.658 114.656V111.114C131.658 111.114 132.33 110.33 133.366 110.33C134.668 110.33 135.452 111.492 135.452 112.752C135.452 114.166 134.542 115.216 133.296 115.216C132.4 115.216 131.658 114.656 131.658 114.656ZM137.775 114.04C137.775 115.342 138.643 116.154 139.777 116.154C140.771 116.154 141.443 115.664 141.779 115.328L141.905 115.762C141.947 115.902 142.003 116 142.171 116H142.437C142.605 116 142.745 115.86 142.745 115.692V112.108C142.745 110.204 142.395 109.392 140.743 109.392C139.679 109.392 138.839 109.672 138.517 109.812C138.363 109.882 138.265 109.966 138.321 110.162L138.461 110.54C138.517 110.694 138.601 110.778 138.769 110.708C139.063 110.61 139.805 110.33 140.687 110.33C141.611 110.33 141.765 110.918 141.751 112.108C141.751 112.108 141.051 111.898 140.365 111.898C138.699 111.898 137.775 112.808 137.775 114.04ZM138.797 114.04C138.797 113.214 139.469 112.78 140.365 112.78C141.009 112.78 141.527 112.92 141.737 113.032V114.348C141.457 114.768 140.757 115.216 139.959 115.216C139.245 115.216 138.797 114.698 138.797 114.04ZM144.868 115.692C144.868 115.86 145.008 116 145.176 116H145.596C145.75 116 145.904 115.86 145.904 115.692V111.212C145.904 111.212 146.408 110.386 147.654 110.386C147.962 110.386 148.2 110.498 148.354 110.568C148.508 110.638 148.662 110.624 148.732 110.414L148.914 109.91C149.068 109.462 148.27 109.392 147.78 109.392C146.436 109.392 145.792 110.218 145.792 110.218L145.68 109.756C145.638 109.602 145.526 109.532 145.4 109.532H145.176C145.008 109.532 144.868 109.686 144.868 109.84V115.692ZM149.658 112.766C149.658 114.614 150.834 116.154 152.794 116.154C153.914 116.154 154.768 115.72 155.16 115.412C155.398 115.23 155.342 115.16 155.216 114.964L155.048 114.726C154.88 114.474 154.782 114.53 154.558 114.684C154.194 114.922 153.662 115.216 152.808 115.216C151.632 115.216 150.722 114.082 150.694 113.004H155.398C155.538 113.004 155.678 112.892 155.692 112.724C155.706 112.612 155.72 112.444 155.72 112.332C155.72 110.638 154.488 109.392 152.794 109.392C150.834 109.392 149.658 110.946 149.658 112.766ZM150.708 112.178C150.834 111.17 151.702 110.33 152.794 110.33C153.9 110.33 154.656 111.226 154.684 112.178H150.708ZM164.016 115.986C164.058 116.07 164.156 116.14 164.254 116.14H164.394C164.506 116.14 164.59 116.07 164.632 115.986L168.888 106.564C168.972 106.382 168.86 106.2 168.65 106.2H168.09C167.978 106.2 167.88 106.284 167.852 106.354L164.366 114.194H164.31L160.824 106.354C160.796 106.284 160.712 106.2 160.586 106.2H160.026C159.816 106.2 159.704 106.382 159.788 106.564L164.016 115.986ZM170.318 115.734C170.318 115.874 170.43 116 170.584 116H171.116C171.256 116 171.382 115.874 171.382 115.734V112.444H173.692C175.4 112.444 176.814 111.03 176.814 109.294C176.814 107.6 175.4 106.2 173.678 106.2H170.584C170.43 106.2 170.318 106.326 170.318 106.466V115.734ZM171.382 111.408V107.264H173.608C174.756 107.264 175.736 108.02 175.736 109.266C175.736 110.554 174.756 111.408 173.608 111.408H171.382ZM178.616 115.734C178.616 115.874 178.742 116 178.882 116H179.372C179.526 116 179.638 115.874 179.638 115.734V108.118H179.652L185.994 116.028C186.05 116.112 186.12 116.14 186.218 116.14H186.33C186.47 116.14 186.596 116.028 186.596 115.888V106.466C186.596 106.326 186.47 106.2 186.33 106.2H185.84C185.686 106.2 185.574 106.326 185.574 106.466V113.928C185.56 113.928 185.56 113.928 185.546 113.928L179.316 106.172C179.26 106.088 179.19 106.06 179.092 106.06H178.882C178.742 106.06 178.616 106.172 178.616 106.312V115.734Z" fill="#9B9B9B"/>
</svg>
