<svg width="69" height="85" viewBox="0 0 69 85" fill="none" xmlns="http://www.w3.org/2000/svg">
<path d="M52.9244 42.8401C55.2415 37.3611 56.4 32.8288 56.4 29.2432C56.4 14.1972 44.2221 2 29.2 2C14.1779 2 2 14.1972 2 29.2432C2 39.2739 11.0667 56.7133 29.2 81.5615C32.323 76.9228 34.5761 73.554 35.9592 71.4552" stroke="white" stroke-width="3.40541" stroke-linecap="round" stroke-linejoin="round"/>
<path fill-rule="evenodd" clip-rule="evenodd" d="M29.1995 40.5945C35.4588 40.5945 40.5329 35.5124 40.5329 29.2432C40.5329 22.974 35.4588 17.8918 29.1995 17.8918C22.9403 17.8918 17.8662 22.974 17.8662 29.2432C17.8662 35.5124 22.9403 40.5945 29.1995 40.5945Z" stroke="white" stroke-width="3.40541" stroke-linecap="round" stroke-linejoin="round"/>
<path fill-rule="evenodd" clip-rule="evenodd" d="M50.2538 84.6577L37.8587 75.8202C35.2816 73.9855 33.7457 71.0188 33.7334 67.852V49.0487C33.7325 48.4159 34.1064 47.8429 34.6854 47.5898L50.5521 40.7245C50.9531 40.5513 51.4077 40.5513 51.8087 40.7245L67.6754 47.5898C68.2544 47.8429 68.6283 48.4159 68.6274 49.0487V67.852C68.6124 71.0212 67.0715 73.9884 64.4893 75.8202L52.0943 84.6577C51.5435 85.0505 50.8046 85.0505 50.2538 84.6577ZM51.174 43.9156L36.894 50.0928V67.852C36.9079 69.9938 37.9532 71.9971 39.7009 73.2314L51.174 81.4125L62.6472 73.2409C64.397 72.0042 65.4425 69.9969 65.454 67.852V50.0928L51.174 43.9156Z" fill="white"/>
<path d="M49.8409 64.0686C49.6635 63.9552 49.4151 63.9854 49.282 64.1367C48.6166 64.8881 47.6023 65.3192 46.4993 65.3192H45.3992C45.1774 65.3192 45 65.4705 45 65.6596C45 65.8487 45.1774 66 45.3992 66H46.5022C47.1854 66 47.8389 65.8664 48.4422 65.6041C49.0188 65.3545 49.5304 64.9889 49.9208 64.5452C50.0509 64.3964 50.0183 64.1821 49.8409 64.0686Z" fill="white" stroke="white" stroke-width="1.63459"/>
<path d="M51.1512 58.5671C51.2236 58.6155 51.3076 58.6384 51.3915 58.6384C51.5073 58.6384 51.6231 58.5926 51.7013 58.506C52.3526 57.7675 53.334 57.3447 54.3936 57.3447H56.6661L55.4531 58.4117C55.2997 58.5467 55.2997 58.7632 55.4531 58.8981C55.5284 58.9643 55.6297 59 55.7282 59C55.8266 59 55.9279 58.9669 56.0032 58.8981L57.8849 57.2429C58.0384 57.1079 58.0384 56.8915 57.8849 56.7565L56.0032 55.1012C55.8498 54.9663 55.6037 54.9663 55.4503 55.1012C55.2968 55.2362 55.2968 55.4527 55.4503 55.5876L56.6632 56.6546H54.3907C53.088 56.6546 51.8808 57.1741 51.0789 58.0832C50.9515 58.236 50.9804 58.4499 51.1512 58.5671Z" fill="white" stroke="white" stroke-width="1.63459"/>
<path d="M55.9547 63.8588C55.7973 63.7153 55.5449 63.7153 55.3875 63.8588C55.2301 64.0022 55.2301 64.2323 55.3875 64.3757L56.6318 65.5098H54.3007C52.3734 65.5098 50.8055 64.0807 50.8055 62.3241V60.9166C50.8055 58.7566 48.8782 57 46.5085 57H45.4009C45.1782 57 45 57.1624 45 57.3654C45 57.5684 45.1782 57.7308 45.4009 57.7308H46.5085C48.4358 57.7308 50.0037 59.1599 50.0037 60.9166V62.3241C50.0037 64.484 51.931 66.2406 54.3007 66.2406H56.6318L55.3875 67.3748C55.2301 67.5182 55.2301 67.7483 55.3875 67.8917C55.4647 67.9621 55.5687 68 55.6696 68C55.7706 68 55.8745 67.9648 55.9517 67.8917L57.882 66.1324C58.0393 65.9889 58.0393 65.7589 57.882 65.6154L55.9547 63.8588Z" fill="white" stroke="white" stroke-width="1.63459"/>
</svg>
