<svg width="40" height="40" viewBox="0 0 40 40" fill="none" xmlns="http://www.w3.org/2000/svg">
<path fill-rule="evenodd" clip-rule="evenodd" d="M40 27.0703C40 21.2399 36.0715 16.1459 30.5316 14.6109C30.1834 6.49536 23.4732 0 15.2734 0C6.8515 0 0 6.8515 0 15.2734C0 18.0182 0.730591 20.6906 2.11792 23.0368L0.0561523 30.4904L7.51007 28.429C9.66675 29.7043 12.0996 30.4227 14.6106 30.531C16.1453 36.0712 21.2396 40 27.0703 40C29.3976 40 31.6608 39.3802 33.6493 38.2025L39.9435 39.9435L38.2025 33.6493C39.3802 31.6608 40 29.3976 40 27.0703ZM7.87994 25.8948L3.41766 27.1292L4.6521 22.6669L4.37073 22.2269C3.04474 20.1523 2.34375 17.7478 2.34375 15.2734C2.34375 8.14392 8.14392 2.34375 15.2734 2.34375C22.403 2.34375 28.2031 8.14392 28.2031 15.2734C28.2031 22.403 22.403 28.2031 15.2734 28.2031C12.7991 28.2031 10.3949 27.5021 8.32001 26.1761L7.87994 25.8948ZM33.2712 35.6662L36.5823 36.5823L35.6662 33.2712L35.954 32.829C37.0676 31.1148 37.6562 29.1232 37.6562 27.0703C37.6562 22.4878 34.6933 18.461 30.4449 17.034C29.6356 24.0515 24.0515 29.6356 17.0343 30.4446C18.461 34.6933 22.4878 37.6562 27.0703 37.6562C29.1232 37.6562 31.1148 37.0676 32.829 35.954L33.2712 35.6662Z" fill="#FFFCFC"/>
<path d="M14.1016 21.1719H16.4453V23.5156H14.1016V21.1719Z" fill="white"/>
<path d="M17.6172 11.7188C17.6172 12.3843 17.3462 12.9987 16.8542 13.4488L14.1016 15.9683V18.8281H16.4453V17.0004L18.4366 15.1779C19.4052 14.2914 19.9609 13.0307 19.9609 11.7188C19.9609 9.13391 17.8583 7.03125 15.2734 7.03125C12.6886 7.03125 10.5859 9.13391 10.5859 11.7188H12.9297C12.9297 10.4263 13.981 9.375 15.2734 9.375C16.5659 9.375 17.6172 10.4263 17.6172 11.7188Z" fill="#FFFCFC"/>
</svg>
