<svg width="22" height="22" viewBox="0 0 22 22" fill="none" xmlns="http://www.w3.org/2000/svg">
<path d="M21.9895 17.3618C22.0361 17.7192 21.9273 18.0299 21.6635 18.294L18.5659 21.3701C18.4262 21.5255 18.2438 21.6577 18.0186 21.7663C17.7935 21.8751 17.5723 21.945 17.355 21.9761C17.3395 21.9761 17.2928 21.9801 17.2151 21.9878C17.1376 21.9956 17.0366 21.9995 16.9124 21.9995C16.6174 21.9995 16.1399 21.949 15.48 21.848C14.8201 21.747 14.0128 21.4983 13.058 21.1022C12.1029 20.706 11.02 20.1117 9.80895 19.3194C8.59792 18.5271 7.30917 17.4395 5.94284 16.0567C4.85598 14.9847 3.95543 13.9592 3.24121 12.9805C2.52699 12.0016 1.9525 11.0966 1.51776 10.2654C1.08298 9.43417 0.756921 8.68064 0.539549 8.00479C0.322176 7.32895 0.174674 6.74632 0.0970411 6.25692C0.0194082 5.76751 -0.0116449 5.38298 0.00388164 5.10332C0.0194082 4.82366 0.0271715 4.66829 0.0271715 4.63722C0.0582247 4.4197 0.128094 4.1983 0.23678 3.97302C0.345466 3.74774 0.477442 3.56518 0.632708 3.42535L3.73026 0.325782C3.94763 0.108269 4.19606 -0.000488281 4.47554 -0.000488281C4.67738 -0.000488281 4.85594 0.0577743 5.0112 0.1743C5.16647 0.290825 5.29844 0.434539 5.40713 0.605443L7.89915 5.33637C8.03889 5.58495 8.0777 5.85685 8.0156 6.15204C7.95349 6.44724 7.82151 6.69583 7.61967 6.8978L6.47846 8.03975C6.44741 8.07083 6.42024 8.12132 6.39695 8.19123C6.37366 8.26115 6.36201 8.31941 6.36201 8.36602C6.42412 8.69229 6.56386 9.06517 6.78123 9.48466C6.96755 9.85755 7.25479 10.312 7.64296 10.848C8.03112 11.384 8.58231 12.0016 9.29654 12.7007C9.99523 13.4155 10.6163 13.9708 11.1597 14.3671C11.703 14.7631 12.1573 15.0546 12.5222 15.241C12.8871 15.4275 13.1666 15.5401 13.3606 15.5788L13.6517 15.6371C13.6827 15.6371 13.7333 15.6254 13.8031 15.6022C13.873 15.5788 13.9234 15.5517 13.9545 15.5206L15.282 14.1689C15.5616 13.9203 15.8875 13.796 16.2602 13.796C16.5242 13.796 16.7337 13.8426 16.889 13.9359H16.9122L21.4072 16.5926C21.7333 16.7948 21.9274 17.051 21.9895 17.3618Z" fill="#1966FF"/>
</svg>
