<svg width="18" height="13" viewBox="0 0 18 13" fill="none" xmlns="http://www.w3.org/2000/svg">
<path fill-rule="evenodd" clip-rule="evenodd" d="M13.8068 5.24649H1.2C0.53726 5.24649 0 5.78375 0 6.44649V6.5535C0 7.21625 0.537258 7.7535 1.2 7.7535H13.8068L10.7304 10.8299C10.2618 11.2986 10.2618 12.0584 10.7304 12.527L10.8061 12.6027C11.2747 13.0713 12.0345 13.0713 12.5031 12.6027L17.17 7.93576C17.2746 7.83114 17.3559 7.71201 17.4138 7.58485C17.7649 7.37547 18 6.99195 18 6.5535V6.44649C18 6.00805 17.7649 5.62452 17.4138 5.41514C17.3559 5.28798 17.2746 5.16885 17.17 5.06423L12.5031 0.397324C12.0345 -0.0713047 11.2747 -0.0713045 10.8061 0.397325L10.7304 0.472995C10.2618 0.941624 10.2618 1.70142 10.7304 2.17005L13.8068 5.24649Z" fill="#2F63FF"/>
</svg>
