<svg width="25" height="19" viewBox="0 0 25 19" fill="none" xmlns="http://www.w3.org/2000/svg">
<path opacity="0.893545" fill-rule="evenodd" clip-rule="evenodd" d="M19.5207 7.37868L1.5 7.37868C0.671574 7.37868 0 8.05025 0 8.87868V9.87868C0 10.7071 0.671574 11.3787 1.5 11.3787L19.3388 11.3787L15.0607 15.6569C14.4749 16.2426 14.4749 17.1924 15.0607 17.7782L15.4187 18.1362C16.0045 18.722 16.9542 18.722 17.54 18.1362L24.2575 11.4187C24.4087 11.2675 24.5209 11.0921 24.594 10.9049C24.8458 10.6366 25 10.2757 25 9.87868V8.87868C25 8.52419 24.877 8.19842 24.6714 7.9417C24.6179 7.65417 24.4799 7.37928 24.2575 7.15685L17.54 0.43934C16.9542 -0.146447 16.0045 -0.146447 15.4187 0.43934L15.0607 0.797359C14.4749 1.38315 14.4749 2.33289 15.0607 2.91868L19.5207 7.37868Z" fill="white"/>
</svg>
