<?xml version="1.0" encoding="utf-8"?>
<!-- Generator: Adobe Illustrator 16.0.0, SVG Export Plug-In . SVG Version: 6.00 Build 0)  -->
<!DOCTYPE svg PUBLIC "-//W3C//DTD SVG 1.1//EN" "http://www.w3.org/Graphics/SVG/1.1/DTD/svg11.dtd">
<svg version="1.1" xmlns="http://www.w3.org/2000/svg" xmlns:xlink="http://www.w3.org/1999/xlink" x="0px" y="0px" width="500px"
	 height="500px" viewBox="0 0 500 500" enable-background="new 0 0 500 500" xml:space="preserve">
<g id="Background_Simple" display="none">
</g>
<g id="Signs" display="none">
</g>
<g id="Graphics" display="none">
</g>
<g id="Character" display="none">
</g>
<g id="Plants">
	<g>
		<g>
			<path fill="#EFEFEF" d="M454.321,130.708c-26.264-50.168-76.116-84.925-129.875-98.096
				C273.163,20.048,211.424,20.667,172.821,62.04c-25.418,27.242-35.597,65.168-58.03,94.585
				c-11.15,14.622-25.104,21.311-39.713,31.544c-35.606,24.944-61.792,65.083-56.054,110.481
				c9.594,75.903,78.832,116.667,148.418,121.246c91.958,6.05,157.541-6.247,213.249-41.848
				c28.935-18.489,57.791-40.431,75.453-70.799c26.711-45.926,25.614-103.841,8.335-153.153
				C461.638,145.985,458.233,138.181,454.321,130.708z"/>
			<path opacity="0.8" fill="#EFEFEF" d="M454.321,130.708c-26.264-50.168-76.116-84.925-129.875-98.096
				C273.163,20.048,211.424,20.667,172.821,62.04c-25.418,27.242-35.597,65.168-58.03,94.585
				c-11.15,14.622-25.104,21.311-39.713,31.544c-35.606,24.944-61.792,65.083-56.054,110.481
				c9.594,75.903,78.832,116.667,148.418,121.246c91.958,6.05,157.541-6.247,213.249-41.848
				c28.935-18.489,57.791-40.431,75.453-70.799c26.711-45.926,25.614-103.841,8.335-153.153
				C461.638,145.985,458.233,138.181,454.321,130.708z"/>
		</g>
		<g>
			<path fill="#D3D3D3" stroke="#263238" stroke-linecap="round" stroke-linejoin="round" stroke-miterlimit="10" d="
				M243.694,464.125h-9.445V53.047c0-2.608,2.115-4.723,4.723-4.723l0,0c2.608,0,4.723,2.115,4.723,4.723V464.125z"/>
		</g>
		
			<rect x="151.175" y="103.08" fill="#E5E5E5" stroke="#383838" stroke-linecap="round" stroke-linejoin="round" stroke-miterlimit="10" width="82.808" height="29.158"/>
		
			<rect x="243.854" y="71.826" fill="#E5E5E5" stroke="#383838" stroke-linecap="round" stroke-linejoin="round" stroke-miterlimit="10" width="82.808" height="29.157"/>
		<polygon fill="#E5E5E5" stroke="#383838" stroke-linecap="round" stroke-linejoin="round" stroke-miterlimit="10" points="
			243.854,152.176 290.094,158.051 290.094,117.143 243.854,123.018 		"/>
		<linearGradient id="SVGID_1_" gradientUnits="userSpaceOnUse" x1="249.2559" y1="138.3262" x2="280.7754" y2="138.3262">
			<stop  offset="0" style="stop-color:#B0272B"/>
			<stop  offset="0.5288" style="stop-color:#B0272B"/>
			<stop  offset="1" style="stop-color:#962124"/>
		</linearGradient>
		<polygon fill="url(#SVGID_1_)" stroke="#B0272B" stroke-linecap="round" stroke-linejoin="round" stroke-miterlimit="10" points="
			280.775,138.379 270.569,127.125 270.569,132.033 249.256,132.871 249.256,143.562 270.569,144.62 270.569,149.527 		"/>
		<linearGradient id="SVGID_2_" gradientUnits="userSpaceOnUse" x1="256.8154" y1="84.2871" x2="314.0371" y2="84.2871">
			<stop  offset="0" style="stop-color:#B0272B"/>
			<stop  offset="0.5288" style="stop-color:#B0272B"/>
			<stop  offset="1" style="stop-color:#962124"/>
		</linearGradient>
		<linearGradient id="SVGID_3_" gradientUnits="userSpaceOnUse" x1="256.3154" y1="84.2871" x2="314.5371" y2="84.2871">
			<stop  offset="0" style="stop-color:#B0272B"/>
			<stop  offset="0.5288" style="stop-color:#B0272B"/>
			<stop  offset="1" style="stop-color:#962124"/>
		</linearGradient>
		
			<polygon fill="url(#SVGID_2_)" stroke="url(#SVGID_3_)" stroke-linecap="round" stroke-linejoin="round" stroke-miterlimit="10" points="
			314.037,84.288 298.301,75.202 298.301,79.182 256.815,79.182 256.815,89.392 298.301,89.392 298.301,93.373 		"/>
		<linearGradient id="SVGID_4_" gradientUnits="userSpaceOnUse" x1="164.4521" y1="117.874" x2="221.6738" y2="117.874">
			<stop  offset="0" style="stop-color:#B0272B"/>
			<stop  offset="0.5288" style="stop-color:#B0272B"/>
			<stop  offset="1" style="stop-color:#962124"/>
		</linearGradient>
		<polygon fill="url(#SVGID_4_)" stroke="#B0272B" stroke-linecap="round" stroke-linejoin="round" stroke-miterlimit="10" points="
			164.452,117.875 180.188,108.789 180.188,112.769 221.674,112.769 221.674,122.979 180.188,122.979 180.188,126.959 		"/>
		<g>
			
				<circle fill="none" stroke="#383838" stroke-linecap="round" stroke-linejoin="round" stroke-miterlimit="10" cx="367.62" cy="98.031" r="34.312"/>
			<path fill="none" stroke="#383838" stroke-linecap="round" stroke-linejoin="round" stroke-miterlimit="10" d="M390.184,120.685
				c-2.289,2.28-4.922,4.215-7.813,5.721"/>
			<path fill="none" stroke="#383838" stroke-linecap="round" stroke-linejoin="round" stroke-miterlimit="10" d="M377.797,128.351
				c-3.196,1.073-6.619,1.654-10.178,1.654c-17.658,0-31.974-14.315-31.974-31.974s14.315-31.974,31.974-31.974
				c17.659,0,31.975,14.315,31.975,31.974c0,5.972-1.638,11.563-4.488,16.346"/>
			
				<circle fill="#263238" stroke="#383838" stroke-linecap="round" stroke-linejoin="round" stroke-miterlimit="10" cx="367.62" cy="98.031" r="2.531"/>
			<polyline fill="none" stroke="#383838" stroke-linecap="round" stroke-linejoin="round" stroke-miterlimit="10" points="
				371.262,112.248 367.619,98.031 388.869,83.474 			"/>
		</g>
		<g>
			<path fill="none" stroke="#383838" stroke-linecap="round" stroke-linejoin="round" stroke-miterlimit="10" d="M107.762,281.125
				c-14.479,0-26.216,11.738-26.216,26.216c0,14.479,11.737,26.216,26.216,26.216s26.216-11.736,26.216-26.216
				C133.978,292.863,122.241,281.125,107.762,281.125z M107.762,323.927c-9.16,0-16.585-7.426-16.585-16.586
				c0-9.159,7.426-16.585,16.585-16.585s16.585,7.426,16.585,16.585C124.348,316.501,116.922,323.927,107.762,323.927z"/>
			<path fill="none" stroke="#383838" stroke-linecap="round" stroke-linejoin="round" stroke-miterlimit="10" d="M108.297,281.14
				v9.643c8.911,0.285,16.051,7.58,16.051,16.559c0,4.54-1.828,8.651-4.784,11.646l7.563,6.023
				c4.255-4.661,6.851-10.862,6.851-17.67C133.978,293.042,122.528,281.424,108.297,281.14z"/>
			
				<line fill="none" stroke="#383838" stroke-linecap="round" stroke-linejoin="round" stroke-miterlimit="10" x1="98.132" y1="306.271" x2="116.857" y2="306.271"/>
			
				<line fill="none" stroke="#383838" stroke-linecap="round" stroke-linejoin="round" stroke-miterlimit="10" x1="98.132" y1="311.086" x2="116.857" y2="311.086"/>
		</g>
		<g>
			
				<line fill="none" stroke="#383838" stroke-linecap="round" stroke-linejoin="round" stroke-miterlimit="10" x1="345.58" y1="189.659" x2="396.585" y2="189.659"/>
			
				<line fill="none" stroke="#383838" stroke-linecap="round" stroke-linejoin="round" stroke-miterlimit="10" x1="325.253" y1="189.659" x2="330.505" y2="189.659"/>
			
				<line fill="none" stroke="#383838" stroke-linecap="round" stroke-linejoin="round" stroke-miterlimit="10" x1="362.565" y1="197.751" x2="396.585" y2="197.751"/>
			
				<line fill="none" stroke="#383838" stroke-linecap="round" stroke-linejoin="round" stroke-miterlimit="10" x1="325.253" y1="197.751" x2="330.92" y2="197.751"/>
			
				<line fill="none" stroke="#383838" stroke-linecap="round" stroke-linejoin="round" stroke-miterlimit="10" x1="378.93" y1="205.844" x2="396.585" y2="205.844"/>
			
				<line fill="none" stroke="#383838" stroke-linecap="round" stroke-linejoin="round" stroke-miterlimit="10" x1="325.253" y1="205.844" x2="330.505" y2="205.844"/>
			
				<line fill="none" stroke="#383838" stroke-linecap="round" stroke-linejoin="round" stroke-miterlimit="10" x1="393.429" y1="213.936" x2="396.585" y2="213.936"/>
			
				<line fill="none" stroke="#383838" stroke-linecap="round" stroke-linejoin="round" stroke-miterlimit="10" x1="325.253" y1="213.936" x2="330.505" y2="213.936"/>
			
				<line fill="none" stroke="#383838" stroke-linecap="round" stroke-linejoin="round" stroke-miterlimit="10" x1="393.429" y1="223.353" x2="396.585" y2="223.353"/>
			
				<line fill="none" stroke="#383838" stroke-linecap="round" stroke-linejoin="round" stroke-miterlimit="10" x1="325.253" y1="223.353" x2="330.505" y2="223.353"/>
			
				<line fill="none" stroke="#383838" stroke-linecap="round" stroke-linejoin="round" stroke-miterlimit="10" x1="393.429" y1="232.771" x2="396.585" y2="232.771"/>
			
				<line fill="none" stroke="#383838" stroke-linecap="round" stroke-linejoin="round" stroke-miterlimit="10" x1="325.253" y1="232.771" x2="330.505" y2="232.771"/>
			
				<rect x="331.845" y="184.056" fill="none" stroke="#383838" stroke-linecap="round" stroke-linejoin="round" stroke-miterlimit="10" width="11.827" height="49.576"/>
			
				<rect x="348.03" y="193.394" fill="none" stroke="#383838" stroke-linecap="round" stroke-linejoin="round" stroke-miterlimit="10" width="11.827" height="40.239"/>
			
				<rect x="364.215" y="202.108" fill="none" stroke="#383838" stroke-linecap="round" stroke-linejoin="round" stroke-miterlimit="10" width="11.827" height="31.524"/>
			
				<rect x="380.4" y="213.313" fill="none" stroke="#383838" stroke-linecap="round" stroke-linejoin="round" stroke-miterlimit="10" width="11.826" height="20.319"/>
		</g>
		<g>
			<linearGradient id="SVGID_5_" gradientUnits="userSpaceOnUse" x1="78.2119" y1="96.1626" x2="137.3125" y2="96.1626">
				<stop  offset="0" style="stop-color:#B0272B"/>
				<stop  offset="0.5288" style="stop-color:#B0272B"/>
				<stop  offset="1" style="stop-color:#962124"/>
			</linearGradient>
			<path fill="none" stroke="url(#SVGID_5_)" stroke-linecap="round" stroke-linejoin="round" stroke-miterlimit="10" d="
				M125.12,72.866c-4.842-3.614-10.851-5.754-17.358-5.754c-16.044,0-29.05,13.006-29.05,29.051c0,16.043,13.006,29.05,29.05,29.05
				c16.044,0,29.05-13.006,29.05-29.05c0-7.65-2.957-14.608-7.789-19.796"/>
			<linearGradient id="SVGID_6_" gradientUnits="userSpaceOnUse" x1="88.1719" y1="96.1626" x2="127.3521" y2="96.1626">
				<stop  offset="0" style="stop-color:#B0272B"/>
				<stop  offset="0.5288" style="stop-color:#B0272B"/>
				<stop  offset="1" style="stop-color:#962124"/>
			</linearGradient>
			<path fill="none" stroke="url(#SVGID_6_)" stroke-linecap="round" stroke-linejoin="round" stroke-miterlimit="10" d="
				M94.077,109.473c3.468,3.565,8.318,5.78,13.685,5.78c10.543,0,19.09-8.547,19.09-19.09c0-10.543-8.546-19.091-19.09-19.091
				s-19.09,8.547-19.09,19.091c0,3.882,1.159,7.493,3.149,10.507"/>
			<linearGradient id="SVGID_7_" gradientUnits="userSpaceOnUse" x1="97.3018" y1="96.1626" x2="118.2222" y2="96.1626">
				<stop  offset="0" style="stop-color:#B0272B"/>
				<stop  offset="0.5288" style="stop-color:#B0272B"/>
				<stop  offset="1" style="stop-color:#962124"/>
			</linearGradient>
			
				<circle fill="none" stroke="url(#SVGID_7_)" stroke-linecap="round" stroke-linejoin="round" stroke-miterlimit="10" cx="107.762" cy="96.163" r="9.96"/>
		</g>
		<path fill="none" stroke="#263238" stroke-linecap="round" stroke-linejoin="round" stroke-miterlimit="10" d="M369.636,329.621
			c1.864-0.807,3.607-1.84,5.193-3.065"/>
		<path fill="none" stroke="#263238" stroke-linecap="round" stroke-linejoin="round" stroke-miterlimit="10" d="M351.424,284.632
			c-9.166,3.469-15.684,12.326-15.684,22.707c0,13.402,10.864,24.268,24.268,24.268c1.685,0,3.329-0.172,4.916-0.499"/>
		<path fill="none" stroke="#383838" stroke-linecap="round" stroke-linejoin="round" stroke-miterlimit="10" d="M377.884,323.752
			c3.969-4.321,6.392-10.084,6.392-16.413c0-13.403-10.865-24.269-24.268-24.269c-2.055,0-4.052,0.256-5.957,0.736"/>
		
			<circle fill="none" stroke="#383838" stroke-linecap="round" stroke-linejoin="round" stroke-miterlimit="10" cx="360.007" cy="307.339" r="19.897"/>
		<linearGradient id="SVGID_8_" gradientUnits="userSpaceOnUse" x1="258.1191" y1="227.0244" x2="315.7764" y2="227.0244">
			<stop  offset="0" style="stop-color:#5082C1"/>
			<stop  offset="1" style="stop-color:#00112D"/>
		</linearGradient>
		<path fill="url(#SVGID_8_)" stroke="#263238" stroke-linecap="round" stroke-linejoin="round" stroke-miterlimit="10" d="
			M262.779,227.661c0,0,0.243-0.027,0.681-0.081c2.867-0.354,14.113-1.861,20.552-4.407c7.424-2.935,24.341-1.381,24.341-1.381
			l7.424,5.352l-8.459,5.524c0,0-11.911-3.97-20.197-3.625s-12.257,2.762-17.436,2.417s-11.565-3.798-11.565-3.798H262.779z"/>
		<polygon fill="#FFFFFF" stroke="#263238" stroke-linecap="round" stroke-linejoin="round" stroke-miterlimit="10" points="
			231.062,210.864 231.062,221.973 249.366,221.973 249.366,209.11 		"/>
		<path fill="#FFFFFF" stroke="#263238" stroke-linecap="round" stroke-linejoin="round" stroke-miterlimit="10" d="
			M226.061,200.082c0,0-4.337-2.891-2.891,2.169c1.445,5.06,2.891,6.987,5.059,6.746c2.169-0.241,3.374-0.964,2.651-2.891
			C230.157,204.178,226.061,200.082,226.061,200.082z"/>
		<path fill="#FFFFFF" stroke="#263238" stroke-linecap="round" stroke-linejoin="round" stroke-miterlimit="10" d="
			M255.029,200.082c0,0,4.336-2.891,2.891,2.169c-1.445,5.06-2.891,6.987-5.06,6.746c-2.169-0.241-3.373-0.964-2.65-2.891
			C250.933,204.178,255.029,200.082,255.029,200.082z"/>
		<linearGradient id="SVGID_9_" gradientUnits="userSpaceOnUse" x1="224.7314" y1="193.6792" x2="259.0693" y2="193.6792">
			<stop  offset="0" style="stop-color:#5082C1"/>
			<stop  offset="1" style="stop-color:#00112D"/>
		</linearGradient>
		<path fill="url(#SVGID_9_)" stroke="#263238" stroke-linecap="round" stroke-linejoin="round" stroke-miterlimit="10" d="
			M235.458,176.952c0,0-7.229,2.41-9.637,9.156c-2.409,6.746-0.241,14.938,0.963,18.312c1.205,3.373,6.987,9.878,6.987,9.878h13.011
			c0,0,4.819-4.578,7.468-10.601c2.65-6.023,2.65-14.456,2.65-14.456s2.169,0.723,2.169-2.168c0-2.892-6.746-8.433-6.746-8.433
			s3.132-1.204,0.964-2.891c-2.169-1.687-9.879-0.964-9.879-0.964S242.445,169.724,235.458,176.952z"/>
		<path fill="#858585" stroke="#263238" stroke-linecap="round" stroke-linejoin="round" stroke-miterlimit="10" d="M263.96,453.753
			l1.979,1.236c0,0,2.226,0,3.463,1.237c1.236,1.236,0.776,7.382,0.776,7.382s-0.986,0.729-5.687,0.729
			c-4.699,0-15.05,1.148-16.04-0.583s0.171-9.013,0.171-9.013L263.96,453.753z"/>
		<g>
			<linearGradient id="SVGID_10_" gradientUnits="userSpaceOnUse" x1="205.0186" y1="378.9414" x2="264.0264" y2="378.9414">
				<stop  offset="0" style="stop-color:#5082C1"/>
				<stop  offset="1" style="stop-color:#00112D"/>
			</linearGradient>
			<path fill="url(#SVGID_10_)" stroke="#263238" stroke-linecap="round" stroke-linejoin="round" stroke-miterlimit="10" d="
				M209.788,298.161c0,0-1.484,10.884-1.484,13.11c0,2.226-0.495,21.521-0.495,21.521s0.248,50.709,0.248,51.699
				c0,0.989-4.205,14.842-2.721,24.241c1.484,9.399,4.453,45.515,4.453,45.515s-0.989,7.916-0.248,8.658
				c0.742,0.742,9.895,1.731,11.874,0.742s0.742-10.637,0.742-10.637s1.237-4.205,1.237-7.174c0-2.968,0-5.441,0-7.915
				c0-2.475,1.237-24.489,2.474-33.147c1.237-8.657,1.979-20.283,1.979-20.283l5.194-53.431l3.958-0.248
				c0,0,4.947,57.389,5.195,61.594c0.247,4.205-0.742,12.616,1.484,22.263c2.227,9.647,3.463,35.868,3.463,35.868
				s-0.495,2.474,0,3.463s1.731,3.958,1.731,3.958s1.979,0.247,5.195,0c2.711-0.209,4.347-0.488,7.956-2.167
				c1.764-1.627,2.54-3.853,1.604-6.141c-1.481-3.62-2.14-4.308-2.14-4.308s2.227-31.168,2.227-38.837
				c0-7.668-1.236-17.067-1.236-17.81s1.483-56.399,1.483-62.089s-0.494-21.025-2.968-27.704s-42.052-4.947-46.009-4.7
				C211.025,294.45,209.788,298.161,209.788,298.161z"/>
			<linearGradient id="SVGID_11_" gradientUnits="userSpaceOnUse" x1="224.3823" y1="330.1914" x2="245.6558" y2="330.1914">
				<stop  offset="0" style="stop-color:#5082C1"/>
				<stop  offset="1" style="stop-color:#00112D"/>
			</linearGradient>
			
				<line fill="url(#SVGID_11_)" stroke="#757575" stroke-linecap="round" stroke-linejoin="round" stroke-miterlimit="10" x1="224.382" y1="330.687" x2="245.656" y2="329.697"/>
		</g>
		<path fill="#FFFFFF" stroke="#383838" stroke-linecap="round" stroke-linejoin="round" stroke-miterlimit="10" d="
			M236.751,221.478l-13.358,3.216c0,0-19.294,9.4-23.5,11.874s-20.778,35.868-20.037,37.6c0.742,1.731,3.958,3.957,7.174,4.452
			s19.542-18.058,19.542-18.058s4.7,23.252,4.7,24.242c0,0.989-2.721,12.862-1.484,14.842c1.237,1.979,48.73,0,48.73,0
			s3.463,0.247,3.958-2.969c0.494-3.216-0.99-12.615-0.99-12.615l5.442-28.447c0,0,10.395,15.768,12.726,18.305
			c4.052,4.411,9.079,2.563,11.764-0.742c2.34-2.879,0.247-8.41-0.495-10.142s-13.853-31.168-17.811-32.404
			c-3.957-1.237-20.531-7.174-20.531-7.174L236.751,221.478z"/>
		<path fill="#FFFFFF" stroke="#263238" stroke-linecap="round" stroke-linejoin="round" stroke-miterlimit="10" d="
			M223.393,224.694c0,0,16.348-0.337,19.069-0.337c2.721,0,12.655-0.085,12.655-0.085l-2.514-5.356c0,0-5.194-1.484-13.109-1.484
			c-7.916,0-13.853,2.474-13.853,2.474L223.393,224.694z"/>
		<polyline fill="none" stroke="#263238" stroke-linecap="round" stroke-linejoin="round" stroke-miterlimit="10" points="
			201.542,247.519 206.572,260.562 197.915,251.904 		"/>
		
			<line fill="none" stroke="#263238" stroke-linecap="round" stroke-linejoin="round" stroke-miterlimit="10" x1="199.894" y1="243.246" x2="200.494" y2="244.803"/>
		<path fill="none" stroke="#263238" stroke-linecap="round" stroke-linejoin="round" stroke-miterlimit="10" d="M227.731,282.646
			c-0.855,0.712-1.725,1.353-2.606,1.909"/>
		<path fill="none" stroke="#383838" stroke-linecap="round" stroke-linejoin="round" stroke-miterlimit="10" d="M250.355,245.225
			c0,0-9.045,24.724-21.157,36.121"/>
		<polyline fill="none" stroke="#263238" stroke-linecap="round" stroke-linejoin="round" stroke-miterlimit="10" points="
			272.618,241.515 266.929,255.614 276.081,245.72 		"/>
		<path fill="#FFFFFF" stroke="#263238" stroke-linecap="round" stroke-linejoin="round" stroke-miterlimit="10" d="
			M177.631,280.351c0,0,1.731,5.689,7.173,9.895c5.442,4.205,20.037,18.058,20.037,18.058s-0.248,0.989,0,2.227
			c0.248,1.236,4.205,4.452,4.205,4.452v-2.474l0.99-1.979l0.989-2.474c0,0,2.474-0.989,3.216-1.484s1.237-1.237,1.237-1.237
			s2.721,0.495,4.453,0.495c1.731,0,4.205-1.731,2.721-2.227c-1.484-0.494-2.968,0-4.947-0.989s-2.968-1.979-4.947-1.979
			s-5.194,0-5.194,0l-13.605-22.263L177.631,280.351z"/>
		<path fill="#FFFFFF" stroke="#263238" stroke-linecap="round" stroke-linejoin="round" stroke-miterlimit="10" d="
			M183.484,265.146c0,0-2.885,0.857-3.627,1.6c-0.742,0.742-4.453,6.431-3.71,9.399s1.731,7.174,8.163,8.41
			c6.432,1.237,9.895-1.484,10.389-2.226c0.495-0.742,1.714-9.495,0.725-9.495c-0.99,0-3.693,3.311-3.693,3.311
			s-7.369-1.669-8.853-2.905C181.394,272.003,183.484,265.146,183.484,265.146z"/>
		<path fill="#FFFFFF" stroke="#263238" stroke-linecap="round" stroke-linejoin="round" stroke-miterlimit="10" d="M296.97,280.351
			c0,0-1.731,5.689-7.174,9.895c-5.441,4.205-20.036,18.058-20.036,18.058s0.247,0.989,0,2.227
			c-0.247,1.236-5.696,5.042-5.696,5.042v-3.606l-0.38-2.276l-0.107-1.633c0,0-2.475-0.989-3.216-1.484
			c-0.742-0.495-1.237-1.237-1.237-1.237s-2.721,0.495-4.452,0.495s-4.206-1.731-2.722-2.227c1.484-0.494,2.969,0,4.947-0.989
			c1.979-0.989,2.969-1.979,4.947-1.979c1.979,0,5.195,0,5.195,0l13.604-22.263L296.97,280.351z"/>
		<path fill="#FFFFFF" stroke="#263238" stroke-linecap="round" stroke-linejoin="round" stroke-miterlimit="10" d="M292.147,266.36
			c0,0,1.854-0.356,2.596,0.386s4.453,6.431,3.711,9.399s-1.731,7.174-8.163,8.41c-6.432,1.237-9.895-1.484-10.39-2.226
			c-0.494-0.742-0.894-9.16-0.247-8.411c1.161,1.345,3.216,2.227,3.216,2.227s7.67-0.392,8.872-4.727
			C292.258,269.558,292.147,266.36,292.147,266.36z"/>
		<path fill="#858585" stroke="#263238" stroke-linecap="round" stroke-linejoin="round" stroke-miterlimit="10" d="
			M221.414,463.647c1.562-0.781,1.121-6.954,0.865-9.521c-1.275,0.597-3.228,1.33-5.564,1.604c-4.205,0.495-6.926-1.484-6.926-1.484
			s-0.794,8.556-0.123,9.361C210.395,464.484,219.435,464.637,221.414,463.647z"/>
		<g>
			<g>
				<g>
					<g>
						<linearGradient id="SVGID_12_" gradientUnits="userSpaceOnUse" x1="396.5586" y1="438.7354" x2="397.3447" y2="438.7354">
							<stop  offset="0" style="stop-color:#B0272B"/>
							<stop  offset="0.5288" style="stop-color:#B0272B"/>
							<stop  offset="1" style="stop-color:#962124"/>
						</linearGradient>
						<path fill="url(#SVGID_12_)" d="M396.952,464.648c-0.218,0-0.394-0.176-0.394-0.394v-51.039c0-0.218,0.176-0.394,0.394-0.394
							c0.217,0,0.393,0.176,0.393,0.394v51.039C397.345,464.473,397.169,464.648,396.952,464.648z"/>
					</g>
					<g>
						<linearGradient id="SVGID_13_" gradientUnits="userSpaceOnUse" x1="381.2188" y1="456.1445" x2="396.5684" y2="456.1445">
							<stop  offset="0" style="stop-color:#B0272B"/>
							<stop  offset="0.5288" style="stop-color:#B0272B"/>
							<stop  offset="1" style="stop-color:#962124"/>
						</linearGradient>
						<path fill="url(#SVGID_13_)" d="M396.568,459.649c0,0-2.687-3.837-6.141-5.756c-3.453-1.919-9.209-1.919-9.209-1.919
							S384.288,463.104,396.568,459.649z"/>
					</g>
					<g>
						<linearGradient id="SVGID_14_" gradientUnits="userSpaceOnUse" x1="396.9521" y1="456.1445" x2="412.3018" y2="456.1445">
							<stop  offset="0" style="stop-color:#B0272B"/>
							<stop  offset="0.5288" style="stop-color:#B0272B"/>
							<stop  offset="1" style="stop-color:#962124"/>
						</linearGradient>
						<path fill="url(#SVGID_14_)" d="M396.952,459.649c0,0,2.687-3.837,6.14-5.756c3.454-1.919,9.21-1.919,9.21-1.919
							S409.232,463.104,396.952,459.649z"/>
					</g>
					<g>
						<linearGradient id="SVGID_15_" gradientUnits="userSpaceOnUse" x1="381.2188" y1="442.3301" x2="396.5684" y2="442.3301">
							<stop  offset="0" style="stop-color:#B0272B"/>
							<stop  offset="0.5288" style="stop-color:#B0272B"/>
							<stop  offset="1" style="stop-color:#962124"/>
						</linearGradient>
						<path fill="url(#SVGID_15_)" d="M396.568,445.835c0,0-2.687-3.838-6.141-5.757c-3.453-1.918-9.209-1.918-9.209-1.918
							S384.288,449.288,396.568,445.835z"/>
					</g>
					<g>
						<linearGradient id="SVGID_16_" gradientUnits="userSpaceOnUse" x1="396.9521" y1="442.3301" x2="412.3018" y2="442.3301">
							<stop  offset="0" style="stop-color:#B0272B"/>
							<stop  offset="0.5288" style="stop-color:#B0272B"/>
							<stop  offset="1" style="stop-color:#962124"/>
						</linearGradient>
						<path fill="url(#SVGID_16_)" d="M396.952,445.835c0,0,2.687-3.838,6.14-5.757c3.454-1.918,9.21-1.918,9.21-1.918
							S409.232,449.288,396.952,445.835z"/>
					</g>
					<g>
						<linearGradient id="SVGID_17_" gradientUnits="userSpaceOnUse" x1="381.2188" y1="428.5146" x2="396.5684" y2="428.5146">
							<stop  offset="0" style="stop-color:#B0272B"/>
							<stop  offset="0.5288" style="stop-color:#B0272B"/>
							<stop  offset="1" style="stop-color:#962124"/>
						</linearGradient>
						<path fill="url(#SVGID_17_)" d="M396.568,432.02c0,0-2.687-3.837-6.141-5.756c-3.453-1.919-9.209-1.919-9.209-1.919
							S384.288,435.474,396.568,432.02z"/>
					</g>
					<g>
						<linearGradient id="SVGID_18_" gradientUnits="userSpaceOnUse" x1="396.9521" y1="428.5146" x2="412.3018" y2="428.5146">
							<stop  offset="0" style="stop-color:#B0272B"/>
							<stop  offset="0.5288" style="stop-color:#B0272B"/>
							<stop  offset="1" style="stop-color:#962124"/>
						</linearGradient>
						<path fill="url(#SVGID_18_)" d="M396.952,432.02c0,0,2.687-3.837,6.14-5.756c3.454-1.919,9.21-1.919,9.21-1.919
							S409.232,435.474,396.952,432.02z"/>
					</g>
					<g>
						<linearGradient id="SVGID_19_" gradientUnits="userSpaceOnUse" x1="381.2188" y1="414.6992" x2="396.5684" y2="414.6992">
							<stop  offset="0" style="stop-color:#B0272B"/>
							<stop  offset="0.5288" style="stop-color:#B0272B"/>
							<stop  offset="1" style="stop-color:#962124"/>
						</linearGradient>
						<path fill="url(#SVGID_19_)" d="M396.568,418.205c0,0-2.687-3.838-6.141-5.756c-3.453-1.92-9.209-1.92-9.209-1.92
							S384.288,421.658,396.568,418.205z"/>
					</g>
					<g>
						<linearGradient id="SVGID_20_" gradientUnits="userSpaceOnUse" x1="396.9521" y1="414.6992" x2="412.3018" y2="414.6992">
							<stop  offset="0" style="stop-color:#B0272B"/>
							<stop  offset="0.5288" style="stop-color:#B0272B"/>
							<stop  offset="1" style="stop-color:#962124"/>
						</linearGradient>
						<path fill="url(#SVGID_20_)" d="M396.952,418.205c0,0,2.687-3.838,6.14-5.756c3.454-1.92,9.21-1.92,9.21-1.92
							S409.232,421.658,396.952,418.205z"/>
					</g>
					<g>
						<linearGradient id="SVGID_21_" gradientUnits="userSpaceOnUse" x1="393.7188" y1="404.6328" x2="400.5908" y2="404.6328">
							<stop  offset="0" style="stop-color:#B0272B"/>
							<stop  offset="0.5288" style="stop-color:#B0272B"/>
							<stop  offset="1" style="stop-color:#962124"/>
						</linearGradient>
						<path fill="url(#SVGID_21_)" d="M396.952,413.216c0,0-3.072-4.132-3.227-8.08s2.442-9.086,2.442-9.086
							S405.573,403.813,396.952,413.216z"/>
					</g>
				</g>
			</g>
		</g>
		<g>
			<g>
				<g>
					<g>
						<linearGradient id="SVGID_22_" gradientUnits="userSpaceOnUse" x1="58.3325" y1="436.6377" x2="59.1816" y2="436.6377">
							<stop  offset="0" style="stop-color:#B0272B"/>
							<stop  offset="0.5288" style="stop-color:#B0272B"/>
							<stop  offset="1" style="stop-color:#962124"/>
						</linearGradient>
						<path fill="url(#SVGID_22_)" d="M58.757,464.648c-0.234,0-0.424-0.19-0.424-0.425v-55.171c0-0.235,0.19-0.426,0.424-0.426
							c0.235,0,0.425,0.19,0.425,0.426v55.171C59.182,464.458,58.992,464.648,58.757,464.648z"/>
					</g>
					<g>
						<linearGradient id="SVGID_23_" gradientUnits="userSpaceOnUse" x1="41.7495" y1="455.457" x2="58.3428" y2="455.457">
							<stop  offset="0" style="stop-color:#B0272B"/>
							<stop  offset="0.5288" style="stop-color:#B0272B"/>
							<stop  offset="1" style="stop-color:#962124"/>
						</linearGradient>
						<path fill="url(#SVGID_23_)" d="M58.343,459.246c0,0-2.904-4.149-6.638-6.223c-3.733-2.074-9.956-2.074-9.956-2.074
							S45.068,462.979,58.343,459.246z"/>
					</g>
					<g>
						<linearGradient id="SVGID_24_" gradientUnits="userSpaceOnUse" x1="58.7568" y1="455.457" x2="75.3496" y2="455.457">
							<stop  offset="0" style="stop-color:#B0272B"/>
							<stop  offset="0.5288" style="stop-color:#B0272B"/>
							<stop  offset="1" style="stop-color:#962124"/>
						</linearGradient>
						<path fill="url(#SVGID_24_)" d="M58.757,459.246c0,0,2.904-4.149,6.638-6.223c3.733-2.074,9.955-2.074,9.955-2.074
							S72.031,462.979,58.757,459.246z"/>
					</g>
					<g>
						<linearGradient id="SVGID_25_" gradientUnits="userSpaceOnUse" x1="41.7495" y1="440.5234" x2="58.3428" y2="440.5234">
							<stop  offset="0" style="stop-color:#B0272B"/>
							<stop  offset="0.5288" style="stop-color:#B0272B"/>
							<stop  offset="1" style="stop-color:#962124"/>
						</linearGradient>
						<path fill="url(#SVGID_25_)" d="M58.343,444.313c0,0-2.904-4.148-6.638-6.223s-9.956-2.074-9.956-2.074
							S45.068,448.045,58.343,444.313z"/>
					</g>
					<g>
						<linearGradient id="SVGID_26_" gradientUnits="userSpaceOnUse" x1="58.7568" y1="440.5234" x2="75.3496" y2="440.5234">
							<stop  offset="0" style="stop-color:#B0272B"/>
							<stop  offset="0.5288" style="stop-color:#B0272B"/>
							<stop  offset="1" style="stop-color:#962124"/>
						</linearGradient>
						<path fill="url(#SVGID_26_)" d="M58.757,444.313c0,0,2.904-4.148,6.638-6.223c3.733-2.074,9.955-2.074,9.955-2.074
							S72.031,448.045,58.757,444.313z"/>
					</g>
					<g>
						<linearGradient id="SVGID_27_" gradientUnits="userSpaceOnUse" x1="41.7495" y1="425.5898" x2="58.3428" y2="425.5898">
							<stop  offset="0" style="stop-color:#B0272B"/>
							<stop  offset="0.5288" style="stop-color:#B0272B"/>
							<stop  offset="1" style="stop-color:#962124"/>
						</linearGradient>
						<path fill="url(#SVGID_27_)" d="M58.343,429.379c0,0-2.904-4.148-6.638-6.223s-9.956-2.074-9.956-2.074
							S45.068,433.111,58.343,429.379z"/>
					</g>
					<g>
						<linearGradient id="SVGID_28_" gradientUnits="userSpaceOnUse" x1="58.7568" y1="425.5898" x2="75.3496" y2="425.5898">
							<stop  offset="0" style="stop-color:#B0272B"/>
							<stop  offset="0.5288" style="stop-color:#B0272B"/>
							<stop  offset="1" style="stop-color:#962124"/>
						</linearGradient>
						<path fill="url(#SVGID_28_)" d="M58.757,429.379c0,0,2.904-4.148,6.638-6.223c3.733-2.074,9.955-2.074,9.955-2.074
							S72.031,433.111,58.757,429.379z"/>
					</g>
					<g>
						<linearGradient id="SVGID_29_" gradientUnits="userSpaceOnUse" x1="41.7495" y1="410.6563" x2="58.3428" y2="410.6563">
							<stop  offset="0" style="stop-color:#B0272B"/>
							<stop  offset="0.5288" style="stop-color:#B0272B"/>
							<stop  offset="1" style="stop-color:#962124"/>
						</linearGradient>
						<path fill="url(#SVGID_29_)" d="M58.343,414.445c0,0-2.904-4.148-6.638-6.223s-9.956-2.074-9.956-2.074
							S45.068,418.178,58.343,414.445z"/>
					</g>
					<g>
						<linearGradient id="SVGID_30_" gradientUnits="userSpaceOnUse" x1="58.7568" y1="410.6563" x2="75.3496" y2="410.6563">
							<stop  offset="0" style="stop-color:#B0272B"/>
							<stop  offset="0.5288" style="stop-color:#B0272B"/>
							<stop  offset="1" style="stop-color:#962124"/>
						</linearGradient>
						<path fill="url(#SVGID_30_)" d="M58.757,414.445c0,0,2.904-4.148,6.638-6.223c3.733-2.074,9.955-2.074,9.955-2.074
							S72.031,418.178,58.757,414.445z"/>
					</g>
					<g>
						<linearGradient id="SVGID_31_" gradientUnits="userSpaceOnUse" x1="55.2622" y1="399.7754" x2="62.6899" y2="399.7754">
							<stop  offset="0" style="stop-color:#B0272B"/>
							<stop  offset="0.5288" style="stop-color:#B0272B"/>
							<stop  offset="1" style="stop-color:#962124"/>
						</linearGradient>
						<path fill="url(#SVGID_31_)" d="M58.757,409.053c0,0-3.32-4.468-3.487-8.734c-0.167-4.269,2.639-9.821,2.639-9.821
							S68.076,398.889,58.757,409.053z"/>
					</g>
				</g>
			</g>
		</g>
		<g>
			<g>
				<g>
					<g>
						<linearGradient id="SVGID_32_" gradientUnits="userSpaceOnUse" x1="93.5581" y1="451.6445" x2="94.4067" y2="451.6445">
							<stop  offset="0" style="stop-color:#B0272B"/>
							<stop  offset="0.5288" style="stop-color:#B0272B"/>
							<stop  offset="1" style="stop-color:#962124"/>
						</linearGradient>
						<path fill="url(#SVGID_32_)" d="M94.407,464.404v-25.096c0-0.234-0.189-0.425-0.424-0.425c-0.235,0-0.425,0.19-0.425,0.425
							v25.096H94.407z"/>
					</g>
					<g>
						<linearGradient id="SVGID_33_" gradientUnits="userSpaceOnUse" x1="76.9751" y1="455.8457" x2="93.5679" y2="455.8457">
							<stop  offset="0" style="stop-color:#B0272B"/>
							<stop  offset="0.5288" style="stop-color:#B0272B"/>
							<stop  offset="1" style="stop-color:#962124"/>
						</linearGradient>
						<path fill="url(#SVGID_33_)" d="M93.568,459.635c0,0-2.904-4.148-6.637-6.223s-9.956-2.074-9.956-2.074
							S80.293,463.368,93.568,459.635z"/>
					</g>
					<g>
						<linearGradient id="SVGID_34_" gradientUnits="userSpaceOnUse" x1="93.9829" y1="455.8457" x2="110.5752" y2="455.8457">
							<stop  offset="0" style="stop-color:#B0272B"/>
							<stop  offset="0.5288" style="stop-color:#B0272B"/>
							<stop  offset="1" style="stop-color:#962124"/>
						</linearGradient>
						<path fill="url(#SVGID_34_)" d="M93.983,459.635c0,0,2.903-4.148,6.637-6.223c3.733-2.074,9.955-2.074,9.955-2.074
							S107.257,463.368,93.983,459.635z"/>
					</g>
					<g>
						<linearGradient id="SVGID_35_" gradientUnits="userSpaceOnUse" x1="76.9751" y1="440.9131" x2="93.5679" y2="440.9131">
							<stop  offset="0" style="stop-color:#B0272B"/>
							<stop  offset="0.5288" style="stop-color:#B0272B"/>
							<stop  offset="1" style="stop-color:#962124"/>
						</linearGradient>
						<path fill="url(#SVGID_35_)" d="M93.568,444.702c0,0-2.904-4.148-6.637-6.224c-3.733-2.073-9.956-2.073-9.956-2.073
							S80.293,448.435,93.568,444.702z"/>
					</g>
					<g>
						<linearGradient id="SVGID_36_" gradientUnits="userSpaceOnUse" x1="93.9829" y1="440.9131" x2="110.5752" y2="440.9131">
							<stop  offset="0" style="stop-color:#B0272B"/>
							<stop  offset="0.5288" style="stop-color:#B0272B"/>
							<stop  offset="1" style="stop-color:#962124"/>
						</linearGradient>
						<path fill="url(#SVGID_36_)" d="M93.983,444.702c0,0,2.903-4.148,6.637-6.224c3.733-2.073,9.955-2.073,9.955-2.073
							S107.257,448.435,93.983,444.702z"/>
					</g>
					<g>
						<linearGradient id="SVGID_37_" gradientUnits="userSpaceOnUse" x1="90.4878" y1="430.0313" x2="97.9155" y2="430.0313">
							<stop  offset="0" style="stop-color:#B0272B"/>
							<stop  offset="0.5288" style="stop-color:#B0272B"/>
							<stop  offset="1" style="stop-color:#962124"/>
						</linearGradient>
						<path fill="url(#SVGID_37_)" d="M93.983,439.309c0,0-3.32-4.467-3.488-8.733c-0.167-4.269,2.639-9.821,2.639-9.821
							S103.301,429.145,93.983,439.309z"/>
					</g>
				</g>
			</g>
		</g>
		<g>
			<g>
				<g>
					<g>
						<linearGradient id="SVGID_38_" gradientUnits="userSpaceOnUse" x1="362.4639" y1="452.6182" x2="363.25" y2="452.6182">
							<stop  offset="0" style="stop-color:#B0272B"/>
							<stop  offset="0.5288" style="stop-color:#B0272B"/>
							<stop  offset="1" style="stop-color:#962124"/>
						</linearGradient>
						<path fill="url(#SVGID_38_)" d="M363.25,464.423v-23.216c0-0.218-0.176-0.394-0.394-0.394c-0.217,0-0.393,0.176-0.393,0.394
							v23.216H363.25z"/>
					</g>
					<g>
						<linearGradient id="SVGID_39_" gradientUnits="userSpaceOnUse" x1="347.123" y1="456.5049" x2="362.4736" y2="456.5049">
							<stop  offset="0" style="stop-color:#B0272B"/>
							<stop  offset="0.5288" style="stop-color:#B0272B"/>
							<stop  offset="1" style="stop-color:#962124"/>
						</linearGradient>
						<path fill="url(#SVGID_39_)" d="M362.474,460.01c0,0-2.687-3.837-6.141-5.756c-3.453-1.919-9.21-1.919-9.21-1.919
							S350.193,463.464,362.474,460.01z"/>
					</g>
					<g>
						<linearGradient id="SVGID_40_" gradientUnits="userSpaceOnUse" x1="362.8564" y1="456.5049" x2="378.207" y2="456.5049">
							<stop  offset="0" style="stop-color:#B0272B"/>
							<stop  offset="0.5288" style="stop-color:#B0272B"/>
							<stop  offset="1" style="stop-color:#962124"/>
						</linearGradient>
						<path fill="url(#SVGID_40_)" d="M362.856,460.01c0,0,2.688-3.837,6.141-5.756s9.21-1.919,9.21-1.919
							S375.137,463.464,362.856,460.01z"/>
					</g>
					<g>
						<linearGradient id="SVGID_41_" gradientUnits="userSpaceOnUse" x1="347.123" y1="442.6904" x2="362.4736" y2="442.6904">
							<stop  offset="0" style="stop-color:#B0272B"/>
							<stop  offset="0.5288" style="stop-color:#B0272B"/>
							<stop  offset="1" style="stop-color:#962124"/>
						</linearGradient>
						<path fill="url(#SVGID_41_)" d="M362.474,446.195c0,0-2.687-3.838-6.141-5.757c-3.453-1.918-9.21-1.918-9.21-1.918
							S350.193,449.649,362.474,446.195z"/>
					</g>
					<g>
						<linearGradient id="SVGID_42_" gradientUnits="userSpaceOnUse" x1="362.8564" y1="442.6904" x2="378.207" y2="442.6904">
							<stop  offset="0" style="stop-color:#B0272B"/>
							<stop  offset="0.5288" style="stop-color:#B0272B"/>
							<stop  offset="1" style="stop-color:#962124"/>
						</linearGradient>
						<path fill="url(#SVGID_42_)" d="M362.856,446.195c0,0,2.688-3.838,6.141-5.757c3.453-1.918,9.21-1.918,9.21-1.918
							S375.137,449.649,362.856,446.195z"/>
					</g>
					<g>
						<linearGradient id="SVGID_43_" gradientUnits="userSpaceOnUse" x1="359.624" y1="432.624" x2="366.4951" y2="432.624">
							<stop  offset="0" style="stop-color:#B0272B"/>
							<stop  offset="0.5288" style="stop-color:#B0272B"/>
							<stop  offset="1" style="stop-color:#962124"/>
						</linearGradient>
						<path fill="url(#SVGID_43_)" d="M362.856,441.207c0,0-3.071-4.133-3.226-8.081c-0.155-3.947,2.441-9.085,2.441-9.085
							S371.479,431.804,362.856,441.207z"/>
					</g>
				</g>
			</g>
		</g>
		<g>
			<g>
				<g>
					<g>
						<linearGradient id="SVGID_44_" gradientUnits="userSpaceOnUse" x1="429.293" y1="452.6182" x2="430.0791" y2="452.6182">
							<stop  offset="0" style="stop-color:#B0272B"/>
							<stop  offset="0.5288" style="stop-color:#B0272B"/>
							<stop  offset="1" style="stop-color:#962124"/>
						</linearGradient>
						<path fill="url(#SVGID_44_)" d="M430.079,464.423v-23.216c0-0.218-0.176-0.394-0.393-0.394c-0.218,0-0.394,0.176-0.394,0.394
							v23.216H430.079z"/>
					</g>
					<g>
						<linearGradient id="SVGID_45_" gradientUnits="userSpaceOnUse" x1="413.9521" y1="456.5049" x2="429.3027" y2="456.5049">
							<stop  offset="0" style="stop-color:#B0272B"/>
							<stop  offset="0.5288" style="stop-color:#B0272B"/>
							<stop  offset="1" style="stop-color:#962124"/>
						</linearGradient>
						<path fill="url(#SVGID_45_)" d="M429.303,460.01c0,0-2.687-3.837-6.14-5.756c-3.454-1.919-9.211-1.919-9.211-1.919
							S417.022,463.464,429.303,460.01z"/>
					</g>
					<g>
						<linearGradient id="SVGID_46_" gradientUnits="userSpaceOnUse" x1="429.6865" y1="456.5049" x2="445.0361" y2="456.5049">
							<stop  offset="0" style="stop-color:#B0272B"/>
							<stop  offset="0.5288" style="stop-color:#B0272B"/>
							<stop  offset="1" style="stop-color:#962124"/>
						</linearGradient>
						<path fill="url(#SVGID_46_)" d="M429.687,460.01c0,0,2.686-3.837,6.141-5.756c3.453-1.919,9.209-1.919,9.209-1.919
							S441.967,463.464,429.687,460.01z"/>
					</g>
					<g>
						<linearGradient id="SVGID_47_" gradientUnits="userSpaceOnUse" x1="413.9521" y1="442.6904" x2="429.3027" y2="442.6904">
							<stop  offset="0" style="stop-color:#B0272B"/>
							<stop  offset="0.5288" style="stop-color:#B0272B"/>
							<stop  offset="1" style="stop-color:#962124"/>
						</linearGradient>
						<path fill="url(#SVGID_47_)" d="M429.303,446.195c0,0-2.687-3.838-6.14-5.757c-3.454-1.918-9.211-1.918-9.211-1.918
							S417.022,449.649,429.303,446.195z"/>
					</g>
					<g>
						<linearGradient id="SVGID_48_" gradientUnits="userSpaceOnUse" x1="429.6865" y1="442.6904" x2="445.0361" y2="442.6904">
							<stop  offset="0" style="stop-color:#B0272B"/>
							<stop  offset="0.5288" style="stop-color:#B0272B"/>
							<stop  offset="1" style="stop-color:#962124"/>
						</linearGradient>
						<path fill="url(#SVGID_48_)" d="M429.687,446.195c0,0,2.686-3.838,6.141-5.757c3.453-1.918,9.209-1.918,9.209-1.918
							S441.967,449.649,429.687,446.195z"/>
					</g>
					<g>
						<linearGradient id="SVGID_49_" gradientUnits="userSpaceOnUse" x1="426.4531" y1="432.624" x2="433.3242" y2="432.624">
							<stop  offset="0" style="stop-color:#B0272B"/>
							<stop  offset="0.5288" style="stop-color:#B0272B"/>
							<stop  offset="1" style="stop-color:#962124"/>
						</linearGradient>
						<path fill="url(#SVGID_49_)" d="M429.687,441.207c0,0-3.072-4.133-3.227-8.081c-0.154-3.947,2.441-9.085,2.441-9.085
							S438.308,431.804,429.687,441.207z"/>
					</g>
				</g>
			</g>
		</g>
	</g>
</g>
<g id="Floor" display="none">
	<g display="inline">
		<linearGradient id="SVGID_50_" gradientUnits="userSpaceOnUse" x1="475.2402" y1="469" x2="482" y2="469">
			<stop  offset="0" style="stop-color:#B0272B"/>
			<stop  offset="0.5288" style="stop-color:#B0272B"/>
			<stop  offset="1" style="stop-color:#962124"/>
		</linearGradient>
		
			<line fill="url(#SVGID_50_)" stroke="#383838" stroke-linecap="round" stroke-linejoin="round" stroke-miterlimit="10" x1="475.24" y1="469" x2="482" y2="469"/>
		<linearGradient id="SVGID_51_" gradientUnits="userSpaceOnUse" x1="117.8877" y1="469" x2="466.0127" y2="469">
			<stop  offset="0" style="stop-color:#B0272B"/>
			<stop  offset="0.5288" style="stop-color:#B0272B"/>
			<stop  offset="1" style="stop-color:#962124"/>
		</linearGradient>
		
			<line fill="url(#SVGID_51_)" stroke="#383838" stroke-linecap="round" stroke-linejoin="round" stroke-miterlimit="10" x1="117.888" y1="469" x2="466.013" y2="469"/>
		<linearGradient id="SVGID_52_" gradientUnits="userSpaceOnUse" x1="40" y1="469" x2="108.6602" y2="469">
			<stop  offset="0" style="stop-color:#B0272B"/>
			<stop  offset="0.5288" style="stop-color:#B0272B"/>
			<stop  offset="1" style="stop-color:#962124"/>
		</linearGradient>
		
			<line fill="url(#SVGID_52_)" stroke="#383838" stroke-linecap="round" stroke-linejoin="round" stroke-miterlimit="10" x1="40" y1="469" x2="108.66" y2="469"/>
	</g>
	<g display="inline">
		<linearGradient id="SVGID_53_" gradientUnits="userSpaceOnUse" x1="774.9043" y1="39.3257" x2="774.1002" y2="385.2435">
			<stop  offset="0" style="stop-color:#5082C1"/>
			<stop  offset="1" style="stop-color:#00112D"/>
		</linearGradient>
		<path fill="url(#SVGID_53_)" d="M811.305,291.801c0.59-0.191,20.25-11.018,34.234-25.338c-0.451,13.875-1.859,31.172-7.994,40.121
			c0,0-10.82,20.73-30.682,30.891c0,0,22.527-5.334,37.816-29.563c-3.016,17.291-20.204,52.691-60.531,61.947
			c0,0-5.438,24.426,17.488,66.66c-44.043-38.313-39.817-138.537-1.951-209.274c0,0-35.557,42.504-47.623,90.565
			c0,0-17.998-32.428-25.842-76.472c0,0-12.467,74.609,26.944,147.011c-39.192-19.828-55.255-55.221-56.956-91.805
			c7.808,12.572,25.184,18.605,25.184,18.605c-17.098-11.668-24.857-37.201-24.857-37.201c1.605-20.311,7.168-40.242,15.205-57.33
			c5.937-12.646,14.166-26.21,23.191-40.461c0,0,0.338,20.756,12.404,37.445c-7.842-22.517-5.778-47.642,1.691-59.527h-0.014
			c10.305-16.217,20.672-33.136,29.202-50.475c0,0-2.521,25.339,9.147,43.03c-5.721-15.362-4.175-50.441,1.532-67.901
			c0.192-0.592,0.397-1.17,0.604-1.727c0.023-0.047,0.036-0.108,0.048-0.167c5.949-17.052,9.279-34.368,8.266-51.671
			c25.945,25.884,44.299,67.116,51.719,114.792c0,0,0,0.012,0,0.025c-0.168,0.918-5.104,27.44-24.955,49.078
			c0.581-0.219,19.176-7.542,27.309-29.71c2.196,24.388-0.547,57.561-4.385,83.433C844.109,264.291,831.129,275.16,811.305,291.801z
			"/>
		<circle fill="#FFFFFF" cx="752.063" cy="262.305" r="13.543"/>
		<linearGradient id="SVGID_54_" gradientUnits="userSpaceOnUse" x1="852.124" y1="71.9443" x2="762.8294" y2="353.5046">
			<stop  offset="0" style="stop-color:#B0272B"/>
			<stop  offset="0.5288" style="stop-color:#B0272B"/>
			<stop  offset="1" style="stop-color:#962124"/>
		</linearGradient>
		<path fill="url(#SVGID_54_)" d="M844.68,307.912c-15.289,24.229-37.816,29.563-37.816,29.563
			c19.861-10.16,30.682-30.891,30.682-30.891c6.135-8.949,7.543-26.246,7.994-40.121c-13.984,14.32-33.645,25.146-34.234,25.338
			c19.824-16.641,32.805-27.51,36.195-45.019c3.838-25.872,6.581-59.044,4.385-83.433c-8.133,22.168-26.728,29.492-27.309,29.71
			c19.852-21.637,24.787-48.16,24.955-49.078c0-0.013,0-0.025,0-0.025c-7.42-47.675-25.773-88.907-51.719-114.792
			c0,0,51.498,89.779,1.873,198.08c-37.866,70.737-42.092,170.961,1.951,209.274c-22.926-42.234-17.488-66.66-17.488-66.66
			C824.476,360.604,841.664,325.203,844.68,307.912z"/>
		<defs>
			<filter id="Adobe_OpacityMaskFilter" filterUnits="userSpaceOnUse" x="752.063" y="29.166" width="69.203" height="288.645">
				<feFlood  style="flood-color:white;flood-opacity:1" result="back"/>
				<feBlend  in="SourceGraphic" in2="back" mode="normal"/>
			</filter>
		</defs>
		<mask maskUnits="userSpaceOnUse" x="752.063" y="29.166" width="69.203" height="288.645" id="SVGID_55_">
			<g filter="url(#Adobe_OpacityMaskFilter)">
				<defs>
					
						<filter id="Adobe_OpacityMaskFilter_1_" filterUnits="userSpaceOnUse" x="752.063" y="29.166" width="69.203" height="288.645">
						<feFlood  style="flood-color:white;flood-opacity:1" result="back"/>
						<feBlend  in="SourceGraphic" in2="back" mode="normal"/>
					</filter>
				</defs>
				<mask maskUnits="userSpaceOnUse" x="752.063" y="29.166" width="69.203" height="288.645" id="SVGID_55_">
					<g filter="url(#Adobe_OpacityMaskFilter_1_)">
					</g>
				</mask>
				<linearGradient id="SVGID_56_" gradientUnits="userSpaceOnUse" x1="822.1484" y1="312.8867" x2="726.4185" y2="22.4796">
					<stop  offset="0" style="stop-color:#FFFFFF"/>
					<stop  offset="0.0849" style="stop-color:#F6F6F6"/>
					<stop  offset="0.2252" style="stop-color:#DDDDDD"/>
					<stop  offset="0.4037" style="stop-color:#B4B4B4"/>
					<stop  offset="0.6134" style="stop-color:#7B7B7B"/>
					<stop  offset="0.8464" style="stop-color:#333333"/>
					<stop  offset="1" style="stop-color:#000000"/>
				</linearGradient>
				<path mask="url(#SVGID_55_)" fill="url(#SVGID_56_)" d="M809.792,157.559c-13.046,69.209-34.22,86.705-48.72,129.416
					c-4.148,12.219-9.01,30.836-9.01,30.836c12.066-48.061,47.623-90.565,47.623-90.565c49.625-108.301-1.873-198.08-1.873-198.08
					S822.773,88.677,809.792,157.559z"/>
			</g>
		</mask>
		<linearGradient id="SVGID_57_" gradientUnits="userSpaceOnUse" x1="752.0625" y1="173.4883" x2="821.2656" y2="173.4883">
			<stop  offset="0" style="stop-color:#272425"/>
			<stop  offset="1" style="stop-color:#272425"/>
		</linearGradient>
		<path opacity="0.6" fill="url(#SVGID_57_)" d="M809.792,157.559c-13.046,69.209-34.22,86.705-48.72,129.416
			c-4.148,12.219-9.01,30.836-9.01,30.836c12.066-48.061,47.623-90.565,47.623-90.565c49.625-108.301-1.873-198.08-1.873-198.08
			S822.773,88.677,809.792,157.559z"/>
		<defs>
			<filter id="Adobe_OpacityMaskFilter_2_" filterUnits="userSpaceOnUse" x="719.178" y="241.338" width="33.987" height="147.011">
				<feFlood  style="flood-color:white;flood-opacity:1" result="back"/>
				<feBlend  in="SourceGraphic" in2="back" mode="normal"/>
			</filter>
		</defs>
		<mask maskUnits="userSpaceOnUse" x="719.178" y="241.338" width="33.987" height="147.011" id="SVGID_58_">
			<g filter="url(#Adobe_OpacityMaskFilter_2_)">
				<defs>
					
						<filter id="Adobe_OpacityMaskFilter_3_" filterUnits="userSpaceOnUse" x="719.178" y="241.338" width="33.987" height="147.011">
						<feFlood  style="flood-color:white;flood-opacity:1" result="back"/>
						<feBlend  in="SourceGraphic" in2="back" mode="normal"/>
					</filter>
				</defs>
				<mask maskUnits="userSpaceOnUse" x="719.178" y="241.338" width="33.987" height="147.011" id="SVGID_58_">
					<g filter="url(#Adobe_OpacityMaskFilter_3_)">
					</g>
				</mask>
				<linearGradient id="SVGID_59_" gradientUnits="userSpaceOnUse" x1="704.4863" y1="418.9502" x2="760.5975" y2="253.0301">
					<stop  offset="0" style="stop-color:#FFFFFF"/>
					<stop  offset="0.0849" style="stop-color:#F6F6F6"/>
					<stop  offset="0.2252" style="stop-color:#DDDDDD"/>
					<stop  offset="0.4037" style="stop-color:#B4B4B4"/>
					<stop  offset="0.6134" style="stop-color:#7B7B7B"/>
					<stop  offset="0.8464" style="stop-color:#333333"/>
					<stop  offset="1" style="stop-color:#000000"/>
				</linearGradient>
				<path mask="url(#SVGID_58_)" fill="url(#SVGID_59_)" d="M738.146,379.201c4.58,3.32,9.567,6.391,15.019,9.148
					c-39.411-72.402-26.944-147.011-26.944-147.011s-10.094,31.146-6.113,72.888c0.422,0.314,0.85,0.627,1.285,0.924
					c0,0-0.455-0.158-1.241-0.473C722.09,334.545,727.223,356.787,738.146,379.201z"/>
			</g>
		</mask>
		<linearGradient id="SVGID_60_" gradientUnits="userSpaceOnUse" x1="704.4863" y1="418.9502" x2="760.5975" y2="253.0301">
			<stop  offset="0" style="stop-color:#272425"/>
			<stop  offset="1" style="stop-color:#272425"/>
		</linearGradient>
		<path opacity="0.6" fill="url(#SVGID_60_)" d="M738.146,379.201c4.58,3.32,9.567,6.391,15.019,9.148
			c-39.411-72.402-26.944-147.011-26.944-147.011s-10.094,31.146-6.113,72.888c0.422,0.314,0.85,0.627,1.285,0.924
			c0,0-0.455-0.158-1.241-0.473C722.09,334.545,727.223,356.787,738.146,379.201z"/>
		<defs>
			<filter id="Adobe_OpacityMaskFilter_4_" filterUnits="userSpaceOnUse" x="769.939" y="227.246" width="34.533" height="209.274">
				<feFlood  style="flood-color:white;flood-opacity:1" result="back"/>
				<feBlend  in="SourceGraphic" in2="back" mode="normal"/>
			</filter>
		</defs>
		<mask maskUnits="userSpaceOnUse" x="769.939" y="227.246" width="34.533" height="209.274" id="SVGID_61_">
			<g filter="url(#Adobe_OpacityMaskFilter_4_)">
				<defs>
					
						<filter id="Adobe_OpacityMaskFilter_5_" filterUnits="userSpaceOnUse" x="769.939" y="227.246" width="34.533" height="209.274">
						<feFlood  style="flood-color:white;flood-opacity:1" result="back"/>
						<feBlend  in="SourceGraphic" in2="back" mode="normal"/>
					</filter>
				</defs>
				<mask maskUnits="userSpaceOnUse" x="769.939" y="227.246" width="34.533" height="209.274" id="SVGID_61_">
					<g filter="url(#Adobe_OpacityMaskFilter_5_)">
					</g>
				</mask>
				<radialGradient id="SVGID_62_" cx="772.082" cy="341.2773" r="108.665" gradientUnits="userSpaceOnUse">
					<stop  offset="0" style="stop-color:#FFFFFF"/>
					<stop  offset="1" style="stop-color:#000000"/>
				</radialGradient>
				<path mask="url(#SVGID_61_)" fill="url(#SVGID_62_)" d="M777.574,314.115c4.08-29.904,13.382-59.059,26.898-84.308l-4.787-2.562
					c-37.866,70.737-42.092,170.961,1.951,209.274c-3.637-6.703-6.557-12.953-8.902-18.732
					C777.395,393.887,771.747,356.799,777.574,314.115z"/>
			</g>
		</mask>
		<radialGradient id="SVGID_63_" cx="772.082" cy="341.2773" r="108.665" gradientUnits="userSpaceOnUse">
			<stop  offset="0" style="stop-color:#F1F1F1"/>
			<stop  offset="1" style="stop-color:#F1F1F1"/>
		</radialGradient>
		<path fill="url(#SVGID_63_)" d="M777.574,314.115c4.08-29.904,13.382-59.059,26.898-84.308l-4.787-2.562
			c-37.866,70.737-42.092,170.961,1.951,209.274c-3.637-6.703-6.557-12.953-8.902-18.732
			C777.395,393.887,771.747,356.799,777.574,314.115z"/>
	</g>
</g>
</svg>
