<svg xmlns="http://www.w3.org/2000/svg" width="47" height="46" x="0" y="0" version="1.1" xml:space="preserve"><style>.stroke{fill:none;stroke-width:1.9;stroke-linecap:round;stroke-linejoin:round;stroke-miterlimit:10}</style><path class="fill stroke" stroke-linecap="round" stroke-linejoin="round" stroke-miterlimit="10" stroke-width="1.9" d="M45.9 33.3c.3-2.6-4-4.6-6.3-5.7-2.2-1.1-2-1.1-4.2 0-2.3 1.1-6.5 3.1-6.3 5.7a15 15 0 004.5 10 6 6 0 007.8 0c3.1-2.7 4.1-6.8 4.5-10z"/><path d="M9.3 29v.9c0 1.3 1 2.3 2.3 2.3s2.3-1 2.3-2.3V29" fill="none"/><path d="M9.3 29v.9c0 1.3 1 2.3 2.3 2.3 1.3 0 2.3-1 2.3-2.3V29" class="stroke"/><path d="M16.2 22.7c-.7 1.4-1.9 2.5-3.5 2.4-1.9-.1-4-.8-2.4-4" fill="none"/><path d="M16.2 22.7c-.7 1.4-1.9 2.5-3.5 2.4-1.9-.1-4-.8-2.4-4" class="stroke"/><path d="M24.3 11.4c-1.1 0-5.7-.1-8.5.1-.8.1-1.7.1-2.4.4-.3.2-.7.5-.8.9l-1.7 4-.4.9-.8 1.4-.4.5a6 6 0 004.9 9.2h10.2" class="stroke"/><path d="M10.6 17.3h13.7-13.7z" class="fill"/><path d="M10.6 17.3h13.7M18.5 26.3h8.2" class="stroke"/><path d="M10.3 17.9s-5.7.5-5.7-1.5c0-1.4 1.8-1.8 3-2 .6-.1 1 .4 1 .9 0 .6.5 1 1 1H11" fill="none"/><path d="M10.3 17.9s-5.7.5-5.7-1.5c0-1.4 1.8-1.8 3-2 .6-.1 1 .4 1 .9 0 .6.5 1 1 1H11" class="stroke"/><path d="M33.7 21.1c1.5 3.2-.6 4-2.4 4-1.5.1-2.8-1-3.5-2.4" fill="none"/><path d="M33.7 21.1c1.5 3.2-.6 4-2.4 4-1.5.1-2.8-1-3.5-2.4M9.5 19.5c-.6 1.1 1.2 1.7 1.6 1.8h.1l3.1.8c1.3.3 2.5.5 3.8.5h6.2M24.3 22.6h1.5c1.3 0 2.7-.2 4-.5l3.1-.9s2.3-.6 1.6-1.8" class="stroke"/><path d="M35.8 21.3l-1-1.4c-.6-.8-1.1-1.7-1.5-2.6l-.1-.3-1.7-4c-.2-.5-.5-.7-.8-.9-.7-.4-1.6-.4-2.4-.5-1.7-.2-2.9-.1-3.9-.1" class="stroke"/><path d="M24.3 17.3h9.1-9.1z" class="fill"/><path d="M24.3 17.3h9.1" class="stroke"/><path d="M33.1 16.4h1.3c.6 0 1-.5 1-1s.5-1 1-.9c1.2.1 3 .6 3 2 0 2-5.7 1.5-5.7 1.5" fill="none"/><path d="M33.1 16.4h1.3c.6 0 1-.5 1-1 0-.6.5-1 1-.9 1.2.1 3 .6 3 2 0 2-5.7 1.5-5.7 1.5" class="stroke"/><path d="M43.2 23v-.9a21.1 21.1 0 10-16.9 20.7M35 11a17 17 0 00-25.7 0" class="stroke"/><path d="M25.5 38.8c-1.1.2-2.2.3-3.4.3-3.6 0-6.8-1-9.5-2.9M24.5 37.2c1 .8 1.2 2.4.3 3.4M45 22.3c-1 1-2.5 1-3.5 0M33.9 35.5l3 2.7 4.3-5.2" class="stroke"/></svg>