<svg width="26" height="24" viewBox="0 0 26 24" fill="none" xmlns="http://www.w3.org/2000/svg">
<path d="M18 21V19C18 17.9391 17.5786 16.9217 16.8284 16.1716C16.0783 15.4214 15.0609 15 14 15H6C4.93913 15 3.92172 15.4214 3.17157 16.1716C2.42143 16.9217 2 17.9391 2 19V21" stroke="#F4C950" stroke-width="3" stroke-linecap="round" stroke-linejoin="round"/>
<path d="M10 11C12.2091 11 14 9.20914 14 7C14 4.79086 12.2091 3 10 3C7.79086 3 6 4.79086 6 7C6 9.20914 7.79086 11 10 11Z" stroke="#F4C950" stroke-width="3" stroke-linecap="round" stroke-linejoin="round"/>
<path d="M24 20.9999V18.9999C23.9993 18.1136 23.7044 17.2527 23.1614 16.5522C22.6184 15.8517 21.8581 15.3515 21 15.1299" stroke="#F4C950" stroke-width="3" stroke-linecap="round" stroke-linejoin="round"/>
<path d="M17 3.12988C17.8604 3.35018 18.623 3.85058 19.1676 4.55219C19.7122 5.2538 20.0078 6.11671 20.0078 7.00488C20.0078 7.89305 19.7122 8.75596 19.1676 9.45757C18.623 10.1592 17.8604 10.6596 17 10.8799" stroke="#F4C950" stroke-width="3" stroke-linecap="round" stroke-linejoin="round"/>
</svg>
