<?xml version="1.0" encoding="utf-8"?>
<!-- Generator: Adobe Illustrator 16.0.0, SVG Export Plug-In . SVG Version: 6.00 Build 0)  -->
<!DOCTYPE svg PUBLIC "-//W3C//DTD SVG 1.1//EN" "http://www.w3.org/Graphics/SVG/1.1/DTD/svg11.dtd">
<svg version="1.1" id="Background" xmlns="http://www.w3.org/2000/svg" xmlns:xlink="http://www.w3.org/1999/xlink" x="0px" y="0px"
	 width="450px" height="450px" viewBox="0 0 450 450" enable-background="new 0 0 450 450" xml:space="preserve">
<g>
	<g>
		<g>
			<polygon fill="#FFBD95" points="271.271,118.242 268,118.242 268.205,114.539 270.999,114.539 			"/>
			<path fill="#FFBD95" d="M271.576,145.243c0.853-1.121,2.326-0.729,2.844,0.185c0.521,0.912,0.624,2.777,0.521,4.042
				c-0.108,1.368-0.782,2.959-0.723,4.577c0.062,1.621,0.641,2.709,0.682,3.088s-0.44,0.756-0.985,0.838
				c-0.729,0.112-1.103-0.338-1.149-0.841c-0.083-0.797,0.141-1.768-0.136-3.083c-0.282-1.309-0.597-2.132-1.032-5.194
				C271.214,146.114,271.576,145.243,271.576,145.243z"/>
			<path fill="#FFBD95" d="M274.379,145.12c-0.035,0.576-0.477,1.059-0.977,1.147c-0.503,0.091-1.18,0.182-1.485-0.303
				c-0.797-1.277-1.762-7.957-1.762-7.957s-0.391-3.327,0.968-3.668c1.359-0.341,3.203-0.282,3.474,2.003
				C274.873,138.622,274.509,142.981,274.379,145.12z"/>
			<path fill="#FFBD95" d="M267.312,145.243c-0.859-1.124-2.33-0.729-2.848,0.185c-0.518,0.912-0.62,2.777-0.521,4.039
				c0.109,1.371,0.779,2.959,0.724,4.58c-0.064,1.618-0.645,2.709-0.686,3.085c-0.035,0.379,0.444,0.756,0.985,0.841
				c0.729,0.112,1.106-0.338,1.153-0.844c0.079-0.794-0.145-1.765,0.136-3.08c0.279-1.312,0.597-2.132,1.029-5.194
				C267.67,146.114,267.312,145.243,267.312,145.243z"/>
			<path fill="#FFBD95" d="M264.505,145.12c0.036,0.573,0.477,1.059,0.977,1.144c0.503,0.094,1.18,0.185,1.485-0.3
				c0.798-1.28,1.759-7.957,1.759-7.957s0.392-3.33-0.964-3.668c-1.359-0.341-3.2-0.282-3.477,2
				C264.008,138.622,264.376,142.981,264.505,145.12z"/>
			<path fill="#FFBD95" d="M273.835,117.93c1.427-0.694,1.782,0.297,2.6,3.265c0.824,2.971,1.774,6.059,0.409,6.371
				c-1.358,0.312-1.585-3.15-2.194-4.83C274.038,121.054,272.69,118.492,273.835,117.93z"/>
			<path fill="#FFBD95" d="M275.693,126.53c0.042,1.168,0.257,1.765,0.668,3.515c0.421,1.748,1.088,4.383,1.088,4.383l0.865-0.191
				c0,0,0.059-2.426,0-3.997c-0.067-1.697-0.241-3.056-0.756-3.821C276.7,125.148,275.693,126.53,275.693,126.53z"/>
			<path fill="#FFBD95" d="M265.044,118.209c-1.418-0.706-1.783,0.279-2.633,3.241c-0.847,2.962-1.829,6.042-0.468,6.368
				c1.359,0.324,1.618-3.135,2.241-4.812C264.814,121.33,266.185,118.783,265.044,118.209z"/>
			<path fill="#FF8626" d="M264.838,117.242c-0.947-0.292-2.727,2.888-2.727,2.888l3.103,1.994
				C265.214,122.124,266.02,117.606,264.838,117.242z"/>
			<polygon fill="#FFA47C" points="270.999,114.539 271.114,116.103 268.044,117.438 268.205,114.539 			"/>
			<path fill="#FF8626" d="M274.132,117.242c0.947-0.292,2.727,2.888,2.727,2.888l-3.103,1.994
				C273.756,122.124,272.949,117.606,274.132,117.242z"/>
			<path fill="#FF8626" d="M275.699,142.205h-12.971l2.324-24.766h2.991c0,0,0.797,0.803,1.588,0.803
				c0.862,0,1.579-0.803,1.579-0.803h2.677L275.699,142.205z"/>
			<path fill="#FFBD95" d="M273.855,110.977c0,2.577-2.371,4.665-3.977,4.665c-1.453,0-3.979-2.088-3.979-4.665
				c0-2.578,1.782-4.669,3.979-4.669S273.855,108.398,273.855,110.977z"/>
			<path fill="#8D3B26" d="M269.879,108.328c0,0,0.968,1.299,1.889,1.637c0.923,0.335,2.062,0.523,2.062,0.523
				s0.368-1.775-1.041-3.169c-1.409-1.397-2.909-1.012-2.909-1.012s-1.962-0.376-2.918,0.865c-1.477,1.927-1.038,3.316-1.038,3.316
				s1.544-0.235,2.397-0.862C268.899,109.205,269.879,108.328,269.879,108.328z"/>
			<path fill="#8D3B26" d="M273.085,109.251c0.358-0.653,0.841-1.088,1.75-1.085c1.38,0,2.067,1.784,1.57,3.487
				c-0.271,0.935-0.611,1.653-0.361,1.826c0.253,0.174-1.171,0.741-1.768-0.338c-0.595-1.082,0.067-2.009-0.104-2.724
				C274.003,109.706,273.085,109.251,273.085,109.251z"/>
			<path fill="#FF8626" d="M274.132,109.991c0.021,0.17-0.088,0.326-0.244,0.344l0,0c-0.155,0.015-0.3-0.106-0.32-0.28l-0.183-1.545
				c-0.021-0.17,0.092-0.327,0.244-0.344l0,0c0.159-0.018,0.301,0.106,0.318,0.276L274.132,109.991z"/>
			<path fill="#8D3B26" d="M266.531,109.251c-0.358-0.653-0.841-1.088-1.75-1.085c-1.379,0-2.07,1.784-1.57,3.487
				c0.273,0.935,0.612,1.653,0.359,1.826c-0.247,0.174,1.17,0.741,1.768-0.338c0.597-1.082-0.065-2.009,0.105-2.724
				C265.614,109.706,266.531,109.251,266.531,109.251z"/>
			<path fill="#FF8626" d="M265.484,109.991c-0.021,0.17,0.086,0.326,0.244,0.344l0,0c0.156,0.015,0.297-0.106,0.318-0.28
				l0.185-1.545c0.021-0.17-0.088-0.327-0.247-0.344l0,0c-0.152-0.018-0.297,0.106-0.317,0.276L265.484,109.991z"/>
			<path fill="#EA4C0F" d="M272.75,156.388c0,0-0.351,2.503,1.276,2.509c1.353,0,1.177-1.282,0.582-2.697
				c0,0,0.212,0.938-0.712,1.091C272.997,157.438,272.75,156.388,272.75,156.388z"/>
			<path fill="#EA4C0F" d="M266.126,156.199c0,0,0.332,2.745-1.294,2.75c-1.354,0.003-1.177-1.283-0.583-2.697
				c0,0-0.212,0.938,0.712,1.091C265.861,157.494,266.126,156.199,266.126,156.199z"/>
			<path fill="#FFBD95" d="M261.985,126.096c-0.526,0.049-0.889,0.472-1.39,1.06s-1.627,2.693-1.627,2.693l0.549,0.864
				c0,0,0.893-0.664,1.441-1.118c0.591-0.491,1.743-2.041,1.859-2.376C263.01,126.663,262.334,126.064,261.985,126.096z"/>
			<polygon fill="#FF6E26" points="265.715,117.438 266.531,141.282 275.699,142.205 262.729,142.205 265.053,117.438 			"/>
			<g>
				<path fill="#FFA47C" d="M278.056,135.383c0,0-0.123,0.504-0.194,0.614s-0.205,0.239-0.298,0.337
					c-0.093,0.097-0.145,0.303-0.121,0.337c0.065,0.098,0.228-0.019,0.302-0.1c0.074-0.081,0.249-0.264,0.328-0.399
					c0.078-0.135,0.286-0.456,0.297-0.572S278.056,135.383,278.056,135.383z"/>
				<path fill="#FFA47C" d="M278.132,135.24c0,0-0.246,0.415-0.339,0.494s-0.176,0.065-0.319,0.109
					c-0.119,0.037-0.269,0.129-0.28,0.239c-0.012,0.109,0.178,0.073,0.279,0.058c0.13-0.019,0.354-0.094,0.461-0.193
					c0.105-0.099,0.378-0.329,0.419-0.429S278.132,135.24,278.132,135.24z"/>
				<path fill="#FFA47C" d="M278.136,135.166c0,0-0.265,0.308-0.354,0.359c-0.089,0.052-0.155,0.028-0.281,0.042
					c-0.105,0.013-0.242,0.066-0.268,0.156c-0.025,0.089,0.137,0.088,0.224,0.09c0.11,0.004,0.309-0.024,0.411-0.09
					c0.103-0.066,0.362-0.215,0.41-0.293C278.327,135.353,278.136,135.166,278.136,135.166z"/>
				<path fill="#FFBD95" d="M276.763,135.923c0.024,0.07,0.205,0.031,0.332-0.059c0.138-0.097,0.251-0.386,0.27-0.55
					c0.018-0.158,0.109-0.377,0.226-0.36s0.448,0.321,0.471,0.461c0.035,0.227,0.121,0.535,0.074,0.68s-0.237,0.384-0.32,0.495
					s-0.201,0.256-0.214,0.366c-0.012,0.109,0.038,0.141,0.087,0.173c0.05,0.032,0.147-0.173,0.313-0.301
					c0.164-0.127,0.492-0.489,0.514-0.522s0.124-0.68,0.146-0.877c0.021-0.196-0.328-1.149-0.296-1.221
					c0.033-0.072-0.136-1.542-0.136-1.542l-1.253-0.26c0,0,0.418,1.255,0.368,1.422c-0.049,0.167-0.169,0.355-0.261,0.531
					c-0.157,0.3-0.12,0.743-0.129,0.91C276.939,135.56,276.724,135.815,276.763,135.923z"/>
			</g>
		</g>
		<g>
			<path fill="#191919" d="M252.947,156.237c0,0,1.062,1.491,0.991,1.9c-0.04,0.232-0.192,1.209-0.926,1.208
				c-0.773-0.002-1.59-0.559-1.774-0.629c-0.578-0.22-0.468-2.542-0.468-2.542l0.37-0.465L252.947,156.237z"/>
			<path fill="#191919" d="M246.124,156.237c0,0-1.063,1.491-0.991,1.9c0.04,0.232,0.192,1.209,0.926,1.208
				c0.773-0.002,1.59-0.559,1.773-0.629c0.579-0.22,0.469-2.542,0.469-2.542l-0.371-0.465L246.124,156.237z"/>
			<path fill="#FFBD95" d="M246.678,123.997c-2.188-0.007-3.039,1.52-2.979,6.201c0.061,4.682,0.759,9.758,1.063,10.487
				c0.305,0.73,3.406,0.745,3.71,0.319c0.304-0.425,1.063-10.138,1.063-11.658S249.063,124.004,246.678,123.997z"/>
			<path fill="#FFBD95" d="M246.843,144.431l-0.577-0.014c-0.869-0.021-1.563-0.75-1.542-1.619l0.047-1.945
				c0.021-0.869,0.749-1.563,1.618-1.542l0.577,0.014c0.869,0.021,1.563,0.749,1.542,1.618l-0.047,1.945
				C248.44,143.757,247.712,144.452,246.843,144.431z"/>
			<path fill="#FFBD95" d="M246.526,141.565c-0.669,0-2.311,0.221-2.22,4.585c0.092,4.365,1.946,10.342,1.946,10.342h1.58
				c0,0,0.771-8.08,0.775-9.63C248.617,143.336,248.639,141.565,246.526,141.565z"/>
			<path fill="#FFBD95" d="M242.502,107.737c-1.051-0.063-1.961,1.19-2.039,3.295c-0.079,2.104,0.082,3.549,0.075,4.097
				c-0.008,0.565-0.28,3.836-0.222,4.721c0.058,0.885,0.561,1.691,1.396,1.727c0.698,0.03,1.599-1.272,1.929-2.76
				C243.97,117.329,245.325,107.908,242.502,107.737z"/>
			<path fill="#FFBD95" d="M241.855,118.188c-0.855-0.038-1.589,0.413-1.864,2.975c-0.276,2.562-0.197,8.571-0.197,8.571
				l1.385,0.061c0,0,1.652-4.968,1.859-6.353C243.245,122.057,244.097,118.287,241.855,118.188z"/>
			<path fill="#FFBD95" d="M252.393,123.997c2.189-0.007,3.04,1.52,2.979,6.201c-0.061,4.682-0.759,9.758-1.063,10.487
				c-0.305,0.73-3.406,0.745-3.71,0.319c-0.304-0.425-1.064-10.138-1.064-11.658S250.009,124.004,252.393,123.997z"/>
			<path fill="#FFBD95" d="M254.515,106.646c1.024-0.255,2.129,0.822,2.558,2.895c0.429,2.072,0.511,3.534,0.609,4.076
				c0.103,0.559,0.916,3.752,1.007,4.641s-0.27,1.779-1.085,1.967c-0.683,0.157-1.786-0.97-2.359-2.385
				C254.672,116.425,251.766,107.331,254.515,106.646z"/>
			<path fill="#FFBD95" d="M257.125,117.507c0.85-0.12,1.607,0.269,2.046,2.848s0.746,8.698,0.746,8.698l-1.374,0.194
				c0,0-1.962-4.895-2.257-6.284C255.991,121.574,254.903,117.821,257.125,117.507z"/>
			<path fill="#88BD4F" d="M254.971,106.219c-1.847-1.117-5.436-1.344-5.436-1.344v0.091c0,0-3.992,0.19-5.839,1.307
				c-1.417,0.857,0.176,13.639,0.419,16.587c0.085,1.034-0.257,2.868-0.163,4.153c0.028,0.384,4.367,2.758,5.583,2.819v-0.091
				c1.217-0.061,5.556-2.435,5.584-2.818c0.094-1.285-0.455-4.394-0.477-5.07C254.557,119.113,256.388,107.076,254.971,106.219z"/>
			<path fill="#FFBD95" d="M252.228,144.431l0.578-0.014c0.869-0.021,1.563-0.75,1.542-1.619l-0.047-1.945
				c-0.021-0.869-0.749-1.563-1.618-1.542l-0.577,0.014c-0.869,0.021-1.563,0.749-1.542,1.618l0.046,1.945
				C250.631,143.757,251.358,144.452,252.228,144.431z"/>
			<path fill="#FFBD95" d="M252.545,141.565c0.669,0,2.311,0.221,2.219,4.585c-0.091,4.365-1.945,10.342-1.945,10.342h-1.58
				c0,0-0.771-8.08-0.775-9.63C250.454,143.336,250.433,141.565,252.545,141.565z"/>
			<path fill="#FFBD95" d="M251.755,104.116c-0.122-0.547-0.426-3.253-0.426-3.253h-1.794h-1.793c0,0-0.304,2.706-0.426,3.253
				c-0.121,0.547-1.139,1.373-1.139,1.373s1.13,1.654,3.357,1.654c1.878,0,3.173-1.654,3.173-1.654S251.876,104.663,251.755,104.116
				z"/>
			<path fill="#FFA47C" d="M251.602,103.112c-0.077-0.585-0.158-1.263-0.212-1.725l-1.639-0.524h-0.216h-1.793
				c0,0-0.304,2.706-0.426,3.253c-0.121,0.547-1.139,1.373-1.139,1.373l5.425-2.368L251.602,103.112z"/>
			<path fill="#FFBD95" d="M253.779,97.386c0,3.038-2.295,6.063-4.244,6.063c-1.861,0-4.244-3.025-4.244-6.063s1.9-5.5,4.244-5.5
				C251.88,91.886,253.779,94.349,253.779,97.386z"/>
			<polygon fill="#FFA47C" points="248.693,139.821 244.762,140.685 244.304,138.994 248.609,138.994 			"/>
			<polygon fill="#FFA47C" points="254.479,139.683 250.548,140.547 250.339,138.719 254.701,138.719 			"/>
			<path fill="#002D56" d="M244.142,123.384c0,0-1.123,5.948-1.123,7.824c0,1.875,0.738,8.378,0.738,8.378h5.434l0.406-7.66
				l0.476,7.66h5.363c0,0,0.969-6.971,0.478-10.084c-0.273-1.734-1.085-6.117-1.085-6.117H244.142z"/>
			<path fill="#88BD4F" d="M243.696,106.274c0,0-1.675,0.028-2.227,1.24c-0.551,1.212-1.763,5.731-1.763,5.731l3.664,1.581
				l0.789-1.373L243.696,106.274z"/>
			<path fill="#88BD4F" d="M254.447,106.017c0,0,1.675,0.028,2.226,1.24c0.552,1.212,2.403,5.575,2.403,5.575l-3.701,1.309
				l-0.928-1.373V106.017z"/>
			<path fill="#74A940" d="M251.909,123.384c0,0-3.555-0.192-4.257-0.522c-0.703-0.331-3.224-7.108-3.492-7.48
				c-0.27-0.372-0.931-3.844-0.931-3.844l-0.698,2.926l0.829,0.358c0.259,3.35,0.645,6.704,0.755,8.04
				c0.013,0.15,0.001,0.345-0.002,0.523H251.909z"/>
			<path fill="#00233F" d="M246.825,123.384h-2.684c0,0-1.123,5.948-1.123,7.824c0,1.875,0.738,8.377,0.738,8.377h1.362
				c0,0-0.773-8.789-0.815-9.491C244.261,129.392,246.825,123.384,246.825,123.384z"/>
			<path fill="#00233F" d="M249.597,131.926l-0.062-2.579c0,0,1.217,2.068,1.327,3.295c0.109,1.227,0.661,6.943,0.661,6.943
				l-1.451,0L249.597,131.926z"/>
			<path fill="#8D3B26" d="M245.291,97.995c-0.188-0.331-0.821-1.736-0.684-2.37c0.138-0.633,0.882-2.011,1.13-2.424
				c0.248-0.414,2.452-1.516,2.782-1.543c0.331-0.028,1.213-0.11,1.901,0c0.688,0.11,1.901,0.579,2.177,1.129
				c0.275,0.551,0.959,1.185,1.182,1.626c0.224,0.44,0.609,1.57,0.555,1.736c-0.056,0.165-0.358,1.543-0.387,1.653
				c-0.027,0.11-0.226,0.424-0.226,0.424s-0.986-1.498-1.014-1.774c-0.027-0.275-5.813-0.358-6.172-0.165
				S245.291,97.995,245.291,97.995z"/>
			<path fill="#303030" d="M247.828,156.879c-0.169,0.641-0.908,0.969-1.214,0.921c-0.513-0.079-0.771-0.759-0.603-1.4
				s0.713-1.054,1.214-0.921C247.728,155.611,247.997,156.238,247.828,156.879z"/>
			<path fill="#303030" d="M251.243,156.879c0.169,0.641,0.908,0.969,1.214,0.921c0.513-0.079,0.771-0.759,0.603-1.4
				s-0.713-1.054-1.215-0.921C251.344,155.611,251.074,156.238,251.243,156.879z"/>
			<g>
				<path fill="#FFA47C" d="M240.321,131.881c0,0,0.223,0.76,0.339,0.923c0.116,0.164,0.33,0.351,0.479,0.493
					s0.241,0.453,0.209,0.506c-0.094,0.154-0.349-0.013-0.468-0.132s-0.399-0.386-0.529-0.586c-0.129-0.2-0.469-0.675-0.493-0.852
					C239.834,132.057,240.321,131.881,240.321,131.881z"/>
				<path fill="#FFA47C" d="M240.194,131.667c0,0,0.404,0.616,0.552,0.73s0.273,0.087,0.495,0.145
					c0.185,0.048,0.419,0.178,0.444,0.345c0.025,0.166-0.266,0.124-0.422,0.107c-0.2-0.02-0.548-0.119-0.717-0.262
					c-0.169-0.143-0.601-0.475-0.669-0.625C239.808,131.956,240.194,131.667,240.194,131.667z"/>
				<path fill="#FFA47C" d="M240.183,131.556c0,0,0.427,0.45,0.565,0.522c0.139,0.073,0.239,0.031,0.433,0.045
					c0.161,0.012,0.373,0.084,0.419,0.219c0.045,0.134-0.203,0.143-0.335,0.153c-0.169,0.014-0.472-0.016-0.634-0.108
					c-0.161-0.094-0.567-0.303-0.646-0.418C239.904,131.854,240.183,131.556,240.183,131.556z"/>
				<path fill="#FFBD95" d="M242.332,132.615c-0.033,0.108-0.312,0.063-0.512-0.066c-0.216-0.139-0.409-0.571-0.449-0.821
					c-0.038-0.239-0.193-0.567-0.369-0.534s-0.662,0.522-0.686,0.736c-0.039,0.349-0.147,0.825-0.065,1.044
					c0.081,0.218,0.389,0.569,0.523,0.732c0.134,0.163,0.324,0.377,0.351,0.543c0.026,0.166-0.047,0.218-0.12,0.271
					c-0.074,0.052-0.237-0.254-0.498-0.438c-0.26-0.183-0.785-0.711-0.82-0.76s-0.237-1.029-0.284-1.328
					c-0.048-0.298,0.42-1.776,0.365-1.884c-0.056-0.108,0.1-2.363,0.1-2.363l1.894-0.484c0,0-0.55,1.945-0.463,2.196
					c0.087,0.251,0.283,0.531,0.436,0.792c0.261,0.446,0.235,1.125,0.26,1.379C242.036,132.072,242.384,132.447,242.332,132.615z"/>
			</g>
			<g>
				<path fill="#FFBD95" d="M260.148,131.618L260.148,131.618c-0.137,0.035-0.274-0.058-0.307-0.205l-0.253-1.148
					c-0.032-0.148,0.053-0.298,0.19-0.333h0.001c0.136-0.035,0.274,0.058,0.307,0.205l0.252,1.148
					C260.372,131.434,260.286,131.583,260.148,131.618z"/>
				<path fill="#FFBD95" d="M259.694,131.785L259.694,131.785c-0.138,0.035-0.275-0.058-0.308-0.205l-0.253-1.148
					c-0.032-0.148,0.054-0.298,0.19-0.333l0.002,0c0.136-0.034,0.273,0.058,0.306,0.205l0.253,1.148
					C259.917,131.601,259.832,131.75,259.694,131.785z"/>
				<path fill="#FFBD95" d="M259.243,131.918L259.243,131.918c-0.138,0.035-0.275-0.057-0.308-0.205l-0.253-1.148
					c-0.032-0.148,0.054-0.298,0.19-0.333h0.001c0.137-0.035,0.274,0.058,0.307,0.205l0.253,1.148
					C259.466,131.734,259.381,131.884,259.243,131.918z"/>
				<path fill="#FFBD95" d="M258.797,132.003h-0.002c-0.136,0.035-0.273-0.058-0.306-0.205l-0.253-1.148
					c-0.032-0.148,0.053-0.298,0.19-0.333h0.001c0.137-0.035,0.274,0.058,0.307,0.205l0.252,1.148
					C259.02,131.818,258.934,131.968,258.797,132.003z"/>
				<path fill="#FFBD95" d="M258.199,128.415c0,0-0.303,1.376-0.264,1.755c0.038,0.378,0.605,1.737,0.605,1.737
					s0.351-0.554,0.665-0.586c0.314-0.032,1.134-0.034,1.134-0.034s0.032-1.294-0.13-1.871c-0.161-0.576-0.443-1.104-0.443-1.104
					L258.199,128.415z"/>
			</g>
		</g>
	</g>
	<g>
		<rect x="173.597" y="152.728" fill="#191919" width="0.91" height="0.38"/>
		<rect x="176.434" y="152.728" fill="#191919" width="0.91" height="0.38"/>
		<path fill="#191919" d="M173.044,132.005l1.822-1.127c0.29-0.18,0.625-0.275,0.965-0.275h2.451c0.446,0,0.807,0.361,0.807,0.807
			v19.278c0,0.275-0.099,0.542-0.278,0.75l-0.869,1.014L173.044,132.005z"/>
		<path fill="#FFBD95" d="M233.908,97.222l-0.837,0.098c-1.013,0.119-3.003-0.432-3.122-1.445l1.064-0.18
			c-0.119-1.013,0.291-1.87,1.305-1.989l1.157-0.167c1.851-1.095,1.938,0.612,2.058,1.625l0,0
			C235.651,96.177,234.921,97.103,233.908,97.222z"/>
		<rect x="186.291" y="83.055" fill="#B8D1FF" width="8.777" height="3.059"/>
		<path fill="#FFBD95" d="M199.462,102.234c1.581-4.832,5.665-13.115,3.283-14.561c-3.105-1.885-12.043-3.052-12.043-3.052l0,0.153
			c0,0-9.018,0.741-12.128,2.617c-2.387,1.439,1.75,10.133,3.315,14.97c0.376,1.161,0.327,6.362,0.176,10.974
			c-0.038,1.138-0.969,6.368-0.815,8.531c0.046,0.646,7.343,4.652,9.39,4.758l0-0.153c2.046-0.099,9.356-4.084,9.404-4.729
			c0.161-2.163-0.755-7.396-0.789-8.534C199.117,108.596,199.083,103.394,199.462,102.234z"/>
		<path fill="#FFBD95" d="M179.165,88.799c-1.8-0.322-3.614,1.5-4.159,4.862c-0.545,3.362-0.549,5.714-0.668,6.592
			c-0.124,0.906-1.23,6.1-1.303,7.532c-0.072,1.433,0.701,3.348,2.134,3.581c1.199,0.194,2.941-2.225,3.799-4.544
			C179.827,104.503,183.999,89.665,179.165,88.799z"/>
		<path fill="#FFBD95" d="M214.082,97.193c-0.025-1.487,0.743-2.725,4.947-3.014s12.368,0.388,12.368,0.388l0.041,2.405
			c0,0-6.535,2.402-8.811,2.659S214.147,101.086,214.082,97.193z"/>
		<path fill="#FFBD95" d="M198.789,88.827c0.822-1.634,3.367-1.992,6.385-0.413c3.018,1.58,4.902,2.988,5.676,3.418
			c0.799,0.445,5.619,2.673,6.808,3.475c1.19,0.802,1.884,2.208,1.21,3.495c-0.563,1.076-3.168,1.38-5.54,0.676
			C210.958,98.774,196.582,93.214,198.789,88.827z"/>
		<path fill="#CEE0FF" d="M201.789,87.375c0.933-0.536,2.646,0.107,4.424,1.124c1.778,1.017,9.216,5.246,9.216,5.246
			s0.305,0.347-0.047,2.886c-0.329,2.368-1.02,3.599-1.02,3.599s-11.137-3.045-12.723-4.801
			C201.166,94.906,199.201,88.862,201.789,87.375z"/>
		<path fill="#CEE0FF" d="M178.11,87.271c0,0-2.165,0.856-2.982,2.596s-2.67,16.668-2.67,16.668s6.558,0.288,6.881,0.307
			s3.155-9.571,3.155-9.571S180.942,87.914,178.11,87.271z"/>
		<path fill="#FFBD95" d="M194.439,83.195c-0.203-0.921-0.708-5.476-0.708-5.476l-3.019-0.004v0.154l-3.019-0.005
			c0,0-0.519,4.553-0.725,5.473c-0.206,0.921-2.692,2.307-2.692,2.307l6.423,0.01V85.5l6.424,0.009
			C197.125,85.51,194.642,84.117,194.439,83.195z"/>
		<path fill="#FFA47C" d="M194.237,81.91c-0.189-1.395-0.416-3.381-0.485-3.999l-0.194-0.192l-2.846-0.004v0.154l-3.019-0.005
			c0,0-0.519,4.553-0.725,5.473c-0.206,0.921-2.692,2.307-2.692,2.307l0.303,0c2.868-0.76,5.719-1.518,6.104-1.627
			C191.486,83.789,194.237,81.91,194.237,81.91L194.237,81.91z"/>
		<path fill="#FFBD95" d="M185.845,116.795c-3.684-0.017-5.12,2.551-5.029,10.43c0.09,7.879,1.252,16.424,1.762,17.652
			c0.51,1.229,5.73,1.263,6.242,0.547c0.513-0.716,1.816-17.06,1.82-19.618S189.857,116.813,185.845,116.795z"/>
		<path fill="#FFBD95" d="M186.071,151.186l-0.972-0.025c-1.463-0.037-2.629-1.265-2.592-2.728l0.084-3.273
			c0.037-1.463,1.265-2.629,2.727-2.592l0.972,0.025c1.463,0.037,2.629,1.265,2.592,2.728l-0.083,3.273
			C188.761,150.057,187.534,151.223,186.071,151.186z"/>
		<path fill="#FFBD95" d="M185.545,146.363c-1.125-0.002-3.889,0.367-3.746,7.712c0.143,7.346,3.248,17.41,3.248,17.41l2.66,0.004
			c0,0,1.319-13.597,1.329-16.206C189.059,149.349,189.101,146.368,185.545,146.363z"/>
		<path fill="#FFBD95" d="M195.563,116.861c3.662-0.396,5.355,2.01,6.076,9.856c0.721,7.847,0.445,16.466,0.064,17.741
			c-0.38,1.274-5.569,1.845-6.153,1.187c-0.583-0.659-3.563-16.782-3.83-19.326C191.453,123.774,191.573,117.292,195.563,116.861z"
			/>
		<path fill="#FFBD95" d="M198.868,151.093l0.977-0.126c1.449-0.188,2.481-1.533,2.292-2.989l-0.418-3.235
			c-0.188-1.453-1.524-2.488-2.971-2.301l-0.976,0.126c-1.45,0.188-2.481,1.533-2.293,2.989l0.418,3.235
			C196.085,150.245,197.422,151.28,198.868,151.093z"/>
		<path fill="#FFBD95" d="M198.905,146.24c1.119-0.117,3.906-0.035,4.52,7.286c0.614,7.321-1.438,17.652-1.438,17.652l-2.646,0.278
			c0,0-2.711-13.389-2.99-15.982C195.716,149.572,195.368,146.612,198.905,146.24z"/>
		<path fill="#191919" d="M181.851,115.21c0,0-1.334,6.488-1.544,10.018s1.494,18.962,1.498,20.661
			c0.004,1.699-0.119,6.917-0.018,12.033c0.101,5.116,1.406,15.189,1.406,15.189l6.549-0.153c0,0,0.042-21.629,0.047-25.029
			c0.005-3.399,0.851-21.305,0.851-21.305l0.017-11.127L181.851,115.21z"/>
		<path fill="#CEE0FF" d="M203.525,87.769c-0.405-0.674-2.579-1.231-4.582-1.855c-1.766-0.55-3.347-1.246-3.347-1.246l-4.908,2.801
			l-4.9-2.816c0,0-1.583,0.691-3.35,1.236c-2.005,0.618-4.244,1.135-4.588,1.841c-0.349,0.717,3.224,14.492,3.625,15.664
			c0.402,1.172-0.643,9.365,0.375,11.817l8.786,0.287v0.001l0.017,0h0.002l0,0l8.787-0.26c0.807-2.809-0.005-10.799,0.399-11.97
			C200.248,102.097,204.202,88.894,203.525,87.769z"/>
		<path fill="#191919" d="M199.369,115.029c0,0,1.995,6.316,2.567,9.806c0.572,3.489,0.465,19.015,0.637,20.705
			c0.171,1.69,0.83,6.868,1.256,11.967c0.426,5.1,0.146,15.255,0.146,15.255l-6.53,0.522c0,0-2.249-21.512-2.604-24.893
			c-0.355-3.381-4.229-21.207-4.229-21.207l0.042-11.687L199.369,115.029z"/>
		<path fill="#191919" d="M183.88,173.096c0,0-2.239,2.614-2.121,3.305c0.067,0.392,1.01,1.817,2.725,1.922
			c1.304,0.08,3.431-1.108,3.762-1.143c0.767-0.079,0.765-4.205,0.765-4.205L183.88,173.096z"/>
		<path fill="#191919" d="M203.06,172.841c0,0,2.496,2.37,2.45,3.069c-0.026,0.397-0.818,1.911-2.513,2.193
			c-1.289,0.214-3.526-0.75-3.859-0.75c-0.771,0.001-1.194-4.104-1.194-4.104L203.06,172.841z"/>
		<path fill="#B8D1FF" d="M192.092,114.324c-0.844-0.529-2.111-1.059-2.879-1.536c-0.768-0.476-0.02-2.112-0.028-2.957
			s2.336-2.425,3.921-3.004s4.331-0.363,4.966-1.471s-1.053-2.167-1.792-2.168c-0.739-0.001-5.49-1.381-6.229-1.276
			s-6.337,0.677-7.234-0.011c-0.896-0.688-5.341-13.61-5.341-13.61c0.996,4.34,3.744,14.357,4,15.102
			c0.402,1.172-0.643,9.365,0.375,11.817l8.786,0.287v0.001l0.017,0h0.002l0,0l8.787-0.26c0,0-1.913-0.271-2.705-0.512
			C195.946,114.484,192.936,114.854,192.092,114.324z"/>
		<path fill="#303030" d="M198.603,128.257c0.369,2.313,0.787,17.854,0.849,18.736c0.061,0.861,2.272,24.833,2.375,25.94
			l2.149-0.172c0,0,0.281-10.156-0.146-15.255c-0.426-5.099-1.085-10.277-1.256-11.967c-0.172-1.69-0.065-17.216-0.637-20.706
			c-0.572-3.489-2.567-9.805-2.567-9.805l-5.19,0.364C194.179,115.393,198.234,125.945,198.603,128.257z"/>
		<path fill="#303030" d="M189.615,122.322c-1.214-2.142-4.463-1.42-4.675,1.033c-0.218,2.521-0.271,4.265-0.051,5.427
			c0.554,2.922,1.347,17.207,1.241,17.581c-0.106,0.375-0.032,26.608-0.032,26.608l0.116,0.07l3.528-0.083
			c0,0,0.042-21.629,0.047-25.029c0.005-3.399,0.851-21.305,0.851-21.305l0.001-0.972l0.068-1.402L189.615,122.322z"/>
		<polygon fill="#B8D1FF" points="190.297,85.948 190.688,87.599 187.734,86.484 189.438,85.681 		"/>
		<polygon fill="#B8D1FF" points="191.039,85.959 190.663,87.599 193.617,86.484 191.913,85.681 		"/>
		<polygon fill="#3B1B1D" points="181.729,115.21 190.656,115.498 199.515,114.951 199.951,116.942 190.641,117.609 
			181.401,117.216 		"/>
		<path fill="#722C1D" d="M191.436,117.609h-1.667c-0.622,0-1.131-0.509-1.131-1.131v-0.005c0-0.622,0.509-1.131,1.131-1.131h1.667
			c0.622,0,1.131,0.509,1.131,1.131v0.005C192.566,117.101,192.058,117.609,191.436,117.609z"/>
		<polygon fill="#191919" points="189.257,86.389 192.14,86.389 191.339,88.894 190.185,88.894 		"/>
		<polygon fill="#191919" points="190.185,88.894 188.638,113.991 190.701,116.237 192.566,113.893 191.339,88.894 		"/>
		<polygon fill="#303030" points="191.339,88.894 192.566,113.893 190.701,116.237 190.709,88.671 		"/>
		<polygon fill="#F2FFFF" points="184.58,85.066 186.291,83.055 190.297,85.948 188.851,88.671 		"/>
		<polygon fill="#F2FFFF" points="196.771,85.066 195.06,83.055 191.039,85.959 192.5,88.671 		"/>
		<path fill="#FFBD95" d="M175.384,107.688c-1.487,0.01-2.707,0.798-2.897,4.961s0.618,13.867,0.618,13.867l2.406-0.017
			c0,0,2.307-8.165,2.511-10.42S179.277,107.662,175.384,107.688z"/>
		<path fill="#FFBD95" d="M175.537,124.243c0,0,1.921,3.02,2.109,3.692s-0.216,2.223-0.216,2.223s-0.878,0.223-1.479,0.401
			c-0.6,0.178-2.25-0.126-2.25-0.126s-0.653-0.999-0.75-2.098c-0.097-1.1,0.084-2.704,0.084-2.704L175.537,124.243z"/>
		<path fill="#191919" d="M176.573,129.823h-1.319c-0.369,0-0.671-0.302-0.671-0.671v-0.003c0-0.369,0.302-0.671,0.671-0.671h1.319
			c0.369,0,0.671,0.302,0.671,0.671v0.003C177.245,129.521,176.942,129.823,176.573,129.823z"/>
		<rect x="175.256" y="129.823" fill="#191919" width="1.19" height="2.381"/>
		<path fill="#303030" d="M177.243,152.741h-3.503c-0.55,0-1.001-0.451-1.001-1.001v-19.018c0-0.551,0.451-1.001,1.001-1.001h3.503
			c0.55,0,1.001,0.45,1.001,1.001v19.018C178.244,152.291,177.793,152.741,177.243,152.741z"/>
		<path fill="#FFBD95" d="M195.94,73.851c-0.006,3.807-2.888,7.594-5.33,7.59c-2.333-0.004-5.313-3.799-5.307-7.606
			c0.005-3.807,2.391-6.889,5.329-6.884C193.569,66.956,195.946,70.045,195.94,73.851z"/>
		<path fill="#8D3B26" d="M185.302,74.599c-0.235-0.415-1.026-2.177-0.853-2.971s1.108-2.519,1.42-3.036
			c0.312-0.518,3.076-1.895,3.49-1.929c0.415-0.034,1.52-0.136,2.382,0.004c0.863,0.139,2.381,0.729,2.726,1.419
			c0.344,0.691,1.199,1.487,1.478,2.04s0.76,1.969,0.691,2.176s-0.452,1.933-0.487,2.071s-0.284,0.53-0.284,0.53
			s-1.429-3.637-1.463-3.983c-0.034-0.345-7.285-0.459-7.734-0.219C186.22,70.943,185.302,74.599,185.302,74.599z"/>
		<g>
			<rect x="233.981" y="63.546" width="0.932" height="37.173"/>
			<path fill="#303030" d="M237.527,101.185v0.505c0,0,0.026,0.563-0.284,0.893c-0.256,0.271-0.677,0.233-0.677,0.233
				c-0.642,0-1.161-0.52-1.161-1.162v-3.051c0-0.161-0.131-0.292-0.292-0.292h-1.333c-0.16,0-0.291,0.13-0.291,0.292v3.323
				c0,1.549,1.256,2.806,2.806,2.806h0.343c1.55,0,2.806-1.256,2.806-2.806v-0.741c0-0.529-0.429-0.958-0.958-0.958l0,0
				C237.956,100.228,237.527,100.656,237.527,101.185z"/>
			<path d="M234.447,62.977L234.447,62.977c-0.257,0-0.466-0.21-0.466-0.466v-4.194c0-0.256,0.209-0.466,0.466-0.466l0,0
				c0.256,0,0.466,0.209,0.466,0.466v4.194C234.913,62.767,234.703,62.977,234.447,62.977z"/>
			<path fill="#1773A4" d="M234.447,61.269c-16.083,0-26.617,10.251-29.122,16.813l2.146-0.793c2.873-1.063,6.033-1.056,8.902,0.017
				l2.076,0.776l4.566-1.341c2.439-0.716,5.037-0.688,7.46,0.081l3.973,1.26l3.561-1.166c2.531-0.829,5.259-0.845,7.801-0.046
				l3.857,1.212l3.108-1.027c2.763-0.914,5.756-0.856,8.482,0.163l2.313,0.864C261.395,70.168,250.53,61.269,234.447,61.269z"/>
			<path fill="#60A6FE" d="M234.447,61.269c-16.083,0-26.617,10.251-29.122,16.813l2.146-0.793c2.873-1.063,6.033-1.056,8.902,0.017
				l2.076,0.776l4.566-1.341c2.439-0.716,5.037-0.688,7.46,0.081l3.973,1.26l3.561-1.166c2.531-0.829,5.259-0.845,7.801-0.046
				l3.857,1.212l3.108-1.027c2.763-0.914,5.756-0.856,8.482,0.163l2.313,0.864C261.395,70.168,250.53,61.269,234.447,61.269z"/>
			<path fill="#8BC3FF" d="M214.266,76.721c3.618-6.277,10.42-13.07,19.732-15.435c-15.826,0.192-26.192,10.296-28.673,16.795
				l2.146-0.793C209.655,76.481,212.004,76.294,214.266,76.721z"/>
		</g>
		<path fill="#FFBD95" d="M235.297,96.35c0,0,0.349-0.728,0.557-1.738c0.022-0.107,0.117-0.259,0.14-0.366
			c0.018-0.087-0.007-0.259,0.011-0.344c0.016-0.079,0.075-0.14,0.09-0.216c0.021-0.102-0.048-0.252-0.029-0.349
			c0.016-0.083,0.084-0.236,0.105-0.311c0.084-0.299-0.125-0.344-0.108-0.438c0.052-0.293,0.062-0.38,0.055-0.435
			c-0.033-0.271-0.824-1.187-0.991-1.29c-0.167-0.103-0.972-0.902-1.07-0.837c-0.098,0.065-0.224,0.488,0.158,0.975
			s0.814,1.101,0.703,1.022c-0.112-0.08-0.838-0.356-1.15-0.408c-0.202-0.034-0.28,0.173-0.276,0.344
			c0.003,0.1,0.42,0.498,0.42,0.498s-0.382,0.163-0.386,0.25c-0.015,0.304,0.384,0.5,0.492,0.605
			c0.09,0.087-0.389,0.108-0.381,0.242c0.029,0.494,1.212,0.749,1.025,1.211C234.567,94.997,234.637,96.066,235.297,96.35z"/>
	</g>
	<path fill="#CCCCCC" d="M279.899,145.629c-0.181-4.024-3.351-7.253-7.371-7.493c-5.552-0.332-13.52-0.986-20.411-2.239
		c-8.96-1.629-19.844-5.887-24.82-7.956c-1.745-0.726-3.694-0.726-5.439,0c-4.977,2.069-15.86,6.326-24.82,7.956
		c-6.891,1.253-14.859,1.908-20.411,2.239c-4.021,0.24-7.19,3.469-7.371,7.493c-0.675,15.03-1.054,50.096,8.452,70.504
		c15.167,32.563,37.658,42.271,44.688,44.594c1.416,0.468,2.946,0.468,4.362,0c7.031-2.322,29.521-12.03,44.688-44.594
		C280.952,195.725,280.574,160.659,279.899,145.629z"/>
	<path fill="#8BC3FF" d="M224.576,263.004c-0.948,0-1.885-0.15-2.784-0.447c-6.816-2.251-30.266-12.192-45.83-45.609
		c-9.744-20.919-9.283-56.903-8.632-71.404c0.227-5.021,4.174-9.033,9.182-9.331c5.444-0.326,13.366-0.973,20.18-2.212
		c8.943-1.626,20.061-6.023,24.425-7.838c2.208-0.919,4.709-0.919,6.918,0c4.366,1.815,15.486,6.213,24.426,7.838
		c6.815,1.239,14.736,1.886,20.181,2.212c5.009,0.298,8.955,4.31,9.182,9.331c0.65,14.501,1.111,50.487-8.632,71.404
		c-15.565,33.419-39.015,43.358-45.831,45.609C226.462,262.854,225.525,263.004,224.576,263.004z M224.576,129.324
		c-0.681,0-1.347,0.133-1.98,0.396c-5.564,2.314-16.239,6.44-25.215,8.072c-7.002,1.273-15.088,1.935-20.639,2.266
		c-3.034,0.182-5.425,2.614-5.563,5.659c-0.638,14.216-1.109,49.458,8.274,69.604c14.912,32.016,37.101,41.449,43.546,43.577
		c1.021,0.338,2.135,0.336,3.154,0c6.445-2.128,28.633-11.56,43.546-43.577c9.384-20.144,8.912-55.387,8.274-69.604
		c-0.137-3.045-2.527-5.477-5.562-5.659c-5.55-0.331-13.636-0.992-20.64-2.266c-8.974-1.631-19.65-5.758-25.216-8.072
		C225.924,129.458,225.258,129.324,224.576,129.324z"/>
	<path fill="#CCCCCC" d="M224.577,125.473c-1.178,0-2.355,0.23-3.459,0.689c-4.365,1.815-15.482,6.212-24.425,7.838
		c-6.814,1.239-14.736,1.886-20.18,2.212c-5.008,0.298-8.955,4.309-9.182,9.331c-0.651,14.501-1.112,50.485,8.632,71.404
		c15.564,33.417,39.014,43.358,45.83,45.609c0.899,0.297,1.836,0.447,2.784,0.447h0.001V125.473z"/>
	<g>
		<g>
			<path fill="#FFBD95" d="M293.948,186.973c1.658-5.097,5.952-13.836,3.438-15.357c-3.276-1.982-12.702-3.198-12.702-3.198v0.162
				c0,0-9.507,0.795-12.783,2.778c-2.514,1.521,1.86,10.68,3.52,15.777c0.397,1.223,0.354,6.707,0.202,11.57
				c-0.037,1.2-1.012,6.715-0.846,8.996c0.05,0.68,7.75,4.893,9.907,5.001v-0.162c2.157-0.108,9.857-4.321,9.907-5.001
				c0.165-2.28-0.809-7.796-0.846-8.996C293.594,193.68,293.551,188.196,293.948,186.973z"/>
			<path fill="#FFA47C" d="M273.94,171.196c-1.916-0.21-3.694,1.835-4.028,5.41c-0.335,3.575-0.171,6.05-0.234,6.981
				c-0.065,0.962-0.86,6.504-0.834,8.016c0.026,1.512,0.872,2.934,2.396,3.076c1.275,0.119,3.04-2.01,3.777-4.511
				C275.755,187.667,279.088,171.761,273.94,171.196z"/>
			<path fill="#FFBD95" d="M294.29,170.92c1.735-0.839,4.095,0.494,5.605,3.752s2.184,5.645,2.555,6.501
				c0.383,0.885,2.984,5.842,3.465,7.276c0.481,1.434,0.159,3.056-1.229,3.7c-1.162,0.539-3.536-0.878-5.067-2.989
				C298.086,187.05,289.628,173.174,294.29,170.92z"/>
			<path fill="#FFBD95" d="M302.175,191.415c-1.188-1.023-1.624-2.496,1.095-6.009c2.72-3.513,8.977-9.467,8.977-9.467l1.922,1.655
				c0,0-2.689,6.83-4.082,8.801C308.692,188.367,305.285,194.093,302.175,191.415z"/>
			<path fill="#CEE0FF" d="M298.19,171.636c0,0,1.685,1.782,2.52,3.774s3.117,7.559,3.117,7.559s-0.517,1.978-2.818,3.396
				c-2.302,1.418-2.818,1.67-2.818,1.67s-2.531-4.844-2.706-5.567S295.504,173.275,298.19,171.636z"/>
			<path fill="#CEE0FF" d="M272.471,170.865c0,0-2.603,0.418-2.853,3.487c-0.165,2.02-1.523,13.167-1.523,13.167
				s6.434,1.798,6.774,1.775c0.34-0.022,0.488-0.793,0.488-0.793S275.517,171.164,272.471,170.865z"/>
			<path fill="#FFBD95" d="M288.622,166.908c-0.216-0.971-0.755-5.771-0.755-5.771h-3.183v0.162h-3.183c0,0-0.539,4.801-0.755,5.771
				s-2.835,2.436-2.835,2.436h6.772v-0.162h6.772C291.457,169.344,288.838,167.879,288.622,166.908z"/>
			<path fill="#FFA47C" d="M288.407,165.553c-0.202-1.47-0.443-3.563-0.518-4.214l-0.205-0.202h-3v0.162h-3.183
				c0,0-0.539,4.801-0.755,5.771s-2.835,2.436-2.835,2.436h0.32c3.022-0.806,6.027-1.609,6.432-1.725
				C285.51,167.538,288.407,165.554,288.407,165.553L288.407,165.553z"/>
			<path fill="#FFBD95" d="M279.614,202.346c-3.884-0.012-5.394,2.697-5.286,11.003c0.108,8.307,1.347,17.314,1.887,18.608
				c0.539,1.295,6.042,1.322,6.582,0.567c0.539-0.756,1.888-17.989,1.888-20.686C284.685,209.142,283.845,202.358,279.614,202.346z"
				/>
			<path fill="#FFBD95" d="M279.907,238.604l-1.024-0.025c-1.542-0.036-2.773-1.329-2.736-2.871l0.083-3.451
				c0.037-1.542,1.329-2.773,2.871-2.736l1.024,0.024c1.542,0.037,2.773,1.329,2.736,2.872l-0.083,3.451
				C282.741,237.409,281.449,238.641,279.907,238.604z"/>
			<path fill="#FFBD95" d="M279.345,233.519c-1.187,0-4.1,0.394-3.938,8.138c0.162,7.743,3.452,18.35,3.452,18.35h2.805
				c0,0,1.369-14.337,1.375-17.088C283.055,236.661,283.094,233.519,279.345,233.519z"/>
			<path fill="#FFBD95" d="M289.755,202.184c3.883-0.012,5.394,2.697,5.285,11.003c-0.107,8.307-1.346,17.314-1.886,18.609
				c-0.539,1.294-6.043,1.321-6.582,0.566s-1.888-17.988-1.888-20.685C284.685,208.98,285.524,202.197,289.755,202.184z"/>
			<path fill="#FFBD95" d="M289.462,238.441l1.024-0.024c1.542-0.037,2.773-1.329,2.736-2.871l-0.083-3.451
				c-0.037-1.543-1.329-2.774-2.871-2.737l-1.024,0.025c-1.542,0.037-2.773,1.329-2.736,2.871l0.083,3.451
				C286.628,237.247,287.92,238.479,289.462,238.441z"/>
			<path fill="#FFBD95" d="M290.024,233.357c1.187,0,4.1,0.393,3.938,8.137s-3.452,18.35-3.452,18.35h-2.805
				c0,0-1.369-14.337-1.375-17.087C286.314,236.5,286.275,233.357,290.024,233.357z"/>
			<path fill="#262622" d="M274.795,200.682c0,0-0.79,6.842-1.006,10.564s1.605,19.99,1.612,21.78
				c0.006,1.791-0.115,7.293-0.001,12.687c0.115,5.395,1.507,16.012,1.507,16.012l6.904-0.171c0,0,0.01-22.804,0.01-26.389
				c0-3.584,0.863-22.462,0.863-22.462V200.97L274.795,200.682z"/>
			<path fill="#CEE0FF" d="M298.209,171.716c-0.361-0.746-2.721-1.294-4.834-1.949c-1.862-0.577-3.53-1.309-3.53-1.309l-5.17,2.961
				l-5.171-2.961c0,0-1.668,0.732-3.53,1.309c-2.113,0.655-4.472,1.203-4.834,1.949c-0.367,0.757,3.422,15.273,3.848,16.508
				c0.425,1.234-0.664,9.874,0.413,12.458l9.264,0.289v0.001l0.019,0h0.002l0,0l9.629-0.289c0.847-2.962-0.389-11.385,0.037-12.62
				C294.775,186.827,298.576,172.473,298.209,171.716z"/>
			<path fill="#262622" d="M294.313,200.681c0,0,1.03,6.843,1.246,10.565s-1.605,19.989-1.611,21.78
				c-0.007,1.791,0.114,7.292,0,12.687c-0.114,5.394-1.527,16.012-1.527,16.012l-6.903-0.172c0,0,0.01-22.804,0.01-26.388
				s-0.863-22.463-0.863-22.463v-11.731L294.313,200.681z"/>
			<path fill="#191919" d="M277.632,261.706c0,0-2.356,2.76-2.231,3.487c0.071,0.414,1.068,1.914,2.877,2.023
				c1.374,0.082,3.615-1.175,3.964-1.211c0.81-0.084,0.801-4.435,0.801-4.435L277.632,261.706z"/>
			<path fill="#191919" d="M291.452,261.706c0,0,2.356,2.76,2.231,3.487c-0.071,0.414-1.068,1.914-2.877,2.023
				c-1.374,0.082-3.614-1.175-3.964-1.211c-0.81-0.084-0.801-4.435-0.801-4.435L291.452,261.706z"/>
			<path fill="#B8D1FF" d="M280.14,194.159c0.527-0.718,4.593-2.506,6.263-3.118c1.671-0.612,5.417,0.395,6.085-0.774
				c0.668-1.169-1.113-2.283-1.893-2.283s-5.79-1.447-6.569-1.336s-7.281-1.325-8.228-2.049c-0.947-0.724-5.052-12.291-5.052-12.291
				c1.058,4.574,3.971,15.13,4.241,15.916c0.425,1.234-1.27,9.875-0.192,12.458l9.869,0.288v0.001l0.019,0h0.002l0,0l9.264-0.289
				c0,0-2.018-0.283-2.853-0.536S274.694,201.579,280.14,194.159z"/>
			<path fill="#393934" d="M291.688,214.468c0.132,2.465-1.141,18.807-1.173,19.739c-0.03,0.91-0.352,26.288-0.366,27.461
				l2.272,0.057c0,0,1.413-10.618,1.527-16.012c0.114-5.395-0.007-10.896,0-12.687c0.006-1.791,1.827-18.059,1.611-21.78
				s-1.246-10.565-1.246-10.565l-4.744,0.137l-0.228,0.153C289.342,200.971,291.556,212.003,291.688,214.468z"/>
			<path fill="#393934" d="M283.598,208.167c-1.283-2.256-4.708-1.49-4.927,1.097c-0.226,2.658-0.279,4.497-0.046,5.722
				c0.589,3.08,1.448,18.139,1.337,18.534c-0.111,0.396,0.008,28.053,0.008,28.053l0.122,0.073l3.72-0.092
				c0,0,0.01-22.804,0.01-26.389c0-3.584,0.863-22.462,0.863-22.462v-1.025l0.069-1.479L283.598,208.167z"/>
			<path fill="#FFBD95" d="M269.146,194.124c0.68,1.413,2.063,2.299,6.212,0.858c6.619-2.299,12.757-7.179,12.757-7.179
				l-1.101-2.285c0,0-8.043,2.287-10.771,3.045C273.942,189.203,267.364,190.426,269.146,194.124z"/>
			<path fill="#FFBD95" d="M287.014,185.518c0,0,1.03-0.586,1.394-1.117s2.245-4.604,2.534-4.598s-0.912,5.841-0.82,6.126
				c0.091,0.285-0.381,1.799-2.007,1.874S287.014,185.518,287.014,185.518z"/>
			<path fill="#FFBD95" d="M290.465,157.651c0,4.093-3.093,8.17-5.719,8.17c-2.51,0-5.719-4.077-5.719-8.17s2.561-7.412,5.719-7.412
				S290.465,153.558,290.465,157.651z"/>
			<path fill="#999999" d="M279.027,158.472c-0.254-0.445-1.107-2.339-0.922-3.193s1.188-2.71,1.522-3.267
				c0.334-0.557,3.304-2.042,3.75-2.079c0.445-0.037,1.633-0.148,2.562,0c0.928,0.148,2.562,0.78,2.933,1.522
				c0.371,0.743,1.292,1.597,1.593,2.191c0.301,0.594,0.82,2.116,0.746,2.339s-0.482,2.079-0.52,2.228s-0.304,0.571-0.304,0.571
				s-1.392-3.398-1.428-3.769c-0.038-0.372-7.837-0.392-8.319-0.132S279.027,158.472,279.027,158.472z"/>
		</g>
		<g>
			<path fill="#8D3B26" d="M300.188,259.658c0,0,0.659,0.545,0.694,0.766c0.035,0.22-0.067,3.188-0.067,3.188
				s-0.722,0.247-1.431,0.882c-0.589,0.527-1.126,1.676-1.92,2.004c-0.975,0.403-2.103,0.436-2.539,0.253
				c-0.359-0.15-0.234-0.955,0.284-1.784c0.784-1.254,1.729-2.768,1.729-2.768L300.188,259.658z"/>
			<path fill="#8D3B26" d="M315.43,262.016c0,0,0.657,1.076,0.642,1.861c-0.016,0.784-0.536,2.638-1.138,2.722
				c-0.603,0.084-1.844-1.17-2.014-1.38c-1.059-1.309-1.188-4.076-1.188-4.076L315.43,262.016z"/>
			<path fill="#FFBD95" d="M314.392,258.733c0,0,1.149,3.419,1.16,3.827c0.011,0.409-0.391,1.987-0.967,2.002
				c-1.61,0.041-2.926-2.75-2.873-3.727c0.052-0.977,0.092-2.035,0.092-2.035L314.392,258.733z"/>
			<path fill="#FFBD95" d="M293.919,207.082c-1.183,1.811-1.397,5.219-1.224,9.687c0.237,6.091,2.3,15.124,2.479,16
				c0.817,3.997,4.708,4.132,5.537,1.07c0.229-0.845,2.253-17.976,2.188-19.92c-0.065-1.945-0.007-5.498-1.234-7.748
				C300.75,204.495,295.683,204.382,293.919,207.082z"/>
			<path fill="#FFBD95" d="M298.096,230.968c2.151-0.006,4.633,1.633,4.805,7.637c0.133,4.629-1.57,14.649-2.011,19.382
				c-0.131,1.404-0.327,2.491-0.462,2.515c-0.591,0.104-3.46,1.089-2.905-0.583c0.089-0.267,0.024-1.502-0.124-2.234
				c-0.905-4.469-2.304-16.171-2.353-17.847C294.988,237.887,294.655,230.976,298.096,230.968z"/>
			<path fill="#FFA47C" d="M293.193,177.086c-1.493-0.08-2.834,4.482-2.992,9.411c-0.275,8.566-1.62,11.311,1.009,11.694
				c2.387,0.348,2.651-3.136,3.87-10.398C296.033,182.116,296.285,177.252,293.193,177.086z"/>
			<path fill="#FFA47C" d="M314.105,177.347c1.481-0.205,3.199,4.229,3.77,9.127c0.991,8.514,2.562,11.135-0.026,11.738
				c-2.349,0.546-2.904-2.904-4.728-10.038C311.696,182.597,311.038,177.771,314.105,177.347z"/>
			<path fill="#FFBD95" d="M314.281,177.494c-0.555-1.251-4.132-1.908-5.447-2.3c-1.344-0.4-5.319-0.538-5.319-0.538
				s-3.976,0.137-5.319,0.538c-1.316,0.392-4.893,1.049-5.448,2.3c-0.839,1.891,4.818,14.837,4.818,20.64
				c0,2.328-5.029,9.355-4.447,11.609c0.711,2.755,9.859,4.46,9.859,4.46h0.537h0.537c0,0,9.148-1.705,9.859-4.46
				c0.582-2.254-3.25-8.794-3.25-11.123C310.661,192.817,315.12,179.384,314.281,177.494z"/>
			<path fill="#FFBD95" d="M313.522,207.266c1.112,1.855,1.194,5.27,0.847,9.728c-0.474,6.077-2.886,15.022-3.1,15.891
				c-0.972,3.963-4.864,3.946-5.573,0.854c-0.196-0.853-1.553-18.049-1.412-19.991c0.142-1.941,0.221-5.493,1.535-7.694
				C306.798,204.416,311.866,204.5,313.522,207.266z"/>
			<path fill="#FFBD95" d="M308.233,230.493c-2.016,0.751-2.649,1.882-1.61,8.084c0.788,4.707,3.735,15.349,5.133,20.243
				c0.444,1.556,0.284,2.599,0.43,2.598c0.601-0.008,2.399-0.047,2.579-1.437c0.039-0.304,0.004-1.046,0.001-1.884
				c-0.018-4.845,0.072-17.322-0.215-19.04C314.215,237.043,313.631,228.48,308.233,230.493z"/>
			<path fill="#FFBD95" d="M306.389,172.614c-0.402-1.048-0.362-4.998-0.362-4.998h-2.512h-2.512c0,0,0.04,3.95-0.363,4.998
				c-0.403,1.047-2.444,2.579-2.444,2.579h5.319h5.319C308.834,175.193,306.792,173.662,306.389,172.614z"/>
			<path fill="#FFA47C" d="M306.084,170.329l-2.497-2.712h-0.072h-2.512c0,0,0.04,3.95-0.363,4.998
				c-0.403,1.047-2.444,2.579-2.444,2.579l0,0v0l0.039,0.925l7.884-5.253C306.104,170.689,306.094,170.51,306.084,170.329z"/>
			<path fill="#6D0000" d="M314.867,209.494c-0.742-5-2.766-10.272-2.94-12.222c-0.176-1.95,2.94-19.498,2.94-19.498
				c-0.896-1.932-6.033-2.581-6.033-2.581l-5.319,7.021l-5.319-7.021c0,0-5.139,0.649-6.034,2.581c0,0,0.4,5.057,1.655,9.875
				c0.707,2.718,2.74,3.466,2.641,9.708c-0.031,1.958-3.814,8.055-4.296,12.137c-0.736,6.253,0.505,27.069,0.505,27.069
				l10.849,0.578l13.848-0.578C317.362,236.563,315.574,214.251,314.867,209.494z"/>
			<path fill="#5B0000" d="M310.501,200.125c0.249-0.779-1.679-6.633-1.667-7.86c0.012-1.228-6.659-0.85-8.684-1.148
				c-2.023-0.299-3.594-0.121-5.104-1.665c-1.511-1.543-2.586-9.616-2.586-9.616l-0.084-0.033c0.233,1.917,0.679,4.922,1.44,7.848
				c0.707,2.718,1.328,3.381,1.229,9.623c-0.031,1.958-2.403,8.14-2.885,12.222c-0.736,6.253,0.505,27.069,0.505,27.069l3.189,0.17
				c0,0-0.189-27.033,1.258-28.703c1.447-1.67,4.453-3.563,5.787-3.897C304.233,203.8,310.252,200.905,310.501,200.125z"/>
			<path fill="#FFBD95" d="M297.636,259.566c0,0-1.114,3.521-1.62,4.509c-0.37,0.724-0.306,1.253,0.836,0.919
				c1.141-0.334,3.231-2.987,3.573-4.22C300.802,259.416,297.636,259.566,297.636,259.566z"/>
			<path fill="#FFBD95" d="M308.969,163.879c0,4.089-3.507,7.404-5.595,7.404c-2.032,0-5.595-3.315-5.595-7.404
				s2.505-6.792,5.595-6.792S308.969,159.79,308.969,163.879z"/>
			<path fill="#999999" d="M302.495,157.087c0,0,0.142,3.295,1.101,4.049c0.96,0.754,4.814,2.282,5.142,3.049s-0.28,1.69-0.28,1.69
				s1.108-0.255,1.275-2.036C309.899,162.058,307.116,154.566,302.495,157.087z"/>
			<path fill="#303030" d="M322.241,216.564v-0.543c0,0-0.028-0.605,0.306-0.96c0.275-0.292,0.728-0.25,0.728-0.25
				c0.69,0,1.249,0.559,1.249,1.249v3.281c0,0.173,0.141,0.313,0.313,0.313h1.434c0.173,0,0.313-0.14,0.313-0.313v-3.573
				c0-1.666-1.351-3.017-3.017-3.017h-0.368c-1.666,0-3.017,1.351-3.017,3.017v0.797c0,0.569,0.461,1.03,1.029,1.03l0,0
				C321.78,217.594,322.241,217.133,322.241,216.564z"/>
			<path fill="#999999" d="M304.126,157.087c0,0-0.141,3.295-1.101,4.049c-0.959,0.754-4.814,2.282-5.142,3.049s0.28,1.69,0.28,1.69
				s-1.108-0.255-1.275-2.036C296.722,162.058,299.505,154.566,304.126,157.087z"/>
			<g>
				<path fill="#FFBD95" d="M316.857,194.181c1.28-0.487,3.587,2.17,4.764,6.383c1.357,4.855,3.414,11.778,2.256,12.155
					c-1.58,0.514-3.753-5.305-6.189-9.681C315.22,198.606,314.206,195.19,316.857,194.181z"/>
				<path fill="#FFBD95" d="M321.431,210.244c0,0-0.572,0.945-0.625,1.113c-0.053,0.167-0.3,1.617-0.581,1.985
					c-0.282,0.368-0.559,0.503-0.584,0.598c-0.024,0.095,0.355,0.905,0.969,0.388c0.612-0.517,0.945-1.317,1.19-1.376
					c0.245-0.059,0.976,1.478,0.99,1.845c0.015,0.368-0.234,2.795-0.236,2.914c-0.002,0.119,0.06,0.452,0.179,0.498
					c0.12,0.045,0.647-0.298,0.72-0.425c0.073-0.127,0.279,0.118,0.402,0.047c0.122-0.071,0.515-0.378,0.515-0.378
					s0.536-0.235,0.673-0.432c0.136-0.197,0.659-1.125,0.674-1.249s0.323-2.296,0.178-2.79c-0.145-0.494-2.003-3.351-2.003-3.351
					L321.431,210.244z"/>
			</g>
			<g>
				<path fill="#FFBD95" d="M291.189,194.128c-1.367,0.073-2.4,3.436-1.771,7.765c0.726,4.989,1.649,12.152,2.86,12.027
					c1.652-0.17,1.282-6.37,1.738-11.358C294.479,197.511,294.022,193.978,291.189,194.128z"/>
				<path fill="#FFBD95" d="M293.44,210.667c0,0,0.847,0.621,0.938,0.771s0.584,1.264,0.479,2.108
					c-0.08,0.654,0.206,1.395,0.249,1.483c0.189,0.396-0.033,0.67-0.75,0.312s-0.387-1.957-0.64-1.957
					c-0.252,0-0.602,1.666-0.529,2.026c0.073,0.36,0.885,2.662,0.915,2.777c0.029,0.115,0.048,0.453-0.058,0.525
					c-0.106,0.073-0.699-0.137-0.8-0.244c-0.1-0.106-0.243,0.18-0.379,0.14s-0.589-0.246-0.589-0.246s-0.577-0.103-0.756-0.262
					c-0.179-0.159-0.905-0.939-0.948-1.056c-0.044-0.117-0.854-2.156-0.828-2.67c0.024-0.514,1.16-3.727,1.16-3.727L293.44,210.667z
					"/>
			</g>
			<rect x="324.837" y="219.654" fill="#303030" width="1.398" height="44.91"/>
			<path fill="#303030" d="M326.082,266.031h-1.085c-0.237,0-0.432-0.194-0.432-0.432v-1.67c0-0.237,0.194-0.432,0.432-0.432h1.085
				c0.237,0,0.432,0.194,0.432,0.432v1.67C326.514,265.837,326.319,266.031,326.082,266.031z"/>
		</g>
		<g>
			<path fill="#FFBD95" d="M309.97,177.222L309.97,177.222c-0.277-0.167-0.367-0.53-0.2-0.807l1.073-1.782
				c0.165-0.275,0.524-0.364,0.799-0.199l0.001,0c0.276,0.167,0.365,0.529,0.199,0.806l-1.073,1.782
				C310.604,177.297,310.243,177.387,309.97,177.222z"/>
			<path fill="#FFBD95" d="M311.091,177.513L311.091,177.513c-0.277-0.167-0.367-0.53-0.2-0.807l1.073-1.782
				c0.165-0.274,0.524-0.364,0.798-0.199l0.002,0c0.276,0.167,0.365,0.529,0.199,0.806l-1.073,1.782
				C311.724,177.588,311.364,177.678,311.091,177.513z"/>
			<path fill="#FFBD95" d="M312.107,178.063L312.107,178.063c-0.277-0.167-0.367-0.53-0.2-0.807l1.073-1.782
				c0.165-0.274,0.524-0.364,0.799-0.199l0.001,0c0.276,0.167,0.365,0.529,0.199,0.806l-1.073,1.782
				C312.74,178.138,312.381,178.228,312.107,178.063z"/>
			<path fill="#FFBD95" d="M312.973,178.81L312.973,178.81c-0.277-0.167-0.367-0.53-0.2-0.807l1.073-1.782
				c0.165-0.275,0.524-0.364,0.799-0.199l0.001,0c0.276,0.167,0.366,0.529,0.199,0.806l-1.073,1.782
				C313.606,178.885,313.246,178.975,312.973,178.81z"/>
		</g>
	</g>
	<g>
		<g>
			<path fill="#FFA47C" d="M120.079,170.197c0.226-1.853,1.187-1.216,4.652-0.129c3.464,1.089,7.377,1.766,6.814,3.318
				c-0.564,1.547-4.317-0.097-6.372-0.572C123.116,172.345,119.902,171.692,120.079,170.197z"/>
			<path fill="#FF8626" d="M120.282,168.706c0.771-0.877,4.567,0.721,4.567,0.721l-1.403,4.417l-3.117-0.926
				C119.373,171.737,119.782,169.277,120.282,168.706z"/>
		</g>
		<g>
			<path fill="#FFBD95" d="M159.33,178.544c-0.05-1.453-4.584-2.36-9.371-2.089c-8.32,0.469-11.092-0.598-11.238,1.982
				c-0.132,2.341,3.265,2.297,10.402,2.854C154.703,181.727,159.435,181.553,159.33,178.544z"/>
			<path fill="#FFBD95" d="M142.804,178.713c0.459-1.25-2.15-3.462-6.259-4.559c-4.736-1.264-11.489-3.184-11.842-2.054
				c-0.481,1.542,5.2,3.588,9.481,5.906C138.521,180.356,141.854,181.302,142.804,178.713z"/>
		</g>
		<path fill="#FFBD95" d="M146.94,190.183c0.772-1.314,2.106-1.987,5.938,0.006c3.832,1.992,10.613,6.945,10.613,6.945l-1.25,2.126
			c0,0-7-1.389-9.127-2.379C150.986,195.889,144.918,193.623,146.94,190.183z"/>
		<g>
			<path fill="#FFBD95" d="M139.313,188.937c1.62-4.953,5.807-13.443,3.365-14.925c-3.183-1.932-12.345-3.128-12.345-3.128l0,0.158
				c0,0-9.244,0.76-12.432,2.682c-2.446,1.475,1.793,10.386,3.399,15.344c0.385,1.19,0.334,6.521,0.18,11.249
				c-0.038,1.166-0.993,6.527-0.835,8.745c0.047,0.662,7.527,4.769,9.625,4.877v-0.157c2.098-0.102,9.59-4.187,9.639-4.848
				c0.165-2.217-0.774-7.581-0.809-8.747C138.958,195.458,138.924,190.126,139.313,188.937z"/>
			<path fill="#FFA47C" d="M120.664,173.502c-1.675-0.84-3.988,0.422-5.503,3.567c-1.515,3.146-2.203,5.457-2.576,6.284
				c-0.385,0.854-2.985,5.636-3.473,7.023s-0.198,2.969,1.143,3.614c1.122,0.541,3.45-0.803,4.969-2.833
				C116.743,189.128,125.164,175.759,120.664,173.502z"/>
			<path fill="#FFBD95" d="M139.667,173.331c1.689-0.813,3.981,0.487,5.445,3.656s2.114,5.491,2.474,6.325
				c0.371,0.86,2.893,5.684,3.358,7.079c0.465,1.395,0.15,2.972-1.201,3.596c-1.13,0.522-3.437-0.859-4.923-2.914
				C143.335,189.018,135.132,175.515,139.667,173.331z"/>
			<path fill="#CEE0FF" d="M143.459,174.032c0,0,1.635,1.735,2.444,3.673c0.809,1.938,3.02,7.354,3.02,7.354
				s-0.505,1.922-2.745,3.298c-2.24,1.375-2.743,1.62-2.743,1.62s-2.454-4.713-2.623-5.417
				C140.644,183.855,140.845,175.622,143.459,174.032z"/>
			<path fill="#CEE0FF" d="M119.561,173.094c0,0-2.377,0.211-3.687,1.683c-1.31,1.472-5.566,11.557-5.566,11.557
				s5.337,4.226,5.65,4.339c0.312,0.113,3.701-6.121,3.701-6.121S122.157,174.55,119.561,173.094z"/>
			<path fill="#FFBD95" d="M134.163,169.421c-0.208-0.944-0.726-5.612-0.726-5.612l-3.094-0.004v0.157l-3.094-0.005
				c0,0-0.531,4.667-0.742,5.61c-0.211,0.943-2.76,2.364-2.76,2.364l6.584,0.01l0-0.157l6.584,0.01
				C136.916,171.794,134.372,170.366,134.163,169.421z"/>
			<path fill="#FFA47C" d="M133.956,168.104c-0.194-1.43-0.426-3.465-0.497-4.098l-0.199-0.197l-2.917-0.004v0.157l-3.094-0.005
				c0,0-0.531,4.667-0.742,5.61c-0.211,0.943-2.76,2.364-2.76,2.364l0.311,0c2.939-0.779,5.862-1.556,6.256-1.668
				C131.136,170.029,133.956,168.104,133.956,168.104L133.956,168.104z"/>
			<path fill="#FFBD95" d="M125.354,203.862c-3.775-0.017-5.248,2.614-5.155,10.69c0.093,8.076,1.284,16.835,1.806,18.094
				c0.522,1.26,5.873,1.294,6.399,0.561c0.525-0.733,1.861-17.486,1.865-20.108S129.467,203.881,125.354,203.862z"/>
			<path fill="#FFBD95" d="M125.586,239.113l-0.996-0.025c-1.5-0.038-2.695-1.296-2.657-2.796l0.086-3.354
				c0.038-1.5,1.296-2.695,2.795-2.657l0.996,0.025c1.499,0.039,2.694,1.297,2.656,2.796l-0.085,3.355
				C128.343,237.956,127.085,239.151,125.586,239.113z"/>
			<path fill="#FFBD95" d="M125.046,234.169c-1.153-0.001-3.986,0.376-3.84,7.905s3.33,17.846,3.33,17.846l2.727,0.004
				c0,0,1.352-13.937,1.362-16.61C128.649,237.23,128.691,234.175,125.046,234.169z"/>
			<path fill="#FFBD95" d="M135.315,203.929c3.753-0.406,5.489,2.06,6.228,10.103c0.739,8.042,0.456,16.878,0.065,18.185
				c-0.39,1.306-5.708,1.892-6.307,1.216s-3.652-17.202-3.926-19.81C131.103,211.016,131.226,204.371,135.315,203.929z"/>
			<path fill="#FFBD95" d="M138.703,239.019l1.001-0.13c1.485-0.191,2.543-1.57,2.35-3.063l-0.429-3.316
				c-0.192-1.489-1.563-2.551-3.045-2.358l-1,0.129c-1.486,0.192-2.543,1.571-2.35,3.063l0.429,3.316
				C135.851,238.148,137.221,239.21,138.703,239.019z"/>
			<path fill="#FFBD95" d="M138.741,234.044c1.147-0.12,4.003-0.036,4.633,7.468c0.629,7.505-1.475,18.094-1.475,18.094
				l-2.712,0.285c0,0-2.779-13.725-3.065-16.383C135.473,237.459,135.116,234.425,138.741,234.044z"/>
			<path fill="#00233F" d="M121.26,202.238c0,0-1.368,6.65-1.583,10.269c-0.215,3.618,1.532,19.437,1.535,21.178
				c0.004,1.74-0.122,7.09-0.019,12.334c0.104,5.244,1.441,15.569,1.441,15.569l6.713-0.157c0,0,0.043-22.17,0.048-25.655
				c0.005-3.484,0.872-21.837,0.872-21.837l0.017-11.406L121.26,202.238z"/>
			<path fill="#CEE0FF" d="M143.477,174.109c-0.351-0.725-2.643-1.262-4.697-1.901c-1.81-0.563-3.43-1.277-3.43-1.277l-5.031,2.871
				l-5.023-2.886c0,0-1.622,0.708-3.434,1.267c-2.055,0.633-4.35,1.163-4.703,1.887c-0.358,0.735,3.305,14.854,3.716,16.055
				c0.412,1.201-0.66,9.6,0.385,12.113l9.005,0.293v0.001l0.018,0h0.002v0l9.006-0.267c0.827-2.879-0.005-11.069,0.41-12.269
				C140.117,188.796,143.833,174.846,143.477,174.109z"/>
			<path fill="#00233F" d="M139.217,202.051c0,0,2.044,6.474,2.631,10.051c0.586,3.577,0.478,19.491,0.653,21.224
				c0.176,1.731,0.851,7.039,1.288,12.267c0.438,5.227,0.149,15.637,0.149,15.637l-6.693,0.535c0,0-2.306-22.051-2.669-25.516
				c-0.364-3.466-4.354-22.208-4.354-22.208l0.064-11.509L139.217,202.051z"/>
			<path fill="#191919" d="M123.34,261.571c0,0-2.295,2.68-2.174,3.388c0.069,0.402,1.036,1.862,2.793,1.971
				c1.336,0.082,3.516-1.137,3.856-1.171c0.787-0.081,0.785-4.311,0.785-4.311L123.34,261.571z"/>
			<path fill="#191919" d="M143,261.31c0,0,2.559,2.43,2.511,3.146c-0.027,0.407-0.838,1.959-2.576,2.248
				c-1.321,0.219-3.615-0.769-3.956-0.769c-0.791,0.001-1.224-4.206-1.224-4.206L143,261.31z"/>
			<path fill="#B8D1FF" d="M131.757,201.33c-0.865-0.543-2.163-1.086-2.95-1.574s-0.021-2.165-0.029-3.031s2.395-2.486,4.02-3.079
				s4.439-0.373,5.09-1.508c0.651-1.136-1.079-2.221-1.837-2.222c-0.758-0.001-5.626-1.416-6.385-1.309
				c-0.758,0.107-6.496,0.694-7.415-0.011c-0.919-0.705-5.475-13.95-5.475-13.95c1.021,4.448,3.838,14.716,4.1,15.479
				c0.412,1.201-0.66,9.6,0.385,12.113l9.005,0.293v0.001l0.018,0h0.002v0l9.006-0.267c0,0-1.96-0.278-2.772-0.525
				S132.623,201.872,131.757,201.33z"/>
			<path fill="#002D56" d="M138.431,215.611c0.378,2.37,0.806,18.301,0.87,19.204c0.063,0.884,2.329,25.455,2.434,26.59l2.203-0.176
				c0,0,0.288-10.41-0.149-15.637c-0.437-5.228-1.112-10.535-1.288-12.267c-0.175-1.732-0.066-17.647-0.653-21.224
				c-0.586-3.577-2.631-10.051-2.631-10.051l-4.22,0.576l-0.204,0.171C134.792,202.798,138.053,213.241,138.431,215.611z"/>
			<path fill="#002D56" d="M129.219,209.527c-1.245-2.195-4.575-1.455-4.792,1.059c-0.223,2.584-0.278,4.372-0.052,5.563
				c0.567,2.995,1.38,17.637,1.272,18.021c-0.109,0.384-0.033,27.273-0.033,27.273l0.119,0.072l3.617-0.085
				c0,0,0.043-22.17,0.048-25.655c0.005-3.484,0.872-21.837,0.872-21.837l0.001-0.997l0.07-1.438L129.219,209.527z"/>
			<path fill="#FFBD95" d="M135.97,159.507c-0.006,3.979-3.019,7.939-5.572,7.935c-2.44-0.004-5.554-3.972-5.548-7.952
				s2.5-7.202,5.571-7.197C133.491,152.298,135.976,155.528,135.97,159.507z"/>
			<path fill="#8D3B26" d="M124.849,160.289c-0.246-0.434-1.073-2.276-0.892-3.105c0.182-0.83,1.159-2.633,1.484-3.174
				s3.216-1.98,3.649-2.016s1.588-0.142,2.491,0.004c0.902,0.146,2.489,0.762,2.849,1.484c0.36,0.723,1.254,1.554,1.545,2.132
				c0.292,0.578,0.795,2.059,0.722,2.275c-0.072,0.217-0.472,2.021-0.509,2.165c-0.036,0.145-0.296,0.555-0.296,0.555
				s-1.495-3.803-1.53-4.164c-0.035-0.361-7.615-0.48-8.085-0.229S124.849,160.289,124.849,160.289z"/>
		</g>
		<path fill="#8D3B26" d="M160.553,160.733c0,0-0.521,1.501-1.904,1.355c-1.383-0.146-2.986,0.49-2.986,0.49
			s0.993-3.643,3.769-3.517C162.208,159.189,160.553,160.733,160.553,160.733z"/>
		<g>
			<g>
				<polygon fill="#FFBD95" points="114.501,170.514 118.356,170.514 118.114,166.149 114.82,166.149 				"/>
				<path fill="#8D3B26" d="M119.659,159.43c0.423-0.77,0.991-1.283,2.063-1.279c1.626,0,2.44,2.103,1.851,4.11
					c-0.322,1.103-0.721,1.948-0.423,2.153c0.291,0.205-1.38,0.874-2.083-0.399c-0.704-1.275,0.076-2.368-0.125-3.21
					C120.74,159.966,119.659,159.43,119.659,159.43z"/>
				<path fill="#FFA47C" d="M127.765,191.278c0.525,0.429,0.686,1.185,0.424,1.722c-0.256,0.546-0.729,1.134-1.404,1.093
					c-1.773-0.117-7.987-3.291-7.987-3.291s-3.457-1.915-2.848-3.446c0.608-1.536,1.93-3.258,4.305-1.953
					C122.629,186.708,125.807,189.684,127.765,191.278z"/>
				<path fill="#FFA47C" d="M122.323,194.903c0.613,0.296,1.363,0.12,1.742-0.344c0.383-0.464,0.867-1.108,0.544-1.702
					c-0.854-1.555-7.168-6.394-7.168-6.394s-3.196-2.318-4.33-1.117s-2.135,3.132,0.06,4.726
					C115.356,191.669,120.049,193.805,122.323,194.903z"/>
				<g>
					<path fill="#FFA47C" d="M125.295,191.334c1.32-1.018,2.893-0.523,3.203,0.676c0.312,1.196-0.157,3.753-0.656,5.16
						c-0.542,1.527-1.789,3.131-2.219,4.994c-0.419,1.862-0.092,3.281-0.16,3.723c-0.075,0.442-0.736,0.725-1.378,0.657
						c-0.865-0.095-1.156-0.722-1.056-1.313c0.152-0.928,0.702-1.965,0.784-3.548c0.082-1.579-0.03-2.61,0.411-6.228
						C124.622,192.217,125.295,191.334,125.295,191.334z"/>
					<path fill="#EA4C0F" d="M123.307,204.171c0,0-1.215,3.023,0.636,3.526c1.54,0.416,1.73-1.102,1.485-2.894
						c0,0-0.045,1.133-1.143,1.025C123.214,205.726,123.307,204.171,123.307,204.171z"/>
				</g>
				<polygon fill="#FFA47C" points="114.82,166.149 114.696,167.855 118.27,168.96 118.131,166.516 				"/>
				<path fill="#FF6E26" d="M117.821,193.711c0,0,5.237-2.657,7.204-2.926c0.741-0.102,3.014,0.459,3.014,0.459l-7.893-7.666
					l0.595-15.044l-2.471,0.426c0,0-0.198,1.554-1.131,1.554c-1.016,0-2.568-0.947-2.568-0.947l-3.137,1.665
					c0,0-2.943,13.533-1.124,17.409C111.361,190.881,117.821,193.711,117.821,193.711z"/>
				<path fill="#FF8626" d="M120.741,168.535l-0.595,15.044l7.893,7.666c0,0-1.983-0.71-3.014-0.459
					c-1.03,0.251-2.803,0.794-2.803,0.794l-7.182-6.578c0,0,0.797-12.721,0.351-13.655c-0.446-0.934-0.82-1.779-0.82-1.779
					s1.518,0.958,2.667,0.866c0.75-0.061,1.03-1.484,1.03-1.484L120.741,168.535z"/>
				<path fill="#FFBD95" d="M112.29,162.216c0,3.037,2.909,5.789,5.473,5.418c1.651-0.238,3.511-2.583,3.511-5.621
					c0-3.039-1.707-5.302-4.296-5.302S112.29,159.177,112.29,162.216z"/>
				<path fill="#8D3B26" d="M118.244,159.329c0,0-1.313,1.332-2.397,1.73c-1.089,0.396-4.23,2.139-4.23,2.139
					s-1.156-3.697,1.096-5.558c2.33-1.926,5.532-0.692,5.532-0.692s1.045-0.679,2.172,0.785c1.74,2.271,1.224,3.909,1.224,3.909
					s-0.553-0.042-1.558-0.781C119.398,160.362,118.244,159.329,118.244,159.329z"/>
				<path fill="#8D3B26" d="M113.198,160.183c-0.423-0.77-0.992-1.283-2.063-1.279c-1.626,0-2.437,2.103-1.851,4.11
					c0.319,1.103,0.721,1.949,0.426,2.153c-0.298,0.205,1.38,0.874,2.083-0.398c0.701-1.276-0.08-2.368,0.122-3.21
					C112.116,160.718,113.198,160.183,113.198,160.183z"/>
				<path fill="#FF8626" d="M111.963,161.054c-0.024,0.201,0.104,0.385,0.288,0.406l0,0c0.184,0.018,0.354-0.125,0.378-0.329
					l0.215-1.822c0.024-0.201-0.107-0.385-0.288-0.405l0,0c-0.188-0.021-0.354,0.125-0.375,0.326L111.963,161.054z"/>
				<g>
					<path fill="#FFA47C" d="M120.957,193.07c0.681-1.522,2.475-1.468,3.316-0.56c0.841,0.906,1.465,3.017,1.692,4.491
						c0.247,1.602-0.092,3.606,0.412,5.45c0.513,1.838,1.473,2.933,1.623,3.354c0.144,0.426-0.304,0.988-0.902,1.232
						c-0.806,0.326-1.36-0.088-1.551-0.656c-0.306-0.89-0.313-2.063-0.99-3.496c-0.676-1.429-1.263-2.284-2.589-5.679
						C120.782,194.166,120.957,193.07,120.957,193.07z"/>
					<path fill="#EA4C0F" d="M125.288,205.316c0,0,0.363,3.238,2.23,2.804c1.553-0.363,1.001-1.791-0.063-3.252
						c0,0,0.497,1.019-0.521,1.445C125.942,206.729,125.288,205.316,125.288,205.316z"/>
				</g>
			</g>
			<g>
				<path fill="#FFA47C" d="M111.275,171.771c-1.681-0.818-2.101,0.351-3.064,3.849c-0.971,3.501-2.091,7.142-0.482,7.509
					c1.602,0.368,1.869-3.713,2.586-5.693C111.037,175.453,112.624,172.434,111.275,171.771z"/>
				<path fill="#FFA47C" d="M107.237,182.866c1.145,0.767,1.863,0.973,3.819,1.788c1.96,0.804,4.939,1.984,4.939,1.984l0.414-0.958
					c0,0-2.278-1.73-3.819-2.758c-1.669-1.106-3.087-1.878-4.173-1.915C106.61,180.95,107.237,182.866,107.237,182.866z"/>
				<g>
					<path fill="#FFA47C" d="M115.852,186.846c-0.595-0.253-0.886-0.885-0.371-1.246c0.511-0.361,1.088-0.516,2.023-0.274
						c0.935,0.245,2.777,1.073,2.625,1.382c-0.155,0.303-1.167-0.23-1.999-0.222C116.92,186.496,116.523,187.129,115.852,186.846z"
						/>
				</g>
				<path fill="#FF6E26" d="M111.251,170.873c-1.197-0.322-3.54,3.492-3.54,3.492l3.896,2.286
					C111.608,176.651,112.746,171.275,111.251,170.873z"/>
			</g>
		</g>
		<g>
			<path fill="#FFBD95" d="M108.931,191.584c-0.225,1.508,0.258,2.85,3.791,3.604c3.532,0.754,11.964,1.242,11.964,1.242
				l0.364-2.439c0,0-6.625-3.437-8.523-3.947C114.628,189.533,109.52,187.637,108.931,191.584z"/>
			<path fill="#FFBD95" d="M122.827,193.15c0,0,0.956-0.492,1.121-0.533s1.588-0.184,1.964-0.433
				c0.375-0.249,0.525-0.508,0.618-0.526c0.094-0.018,0.854,0.405,0.312,0.964c-0.542,0.561-1.34,0.83-1.413,1.064
				c-0.073,0.234,1.368,1.045,1.724,1.083s2.726-0.043,2.842-0.037c0.115,0.006,0.435,0.088,0.471,0.207s-0.332,0.608-0.459,0.669
				c-0.128,0.062,0.096,0.279,0.019,0.393c-0.077,0.114-0.4,0.474-0.4,0.474s-0.264,0.505-0.464,0.624s-1.135,0.565-1.256,0.571
				c-0.121,0.006-2.248,0.161-2.718-0.012s-3.051-1.402-3.504-2.527C121.468,194.603,122.827,193.15,122.827,193.15z"/>
		</g>
		<g>
			<path fill="#8D3B26" d="M159.771,258.634c0,0,0.664,0.272,0.695,0.985c0.023,0.54,0.078,3.92,0.078,3.92
				s-0.731,0.244-1.572,0.997c-0.699,0.626-1.336,1.988-2.279,2.378c-1.156,0.478-2.494,0.517-3.011,0.3
				c-0.427-0.178-0.278-1.134,0.336-2.116c0.931-1.487,2.051-3.284,2.051-3.284L159.771,258.634z"/>
			<path fill="#FFBD95" d="M156.648,258.017c0,0-0.074,0.906-0.344,2.009c-0.363,1.483-0.984,3.343-1.329,4.016
				c-0.439,0.857-0.363,1.486,0.991,1.09c1.354-0.396,3.505-3.867,3.91-5.329c0.184-0.661-0.214-1.358-0.296-1.785
				C159.391,257.016,156.648,258.017,156.648,258.017z"/>
			<path fill="#8D3B26" d="M170.077,261.292c0,0,0.717,1.174,0.7,2.03c-0.017,0.855-0.584,2.878-1.241,2.97
				c-0.657,0.091-2.012-1.276-2.197-1.506c-1.155-1.428-1.297-4.447-1.297-4.447L170.077,261.292z"/>
			<path fill="#FFBD95" d="M168.944,257.711c0,0,1.254,3.729,1.266,4.175c0.011,0.446-0.427,2.168-1.055,2.185
				c-1.756,0.045-3.192-3-3.135-4.066c0.057-1.065,0.101-2.221,0.101-2.221L168.944,257.711z"/>
			<path fill="#27547C" d="M151.859,204.938c-0.681,1.776-1.201,3.43-0.964,4.349c0.691,2.679,8.602,4.95,8.602,4.95h0.522v-8.685
				C156.971,205.552,154.907,204.938,151.859,204.938z"/>
			<path fill="#27547C" d="M151.266,207.668c-1.011,1.843-0.965,5.163-0.462,9.481c0.685,5.887,2.617,15.263,2.856,16.099
				c1.091,3.813,4.848,3.653,5.422,0.623c0.158-0.835,1.442-17.753,1.233-19.634c-0.209-1.88-1.236-5.329-2.595-7.418
				C156.71,205.263,152.772,204.919,151.266,207.668z"/>
			<path fill="#27547C" d="M160.02,237.534c-0.157-5.849-1.776-6.999-3.867-6.998c-3.345,0.002-2.788,6.248-2.735,8.147
				c0.051,1.857,2.582,16.935,3.231,19.333c0.989,0,1.968,0,2.933,0C159.967,253.924,160.147,242.326,160.02,237.534z"/>
			<path fill="#CEE0FF" d="M169.803,178.446c-0.54-1.216-3.333-1.755-4.611-2.136c-1.307-0.39-5.172-0.522-5.172-0.522
				s-6.115,0.611-7.439,0.562c-0.56-0.021-0.972,1.996-1.188,2.571c-1.21,3.228-2.65,6.984,0.382,9.603
				c0.692,0.598,1.296,7.409,1.296,10.564c0,1.314-0.27,3.393-1.212,5.851c3.048,0,5.112,0.614,8.16,0.614c3.048,0,6.096,0,9.144,0
				c-0.943-2.458-1.96-5.172-2.196-6.465C165.191,189.379,170.618,180.284,169.803,178.446z"/>
			<path fill="#002D56" d="M168.941,257.701c0.192-1.921-0.455-17.235-0.785-19.108c-0.331-1.874-0.665-8.869-5.404-7.889
				c-2.044,0.423-2.573,1.756-1.552,7.524c0.831,4.691,3.527,15.806,4.819,19.788C166.971,258.017,168.929,257.822,168.941,257.701z
				"/>
			<path fill="#27547C" d="M160.02,205.552v8.685h0.522c0,0,8.894-1.657,9.585-4.336c0.237-0.919-0.283-2.573-0.964-4.349
				C166.115,205.552,163.067,205.552,160.02,205.552z"/>
			<path fill="#27547C" d="M169.948,208.495c0.965,1.868,0.836,5.186,0.227,9.49c-0.831,5.868-3.02,14.481-3.279,15.311
				c-1.185,3.785-5.659,3.45-6.159,0.407c-0.138-0.839-0.405-17.608-0.149-19.483c0.255-1.875,0.55-5.317,1.959-7.372
				C163.597,205.318,168.509,205.709,169.948,208.495z"/>
			<path fill="#FFBD95" d="M162.814,173.802c-0.392-1.019-0.353-4.858-0.353-4.858h-2.442h-2.442c0,0,0.039,3.84-0.353,4.858
				c-0.392,1.019-2.377,2.508-2.377,2.508h5.172h5.172C165.191,176.31,163.206,174.821,162.814,173.802z"/>
			<path fill="#FFBD95" d="M168.833,177.982c1.357-0.521,3.962,3.3,5.581,7.812c2.814,7.844,4.879,9.98,2.561,11.121
				c-2.104,1.035-3.39-2.11-6.688-8.463C167.709,183.484,166.022,179.06,168.833,177.982z"/>
			<path fill="#FFBD95" d="M175.841,193.882c1.192-0.523,3.688,1.607,5.242,5.178c1.792,4.116,4.463,9.974,3.379,10.392
				c-1.48,0.569-4.157-4.32-6.947-7.934C174.688,197.856,173.372,194.966,175.841,193.882z"/>
			<path fill="#FFA47C" d="M162.486,170.843c-0.033-1.024-0.025-1.899-0.025-1.899h-2.442h-2.442c0,0,0.039,3.84-0.353,4.858
				c-0.392,1.019-2.377,2.508-2.377,2.508l7.639-5.464V170.843z"/>
			<path fill="#FFBD95" d="M164.544,167.822c-1.819,3.379-6.191,4.559-7.916,3.63c-1.679-0.904-2.467-4.891-0.952-8.476
				c1.494-3.534,4.711-4.629,7.265-3.255C165.495,161.096,166.362,164.443,164.544,167.822z"/>
			<path fill="#8D3B26" d="M159.371,161.258c0.042,1.139,0.822,2.092,2.938,3.029c1.515,0.67,1.767,3.183,1.45,4.033
				c-0.121,0.325-1.046,1.771-1.046,1.771s4.473-2.057,2.909-7.227c-1.563-5.169-6.049-4.111-6.19-3.802
				C159.291,159.372,159.35,160.709,159.371,161.258z"/>
			<path fill="#B8D1FF" d="M162.605,189.376c-0.81-0.379-2.585-0.217-6.767-0.433s-4.763-2.327-5.382-3.248
				c-0.602-0.894-0.036-3.897-0.003-4.066c-0.721,2.472-0.887,4.985,1.322,6.893c0.692,0.598,1.296,7.409,1.296,10.564
				c0,1.314-0.27,3.393-1.212,5.851c1.932,0,3.47,0.246,5.113,0.427c0-0.002-0.268-2.295-0.539-3.472c-0.271-1.177,0-4.614,1-6.563
				c1-1.948,5.495-3.464,5.982-4.113S163.416,189.755,162.605,189.376z"/>
			<g>
				<path fill="#FFA47C" d="M185.713,211.416c0,0,0.196,1.124,0.15,1.409c-0.045,0.285-0.203,0.664-0.304,0.941
					c-0.101,0.278-0.022,0.738,0.053,0.787c0.219,0.14,0.442-0.239,0.52-0.468c0.078-0.229,0.27-0.752,0.31-1.093
					c0.039-0.341,0.175-1.171,0.094-1.415C186.455,211.333,185.713,211.416,185.713,211.416z"/>
				<path fill="#FFA47C" d="M185.741,211.059c0,0-0.129,1.054-0.248,1.295c-0.117,0.241-0.297,0.287-0.547,0.502
					c-0.208,0.179-0.427,0.496-0.354,0.728c0.073,0.23,0.422-0.01,0.613-0.13c0.245-0.153,0.631-0.502,0.758-0.795
					c0.127-0.293,0.473-0.996,0.466-1.234C186.424,211.186,185.741,211.059,185.741,211.059z"/>
				<path fill="#FFA47C" d="M185.685,210.908c0,0-0.263,0.853-0.397,1.035c-0.133,0.182-0.289,0.193-0.53,0.333
					c-0.201,0.118-0.429,0.347-0.402,0.549c0.027,0.202,0.353,0.056,0.53-0.015c0.227-0.089,0.6-0.321,0.749-0.544
					c0.148-0.224,0.54-0.753,0.569-0.952C186.235,211.116,185.685,210.908,185.685,210.908z"/>
				<path fill="#FFBD95" d="M183.584,213.645c0.111,0.119,0.441-0.118,0.618-0.412c0.191-0.317,0.165-0.999,0.057-1.346
					c-0.104-0.333-0.111-0.856,0.137-0.925c0.249-0.069,1.187,0.252,1.354,0.514c0.272,0.425,0.717,0.971,0.75,1.306
					c0.033,0.333-0.14,0.983-0.21,1.279c-0.069,0.296-0.178,0.694-0.107,0.925c0.072,0.23,0.2,0.251,0.328,0.272
					c0.128,0.021,0.145-0.48,0.364-0.882s0.561-1.419,0.575-1.505c0.014-0.085-0.349-1.48-0.479-1.896
					c-0.129-0.416-1.675-2.026-1.672-2.201c0.003-0.175-1.634-2.989-1.634-2.989l-2.29,0.814c0,0,1.485,1.928,1.532,2.309
					c0.048,0.38-0.027,0.866-0.058,1.3c-0.052,0.743,0.413,1.604,0.543,1.948C183.621,212.755,183.411,213.46,183.584,213.645z"/>
			</g>
			<path fill="#002D56" d="M162.2,234.216c-0.144-2.014,0.149-10.987-0.067-15.911c-0.16-3.633-1.072-4.118-1.54-4.123
				c-0.001,0.012-0.003,0.027-0.005,0.039c-0.238,1.749-0.021,16.457,0.12,19.104c-0.064,1.112,0.097,2.679,0.491,4.904
				c0.831,4.691,3.527,15.806,4.819,19.788c0.244,0,1.094,0.021,1.419,0l0.677-0.144c0,0-2.751-12.749-4.358-19.002
				C163.337,237.238,162.308,235.731,162.2,234.216z"/>
			<path fill="#002D56" d="M152.39,210.609c-0.157-2.398,2.882-4.54,4.258-5.281c-1.931-0.124-4.789-0.39-4.789-0.39
				c-1.889,2.81-1.559,7.893-1.056,12.211c0.676,5.807,2.561,14.991,2.842,16.044c-0.449,1.94-0.258,4.413-0.229,5.49
				c0.051,1.857,2.582,16.935,3.231,19.333l-1.912-23.791C154.737,234.226,152.606,213.918,152.39,210.609z"/>
			<path fill="#8D3B26" d="M163.18,161.96c0,0,0.526-3.11,2.962-2.564c2.437,0.545,3.741,3.583,3.31,4.933s0.041,6.157,0.357,6.083
				c0.316-0.074,0.273,0.802-0.432,0.996s-2.893,0.263-3.209-2.084c-0.316-2.346-1.584-3.705-1.584-3.705L163.18,161.96z"/>
			<g>
				<path fill="#191919" d="M182.878,262.866c0,0,1.101,1.545,1.028,1.969c-0.042,0.241-0.2,1.253-0.959,1.251
					c-0.801-0.003-1.647-0.579-1.838-0.651c-0.6-0.229-0.485-2.634-0.485-2.634l0.384-0.481L182.878,262.866z"/>
				<path fill="#191919" d="M175.81,262.866c0,0-1.101,1.545-1.028,1.969c0.042,0.241,0.2,1.253,0.959,1.251
					c0.801-0.003,1.647-0.579,1.838-0.651c0.6-0.229,0.485-2.634,0.485-2.634l-0.384-0.481L175.81,262.866z"/>
				<path fill="#FFBD95" d="M176.467,230.38c-2.221-0.007-3.084,1.542-3.023,6.293c0.062,4.75,0.77,9.901,1.079,10.642
					s3.456,0.756,3.764,0.324c0.309-0.433,1.08-10.287,1.08-11.83C179.366,234.267,178.886,230.388,176.467,230.38z"/>
				<path fill="#FFBD95" d="M176.634,251.114l-0.586-0.014c-0.882-0.021-1.586-0.76-1.565-1.642l0.047-1.974
					c0.021-0.883,0.76-1.587,1.642-1.565l0.586,0.014c0.882,0.021,1.586,0.761,1.565,1.643l-0.047,1.974
					C178.255,250.432,177.516,251.136,176.634,251.114z"/>
				<path fill="#FFBD95" d="M176.313,248.207c-0.679,0-2.344,0.225-2.251,4.653c0.092,4.429,1.974,10.494,1.974,10.494h1.604
					c0,0,0.783-8.199,0.786-9.772C178.434,250.004,178.457,248.207,176.313,248.207z"/>
				<path fill="#FFBD95" d="M173.998,213.083c-0.949-0.489-2.275,0.216-3.158,1.999c-0.882,1.783-1.289,3.096-1.506,3.565
					c-0.225,0.484-1.735,3.193-2.022,3.981s-0.131,1.69,0.629,2.066c0.636,0.315,1.971-0.437,2.849-1.584
					S176.549,214.397,173.998,213.083z"/>
				<path fill="#FFBD95" d="M182.266,230.38c2.221-0.007,3.084,1.542,3.023,6.293c-0.062,4.75-0.77,9.901-1.079,10.642
					s-3.456,0.756-3.764,0.324c-0.309-0.433-1.08-10.287-1.08-11.83C179.366,234.267,179.847,230.388,182.266,230.38z"/>
				<path fill="#FFBD95" d="M183.841,212.893c0.952-0.486,2.274,0.225,3.15,2.011c0.876,1.787,1.277,3.101,1.493,3.571
					c0.223,0.485,1.723,3.2,2.007,3.989c0.283,0.789,0.125,1.691-0.637,2.064c-0.637,0.312-1.969-0.444-2.843-1.595
					C186.138,221.782,181.286,214.197,183.841,212.893z"/>
				<path fill="#FFBD95" d="M189.938,222.514c0.789,0.364,1.245,1.083,0.331,3.368c-0.914,2.285-3.712,7.311-3.712,7.311
					l-1.276-0.589c0,0,0.765-4.949,1.207-6.211C186.929,225.13,187.873,221.561,189.938,222.514z"/>
				<path fill="#FF8626" d="M184.881,212.341c-1.874-1.134-5.515-1.363-5.515-1.363v0.092c0,0-4.051,0.193-5.925,1.327
					c-1.438,0.87,0.179,13.839,0.425,16.831c0.086,1.05-0.26,2.911-0.166,4.215c0.028,0.389,4.432,2.798,5.666,2.86v-0.093
					c1.234-0.062,5.637-2.471,5.666-2.86c0.095-1.304-0.462-4.458-0.483-5.145C184.461,225.424,186.319,213.211,184.881,212.341z"/>
				<path fill="#FFBD95" d="M182.098,251.114l0.586-0.014c0.882-0.021,1.586-0.76,1.565-1.642l-0.047-1.974
					c-0.021-0.883-0.76-1.587-1.642-1.565l-0.586,0.014c-0.882,0.021-1.586,0.761-1.565,1.643l0.047,1.974
					C180.478,250.432,181.216,251.136,182.098,251.114z"/>
				<path fill="#FFBD95" d="M182.42,248.207c0.679,0,2.344,0.225,2.252,4.653c-0.093,4.429-1.974,10.494-1.974,10.494h-1.604
					c0,0-0.783-8.199-0.787-9.772C180.298,250.004,180.276,248.207,182.42,248.207z"/>
				<path fill="#FFBD95" d="M181.618,210.207c-0.124-0.555-0.432-3.3-0.432-3.3h-1.82h-1.82c0,0-0.309,2.745-0.432,3.3
					c-0.124,0.556-1.155,1.394-1.155,1.394s1.146,1.678,3.407,1.678c1.905,0,3.219-1.678,3.219-1.678
					S181.741,210.762,181.618,210.207z"/>
				<path fill="#FFA47C" d="M181.463,209.188c-0.079-0.594-0.161-1.282-0.216-1.751l-1.663-0.531h-0.218h-1.82
					c0,0-0.309,2.745-0.432,3.301c-0.124,0.555-1.155,1.393-1.155,1.393l5.504-2.403L181.463,209.188z"/>
				<polygon fill="#FFA47C" points="178.511,246.437 174.522,247.314 174.057,245.598 178.427,245.598 				"/>
				<polygon fill="#FFA47C" points="184.382,246.297 180.394,247.175 180.181,245.318 184.607,245.318 				"/>
				<path fill="#002D56" d="M173.893,229.759c0,0-1.139,6.035-1.139,7.938s0.749,8.501,0.749,8.501h5.513l0.412-7.772l0.482,7.772
					h5.443c0,0,0.983-7.072,0.484-10.232c-0.277-1.759-1.101-6.207-1.101-6.207H173.893z"/>
				<path fill="#FF8626" d="M174.422,212.737c0,0-1.54-0.721-2.582,0.139c-1.042,0.86-3.552,6.493-3.552,6.493l3.713,2.417
					l1.051-2.66L174.422,212.737z"/>
				<path fill="#FF8626" d="M184.35,212.136c0,0,1.7,0.028,2.259,1.258c0.559,1.23,2.828,6.557,2.828,6.557l-3.384,1.801
					l-1.703-2.767V212.136z"/>
				<path fill="#FF6E26" d="M181.774,229.759c0,0-3.606-0.194-4.319-0.53c-0.713-0.335-3.271-7.213-3.543-7.59
					c-0.273-0.377-0.858-6.007-0.858-6.007l-1.051,6.155l0.92-1.719c0.263,3.398,0.833,7.806,0.944,9.161
					c0.013,0.152,0.001,0.35-0.002,0.531H181.774z"/>
				<path fill="#00233F" d="M176.616,229.759h-2.724c0,0-1.139,6.035-1.139,7.938s0.749,8.501,0.749,8.501h1.382
					c0,0-0.785-8.918-0.828-9.631S176.616,229.759,176.616,229.759z"/>
				<path fill="#00233F" d="M179.428,238.426l-0.062-2.617c0,0,1.234,2.099,1.346,3.344s0.671,7.046,0.671,7.046h-1.473
					L179.428,238.426z"/>
				<path fill="#FFBD95" d="M176.513,201.466c-1.372,2.739-1.624,6.079,0.054,7.103c1.603,0.979,5.928,0.225,7.523-2.39
					c1.595-2.615,1.324-5.688-1.035-7.217C181.072,197.674,177.926,198.645,176.513,201.466z"/>
				<path fill="#8D3B26" d="M177.818,199.658c0,0,2.512-0.245,3.957,3.084c0.311,0.716-0.559,1.876-0.508,2.118
					c0.054,0.26,1.278-0.565,1.268-0.295c-0.079,1.952-1.28,3.809-1.071,3.916c0.634,0.325,5.373-2.049,5.038-5.236
					c-0.334-3.175-3.161-5.583-3.916-5.731C181.83,197.365,176.995,196.591,177.818,199.658z"/>
				<path fill="#FFBD95" d="M181.685,205.142c-0.567,0.671-1.128,1.662-0.776,1.96c0.353,0.298,1.098-0.004,1.665-0.675
					c0.566-0.671,0.74-1.456,0.388-1.754C182.609,204.375,182.252,204.472,181.685,205.142z"/>
				<path fill="#FFBD95" d="M168.866,224.7c0.846-0.199,1.438-0.806,1.006-3.202c-0.432-2.395-2.152-7.817-2.152-7.817l-1.368,0.322
					c0,0-0.254,4.949-0.077,6.26S166.652,225.22,168.866,224.7z"/>
				<g>
					<path fill="#FFBD95" d="M166.013,210.761l0.002,0c0.178-0.026,0.345,0.098,0.372,0.276l0.208,1.388
						c0.027,0.179-0.098,0.347-0.277,0.374h-0.002c-0.178,0.026-0.345-0.098-0.372-0.276l-0.208-1.388
						C165.709,210.955,165.833,210.787,166.013,210.761z"/>
					<path fill="#FFBD95" d="M166.612,210.612l0.001,0c0.178-0.026,0.345,0.098,0.372,0.276l0.208,1.388
						c0.027,0.179-0.098,0.347-0.277,0.374h-0.001c-0.178,0.026-0.345-0.098-0.372-0.276l-0.208-1.388
						C166.308,210.806,166.433,210.638,166.612,210.612z"/>
					<path fill="#FFBD95" d="M167.203,210.503h0.001c0.178-0.026,0.345,0.098,0.372,0.276l0.208,1.388
						c0.027,0.179-0.098,0.347-0.277,0.373l-0.001,0c-0.178,0.026-0.345-0.098-0.372-0.276l-0.208-1.387
						C166.899,210.697,167.024,210.529,167.203,210.503z"/>
					<path fill="#FFBD95" d="M167.783,210.452l0.001,0c0.178-0.026,0.345,0.099,0.372,0.276l0.208,1.388
						c0.027,0.179-0.098,0.347-0.277,0.373l-0.001,0c-0.178,0.026-0.345-0.098-0.372-0.276l-0.208-1.388
						C167.479,210.646,167.604,210.478,167.783,210.452z"/>
					<path fill="#FFBD95" d="M168.098,215.408c0,0,0.616-2.239,0.605-2.691c-0.011-0.453-0.602-2.124-0.602-2.124
						s-0.504,0.619-0.911,0.623c-0.406,0.003-1.455-0.083-1.455-0.083s-0.171,1.529-0.021,2.23c0.149,0.7,0.617,2.046,0.617,2.046
						H168.098z"/>
				</g>
				<g>
					<path fill="#FFBD95" d="M186.932,235.125h-0.001c-0.179-0.016-0.313-0.174-0.299-0.354l0.115-1.398
						c0.015-0.181,0.175-0.315,0.355-0.3h0.002c0.179,0.016,0.313,0.175,0.299,0.354l-0.115,1.398
						C187.272,235.006,187.112,235.141,186.932,235.125z"/>
					<path fill="#FFBD95" d="M186.315,235.133h-0.002c-0.179-0.016-0.313-0.175-0.299-0.354l0.115-1.398
						c0.015-0.181,0.174-0.316,0.355-0.301l0.001,0.001c0.179,0.015,0.314,0.174,0.299,0.354l-0.115,1.398
						C186.655,235.014,186.495,235.148,186.315,235.133z"/>
					<path fill="#FFBD95" d="M185.714,235.104h-0.002c-0.179-0.016-0.313-0.175-0.299-0.354l0.115-1.398
						c0.015-0.181,0.174-0.315,0.355-0.3h0.001c0.179,0.015,0.314,0.175,0.299,0.354l-0.115,1.398
						C186.055,234.984,185.895,235.119,185.714,235.104z"/>
					<path fill="#FFBD95" d="M185.138,235.021h-0.002c-0.179-0.016-0.313-0.175-0.299-0.354l0.115-1.398
						c0.015-0.181,0.174-0.315,0.355-0.3h0.001c0.179,0.016,0.313,0.175,0.299,0.354l-0.115,1.398
						C185.478,234.901,185.318,235.036,185.138,235.021z"/>
					<path fill="#FFBD95" d="M185.966,230.124c0,0-1.113,2.038-1.205,2.482c-0.093,0.443,0.099,2.204,0.099,2.204
						s0.633-0.486,1.029-0.396c0.396,0.089,1.397,0.413,1.397,0.413s0.517-1.449,0.532-2.165c0.015-0.717-0.132-2.134-0.132-2.134
						L185.966,230.124z"/>
				</g>
				<path fill="#303030" d="M177.575,263.532c-0.175,0.664-0.941,1.003-1.258,0.954c-0.531-0.082-0.799-0.786-0.624-1.45
					s0.738-1.092,1.258-0.955C177.471,262.219,177.75,262.868,177.575,263.532z"/>
				<path fill="#303030" d="M181.113,263.532c0.175,0.664,0.941,1.003,1.258,0.954c0.531-0.082,0.799-0.786,0.624-1.45
					c-0.175-0.664-0.738-1.092-1.258-0.955C181.217,262.219,180.938,262.868,181.113,263.532z"/>
			</g>
		</g>
	</g>
</g>
</svg>
