<?xml version="1.0" encoding="utf-8"?>
<!-- Generator: Adobe Illustrator 16.0.0, SVG Export Plug-In . SVG Version: 6.00 Build 0)  -->
<!DOCTYPE svg PUBLIC "-//W3C//DTD SVG 1.1//EN" "http://www.w3.org/Graphics/SVG/1.1/DTD/svg11.dtd">
<svg version="1.1" xmlns="http://www.w3.org/2000/svg" xmlns:xlink="http://www.w3.org/1999/xlink" x="0px" y="0px" width="1161px"
	 height="285px" viewBox="0 0 1161 285" enable-background="new 0 0 1161 285" xml:space="preserve">
<g id="Layer_1" display="none">
	<g id="we-compare-text-bnw" display="inline">
		<rect fill="none" width="1161" height="285"/>
		<g id="Group_13">
			<path id="WeCompare.com" fill="#A3A7B2" d="M29.808,155.424c0.288,1.152,1.44,2.016,2.592,2.016h2.304
				c1.008,0,2.016-0.719,2.448-1.584L63.36,96.96h0.432l26.352,58.896c0.432,0.865,1.44,1.584,2.448,1.584h2.304
				c1.152,0,2.304-0.863,2.592-2.016l27.216-96.768c0.576-2.016-0.576-3.456-2.592-3.456h-16.848c-1.152,0-2.304,1.008-2.592,2.016
				l-12.384,48.816h-0.576l-22.32-50.688c-0.288-0.864-1.152-1.584-2.448-1.584h-2.592c-1.152,0-2.016,0.72-2.448,1.584
				l-22.32,50.688h-0.576L24.624,57.216c-0.288-1.008-1.44-2.016-2.592-2.016H5.184c-2.016,0-3.168,1.44-2.592,3.456L29.808,155.424
				z M124.414,122.736c0,20.592,14.976,34.848,34.848,34.848c10.512,0,18.864-3.6,24.624-9.504c1.44-1.439,1.152-3.456,0.145-4.752
				l-7.344-9.648c-1.008-1.296-2.736-1.296-4.176,0c-2.88,2.016-8.352,4.176-12.672,4.176c-9.072,0-13.824-6.336-13.824-11.52h41.04
				c1.44,0,3.024-1.152,3.168-2.88c0.144-1.008,0.288-3.312,0.288-4.32c0-18.288-14.688-31.104-31.536-31.104
				C139.246,88.032,124.414,104.016,124.414,122.736z M148.462,113.664c0.864-4.464,4.464-8.208,9.936-8.208
				c5.616,0,9.36,3.744,9.648,8.208H148.462z M198.694,105.744c0,28.8,23.184,51.695,51.984,51.695
				c12.816,0,25.2-4.463,34.992-13.967c1.008-1.009,1.152-2.881,0.144-3.889l-11.232-11.952c-0.864-1.008-2.736-1.008-3.744-0.144
				c-5.184,4.464-11.376,6.912-19.296,6.912c-16.272,0-28.368-13.248-28.368-29.232c0-16.128,11.952-29.664,28.224-29.664
				c7.056,0,13.536,2.16,19.44,7.344c1.008,1.008,2.592,1.008,3.6,0l11.232-11.664c1.152-1.152,1.152-2.88-0.144-4.032
				c-9.792-8.928-20.448-13.392-34.848-13.392C221.878,53.76,198.694,76.944,198.694,105.744z M293.02,122.592
				c0,19.008,15.696,34.992,34.704,34.992c19.008,0,34.56-15.984,34.56-34.992c0-18.72-15.552-34.56-34.56-34.56
				C308.716,88.032,293.02,103.872,293.02,122.592z M313.756,122.592c0-7.632,6.192-14.112,13.968-14.112
				c7.632,0,13.824,6.48,13.824,14.112c0,7.776-6.192,14.4-13.824,14.4C319.948,136.992,313.756,130.368,313.756,122.592z
				 M374.533,152.832c0,1.729,1.296,3.168,3.168,3.168h15.552c1.584,0,3.168-1.439,3.168-3.168v-32.976
				c0-6.768,3.456-11.376,10.224-11.376c7.345,0,8.496,5.472,8.496,12.24v32.112c0,1.729,1.44,3.168,3.168,3.168h15.696
				c1.872,0,3.024-1.439,3.024-3.168v-33.264c0-6.48,3.6-11.088,9.359-11.088c7.776,0,9.792,5.472,9.792,12.24v32.112
				c0,1.729,1.296,3.168,3.168,3.168h15.553c1.728,0,3.168-1.439,3.168-3.168v-31.104c0-18.864-6.769-33.696-27.216-33.696
				c-11.377,0-17.568,6.336-21.024,10.08c-6.048-6.624-10.512-10.08-19.729-10.08c-10.8,0-16.271,5.76-20.592,10.08l-2.736-6.768
				c-0.432-1.152-1.584-1.872-2.736-1.872h-6.336c-1.872,0-3.168,1.296-3.168,3.168V152.832z M515.534,153.695
				c2.16,1.584,8.928,3.889,15.408,3.889c17.712,0,32.831-11.52,32.831-34.992c0-19.008-13.968-34.56-32.688-34.56
				c-14.688,0-22.464,10.224-22.464,10.224l-1.872-5.472c-0.576-1.728-1.872-3.312-3.456-3.312h-6.479
				c-1.729,0-3.168,1.584-3.168,3.168v94.463c0,1.729,1.439,3.168,3.168,3.168h15.552c1.728,0,3.168-1.439,3.168-3.168V153.695z
				 M513.662,122.736c0-7.92,5.904-14.256,14.111-14.256c7.921,0,14.112,6.336,14.112,14.256c0,8.064-6.191,14.256-14.112,14.256
				C519.566,136.992,513.662,130.8,513.662,122.736z M572.442,135.696c0,13.248,9.936,21.888,23.04,21.888
				c10.512,0,16.128-4.752,20.16-8.208l2.159,4.464c0.864,1.872,2.017,2.16,3.024,2.16h7.056c1.584,0,3.168-1.439,3.168-3.168
				v-36.72c0-19.728-7.2-28.08-27.792-28.08c-8.928,0-20.592,1.584-22.176,2.16c-1.439,0.432-3.024,1.728-2.592,4.608l1.584,10.224
				c0.288,2.448,1.439,4.32,4.031,3.456c4.32-1.296,12.097-2.304,16.705-2.304c7.775,0,9.216,3.744,9.216,10.224
				c0,0-5.616-2.88-13.104-2.88C581.802,113.52,572.442,122.88,572.442,135.696z M593.898,134.112c0-3.888,3.312-7.344,7.344-7.344
				c4.031,0,7.488,3.456,7.488,7.344c0,4.032-3.457,7.344-7.488,7.344C597.21,141.456,593.898,138.144,593.898,134.112z
				 M646.783,152.832c0,1.729,1.439,3.168,3.168,3.168h15.12c2.448,0,3.6-1.152,3.6-3.168v-34.848c0-5.616,3.744-9.216,8.784-9.216
				c1.439,0,3.888,0.576,5.04,1.008c1.872,0.72,3.024-0.288,3.744-1.584l6.624-13.104c0.72-1.296,0.72-2.736-0.433-3.6
				c-2.448-1.872-6.911-3.456-12.96-3.456c-8.64,0-13.68,5.472-16.56,10.8l-3.024-7.344c-0.432-1.152-1.296-2.016-3.023-2.016
				h-6.912c-1.729,0-3.168,1.296-3.168,3.168V152.832z M696.195,122.736c0,20.592,14.976,34.848,34.848,34.848
				c10.512,0,18.864-3.6,24.624-9.504c1.44-1.439,1.152-3.456,0.144-4.752l-7.344-9.648c-1.008-1.296-2.736-1.296-4.176,0
				c-2.88,2.016-8.352,4.176-12.672,4.176c-9.072,0-13.824-6.336-13.824-11.52h41.04c1.44,0,3.024-1.152,3.168-2.88
				c0.144-1.008,0.288-3.312,0.288-4.32c0-18.288-14.688-31.104-31.536-31.104C711.027,88.032,696.195,104.016,696.195,122.736z
				 M720.243,113.664c0.864-4.464,4.464-8.208,9.936-8.208c5.616,0,9.36,3.744,9.648,8.208H720.243z M770.167,141.888
				c0,8.496,7.2,15.696,15.696,15.696s15.983-7.2,15.983-15.696c0-8.784-7.487-15.984-15.983-15.984
				S770.167,133.104,770.167,141.888z M810.52,122.736c0,20.016,16.129,34.848,35.137,34.848c11.951,0,20.592-4.607,26.783-13.824
				c1.152-1.728,0.289-3.312-1.151-4.752l-9.36-8.064c-0.863-1.152-2.592-0.864-3.744,0.576c-2.88,2.88-5.76,5.472-11.951,5.472
				c-7.633,0-13.824-6.192-13.824-14.256c0-7.488,6.479-14.256,14.111-14.256c4.177,0,7.488,2.304,10.225,4.752
				c1.296,1.152,3.023,1.008,3.744,0.288l9.359-9.072c1.584-1.296,2.16-3.168,0.864-4.752c-6.336-7.488-14.399-11.664-24.912-11.664
				C826.792,88.032,810.52,103.152,810.52,122.736z M878.723,122.592c0,19.008,15.696,34.992,34.704,34.992
				c19.009,0,34.561-15.984,34.561-34.992c0-18.72-15.552-34.56-34.561-34.56C894.419,88.032,878.723,103.872,878.723,122.592z
				 M899.459,122.592c0-7.632,6.192-14.112,13.968-14.112c7.632,0,13.824,6.48,13.824,14.112c0,7.776-6.192,14.4-13.824,14.4
				C905.651,136.992,899.459,130.368,899.459,122.592z M960.236,152.832c0,1.729,1.296,3.168,3.168,3.168h15.552
				c1.584,0,3.168-1.439,3.168-3.168v-32.976c0-6.768,3.456-11.376,10.224-11.376c7.345,0,8.492,5.472,8.492,12.24v32.112
				c0,1.729,1.44,3.168,3.17,3.168h15.7c1.87,0,3.021-1.439,3.021-3.168v-33.264c0-6.48,3.6-11.088,9.359-11.088
				c7.78,0,9.79,5.472,9.79,12.24v32.112c0,1.729,1.3,3.168,3.17,3.168h15.55c1.73,0,3.17-1.439,3.17-3.168v-31.104
				c0-18.864-6.77-33.696-27.209-33.696c-11.381,0-17.57,6.336-21.03,10.08c-6.05-6.624-10.511-10.08-19.727-10.08
				c-10.8,0-16.271,5.76-20.592,10.08l-2.735-6.768c-0.433-1.152-1.584-1.872-2.736-1.872h-6.336c-1.872,0-3.168,1.296-3.168,3.168
				V152.832z"/>
			<path id="The_Comparison_Peopl" fill="#A3A7B2" d="M14.256,256.632c0,0.72,0.648,1.368,1.368,1.368h6.696
				c0.72,0,1.368-0.648,1.368-1.368V216.24h11.016c0.792,0,1.368-0.648,1.368-1.368v-5.904c0-0.72-0.576-1.368-1.368-1.368H3.24
				c-0.792,0-1.368,0.648-1.368,1.368v5.904c0,0.72,0.576,1.368,1.368,1.368h11.016V256.632z M40.955,256.416
				c0,0.863,0.792,1.584,1.584,1.584h5.688c1.296,0,1.728-0.648,1.728-1.584v-18.359c0.864-3.385,3.024-5.832,6.912-5.832
				c3.96,0,6.048,2.808,6.048,7.416v16.775c0,0.863,0.72,1.584,1.584,1.584h5.832c0.792,0,1.584-0.721,1.584-1.584v-16.704
				c0-8.353-2.88-15.696-13.464-15.696c-3.96,0-6.84,1.368-8.496,2.809v-17.641c0-0.791-0.72-1.584-1.584-1.584h-5.832
				c-0.792,0-1.584,0.793-1.584,1.584V256.416z M77.465,241.368c0,9.504,6.912,17.424,16.848,17.424c5.4,0,9.503-2.088,12.384-4.536
				c0.792-0.72,0.72-1.512,0.144-2.16l-2.808-3.744c-0.504-0.72-1.368-0.647-2.16,0c-1.512,1.225-3.815,2.448-7.127,2.448
				c-4.824,0-8.208-3.6-8.28-7.704h21.312c0.72,0,1.512-0.647,1.584-1.512c0.072-0.504,0.144-1.656,0.144-2.16
				c0-9-6.624-15.408-15.264-15.408C84.377,224.016,77.465,232.008,77.465,241.368z M86.969,237.191
				c0.432-3.312,3.024-5.76,7.056-5.76c3.672,0,6.264,2.521,6.408,5.76H86.969z M129.712,232.872
				c0,14.399,11.592,25.849,25.992,25.849c6.408,0,12.6-2.232,17.496-6.984c0.504-0.504,0.648-1.44,0.072-1.944l-4.464-4.608
				c-0.432-0.432-1.224-0.504-1.8,0c-3.024,2.448-6.696,4.104-11.016,4.104c-9.216,0-16.128-7.632-16.128-16.632
				c0-9.072,6.84-16.776,16.056-16.776c4.032,0,8.064,1.584,11.088,4.248c0.576,0.576,1.296,0.576,1.8,0l4.392-4.536
				c0.576-0.576,0.576-1.439-0.072-2.016c-4.896-4.393-10.152-6.696-17.424-6.696C141.304,206.88,129.712,218.473,129.712,232.872z
				 M176.733,241.296c0,9.504,7.632,17.496,16.992,17.496c9.432,0,17.064-7.992,17.064-17.496c0-9.36-7.632-17.28-17.064-17.28
				C184.365,224.016,176.733,231.936,176.733,241.296z M185.085,241.296c0-5.04,3.816-9.071,8.64-9.071
				c4.824,0,8.712,4.031,8.712,9.071c0,5.112-3.888,9.288-8.712,9.288C188.901,250.584,185.085,246.408,185.085,241.296z
				 M216.713,256.416c0,0.863,0.792,1.584,1.584,1.584h5.832c0.792,0,1.584-0.721,1.584-1.584v-19.008
				c0.792-2.305,2.304-5.184,6.408-5.184c4.248,0,5.472,2.664,5.472,6.983v17.208c0,0.863,0.648,1.584,1.584,1.584h5.904
				c0.792,0,1.584-0.721,1.584-1.584v-17.568c0-1.512-0.144-3.168-0.144-3.168s1.368-3.455,6.192-3.455
				c4.176,0,5.76,2.664,5.76,6.983v17.208c0,0.863,0.72,1.584,1.584,1.584h5.76c0.936,0,1.656-0.721,1.656-1.584v-16.992
				c0-8.64-2.52-15.408-13.176-15.408c-5.976,0-9.288,3.528-10.728,5.041c-2.736-3.313-5.112-5.041-9.936-5.041
				c-5.832,0-8.784,3.24-10.152,4.824l-1.224-3.168c-0.144-0.576-0.648-0.936-1.368-0.936h-2.592c-0.792,0-1.584,0.647-1.584,1.584
				V256.416z M308.618,241.439c0-10.08-6.84-17.424-15.912-17.424c-7.056,0-10.872,4.969-10.872,4.969l-0.864-2.664
				c-0.288-0.937-0.792-1.584-1.584-1.584h-2.664c-0.864,0-1.584,0.72-1.584,1.584v47.231c0,0.792,0.72,1.584,1.584,1.584h5.832
				c0.792,0,1.584-0.792,1.584-1.584v-16.128c1.512,0.576,4.68,1.368,7.992,1.368C302.066,258.792,308.618,251.16,308.618,241.439z
				 M284.138,236.832c0.72-1.872,3.024-4.607,7.344-4.607c5.184,0,7.848,4.535,7.848,9.215c0,4.681-2.808,9.145-8.28,9.145
				c-4.176,0-6.912-1.872-6.912-1.872V236.832z M312.415,247.416c0,7.128,4.608,11.376,11.232,11.376
				c5.184,0,8.496-2.304,10.44-4.176l0.936,2.231c0.432,0.937,0.864,1.152,1.44,1.152h2.448c0.864,0,1.584-0.721,1.584-1.584
				v-17.928c0-9.072-2.16-14.473-12.528-14.473c-5.4,0-10.656,1.368-11.376,1.656c-0.72,0.217-1.368,0.792-1.08,2.016l0.72,3.744
				c0.144,1.008,0.792,1.801,1.872,1.44c1.944-0.576,6.336-1.224,9.36-1.224c3.528,0,4.752,2.016,4.608,6.264
				c0,0-3.024-0.936-6.408-0.936C317.239,236.977,312.415,241.512,312.415,247.416z M321.055,247.416
				c0-2.952,2.088-4.752,5.904-4.752c2.664,0,4.896,1.008,4.896,1.008v4.896c-0.432,1.224-3.024,3.527-5.976,3.527
				C322.783,252.096,321.055,250.225,321.055,247.416z M348.253,256.416c0,0.863,0.792,1.584,1.584,1.584h5.544
				c1.08,0,1.872-0.359,1.872-1.584V235.68c0.576-1.152,2.736-3.455,6.336-3.455c1.512,0,2.304,0.287,3.096,0.647
				s1.584,0.071,1.944-0.72l2.16-4.896c0.936-2.16-2.304-3.24-6.264-3.24c-5.112,0-8.208,3.385-9.36,5.041l-1.224-3.24
				c-0.288-0.721-0.648-1.08-1.44-1.08h-2.664c-0.792,0-1.584,0.647-1.584,1.584V256.416z M374.897,256.416
				c0,0.863,0.792,1.584,1.584,1.584h5.832c0.792,0,1.584-0.721,1.584-1.584V226.32c0-0.937-0.792-1.584-1.584-1.584h-5.832
				c-0.792,0-1.584,0.647-1.584,1.584V256.416z M379.289,219.048c3.24,0,5.76-2.592,5.76-5.76s-2.52-5.688-5.76-5.688
				c-3.24,0-5.688,2.521-5.688,5.688S376.049,219.048,379.289,219.048z M401.771,258.792c8.353,0,12.816-4.681,12.816-9.937
				c0-6.623-4.607-8.928-11.016-11.52c-3.097-1.296-4.752-2.088-4.752-3.6c0-1.08,0.936-2.16,3.168-2.16
				c2.735,0,5.04,0.936,6.624,1.656c0.72,0.287,1.584,0.144,2.088-0.648l1.872-3.816c0.432-0.863,0-1.728-0.721-2.304
				c-1.8-1.151-4.968-2.448-9.863-2.448c-8.136,0-11.952,4.68-11.952,9.721c0,5.039,2.88,8.063,9.288,10.512
				c4.392,1.729,6.264,3.096,6.264,4.607c0,1.44-1.152,2.377-3.672,2.377c-3.456,0-5.832-1.225-7.344-2.16
				c-0.792-0.504-1.584-0.217-1.944,0.576l-2.16,4.319c-0.36,0.72,0,1.513,0.432,1.8
				C392.772,257.064,396.228,258.792,401.771,258.792z M418.434,241.296c0,9.504,7.633,17.496,16.992,17.496
				c9.433,0,17.064-7.992,17.064-17.496c0-9.36-7.632-17.28-17.064-17.28C426.066,224.016,418.434,231.936,418.434,241.296z
				 M426.786,241.296c0-5.04,3.815-9.071,8.64-9.071s8.712,4.031,8.712,9.071c0,5.112-3.888,9.288-8.712,9.288
				S426.786,246.408,426.786,241.296z M458.414,256.416c0,0.863,0.792,1.584,1.584,1.584h5.328c1.584,0,2.088-0.359,2.088-1.584
				v-19.008c0.792-2.305,2.88-5.184,7.2-5.184c4.032,0,5.76,2.664,5.76,6.983v17.208c0,0.863,0.72,1.584,1.584,1.584h5.832
				c0.792,0,1.584-0.721,1.584-1.584v-17.208c0-8.063-2.736-15.192-13.32-15.192c-6.407,0-9.504,3.457-10.728,4.824l-1.225-3.096
				c-0.216-0.648-0.575-1.008-1.367-1.008h-2.736c-0.792,0-1.584,0.647-1.584,1.584V256.416z M514.62,256.632
				c0,0.72,0.576,1.368,1.368,1.368h6.624c0.72,0,1.368-0.648,1.368-1.368v-16.92h9c8.783,0,16.056-7.272,16.056-16.2
				c0-8.712-7.272-15.912-16.128-15.912h-16.92c-0.792,0-1.368,0.648-1.368,1.368V256.632z M523.98,230.928v-14.472h8.64
				c4.032,0,7.128,3.024,7.128,6.983c0,4.248-3.096,7.488-7.128,7.488H523.98z M550.181,241.368c0,9.504,6.912,17.424,16.849,17.424
				c5.399,0,9.504-2.088,12.384-4.536c0.792-0.72,0.72-1.512,0.144-2.16l-2.808-3.744c-0.504-0.72-1.368-0.647-2.16,0
				c-1.512,1.225-3.815,2.448-7.128,2.448c-4.824,0-8.208-3.6-8.28-7.704h21.313c0.72,0,1.512-0.647,1.584-1.512
				c0.071-0.504,0.144-1.656,0.144-2.16c0-9-6.624-15.408-15.264-15.408C557.093,224.016,550.181,232.008,550.181,241.368z
				 M559.686,237.191c0.432-3.312,3.023-5.76,7.056-5.76c3.672,0,6.264,2.521,6.407,5.76H559.686z M585.754,241.296
				c0,9.504,7.632,17.496,16.992,17.496c9.432,0,17.064-7.992,17.064-17.496c0-9.36-7.633-17.28-17.064-17.28
				C593.386,224.016,585.754,231.936,585.754,241.296z M594.105,241.296c0-5.04,3.816-9.071,8.641-9.071s8.712,4.031,8.712,9.071
				c0,5.112-3.888,9.288-8.712,9.288S594.105,246.408,594.105,241.296z M659.215,241.439c0-10.08-6.84-17.424-15.912-17.424
				c-7.056,0-10.872,4.969-10.872,4.969l-0.863-2.664c-0.288-0.937-0.792-1.584-1.585-1.584h-2.663c-0.864,0-1.584,0.72-1.584,1.584
				v47.231c0,0.792,0.72,1.584,1.584,1.584h5.832c0.792,0,1.584-0.792,1.584-1.584v-16.128c1.512,0.576,4.68,1.368,7.991,1.368
				C652.663,258.792,659.215,251.16,659.215,241.439z M634.735,236.832c0.72-1.872,3.023-4.607,7.344-4.607
				c5.184,0,7.848,4.535,7.848,9.215c0,4.681-2.808,9.145-8.28,9.145c-4.176,0-6.911-1.872-6.911-1.872V236.832z M665.388,256.416
				c0,0.863,0.792,1.584,1.584,1.584h5.832c0.792,0,1.584-0.721,1.584-1.584v-47.232c0-0.791-0.792-1.584-1.584-1.584h-5.832
				c-0.792,0-1.584,0.793-1.584,1.584V256.416z M680.451,241.368c0,9.504,6.912,17.424,16.848,17.424
				c5.4,0,9.504-2.088,12.384-4.536c0.792-0.72,0.721-1.512,0.145-2.16l-2.808-3.744c-0.505-0.72-1.368-0.647-2.16,0
				c-1.513,1.225-3.816,2.448-7.129,2.448c-4.823,0-8.207-3.6-8.279-7.704h21.312c0.72,0,1.513-0.647,1.584-1.512
				c0.072-0.504,0.145-1.656,0.145-2.16c0-9-6.624-15.408-15.265-15.408C687.363,224.016,680.451,232.008,680.451,241.368z
				 M689.955,237.191c0.432-3.312,3.023-5.76,7.056-5.76c3.672,0,6.265,2.521,6.408,5.76H689.955z"/>
		</g>
		<path id="TM_Copy_x5F_white" fill="#A3A7B2" d="M1133.39,83.542c-0.079,0.25-0.329,0.458-0.71,0.458h-0.75
			c-0.369,0-0.58-0.208-0.71-0.458l-7.37-16.375h-0.13l-2.409,15.792c-0.051,0.292-0.381,0.625-0.75,0.625h-3.75
			c-0.551,0-0.881-0.375-0.801-0.958l4.96-28c0.04-0.333,0.29-0.625,0.75-0.625h0.67c0.33,0,0.58,0.167,0.71,0.417l9.16,19.667h0.13
			l9.171-19.667c0.119-0.25,0.329-0.417,0.699-0.417h0.67c0.46,0,0.71,0.292,0.75,0.625l4.92,28c0.12,0.583-0.21,0.958-0.75,0.958
			h-3.789c-0.381,0-0.711-0.333-0.801-0.625l-2.449-15.792h-0.131L1133.39,83.542z M1107.63,82.792c0,0.417-0.38,0.792-0.8,0.792
			h-3.87c-0.42,0-0.79-0.375-0.79-0.792V59.417h-6.38c-0.46,0-0.79-0.375-0.79-0.792v-3.417c0-0.417,0.33-0.792,0.79-0.792H1114
			c0.46,0,0.79,0.375,0.79,0.792v3.417c0,0.417-0.33,0.792-0.79,0.792h-6.37V82.792z"/>
	</g>
</g>
<g id="Layer_2">
	<g display="none">
		<defs>
			<rect id="SVGID_1_" x="568.5" y="8.96" width="547.52" height="218.206"/>
		</defs>
		<use xlink:href="#SVGID_1_"  overflow="visible" fill="#A3A3A3"/>
		<clipPath id="SVGID_2_" display="inline">
			<use xlink:href="#SVGID_1_"  display="none" overflow="visible"/>
		</clipPath>
		<g display="inline" clip-path="url(#SVGID_2_)">
			<g>
				<path fill-rule="evenodd" clip-rule="evenodd" fill="#FFFFFF" d="M569.072,20.415c0-3.626,0-7.253,0-10.88
					c182.661,0,365.322,0,548.037,0c0,72.684,0,145.369,0,218.129c-182.643,0-365.34,0-548.037,0c0-44.996,0-90.041,0-135.086
					c4.408,2.256,8.763,4.624,13.245,6.723c2.311,1.081,3.084,2.501,3.078,5.076c-0.09,36.843-0.062,73.687-0.061,110.529
					c0,5.551,1.974,7.641,7.609,7.995c1.236,0.077,2.48,0.022,3.722,0.022c127.232,0.001,254.466,0.014,381.699-0.064
					c3.602-0.002,6.658,0.659,9.586,2.78c1.287,0.933,3.139,1.522,4.735,1.526c34.647,0.084,69.296,0.075,103.943,0.021
					c1.364-0.002,2.885-0.346,4.066-1.007c4.578-2.559,9.12-5.2,13.507-8.07c1.039-0.68,2.017-2.363,2.02-3.588
					c0.104-40.565,0.102-81.131,0.001-121.697c-0.003-1.12-0.989-2.672-1.976-3.277c-3.326-2.041-6.799-3.874-10.335-5.533
					c-2.304-1.081-3.083-2.52-3.067-5.093c0.115-19.185,0.065-38.37,0.059-57.555c-0.001-3.552-0.994-5.069-4.495-5.926
					c-2.093-0.512-4.333-0.58-6.507-0.58c-134.392-0.025-268.783-0.032-403.175,0.03c-3.212,0.002-5.875-0.748-8.526-2.543
					c-1.719-1.163-3.95-2.201-5.957-2.211c-27.68-0.143-55.36-0.119-83.04-0.038c-1.617,0.005-3.392,0.565-4.819,1.359
					C579.217,14.33,574.167,17.412,569.072,20.415z"/>
				<path fill-rule="evenodd" clip-rule="evenodd" d="M569.072,20.415c5.095-3.002,10.145-6.084,15.313-8.956
					c1.428-0.794,3.202-1.354,4.819-1.359c27.68-0.081,55.36-0.104,83.04,0.038c2.007,0.01,4.238,1.048,5.957,2.211
					c2.651,1.795,5.314,2.545,8.526,2.543c134.392-0.062,268.783-0.055,403.175-0.03c2.174,0,4.414,0.068,6.507,0.58
					c3.501,0.857,4.494,2.374,4.495,5.926c0.007,19.185,0.057,38.371-0.059,57.555c-0.016,2.573,0.764,4.012,3.067,5.093
					c3.536,1.659,7.009,3.492,10.335,5.533c0.986,0.605,1.973,2.157,1.976,3.277c0.101,40.565,0.104,81.131-0.001,121.697
					c-0.003,1.225-0.98,2.908-2.02,3.588c-4.387,2.87-8.929,5.512-13.507,8.07c-1.182,0.661-2.702,1.005-4.066,1.007
					c-34.647,0.054-69.296,0.063-103.943-0.021c-1.597-0.004-3.448-0.594-4.735-1.526c-2.928-2.121-5.984-2.782-9.586-2.78
					c-127.233,0.078-254.467,0.065-381.699,0.064c-1.241,0-2.485,0.055-3.722-0.022c-5.636-0.354-7.609-2.444-7.609-7.995
					c-0.001-36.843-0.029-73.687,0.061-110.529c0.006-2.575-0.768-3.995-3.078-5.076c-4.482-2.099-8.837-4.467-13.245-6.723
					C569.072,68.523,569.072,44.469,569.072,20.415z M843.308,15.614c-81.984,0-163.969,0-245.953,0
					c-1.146,0-2.292-0.024-3.436,0.011c-4.796,0.146-6.554,1.905-6.555,6.617c-0.005,64.328-0.005,128.655,0,192.982
					c0.001,4.807,1.302,6.243,6.11,6.786c0.944,0.105,1.906,0.084,2.859,0.084c164.541,0.004,329.082,0.004,493.623-0.01
					c1.327,0,2.686-0.047,3.977-0.321c3.529-0.75,4.967-2.575,4.967-6.187c0.007-64.613,0.008-129.228-0.002-193.842
					c0-3.846-1.526-5.565-5.348-6.037c-1.224-0.151-2.478-0.081-3.718-0.082C1007.658,15.614,925.482,15.614,843.308,15.614z"/>
				<path fill-rule="evenodd" clip-rule="evenodd" fill="#FFFFFF" d="M843.308,15.614c82.175,0,164.351,0,246.525,0.002
					c1.24,0,2.494-0.069,3.718,0.082c3.821,0.472,5.348,2.191,5.348,6.037c0.01,64.614,0.009,129.229,0.002,193.842
					c0,3.611-1.438,5.437-4.967,6.187c-1.291,0.274-2.649,0.321-3.977,0.321c-164.541,0.014-329.082,0.014-493.623,0.01
					c-0.953,0-1.915,0.021-2.859-0.084c-4.809-0.543-6.109-1.979-6.11-6.786c-0.005-64.327-0.005-128.654,0-192.982
					c0.001-4.712,1.759-6.47,6.555-6.617c1.144-0.035,2.29-0.011,3.436-0.011C679.339,15.614,761.323,15.614,843.308,15.614z"/>
			</g>
		</g>
	</g>
	<text transform="matrix(1 0 0 1 17 184)" fill="#A3A3A3" font-family="'Kiona-Regular'" font-size="192">JAIKA BIMA</text>
	<text transform="matrix(1 0 0 1 612 259)" fill="#A3A3A3" font-family="'JosefinSans-Bold'" font-size="36">Made just for you.</text>
	
		<image overflow="visible" width="956" height="381" xlink:href="../../../../../Jaikabima/Logo back.png"  transform="matrix(0.5889 0 0 0.5889 575 5.5947)">
	</image>
</g>
</svg>
